<?xml version="1.0" encoding="UTF-8"?>
<svg width="91px" height="24px" viewBox="0 0 91 24" version="1.1" xmlns="http://www.w3.org/2000/svg" xmlns:xlink="http://www.w3.org/1999/xlink">
    <!-- Generator: Sketch 52.6 (67491) - http://www.bohemiancoding.com/sketch -->
    <title>Combined Shape</title>
    <desc>Created with Sketch.</desc>
    <g id="Web-V2" stroke="none" stroke-width="1" fill="none" fill-rule="evenodd">
        <g id="Desktop-HD-Copy" transform="translate(-30.000000, -20.000000)" fill="#7692FF" fill-rule="nonzero">
            <path d="M33.9530103,34.0195318 C33.9530103,32.1027624 35.1558337,30.6037891 36.997812,30.6037891 C38.8998572,30.6037891 39.9790529,31.9583783 39.9790529,33.9503008 L39.9790529,43.480767 L43.8685024,43.480767 L43.8685024,33.9849163 C43.8685024,32.0919623 45.0829803,30.6037891 46.9450845,30.6037891 C48.8213345,30.6037891 49.8945449,31.9638184 49.8945449,33.9503008 L49.8945449,43.480767 L53.6886531,43.480767 L53.6886531,32.7733727 C53.6886531,28.9868454 50.5338507,26.6352286 46.9450845,26.6352286 C44.8980953,26.6352286 43.3378282,27.4681099 42.2140236,29.2257322 L41.7848801,29.8969096 L41.446954,29.1754879 C40.742193,27.6709287 38.7962497,26.6352286 36.6647514,26.6352286 C33.13254,26.6352286 30,29.2711983 30,32.7994713 L30,43.480767 L33.9530103,43.480767 L33.9530103,34.0195318 Z M63.8884084,29.8768629 C65.660593,29.8768629 66.8382719,30.832219 66.8382719,32.1849086 C66.8382719,33.0627402 66.2919997,33.6368987 65.2282715,33.7954775 L61.2004977,34.419041 C58.3350852,34.841021 56.5188614,36.5652736 56.5188614,39.1772461 C56.5188614,41.8763346 58.7064942,43.9653845 61.9965164,43.9653845 C64.0202869,43.9653845 65.579588,43.1474178 66.4384899,41.751188 L67.2510483,40.4302942 L67.2510483,41.9811042 C67.2510483,42.6291 67.2901034,43.1251337 67.3449968,43.480767 L71.1865389,43.480767 C71.1142574,42.8929373 71.0515671,42.050304 71.0515671,41.254178 L71.0515671,32.8426037 C71.0515671,29.0269514 68.7001559,26.6352286 63.9228064,26.6352286 C59.9538015,26.6352286 57.3453236,28.8647659 56.9085834,31.5597167 L60.6027301,32.3201153 C60.9319384,30.9050661 62.1727702,29.8768629 63.8884084,29.8768629 Z M63.2692437,41.0352899 C61.7191507,41.0352899 60.8009527,40.1112862 60.8009527,38.8310908 C60.8009527,37.4768588 61.6608203,36.7197174 63.0964758,36.4939802 L66.8382719,35.8931097 L66.8382719,37.1695452 C66.8382719,39.7671598 65.4114768,41.0352899 63.2692437,41.0352899 Z M74.5151039,43.480767 L78.190171,43.480767 L78.190171,27.579018 C77.6060956,27.78266 76.9874086,27.8885052 76.3540994,27.8885052 L76.3511751,27.8885052 C75.717866,27.8885052 75.0991792,27.7826601 74.5151039,27.579018 L74.5151039,43.480767 Z M78.6718617,22.3130198 C78.6718617,21.0355742 77.6362875,20 76.3588419,20 C75.078441,20 74.0428667,21.0355742 74.0428667,22.3130198 C74.0428667,23.5904654 75.078441,24.6260396 76.3558866,24.6260396 C77.6362875,24.6260396 78.6718617,23.5904654 78.6718617,22.3130198 Z M97.4093816,43.480767 L101.084449,43.480767 L101.084449,27.579018 C100.500373,27.78266 99.8816863,27.8885052 99.2483772,27.8885052 L99.2454528,27.8885052 C98.6121437,27.8885052 97.9934569,27.7826601 97.4093816,27.579018 L97.4093816,43.480767 Z M101.566139,22.3127637 C101.566139,21.0354687 100.530574,20 99.2531196,20 C97.9727096,20 96.9371445,21.0354687 96.9371445,22.3127637 C96.9371445,23.5900587 97.9727096,24.6255274 99.2501643,24.6255274 C100.530574,24.6255274 101.566139,23.5900587 101.566139,22.3127637 Z M88.1794912,44 C92.1381305,44 94.5514951,41.6821876 94.5514951,38.6233976 C94.5514951,36.1733909 92.8241611,34.3066924 89.6420845,33.6538073 L87.378156,33.2050141 C86.3630503,33.0192824 85.6768021,32.4150185 85.6768021,31.492598 C85.6768021,30.355006 86.7100182,29.5653231 87.973103,29.5653231 C89.4734147,29.5653231 90.4475895,30.359826 90.7660224,31.6051147 L94.262393,30.9628528 C93.8579349,28.5615203 91.6622034,26.6352286 87.9043069,26.6352286 C84.3847936,26.6352286 81.7730892,28.9531035 81.7730892,31.9079844 C81.7730892,34.3391787 83.3119482,36.0752286 86.5233508,36.7764736 L88.4791736,37.225388 C89.8357718,37.5205611 90.5101901,38.143614 90.5101901,39.0733995 C90.5101901,40.1864989 89.53679,41.0006744 88.0762971,41.0006744 C86.4141198,41.0006744 85.3032953,40.0786723 85.0204414,38.755331 L81.4380049,39.3980986 C81.8236473,41.8769715 84.1575397,44 88.1794912,44 Z M114.919801,40.114733 C116.032745,39.4721748 116.829839,38.434606 117.195443,37.2086916 L120.374303,37.3264364 C119.969367,39.69063 118.598679,41.7338342 116.540612,42.9220596 C112.648911,45.1689344 107.55763,43.6561724 105.17374,39.5271534 C102.789849,35.3981344 104.0254,30.2325747 107.917101,27.9857 C111.808802,25.7388252 116.900083,27.2515872 119.283973,31.3806062 C119.48764,31.7333675 119.666361,32.096233 119.819674,32.4672218 L108.480535,39.0138769 L108.937255,39.4177642 C110.622877,40.9083975 113.019803,41.2116974 114.919801,40.114733 Z M107.057918,36.0921231 L115.367061,31.2948373 L114.73387,30.9102107 C113.121196,29.9306052 111.144655,29.8653731 109.537912,30.7930266 C107.931169,31.7206801 106.999391,33.465031 107.041417,35.3514502 L107.057918,36.0921231 Z" id="Combined-Shape"></path>
        </g>
    </g>
</svg>