<?xml version="1.0" encoding="UTF-8"?>
<svg width="129px" height="61px" viewBox="0 0 129 61" version="1.1" xmlns="http://www.w3.org/2000/svg" xmlns:xlink="http://www.w3.org/1999/xlink">
    <!-- Generator: Sketch 52.6 (67491) - http://www.bohemiancoding.com/sketch -->
    <title>Combined-Shape</title>
    <desc>Created with Sketch.</desc>
    <defs>
        <path d="M23.9530103,32.0195318 C23.9530103,30.1027624 25.1558337,28.6037891 26.997812,28.6037891 C28.8998572,28.6037891 29.9790529,29.9583783 29.9790529,31.9503008 L29.9790529,41.480767 L33.8685024,41.480767 L33.8685024,31.9849163 C33.8685024,30.0919623 35.0829803,28.6037891 36.9450845,28.6037891 C38.8213345,28.6037891 39.8945449,29.9638184 39.8945449,31.9503008 L39.8945449,41.480767 L43.6886531,41.480767 L43.6886531,30.7733727 C43.6886531,26.9868454 40.5338507,24.6352286 36.9450845,24.6352286 C34.8980953,24.6352286 33.3378282,25.4681099 32.2140236,27.2257322 L31.7848801,27.8969096 L31.446954,27.1754879 C30.742193,25.6709287 28.7962497,24.6352286 26.6647514,24.6352286 C23.13254,24.6352286 20,27.2711983 20,30.7994713 L20,41.480767 L23.9530103,41.480767 L23.9530103,32.0195318 Z M53.8884084,27.8768629 C55.660593,27.8768629 56.8382719,28.832219 56.8382719,30.1849086 C56.8382719,31.0627402 56.2919997,31.6368987 55.2282715,31.7954775 L51.2004977,32.419041 C48.3350852,32.841021 46.5188614,34.5652736 46.5188614,37.1772461 C46.5188614,39.8763346 48.7064942,41.9653845 51.9965164,41.9653845 C54.0202869,41.9653845 55.579588,41.1474178 56.4384899,39.751188 L57.2510483,38.4302942 L57.2510483,39.9811042 C57.2510483,40.6291 57.2901034,41.1251337 57.3449968,41.480767 L61.1865389,41.480767 C61.1142574,40.8929373 61.0515671,40.050304 61.0515671,39.254178 L61.0515671,30.8426037 C61.0515671,27.0269514 58.7001559,24.6352286 53.9228064,24.6352286 C49.9538015,24.6352286 47.3453236,26.8647659 46.9085834,29.5597167 L50.6027301,30.3201153 C50.9319384,28.9050661 52.1727702,27.8768629 53.8884084,27.8768629 Z M53.2692437,39.0352899 C51.7191507,39.0352899 50.8009527,38.1112862 50.8009527,36.8310908 C50.8009527,35.4768588 51.6608203,34.7197174 53.0964758,34.4939802 L56.8382719,33.8931097 L56.8382719,35.1695452 C56.8382719,37.7671598 55.4114768,39.0352899 53.2692437,39.0352899 Z M64.5151039,41.480767 L68.190171,41.480767 L68.190171,25.579018 C67.6060956,25.78266 66.9874086,25.8885052 66.3540994,25.8885052 L66.3511751,25.8885052 C65.717866,25.8885052 65.0991792,25.7826601 64.5151039,25.579018 L64.5151039,41.480767 Z M68.6718617,20.3130198 C68.6718617,19.0355742 67.6362875,18 66.3588419,18 C65.078441,18 64.0428667,19.0355742 64.0428667,20.3130198 C64.0428667,21.5904654 65.078441,22.6260396 66.3558866,22.6260396 C67.6362875,22.6260396 68.6718617,21.5904654 68.6718617,20.3130198 Z M87.4093816,41.480767 L91.084449,41.480767 L91.084449,25.579018 C90.500373,25.78266 89.8816863,25.8885052 89.2483772,25.8885052 L89.2454528,25.8885052 C88.6121437,25.8885052 87.9934569,25.7826601 87.4093816,25.579018 L87.4093816,41.480767 Z M91.566139,20.3127637 C91.566139,19.0354687 90.530574,18 89.2531196,18 C87.9727096,18 86.9371445,19.0354687 86.9371445,20.3127637 C86.9371445,21.5900587 87.9727096,22.6255274 89.2501643,22.6255274 C90.530574,22.6255274 91.566139,21.5900587 91.566139,20.3127637 Z M78.1794912,42 C82.1381305,42 84.5514951,39.6821876 84.5514951,36.6233976 C84.5514951,34.1733909 82.8241611,32.3066924 79.6420845,31.6538073 L77.378156,31.2050141 C76.3630503,31.0192824 75.6768021,30.4150185 75.6768021,29.492598 C75.6768021,28.355006 76.7100182,27.5653231 77.973103,27.5653231 C79.4734147,27.5653231 80.4475895,28.359826 80.7660224,29.6051147 L84.262393,28.9628528 C83.8579349,26.5615203 81.6622034,24.6352286 77.9043069,24.6352286 C74.3847936,24.6352286 71.7730892,26.9531035 71.7730892,29.9079844 C71.7730892,32.3391787 73.3119482,34.0752286 76.5233508,34.7764736 L78.4791736,35.225388 C79.8357718,35.5205611 80.5101901,36.143614 80.5101901,37.0733995 C80.5101901,38.1864989 79.53679,39.0006744 78.0762971,39.0006744 C76.4141198,39.0006744 75.3032953,38.0786723 75.0204414,36.755331 L71.4380049,37.3980986 C71.8236473,39.8769715 74.1575397,42 78.1794912,42 Z M104.919801,38.114733 C106.032745,37.4721748 106.829839,36.434606 107.195443,35.2086916 L110.374303,35.3264364 C109.969367,37.69063 108.598679,39.7338342 106.540612,40.9220596 C102.648911,43.1689344 97.55763,41.6561724 95.17374,37.5271534 C92.789849,33.3981344 94.0254,28.2325747 97.917101,25.9857 C101.808802,23.7388252 106.900083,25.2515872 109.283973,29.3806062 C109.48764,29.7333675 109.666361,30.096233 109.819674,30.4672218 L98.480535,37.0138769 L98.937255,37.4177642 C100.622877,38.9083975 103.019803,39.2116974 104.919801,38.114733 Z M97.057918,34.0921231 L105.367061,29.2948373 L104.73387,28.9102107 C103.121196,27.9306052 101.144655,27.8653731 99.537912,28.7930266 C97.931169,29.7206801 96.999391,31.465031 97.041417,33.3514502 L97.057918,34.0921231 Z" id="path-1"></path>
        <filter x="-33.2%" y="-125.0%" width="166.4%" height="350.0%" filterUnits="objectBoundingBox" id="filter-2">
            <feOffset dx="0" dy="0" in="SourceAlpha" result="shadowOffsetOuter1"></feOffset>
            <feGaussianBlur stdDeviation="10" in="shadowOffsetOuter1" result="shadowBlurOuter1"></feGaussianBlur>
            <feColorMatrix values="0 0 0 0 0.0196078431   0 0 0 0 0.176470588   0 0 0 0 0.329411765  0 0 0 0.5 0" type="matrix" in="shadowBlurOuter1"></feColorMatrix>
        </filter>
    </defs>
    <g id="Web-V2" stroke="none" stroke-width="1" fill="none" fill-rule="evenodd">
        <g id="Combined-Shape" fill-rule="nonzero">
            <use fill="black" fill-opacity="1" filter="url(#filter-2)" xlink:href="#path-1"></use>
            <use fill="#FFFFFF" xlink:href="#path-1"></use>
        </g>
    </g>
</svg>