<?xml version="1.0" encoding="UTF-8"?>
<svg width="90px" height="24px" viewBox="0 0 90 24" version="1.1" xmlns="http://www.w3.org/2000/svg" xmlns:xlink="http://www.w3.org/1999/xlink">
    <!-- Generator: Sketch 53 (72520) - https://sketchapp.com -->
    <title>Combined Shape</title>
    <desc>Created with Sketch.</desc>
    <g id="Web-V2" stroke="none" stroke-width="1" fill="none" fill-rule="evenodd">
        <g id="Desktop-HD-Copy-7" transform="translate(-30.000000, -20.000000)" fill="#FFFFFF" fill-rule="nonzero">
            <path d="M33.9366382,34.0195318 C33.9366382,32.1027624 35.1344797,30.6037891 36.9688292,30.6037891 C38.8629966,30.6037891 39.9377226,31.9583783 39.9377226,33.9503008 L39.9377226,43.480767 L43.8110632,43.480767 L43.8110632,33.9849163 C43.8110632,32.0919623 45.0205111,30.6037891 46.874903,30.6037891 C48.7433821,30.6037891 49.8121477,31.9638184 49.8121477,33.9503008 L49.8121477,43.480767 L53.5905418,43.480767 L53.5905418,32.7733727 C53.5905418,28.9868454 50.4488056,26.6352286 46.874903,26.6352286 C44.8363919,26.6352286 43.2825869,27.4681099 42.1634368,29.2257322 L41.7360707,29.8969096 L41.3995442,29.1754879 C40.697702,27.6709287 38.7598183,26.6352286 36.637148,26.6352286 C33.1195659,26.6352286 30,29.2711983 30,32.7994713 L30,43.480767 L33.9366382,43.480767 L33.9366382,34.0195318 Z M63.7480527,29.8768629 C65.5128975,29.8768629 66.6856988,30.832219 66.6856988,32.1849086 C66.6856988,33.0627402 66.1416891,33.6368987 65.0823665,33.7954775 L61.0712746,34.419041 C58.2177298,34.841021 56.4090283,36.5652736 56.4090283,39.1772461 C56.4090283,41.8763346 58.5876005,43.9653845 61.8639965,43.9653845 C63.879385,43.9653845 65.432228,43.1474178 66.2875726,41.751188 L67.0967656,40.4302942 L67.0967656,41.9811042 C67.0967656,42.6291 67.1356589,43.1251337 67.1903251,43.480767 L71.0159566,43.480767 C70.9439744,42.8929373 70.8815438,42.050304 70.8815438,41.254178 L70.8815438,32.8426037 C70.8815438,29.0269514 68.5398715,26.6352286 63.7823083,26.6352286 C59.8297418,26.6352286 57.2320675,28.8647659 56.7971361,31.5597167 L60.4759827,32.3201153 C60.8038276,30.9050661 62.0395202,29.8768629 63.7480527,29.8768629 Z M63.1314525,41.0352899 C61.5877795,41.0352899 60.6733844,40.1112862 60.6733844,38.8310908 C60.6733844,37.4768588 61.5296907,36.7197174 62.9594001,36.4939802 L66.6856988,35.8931097 L66.6856988,37.1695452 C66.6856988,39.7671598 65.264813,41.0352899 63.1314525,41.0352899 Z M74.3307357,43.480767 L77.9905817,43.480767 L77.9905817,27.579018 C77.4089254,27.78266 76.7928009,27.8885052 76.1621147,27.8885052 L76.1592024,27.8885052 C75.5285163,27.8885052 74.9123919,27.7826601 74.3307357,27.579018 L74.3307357,43.480767 Z M78.4702774,22.3130198 C78.4702774,21.0355742 77.4389922,20 76.1668375,20 C74.8917396,20 73.8604544,21.0355742 73.8604544,22.3130198 C73.8604544,23.5904654 74.8917396,24.6260396 76.1638944,24.6260396 C77.4389922,24.6260396 78.4702774,23.5904654 78.4702774,22.3130198 Z M97.1301921,43.480767 L100.790038,43.480767 L100.790038,27.579018 C100.208382,27.78266 99.5922573,27.8885052 98.9615711,27.8885052 L98.9586589,27.8885052 C98.3279728,27.8885052 97.7118484,27.7826601 97.1301921,27.579018 L97.1301921,43.480767 Z M101.269734,22.3127637 C101.269734,21.0354687 100.238458,20 98.9662939,20 C97.691187,20 96.6599109,21.0354687 96.6599109,22.3127637 C96.6599109,23.5900587 97.691187,24.6255274 98.9633508,24.6255274 C100.238458,24.6255274 101.269734,23.5900587 101.269734,22.3127637 Z M87.9385292,44 C91.880773,44 94.2841421,41.6821876 94.2841421,38.6233976 C94.2841421,36.1733909 92.5639622,34.3066924 89.3950648,33.6538073 L87.1405128,33.2050141 C86.1296115,33.0192824 85.4462055,32.4150185 85.4462055,31.492598 C85.4462055,30.355006 86.4751423,29.5653231 87.7329957,29.5653231 C89.2270937,29.5653231 90.1972337,30.359826 90.5143477,31.6051147 L93.9962374,30.9628528 C93.5934544,28.5615203 91.4068171,26.6352286 87.6644846,26.6352286 C84.1595481,26.6352286 81.5586606,28.9531035 81.5586606,31.9079844 C81.5586606,34.3391787 83.0911461,36.0752286 86.2892481,36.7764736 L88.2369704,37.225388 C89.58795,37.5205611 90.259575,38.143614 90.259575,39.0733995 C90.259575,40.1864989 89.2902065,41.0006744 87.8357624,41.0006744 C86.1804694,41.0006744 85.0742457,40.0786723 84.7925632,38.755331 L81.2249641,39.3980986 C81.6090093,41.8769715 83.9332354,44 87.9385292,44 Z M114.568089,40.114733 C115.676423,39.4721748 116.470216,38.434606 116.834305,37.2086916 L120,37.3264364 C119.596741,39.69063 118.23173,41.7338342 116.182187,42.9220596 C112.306604,45.1689344 107.236409,43.6561724 104.862393,39.5271534 C102.488376,35.3981344 103.718809,30.2325747 107.594392,27.9857 C111.469975,25.7388252 116.540169,27.2515872 118.914186,31.3806062 C119.117009,31.7333675 119.29499,32.096233 119.447668,32.4672218 L108.155492,39.0138769 L108.61032,39.4177642 C110.288961,40.9083975 112.67596,41.2116974 114.568089,40.114733 Z M106.738767,36.0921231 L115.013496,31.2948373 L114.382927,30.9102107 C112.776933,29.9306052 110.808578,29.8653731 109.208489,30.7930266 C107.608401,31.7206801 106.680482,33.465031 106.722335,35.3514502 L106.738767,36.0921231 Z" id="Combined-Shape"></path>
        </g>
    </g>
</svg>