<?xml version="1.0" encoding="UTF-8"?>
<svg width="24px" height="24px" viewBox="0 0 24 24" version="1.1" xmlns="http://www.w3.org/2000/svg" xmlns:xlink="http://www.w3.org/1999/xlink">
    <!-- Generator: Sketch 53.2 (72643) - https://sketchapp.com -->
    <title>Group 57</title>
    <desc>Created with Sketch.</desc>
    <g id="Web-V2" stroke="none" stroke-width="1" fill="none" fill-rule="evenodd">
        <g id="Group-57" transform="translate(12.427608, 12.257987) rotate(30.000000) translate(-12.427608, -12.257987) translate(1.427608, 1.257987)" fill-rule="nonzero" stroke="#7692FF" stroke-width="1.3">
            <path d="M10.6196705,21.5383231 C10.6008406,21.5388327 10.5819475,21.5390891 10.5629945,21.5390891 C10.5141253,21.5390891 10.4652748,21.5373843 10.4165319,21.5340308 C4.64305826,21.3582495 0.0169766398,16.6231308 0.0169766398,10.8073818 C0.0169766398,10.8011793 0.0170041057,10.7949832 0.0170589224,10.7887936 C0.0376346763,11.9065897 0.950186444,12.8063952 2.07289911,12.8063952 C3.19675917,12.8063952 4.11002855,11.9047496 4.12879958,10.7853659 C4.12887648,10.7926954 4.12891503,10.8000341 4.12891503,10.8073818 C4.12891503,14.4633792 7.09268652,17.4271507 10.7486839,17.4271507 C11.8841644,17.4271507 12.8046532,18.3476395 12.8046532,19.4831199 C12.8046532,20.6183411 11.884569,21.5387125 10.7492353,21.539089 C10.7059868,21.539089 10.662798,21.5388332 10.6196705,21.5383231 Z" id="Combined-Shape"></path>
            <path d="M20.3586949,20.5162753 C20.3398649,20.5167849 20.3209719,20.5170414 20.3020189,20.5170414 C20.2531497,20.5170414 20.2042992,20.5153365 20.1555563,20.5119831 C14.3820827,20.3362018 9.75600103,15.601083 9.75600103,9.78533404 C9.75600103,9.77913153 9.7560285,9.77293545 9.75608331,9.76674589 C9.77665907,10.8845419 10.6892108,11.7843475 11.8119235,11.7843475 C12.9357836,11.7843475 13.8490529,10.8827018 13.867824,9.7633181 C13.8679009,9.77064762 13.8679394,9.77798633 13.8679394,9.78533404 C13.8679394,13.4413315 16.8317109,16.405103 20.4877083,16.405103 C21.6231888,16.405103 22.5436776,17.3255917 22.5436776,18.4610722 C22.5436776,19.5962933 21.6235933,20.5166647 20.4882597,20.5170413 C20.4450112,20.5170413 20.4018224,20.5167855 20.3586949,20.5162753 Z" id="Combined-Shape" transform="translate(16.149839, 15.140180) rotate(-90.000000) translate(-16.149839, -15.140180) "></path>
            <path d="M19.3391827,10.7529572 C19.3203528,10.7534668 19.3014597,10.7537233 19.2825067,10.7537233 C19.2336375,10.7537233 19.184787,10.7520184 19.1360441,10.748665 C13.3625705,10.5728837 8.73648883,5.83776494 8.73648883,0.022015934 C8.73648883,0.0158134314 8.7365163,0.00961734369 8.73657112,0.003427786 C8.75714687,1.12122382 9.66969864,2.02102939 10.7924113,2.02102939 C11.9162714,2.02102939 12.8295407,1.1193837 12.8483118,2.83028236e-11 C12.8483887,0.00732951468 12.8484272,0.0146682231 12.8484272,0.022015934 C12.8484272,3.67801337 15.8121987,6.64178486 19.4681961,6.64178486 C20.6036766,6.64178486 21.5241654,7.56227361 21.5241654,8.6977541 C21.5241654,9.83297522 20.6040812,10.7533466 19.4687475,10.7537232 C19.425499,10.7537232 19.3823102,10.7534674 19.3391827,10.7529572 Z" id="Combined-Shape" transform="translate(15.130327, 5.376862) rotate(180.000000) translate(-15.130327, -5.376862) "></path>
            <path d="M9.60269383,11.7699339 C9.58386392,11.7704435 9.56497083,11.7706999 9.54601785,11.7706999 C9.49714869,11.7706999 9.44829819,11.7689951 9.39955524,11.7656416 C3.62608162,11.5898603 -1,6.85474158 -1,1.03899257 C-1,1.03279007 -0.999972534,1.02659398 -0.999917717,1.02040443 C-0.979341964,2.13820046 -0.0667901962,3.03800603 1.05592247,3.03800603 C2.17978253,3.03800603 3.09305191,2.13636034 3.11182294,1.01697664 C3.11189984,1.02430615 3.11193839,1.03164486 3.11193839,1.03899257 C3.11193839,4.69499001 6.07570988,7.65876149 9.73170729,7.65876149 C10.8671878,7.65876149 11.7876765,8.57925025 11.7876765,9.71473074 C11.7876765,10.8499519 10.8675923,11.7703233 9.73225864,11.7706998 C9.68901013,11.7706998 9.64582139,11.770444 9.60269383,11.7699339 Z" id="Combined-Shape" transform="translate(5.393838, 6.393838) rotate(-270.000000) translate(-5.393838, -6.393838) "></path>
        </g>
    </g>
</svg>