<svg width="24px" height="22px" viewBox="0 0 24 22">
    <g id="Web-V2" stroke="none" stroke-width="1" fill-rule="evenodd">
        <g id="Group-55" transform="translate(0.000000, 0.500000)" stroke-width="1.5">
            <path d="M17.9160435,1.12031966 C17.7812019,0.889050677 17.5264546,0.75 17.2265643,0.75 L6.77001228,0.75 C6.47344081,0.75 6.21476263,0.892156472 6.08106735,1.11939458 L0.852302446,10.167017 C0.713468641,10.4106844 0.715809324,10.7087315 0.860975495,10.958421 L6.20391943,20.1953749 L6.20391943,20.216113 C6.3239005,20.3587088 6.54790832,20.4685265 6.77001228,20.4685265 L17.2265643,20.4685265 C17.4922684,20.4685265 17.7644483,20.3034203 17.9150123,20.0444619 L23.1442742,10.9682125 C23.2852419,10.7207997 23.2852419,10.4199829 23.1464622,10.1763842 L17.9160435,1.12031966 Z M12.0010649,16.2487981 C8.86026233,16.2487981 6.30322214,13.6917579 6.30322214,10.5509553 C6.30322214,7.41015279 8.86026233,4.8531126 12.0010649,4.8531126 C15.1418674,4.8531126 17.6989076,7.41015279 17.6989076,10.5509553 C17.6989076,13.6917579 15.1418674,16.2487981 12.0010649,16.2487981 Z" id="Shape" fill-rule="nonzero"></path>
            <path d="M12,14 C10.0712682,14 8.5,12.4287318 8.5,10.5 C8.5,8.57126824 10.0712682,7 12,7 C13.9287318,7 15.5,8.57126824 15.5,10.5 C15.5,12.4287318 13.9287318,14 12,14 Z" id="Path" opacity="0.252790179"></path>
            <path d="M7.68336158,18.4472151 L7.65457079,18.4472151 C7.6736044,18.4472151 7.69292396,18.4494863 7.71190741,18.4539952 L7.68336158,18.4472151 Z M7.68336158,18.4472151 L7.61568393,18.4311405 L3.16658984,10.7250835 C3.23562543,10.8446566 3.19465664,10.9975542 3.07508349,11.0665898 C2.95551033,11.1356254 2.80261273,11.0946566 2.73357714,10.9750835 L7.33628945,18.9472151 L16.6545708,18.9472151 C16.5164996,18.9472151 16.4045708,18.8352863 16.4045708,18.6972151 C16.4045708,18.5591439 16.5164996,18.4472151 16.6545708,18.4472151 L7.68336158,18.4472151 Z" id="Combined-Shape" opacity="0.252790179" fill-rule="nonzero"></path>
        </g>
    </g>
</svg>
