<svg width="12px" height="10px" viewBox="0 0 12 10">
    <g id="Web-V2" stroke="none" stroke-width="1" fill="none" fill-rule="evenodd">
        <path d="M11.7083536,4.98641387 L7.63453499,0.369768744 C7.53446399,0.253613419 7.41581806,0.163769457 7.27494754,0.0974800846 C7.13607655,0.0321316259 6.99056784,0 6.83329222,0 C6.5455679,0 6.30832108,0.0896623417 6.09897056,0.277456309 C5.90268676,0.453529015 5.81296128,0.638760205 5.81296128,0.866164835 C5.81296128,0.991405142 5.84125733,1.11919632 5.89893621,1.25322952 C5.96161034,1.39887061 6.05797151,1.53980943 6.20605994,1.70032649 L8.08535697,3.88211831 L1.08759372,3.88211831 C0.776313666,3.88211831 0.528401182,3.98386961 0.315617105,4.19885398 C0.101729734,4.41495305 0,4.6683023 0,4.98613722 C0,5.31471595 0.101325676,5.57163424 0.314014858,5.78455128 C0.526894679,5.99765916 0.775487405,6.09865092 1.08759372,6.09865092 L8.19150551,6.09865092 L6.17482154,8.13618841 C6.05715423,8.25507246 5.96811647,8.38830732 5.905696,8.5388518 C5.84363106,8.68853882 5.81296128,8.84242086 5.81296128,9.00417215 C5.81296128,9.28459543 5.90494043,9.50528804 6.10068998,9.69545506 C6.29986355,9.88894845 6.53526299,9.98076923 6.83329222,9.98076923 C6.98595945,9.98076923 7.12825094,9.94961727 7.26508623,9.88625258 C7.40493887,9.82149064 7.52997161,9.72773191 7.63862396,9.60623486 L11.5707303,5.14263976 L11.7083536,4.98641387 Z" id="Path" fill-rule="nonzero"></path>
    </g>
</svg>
