<?xml version="1.0" standalone="no"?>
<!DOCTYPE svg PUBLIC "-//W3C//DTD SVG 20010904//EN"
 "http://www.w3.org/TR/2001/REC-SVG-20010904/DTD/svg10.dtd">
<svg version="1.0" xmlns="http://www.w3.org/2000/svg"
 width="160.000000pt" height="160.000000pt" viewBox="0 0 160.000000 160.000000"
 preserveAspectRatio="xMidYMid meet">
<metadata>
Created by potrace 1.11, written by Peter Selinger 2001-2013
</metadata>
<g transform="translate(0.000000,160.000000) scale(0.100000,-0.100000)"
fill="#000000" stroke="none">
<path d="M735 1554 c-47 -24 -62 -42 -75 -90 -16 -56 -3 -108 37 -146 95 -90
247 -23 245 108 0 57 -27 100 -77 124 -50 24 -90 25 -130 4z"/>
<path d="M264 1380 c-27 -11 -72 -65 -80 -96 -23 -93 47 -184 141 -184 111 0
180 119 126 217 -12 21 -36 46 -52 56 -32 18 -99 22 -135 7z"/>
<path d="M1200 1371 c-68 -36 -94 -122 -58 -193 22 -46 54 -68 106 -75 94 -13
166 49 166 141 0 115 -112 182 -214 127z"/>
<path d="M82 962 c-18 -10 -43 -33 -56 -53 -57 -84 -1 -208 102 -223 126 -18
214 129 137 230 -46 60 -121 79 -183 46z"/>
<path d="M1375 955 c-157 -94 -35 -330 132 -255 57 25 86 71 86 133 -2 113
-122 181 -218 122z"/>
<path d="M288 499 c-129 -35 -147 -206 -28 -271 90 -49 210 23 210 126 0 103
-86 172 -182 145z"/>
<path d="M1235 502 c-84 -18 -135 -127 -97 -208 18 -40 86 -84 129 -84 98 0
172 97 144 189 -12 41 -69 100 -99 102 -9 1 -26 2 -37 3 -11 1 -29 0 -40 -2z"/>
<path d="M725 308 c-80 -41 -98 -158 -35 -223 39 -40 73 -54 123 -49 119 10
172 158 89 246 -46 50 -112 59 -177 26z"/>
</g>
</svg>
