<?xml version="1.0" encoding="UTF-8"?>
<svg width="43px" height="52px" viewBox="0 0 43 52" version="1.1" xmlns="http://www.w3.org/2000/svg" xmlns:xlink="http://www.w3.org/1999/xlink">
    <!-- Generator: Sketch 53.2 (72643) - https://sketchapp.com -->
    <title>affordable</title>
    <desc>Created with Sketch.</desc>
    <g id="Web-V2" stroke="none" stroke-width="1" fill="none" fill-rule="evenodd">
        <g id="Desktop-HD-Copy-9" transform="translate(-92.000000, -301.000000)" fill-rule="nonzero" stroke="#42607F" stroke-width="2">
            <g id="Group-9" transform="translate(86.000000, 297.000000)">
                <g id="Group-8">
                    <g id="affordable">
                        <path d="M26.5769231,46.6923077 L27.5384615,54 L21.8333333,54 L22.9230769,46.7564103 C17.6666667,46.5 13.6282051,45.4102564 11.6410256,44.3205128 L12.4102564,37.3333333 C14.8461538,39.3205128 18.9487179,41.0512821 24.3333333,41.0512821 C28.4358974,41.0512821 31.3846154,40.1538462 31.3846154,37.0128205 C31.3846154,29.4487179 11,32.1410256 11,21.4358974 C11,17.3333333 13.7564103,12.3333333 22.9230769,11.5 L21.8333333,4 L27.6025641,4 L26.5769231,11.5 C31.0641026,11.7564103 35.1025641,12.8461538 36.8974359,13.8717949 L36.3205128,20.025641 C32.7948718,18.3589744 28.7564103,16.9487179 25.6153846,16.9487179 C21.8333333,16.9487179 17.8589744,17.7820513 17.8589744,20.6666667 C17.8589744,27.6538462 38.9487179,24.2564103 38.9487179,36.9487179 C38.9487179,40.4102564 37.2820513,45.7948718 26.5769231,46.6923077 Z" id="$-copy" transform="translate(24.974359, 29.000000) rotate(-30.000000) translate(-24.974359, -29.000000) "></path>
                        <path d="M31.5769231,48.6923077 L32.5384615,56 L26.8333333,56 L27.9230769,48.7564103 C22.6666667,48.5 18.6282051,47.4102564 16.6410256,46.3205128 L17.4102564,39.3333333 C19.8461538,41.3205128 23.9487179,43.0512821 29.3333333,43.0512821 C33.4358974,43.0512821 36.3846154,42.1538462 36.3846154,39.0128205 C36.3846154,31.4487179 16,34.1410256 16,23.4358974 C16,19.3333333 18.7564103,14.3333333 27.9230769,13.5 L26.8333333,6 L32.6025641,6 L31.5769231,13.5 C36.0641026,13.7564103 40.1025641,14.8461538 41.8974359,15.8717949 L41.3205128,22.025641 C37.7948718,20.3589744 33.7564103,18.9487179 30.6153846,18.9487179 C26.8333333,18.9487179 22.8589744,19.7820513 22.8589744,22.6666667 C22.8589744,29.6538462 43.9487179,26.2564103 43.9487179,38.9487179 C43.9487179,42.4102564 42.2820513,47.7948718 31.5769231,48.6923077 Z" id="$" fill="#7692FF" transform="translate(29.974359, 31.000000) rotate(-30.000000) translate(-29.974359, -31.000000) "></path>
                    </g>
                </g>
            </g>
        </g>
    </g>
</svg>