<?xml version="1.0" encoding="UTF-8"?>
<svg width="28px" height="36px" viewBox="0 0 28 36" version="1.1" xmlns="http://www.w3.org/2000/svg" xmlns:xlink="http://www.w3.org/1999/xlink">
    <!-- Generator: Sketch 52.6 (67491) - http://www.bohemiancoding.com/sketch -->
    <title>Back</title>
    <desc>Created with Sketch.</desc>
    <defs>
        <filter x="-37.0%" y="-111.1%" width="174.1%" height="322.2%" filterUnits="objectBoundingBox" id="filter-1">
            <feOffset dx="0" dy="0" in="SourceAlpha" result="shadowOffsetOuter1"></feOffset>
            <feGaussianBlur stdDeviation="5" in="shadowOffsetOuter1" result="shadowBlurOuter1"></feGaussianBlur>
            <feColorMatrix values="0 0 0 0 0.0196078431   0 0 0 0 0.176470588   0 0 0 0 0.329411765  0 0 0 0.1 0" type="matrix" in="shadowBlurOuter1" result="shadowMatrixOuter1"></feColorMatrix>
            <feMerge>
                <feMergeNode in="shadowMatrixOuter1"></feMergeNode>
                <feMergeNode in="SourceGraphic"></feMergeNode>
            </feMerge>
        </filter>
    </defs>
    <g id="Web-V2" stroke="none" stroke-width="1" fill="none" fill-rule="evenodd">
        <g id="Desktop-HD-Copy-6" transform="translate(-111.000000, -105.000000)" fill="#052D54" fill-rule="nonzero">
            <g id="Group-2" transform="translate(120.000000, 114.000000)">
                <g id="Group-16">
                    <g id="Back" filter="url(#filter-1)">
                        <path d="M9.61862746,2.22413647 C10.1083772,1.73267433 10.1271554,0.916077391 9.66056975,0.400216153 C9.19398406,-0.115645085 8.41872098,-0.135424466 7.9289712,0.356037669 C2.89056246,5.49046519 0.364486922,8.06513318 0.350744588,8.08004164 C-0.132239874,8.61224796 -0.114175885,9.45609781 0.391091636,9.96483303 L7.92890346,17.6424727 C8.41787203,18.1347971 9.19316544,18.1163838 9.66056975,17.6013454 C10.1279741,17.0863071 10.1104928,16.2696782 9.62152422,15.7773538 L3.41646782,9.34792197 C3.2295322,9.15422673 3.22949742,8.8473013 3.41638914,8.65356371 L9.61862746,2.22413647 Z"></path>
                    </g>
                </g>
            </g>
        </g>
    </g>
</svg>