<?xml version="1.0" encoding="UTF-8"?>
<svg width="2821px" height="1597px" viewBox="0 0 2821 1597" version="1.1" xmlns="http://www.w3.org/2000/svg" xmlns:xlink="http://www.w3.org/1999/xlink">
    <!-- Generator: Sketch 52.6 (67491) - http://www.bohemiancoding.com/sketch -->
    <title>Group 33</title>
    <desc>Created with Sketch.</desc>
    <g id="Web-V2" stroke="none" stroke-width="1" fill="none" fill-rule="evenodd">
        <g id="Group-33" transform="translate(-127.000000, -14.000000)" fill-rule="nonzero" stroke="#44627F" stroke-width="40">
            <g id="Group-36" transform="translate(1910.580825, 969.358885) rotate(-20.000000) translate(-1910.580825, -969.358885) translate(725.080825, 461.858885)">
                <g id="Group-34" transform="translate(0.000000, 30.000000)">
                    <path d="M221.8596,0 C268.925856,222.881883 245.305989,440.54855 151,653" id="Path-18"></path>
                    <path d="M12.077416,366.914849 C219.207639,321.801358 374.443652,261.852588 477.785455,187.068541" id="Path-19" transform="translate(244.931435, 276.991695) rotate(10.000000) translate(-244.931435, -276.991695) "></path>
                </g>
                <g id="Group-34" transform="translate(1256.000000, 30.000000)">
                    <path d="M135.8596,0 C182.925856,222.881883 159.305989,440.54855 65,653" id="Path-18"></path>
                    <path d="M13.1180849,346.019949 C159.315624,300.906457 268.884971,240.957688 341.826124,166.173641" id="Path-19" transform="translate(177.472104, 256.096795) rotate(10.000000) translate(-177.472104, -256.096795) "></path>
                </g>
                <path d="M423.793023,664.980432 C496.438726,664.980432 555.329703,593.011064 555.329703,504.232349 C555.329703,415.453634 494.956133,331.025431 423.793023,343.484265 C352.629914,355.9431 292.256344,430.582865 292.256344,519.36158 C292.256344,608.140295 351.147321,664.980432 423.793023,664.980432 Z" id="Oval" transform="translate(423.793023, 503.618660) rotate(20.000000) translate(-423.793023, -503.618660) "></path>
                <g id="Group-29" transform="translate(788.714478, 657.244558) rotate(10.000000) translate(-788.714478, -657.244558) translate(520.714478, 341.744558)">
                    <path d="M214.069498,330.131274 C293.837328,330.131274 358.501931,256.517552 358.501931,165.710425 C358.501931,74.903297 292.209383,-11.4539178 214.069498,1.28957529 C135.929613,14.0330684 69.6370656,90.3782005 69.6370656,181.185328 C69.6370656,271.992456 134.301668,330.131274 214.069498,330.131274 Z" id="Oval"></path>
                    <path d="M355.92278,197.428167 C326.801315,486.210933 233.462856,630.602317 75.9074014,630.602317 C-9.87693732,630.602317 -21.7228248,531.04315 35.9660447,487.459459 C86.7824538,449.067883 253.353272,409.950766 535.6785,370.108108" id="Path-14"></path>
                </g>
                <path d="M858.008791,592.440621 C961.062811,625.037176 1160.65627,601.294125 1212.78984,521.766337 C1269.481,435.28613 1225.44892,326.503556 1091.10754,359.575618 C992.821024,383.771718 905.085927,526.530471 978.964111,621.579981 C1046.95411,709.053928 1138.23943,720.860181 1252.82005,656.998739" id="Path-20" transform="translate(1055.414421, 525.461967) rotate(-10.000000) translate(-1055.414421, -525.461967) "></path>
                <path d="M1689.62495,650.094797 C1702.25639,616.854081 1735.18948,572.704129 1820.97079,564.18732 C1863.55502,559.959339 2000.61305,562.772669 2060.22039,491.49596 C2120.65651,419.228213 2017.35294,330.825176 1923.54447,353.918875 C1825.25796,378.114976 1740.07939,543.087782 1813.95757,638.137292 C1881.94757,725.611239 1963.83596,733.997291 2059.62273,663.295445" id="Path-20" transform="translate(1883.932251, 530.437258) rotate(-20.000000) translate(-1883.932251, -530.437258) "></path>
                <g id="Group-35" transform="translate(1463.000000, 0.000000)">
                    <path d="M-8.24229573e-13,386.011752 C80.0793462,631.705606 211.71637,998.119626 277.479895,338.610807" id="Path-17" transform="translate(138.739948, 525.118424) scale(1, -1) translate(-138.739948, -525.118424) "></path>
                    <path d="M74.1656886,4.54747351e-13 C74.1656886,188.666667 49.4437924,410.075032 -7.10542736e-14,664.225095" id="Path-21"></path>
                </g>
                <g id="Group-30" transform="translate(2100.000000, 247.000000)">
                    <path d="M6.75015599e-14,63.1891892 C47.6065446,166.197374 60.2082769,302.383578 37.8051972,471.747799" id="Path-15"></path>
                    <path d="M47.7142857,336.686028 C56.6897901,162.545751 116.988835,53.8015555 270.23599,1.70530257e-13" id="Path-16"></path>
                </g>
            </g>
            <g id="Group-32" transform="translate(871.385658, 610.592228) rotate(-20.000000) translate(-871.385658, -610.592228) translate(75.885658, 250.592228)">
                <g id="Group-29" transform="translate(0.000000, 88.397683)">
                    <path d="M214.069498,330.131274 C293.837328,330.131274 358.501931,256.517552 358.501931,165.710425 C358.501931,74.903297 292.209383,-11.4539178 214.069498,1.28957529 C135.929613,14.0330684 69.6370656,90.3782005 69.6370656,181.185328 C69.6370656,271.992456 134.301668,330.131274 214.069498,330.131274 Z" id="Oval"></path>
                    <path d="M355.92278,197.428167 C326.801315,486.210933 233.462856,630.602317 75.9074014,630.602317 C-9.87693732,630.602317 -21.7228248,531.04315 35.9660447,487.459459 C86.7824538,449.067883 253.353272,409.950766 535.6785,370.108108" id="Path-14"></path>
                </g>
                <path d="M756.522753,434.771938 C829.168455,434.771938 888.059433,362.802569 888.059433,274.023855 C888.059433,185.24514 827.685863,100.816937 756.522753,113.275771 C685.359644,125.734605 624.986074,200.374371 624.986074,289.153086 C624.986074,377.931801 683.877051,434.771938 756.522753,434.771938 Z" id="Oval" transform="translate(756.522753, 273.410166) rotate(20.000000) translate(-756.522753, -273.410166) "></path>
                <g id="Group-30" transform="translate(401.057915, 88.397683)">
                    <path d="M6.75015599e-14,63.1891892 C47.6065446,166.197374 60.2082769,302.383578 37.8051972,471.747799" id="Path-15"></path>
                    <path d="M47.7142857,336.686028 C56.6897901,162.545751 116.988835,53.8015555 270.23599,1.70530257e-13" id="Path-16"></path>
                </g>
                <g id="Group-31" transform="translate(943.969112, 0.000000)">
                    <path d="M6.51904815,88.8610052 C-21.9683668,334.47386 51.7893072,757.735498 371.556921,88.8610052" id="Path-17"></path>
                    <path d="M256.115132,64.8986095 C248.238746,360.693408 336.08789,733.956447 626.044658,18.723226" id="Path-17" transform="translate(440.840449, 224.523184) rotate(-6.000000) translate(-440.840449, -224.523184) "></path>
                </g>
            </g>
        </g>
    </g>
</svg>