<?xml version="1.0" encoding="UTF-8"?>
<svg width="400px" height="400px" viewBox="0 0 400 400" version="1.1" xmlns="http://www.w3.org/2000/svg" xmlns:xlink="http://www.w3.org/1999/xlink">
    <!-- Generator: Sketch 53.2 (72643) - https://sketchapp.com -->
    <title>Group 16</title>
    <desc>Created with Sketch.</desc>
    <defs>
        <rect id="path-1" x="0" y="0" width="400" height="400" rx="200"></rect>
    </defs>
    <g id="Web-V2" stroke="none" stroke-width="1" fill="none" fill-rule="evenodd">
        <g id="Group-16">
            <mask id="mask-2" fill="white">
                <use xlink:href="#path-1"></use>
            </mask>
            <use id="Rectangle-Copy-3" fill="#7692FF" fill-rule="nonzero" xlink:href="#path-1"></use>
            <path d="M118.785205,142.073171 C108.675606,142.073171 100.487805,133.883258 100.487805,123.780488 C100.487805,113.677718 108.675606,105.487805 118.775771,105.487805 C128.88537,105.487805 137.073171,113.677718 137.073171,123.780488 C137.073171,133.883258 128.88537,142.073171 118.785205,142.073171 Z M200.086018,111.585366 C189.976419,111.585366 181.788618,103.395453 181.788618,93.2926829 C181.788618,83.1899131 189.976419,75 200.076584,75 C210.186183,75 218.373984,83.1899131 218.373984,93.2926829 C218.373984,103.395453 210.186183,111.585366 200.086018,111.585366 Z M281.386831,142.073171 C271.277232,142.073171 263.089431,133.883258 263.089431,123.780488 C263.089431,113.677718 271.277232,105.487805 281.377397,105.487805 C291.486996,105.487805 299.674797,113.677718 299.674797,123.780488 C299.674797,133.883258 291.486996,142.073171 281.386831,142.073171 Z M281.386831,294.512195 C271.277232,294.512195 263.089431,286.322282 263.089431,276.219512 C263.089431,266.116742 271.277232,257.926829 281.377397,257.926829 C291.486996,257.926829 299.674797,266.116742 299.674797,276.219512 C299.674797,286.322282 291.486996,294.512195 281.386831,294.512195 Z M200.086018,325 C189.976419,325 181.788618,316.810087 181.788618,306.707317 C181.788618,296.604547 189.976419,288.414634 200.076584,288.414634 C210.186183,288.414634 218.373984,296.604547 218.373984,306.707317 C218.373984,316.810087 210.186183,325 200.086018,325 Z M88.2974,213.211382 C78.1878012,213.211382 70,205.021469 70,194.918699 C70,184.815929 78.1878012,176.626016 88.2879658,176.626016 C98.3975647,176.626016 106.585366,184.815929 106.585366,194.918699 C106.585366,205.021469 98.3975647,213.211382 88.2974,213.211382 Z M118.785205,294.512195 C108.675606,294.512195 100.487805,286.322282 100.487805,276.219512 C100.487805,266.116742 108.675606,257.926829 118.775771,257.926829 C128.88537,257.926829 137.073171,266.116742 137.073171,276.219512 C137.073171,286.322282 128.88537,294.512195 118.785205,294.512195 Z M311.874636,213.211382 C301.765037,213.211382 293.577236,205.021469 293.577236,194.918699 C293.577236,184.815929 301.765037,176.626016 311.865202,176.626016 C321.9748,176.626016 330.162602,184.815929 330.162602,194.918699 C330.162602,205.021469 321.9748,213.211382 311.874636,213.211382 Z" id="Combined-Shape" fill="#FFFFFF" fill-rule="nonzero" mask="url(#mask-2)" transform="translate(200.081301, 200.000000) rotate(-10.000000) translate(-200.081301, -200.000000) "></path>
        </g>
    </g>
</svg>