<?xml version="1.0" encoding="UTF-8"?>
<svg width="840px" height="366px" viewBox="0 0 840 366" version="1.1" xmlns="http://www.w3.org/2000/svg" xmlns:xlink="http://www.w3.org/1999/xlink">
    <!-- Generator: Sketch 53.2 (72643) - https://sketchapp.com -->
    <title>Group 59</title>
    <desc>Created with Sketch.</desc>
    <defs>
        <rect id="path-1" x="0" y="0" width="840" height="366"></rect>
        <rect id="path-3" x="0" y="0" width="840" height="366"></rect>
    </defs>
    <g id="Web-V2" stroke="none" stroke-width="1" fill="none" fill-rule="evenodd">
        <g id="Group-59">
            <mask id="mask-2" fill="white">
                <use xlink:href="#path-1"></use>
            </mask>
            <use id="Rectangle" fill="#FFFFFF" xlink:href="#path-1"></use>
            <mask id="mask-4" fill="white">
                <use xlink:href="#path-3"></use>
            </mask>
            <use id="Rectangle" fill="#052D54" xlink:href="#path-3"></use>
            <path d="M722.161345,997 C1107.56699,997 1420,780.921049 1420,514.374155 C1420,247.82726 1144.65302,-326.656295 605.172975,116.742761 C65.6929287,560.141818 -494,73.7745068 -494,340.321401 C-494,606.868295 336.755697,997 722.161345,997 Z" id="Oval" fill="#F1F4FF" mask="url(#mask-4)"></path>
            <g id="Group-58" mask="url(#mask-4)">
                <g transform="translate(463.000000, 75.000000)">
                    <path d="M176.596377,281.118377 L274.856326,251.640392 C274.950045,251.612276 275.049955,251.612276 275.143674,251.640392 L373.403623,281.118377 C373.668119,281.197726 373.818211,281.476468 373.738862,281.740964 C373.690565,281.901954 373.564613,282.027906 373.403623,282.076203 L275.143674,311.554188 C275.049955,311.582304 274.950045,311.582304 274.856326,311.554188 L176.596377,282.076203 C176.331881,281.996854 176.181789,281.718113 176.261138,281.453616 C176.309435,281.292626 176.435387,281.166674 176.596377,281.118377 Z" id="Rectangle" stroke="#052D54" fill="#56E39F"></path>
                    <g id="Group-64" stroke="none" fill="none" transform="translate(150.000000, 281.597290)">
                        <path d="M1.59637714,7.02108686 L24.8563261,0.0431021828 C24.9500454,0.014986373 25.0499546,0.014986373 25.1436739,0.0431021828 L123.403623,29.5210869 C123.668119,29.6004358 123.818211,29.8791775 123.738862,30.1436739 C123.690565,30.3046638 123.564613,30.4306162 123.403623,30.4789131 L100.143674,37.4568978 C100.049955,37.4850136 99.9500454,37.4850136 99.8563261,37.4568978 L1.59637714,7.97891314 C1.33188072,7.89956422 1.18178901,7.62082248 1.26113794,7.35632606 C1.30943491,7.19533616 1.43538725,7.06938383 1.59637714,7.02108686 Z" id="Rectangle-Copy-15" stroke="#052D54" fill="#44627F"></path>
                        <path d="M23.2618262,0.521188118 L24.8563564,0.0430712522 C24.950057,0.0149753186 25.0499409,0.0149822787 25.1436376,0.0430912705 L123.403219,29.5209656 C123.667715,29.6003145 123.817807,29.8790562 123.738458,30.1435527 C123.690154,30.3045662 123.564172,30.4305303 123.403152,30.4788119 L121.808622,30.9569287 C121.714921,30.9850247 121.615037,30.9850177 121.52134,30.9569087 L23.2617594,1.47903442 C22.997263,1.39968549 22.8471713,1.12094376 22.9265202,0.856447336 C22.9748243,0.695433777 23.1008059,0.569469745 23.2618262,0.521188118 Z" id="Rectangle-Copy-15" stroke="#052D54" fill="#DDE4FF"></path>
                        <path d="M1.60684815,7.02118812 L3.2013784,6.54307125 C3.29507896,6.51497532 3.3949629,6.51498228 3.48865954,6.54309127 L101.748241,36.0209656 C102.012737,36.1003145 102.162829,36.3790562 102.08348,36.6435527 C102.035176,36.8045662 101.909194,36.9305303 101.748174,36.9788119 L100.153644,37.4569287 C100.059943,37.4850247 99.9600591,37.4850177 99.8663624,37.4569087 L1.6067814,7.97903442 C1.34228498,7.89968549 1.19219328,7.62094376 1.2715422,7.35644734 C1.31984627,7.19543378 1.44582786,7.06946975 1.60684815,7.02118812 Z" id="Rectangle-Copy-15" stroke="#052D54" fill="#E7F5F8"></path>
                    </g>
                    <g id="Group-64-Copy-5" stroke="none" fill="none" transform="translate(25.000000, 244.097290)">
                        <path d="M1.59637714,7.02108686 L24.8563261,0.0431021828 C24.9500454,0.014986373 25.0499546,0.014986373 25.1436739,0.0431021828 L123.403623,29.5210869 C123.668119,29.6004358 123.818211,29.8791775 123.738862,30.1436739 C123.690565,30.3046638 123.564613,30.4306162 123.403623,30.4789131 L100.143674,37.4568978 C100.049955,37.4850136 99.9500454,37.4850136 99.8563261,37.4568978 L1.59637714,7.97891314 C1.33188072,7.89956422 1.18178901,7.62082248 1.26113794,7.35632606 C1.30943491,7.19533616 1.43538725,7.06938383 1.59637714,7.02108686 Z" id="Rectangle-Copy-15" stroke="#052D54" fill="#E7F5F8"></path>
                        <path d="M23.2618262,0.521188118 L24.8563564,0.0430712522 C24.950057,0.0149753186 25.0499409,0.0149822787 25.1436376,0.0430912705 L123.403219,29.5209656 C123.667715,29.6003145 123.817807,29.8790562 123.738458,30.1435527 C123.690154,30.3045662 123.564172,30.4305303 123.403152,30.4788119 L121.808622,30.9569287 C121.714921,30.9850247 121.615037,30.9850177 121.52134,30.9569087 L23.2617594,1.47903442 C22.997263,1.39968549 22.8471713,1.12094376 22.9265202,0.856447336 C22.9748243,0.695433777 23.1008059,0.569469745 23.2618262,0.521188118 Z" id="Rectangle-Copy-15" stroke="#052D54" fill="#E7F5F8"></path>
                        <path d="M1.60684815,7.02118812 L3.2013784,6.54307125 C3.29507896,6.51497532 3.3949629,6.51498228 3.48865954,6.54309127 L101.748241,36.0209656 C102.012737,36.1003145 102.162829,36.3790562 102.08348,36.6435527 C102.035176,36.8045662 101.909194,36.9305303 101.748174,36.9788119 L100.153644,37.4569287 C100.059943,37.4850247 99.9600591,37.4850177 99.8663624,37.4569087 L1.6067814,7.97903442 C1.34228498,7.89968549 1.19219328,7.62094376 1.2715422,7.35644734 C1.31984627,7.19543378 1.44582786,7.06946975 1.60684815,7.02118812 Z" id="Rectangle-Copy-15" stroke="#052D54" fill="#E7F5F8"></path>
                    </g>
                    <g id="Group-64-Copy-2" stroke="none" fill="none" transform="translate(212.500000, 262.597290) scale(1, -1) translate(-212.500000, -262.597290) translate(150.000000, 243.597290)">
                        <path d="M1.59637714,7.02108686 L24.8563261,0.0431021828 C24.9500454,0.014986373 25.0499546,0.014986373 25.1436739,0.0431021828 L123.403623,29.5210869 C123.668119,29.6004358 123.818211,29.8791775 123.738862,30.1436739 C123.690565,30.3046638 123.564613,30.4306162 123.403623,30.4789131 L100.143674,37.4568978 C100.049955,37.4850136 99.9500454,37.4850136 99.8563261,37.4568978 L1.59637714,7.97891314 C1.33188072,7.89956422 1.18178901,7.62082248 1.26113794,7.35632606 C1.30943491,7.19533616 1.43538725,7.06938383 1.59637714,7.02108686 Z" id="Rectangle-Copy-15" stroke="#052D54" fill="#42607F"></path>
                        <path d="M23.2618262,0.521188118 L24.8563564,0.0430712522 C24.950057,0.0149753186 25.0499409,0.0149822787 25.1436376,0.0430912705 L123.403219,29.5209656 C123.667715,29.6003145 123.817807,29.8790562 123.738458,30.1435527 C123.690154,30.3045662 123.564172,30.4305303 123.403152,30.4788119 L121.808622,30.9569287 C121.714921,30.9850247 121.615037,30.9850177 121.52134,30.9569087 L23.2617594,1.47903442 C22.997263,1.39968549 22.8471713,1.12094376 22.9265202,0.856447336 C22.9748243,0.695433777 23.1008059,0.569469745 23.2618262,0.521188118 Z" id="Rectangle-Copy-15" stroke="#052D54" fill="#DDE4FF"></path>
                        <path d="M1.60684815,7.02118812 L3.2013784,6.54307125 C3.29507896,6.51497532 3.3949629,6.51498228 3.48865954,6.54309127 L101.748241,36.0209656 C102.012737,36.1003145 102.162829,36.3790562 102.08348,36.6435527 C102.035176,36.8045662 101.909194,36.9305303 101.748174,36.9788119 L100.153644,37.4569287 C100.059943,37.4850247 99.9600591,37.4850177 99.8663624,37.4569087 L1.6067814,7.97903442 C1.34228498,7.89968549 1.19219328,7.62094376 1.2715422,7.35644734 C1.31984627,7.19543378 1.44582786,7.06946975 1.60684815,7.02118812 Z" id="Rectangle-Copy-15" stroke="#052D54" fill="#DDE4FF"></path>
                    </g>
                    <g id="Group-64-Copy-7" stroke="none" fill="none" transform="translate(337.500000, 225.097290) scale(1, -1) translate(-337.500000, -225.097290) translate(275.000000, 206.097290)">
                        <path d="M1.59637714,7.02108686 L24.8563261,0.0431021828 C24.9500454,0.014986373 25.0499546,0.014986373 25.1436739,0.0431021828 L123.403623,29.5210869 C123.668119,29.6004358 123.818211,29.8791775 123.738862,30.1436739 C123.690565,30.3046638 123.564613,30.4306162 123.403623,30.4789131 L100.143674,37.4568978 C100.049955,37.4850136 99.9500454,37.4850136 99.8563261,37.4568978 L1.59637714,7.97891314 C1.33188072,7.89956422 1.18178901,7.62082248 1.26113794,7.35632606 C1.30943491,7.19533616 1.43538725,7.06938383 1.59637714,7.02108686 Z" id="Rectangle-Copy-15" stroke="#052D54" fill="#42607F"></path>
                        <path d="M23.2618262,0.521188118 L24.8563564,0.0430712522 C24.950057,0.0149753186 25.0499409,0.0149822787 25.1436376,0.0430912705 L123.403219,29.5209656 C123.667715,29.6003145 123.817807,29.8790562 123.738458,30.1435527 C123.690154,30.3045662 123.564172,30.4305303 123.403152,30.4788119 L121.808622,30.9569287 C121.714921,30.9850247 121.615037,30.9850177 121.52134,30.9569087 L23.2617594,1.47903442 C22.997263,1.39968549 22.8471713,1.12094376 22.9265202,0.856447336 C22.9748243,0.695433777 23.1008059,0.569469745 23.2618262,0.521188118 Z" id="Rectangle-Copy-15" stroke="#052D54" fill="#DDE4FF"></path>
                        <path d="M1.60684815,7.02118812 L3.2013784,6.54307125 C3.29507896,6.51497532 3.3949629,6.51498228 3.48865954,6.54309127 L101.748241,36.0209656 C102.012737,36.1003145 102.162829,36.3790562 102.08348,36.6435527 C102.035176,36.8045662 101.909194,36.9305303 101.748174,36.9788119 L100.153644,37.4569287 C100.059943,37.4850247 99.9600591,37.4850177 99.8663624,37.4569087 L1.6067814,7.97903442 C1.34228498,7.89968549 1.19219328,7.62094376 1.2715422,7.35644734 C1.31984627,7.19543378 1.44582786,7.06946975 1.60684815,7.02118812 Z" id="Rectangle-Copy-15" stroke="#052D54" fill="#DDE4FF"></path>
                    </g>
                    <g id="Group-64-Copy-6" stroke="none" fill="none" transform="translate(98.000000, 228.597290) scale(1, -1) translate(-98.000000, -228.597290) translate(46.000000, 213.097290)">
                        <path d="M2.26182618,0.521188118 L3.85635643,0.0430712522 C3.95005698,0.0149753186 4.04994093,0.0149822787 4.14363757,0.0430912705 L102.403219,29.5209656 C102.667715,29.6003145 102.817807,29.8790562 102.738458,30.1435527 C102.690154,30.3045662 102.564172,30.4305303 102.403152,30.4788119 L100.808622,30.9569287 C100.714921,30.9850247 100.615037,30.9850177 100.52134,30.9569087 L2.26175943,1.47903442 C1.99726301,1.39968549 1.8471713,1.12094376 1.92652023,0.856447336 C1.9748243,0.695433777 2.10080589,0.569469745 2.26182618,0.521188118 Z" id="Rectangle-Copy-15" stroke="#052D54" fill="#E7F5F8"></path>
                    </g>
                    <g id="Group-64-Copy" stroke="none" fill="none" transform="translate(337.500000, 300.597290) scale(-1, 1) translate(-337.500000, -300.597290) translate(275.000000, 281.597290)">
                        <path d="M1.59637714,7.02108686 L24.8563261,0.0431021828 C24.9500454,0.014986373 25.0499546,0.014986373 25.1436739,0.0431021828 L123.403623,29.5210869 C123.668119,29.6004358 123.818211,29.8791775 123.738862,30.1436739 C123.690565,30.3046638 123.564613,30.4306162 123.403623,30.4789131 L100.143674,37.4568978 C100.049955,37.4850136 99.9500454,37.4850136 99.8563261,37.4568978 L1.59637714,7.97891314 C1.33188072,7.89956422 1.18178901,7.62082248 1.26113794,7.35632606 C1.30943491,7.19533616 1.43538725,7.06938383 1.59637714,7.02108686 Z" id="Rectangle-Copy-15" stroke="#052D54" fill="#44627F"></path>
                        <path d="M23.2618262,0.521188118 L24.8563564,0.0430712522 C24.950057,0.0149753186 25.0499409,0.0149822787 25.1436376,0.0430912705 L123.403219,29.5209656 C123.667715,29.6003145 123.817807,29.8790562 123.738458,30.1435527 C123.690154,30.3045662 123.564172,30.4305303 123.403152,30.4788119 L121.808622,30.9569287 C121.714921,30.9850247 121.615037,30.9850177 121.52134,30.9569087 L23.2617594,1.47903442 C22.997263,1.39968549 22.8471713,1.12094376 22.9265202,0.856447336 C22.9748243,0.695433777 23.1008059,0.569469745 23.2618262,0.521188118 Z" id="Rectangle-Copy-15" stroke="#052D54" fill="#DDE4FF"></path>
                        <path d="M1.60684815,7.02118812 L3.2013784,6.54307125 C3.29507896,6.51497532 3.3949629,6.51498228 3.48865954,6.54309127 L101.748241,36.0209656 C102.012737,36.1003145 102.162829,36.3790562 102.08348,36.6435527 C102.035176,36.8045662 101.909194,36.9305303 101.748174,36.9788119 L100.153644,37.4569287 C100.059943,37.4850247 99.9600591,37.4850177 99.8663624,37.4569087 L1.6067814,7.97903442 C1.34228498,7.89968549 1.19219328,7.62094376 1.2715422,7.35644734 C1.31984627,7.19543378 1.44582786,7.06946975 1.60684815,7.02118812 Z" id="Rectangle-Copy-15" stroke="#052D54" fill="#E7F5F8"></path>
                    </g>
                    <g id="Group-64-Copy-3" stroke="none" fill="none" transform="translate(337.500000, 262.597290) scale(-1, -1) translate(-337.500000, -262.597290) translate(275.000000, 243.597290)">
                        <path d="M1.59637714,7.02108686 L24.8563261,0.0431021828 C24.9500454,0.014986373 25.0499546,0.014986373 25.1436739,0.0431021828 L123.403623,29.5210869 C123.668119,29.6004358 123.818211,29.8791775 123.738862,30.1436739 C123.690565,30.3046638 123.564613,30.4306162 123.403623,30.4789131 L100.143674,37.4568978 C100.049955,37.4850136 99.9500454,37.4850136 99.8563261,37.4568978 L1.59637714,7.97891314 C1.33188072,7.89956422 1.18178901,7.62082248 1.26113794,7.35632606 C1.30943491,7.19533616 1.43538725,7.06938383 1.59637714,7.02108686 Z" id="Rectangle-Copy-15" stroke="#052D54" fill="#42607F"></path>
                        <path d="M23.2618262,0.521188118 L24.8563564,0.0430712522 C24.950057,0.0149753186 25.0499409,0.0149822787 25.1436376,0.0430912705 L123.403219,29.5209656 C123.667715,29.6003145 123.817807,29.8790562 123.738458,30.1435527 C123.690154,30.3045662 123.564172,30.4305303 123.403152,30.4788119 L121.808622,30.9569287 C121.714921,30.9850247 121.615037,30.9850177 121.52134,30.9569087 L23.2617594,1.47903442 C22.997263,1.39968549 22.8471713,1.12094376 22.9265202,0.856447336 C22.9748243,0.695433777 23.1008059,0.569469745 23.2618262,0.521188118 Z" id="Rectangle-Copy-15" stroke="#052D54" fill="#DDE4FF"></path>
                        <path d="M1.60684815,7.02118812 L3.2013784,6.54307125 C3.29507896,6.51497532 3.3949629,6.51498228 3.48865954,6.54309127 L101.748241,36.0209656 C102.012737,36.1003145 102.162829,36.3790562 102.08348,36.6435527 C102.035176,36.8045662 101.909194,36.9305303 101.748174,36.9788119 L100.153644,37.4569287 C100.059943,37.4850247 99.9600591,37.4850177 99.8663624,37.4569087 L1.6067814,7.97903442 C1.34228498,7.89968549 1.19219328,7.62094376 1.2715422,7.35644734 C1.31984627,7.19543378 1.44582786,7.06946975 1.60684815,7.02118812 Z" id="Rectangle-Copy-15" stroke="#052D54" fill="#DDE4FF"></path>
                    </g>
                    <path d="M283.044555,76.1144311 L305.503696,69.4373892 C305.762322,69.3605004 306.035306,69.5026752 306.120563,69.7586647 L308.846599,77.9437417 C308.933856,78.2057357 308.792203,78.4888595 308.53021,78.5761164 C308.525067,78.5778291 308.519897,78.579458 308.514702,78.5810026 L298.571634,81.5370499 C298.479318,81.5644952 298.38104,81.5646949 298.288613,81.5376251 L283.046505,77.0735427 C282.781494,76.995927 282.629581,76.7181738 282.707197,76.4531636 C282.754889,76.2903243 282.881911,76.1627847 283.044555,76.1144311 Z" id="Rectangle-Copy-24" stroke="#052D54" fill="#56E39F" transform="translate(295.215104, 75.439280) scale(-1, 1) translate(-295.215104, -75.439280) "></path>
                    <g id="Group-64-Copy-4" stroke="none" fill="none" transform="translate(212.500000, 225.097290) scale(-1, -1) translate(-212.500000, -225.097290) translate(150.000000, 206.097290)">
                        <path d="M1.59637714,7.02108686 L24.8563261,0.0431021828 C24.9500454,0.014986373 25.0499546,0.014986373 25.1436739,0.0431021828 L123.403623,29.5210869 C123.668119,29.6004358 123.818211,29.8791775 123.738862,30.1436739 C123.690565,30.3046638 123.564613,30.4306162 123.403623,30.4789131 L100.143674,37.4568978 C100.049955,37.4850136 99.9500454,37.4850136 99.8563261,37.4568978 L1.59637714,7.97891314 C1.33188072,7.89956422 1.18178901,7.62082248 1.26113794,7.35632606 C1.30943491,7.19533616 1.43538725,7.06938383 1.59637714,7.02108686 Z" id="Rectangle-Copy-15" stroke="#052D54" fill="#42607F"></path>
                        <path d="M23.2618262,0.521188118 L24.8563564,0.0430712522 C24.950057,0.0149753186 25.0499409,0.0149822787 25.1436376,0.0430912705 L123.403219,29.5209656 C123.667715,29.6003145 123.817807,29.8790562 123.738458,30.1435527 C123.690154,30.3045662 123.564172,30.4305303 123.403152,30.4788119 L121.808622,30.9569287 C121.714921,30.9850247 121.615037,30.9850177 121.52134,30.9569087 L23.2617594,1.47903442 C22.997263,1.39968549 22.8471713,1.12094376 22.9265202,0.856447336 C22.9748243,0.695433777 23.1008059,0.569469745 23.2618262,0.521188118 Z" id="Rectangle-Copy-15" stroke="#052D54" fill="#DDE4FF"></path>
                        <path d="M1.60684815,7.02118812 L3.2013784,6.54307125 C3.29507896,6.51497532 3.3949629,6.51498228 3.48865954,6.54309127 L101.748241,36.0209656 C102.012737,36.1003145 102.162829,36.3790562 102.08348,36.6435527 C102.035176,36.8045662 101.909194,36.9305303 101.748174,36.9788119 L100.153644,37.4569287 C100.059943,37.4850247 99.9600591,37.4850177 99.8663624,37.4569087 L1.6067814,7.97903442 C1.34228498,7.89968549 1.19219328,7.62094376 1.2715422,7.35644734 C1.31984627,7.19543378 1.44582786,7.06946975 1.60684815,7.02118812 Z" id="Rectangle-Copy-15" stroke="#052D54" fill="#DDE4FF"></path>
                    </g>
                    <path d="M275.359464,66.5680551 L291.369232,61.8791452 C291.634242,61.8015295 291.911995,61.9534428 291.989611,62.218453 C292.002984,62.2641153 292.009772,62.3114526 292.009768,62.3590329 L292.008126,80.8970468 C292.008101,81.1731891 292.231939,81.3970666 292.508081,81.397091 C292.557185,81.3970954 292.606022,81.3898663 292.653019,81.3756367 L327.953442,70.687431 C327.972523,70.6816538 327.992674,70.6924383 327.998451,70.7115188 C327.999478,70.7149107 328,70.7184354 328,70.7219793 L328,220.398627 C328,220.619423 327.855177,220.814079 327.643696,220.877534 L275.643696,236.480192 C275.379204,236.559554 275.100455,236.409475 275.021094,236.144982 C275.007106,236.098366 275,236.049956 275,236.001286 L275,67.0478985 C275,66.825883 275.146399,66.6304573 275.359464,66.5680551 Z" id="Rectangle-Copy-14" stroke="#052D54" fill="#7692FF"></path>
                    <g id="Group-65-Copy-3" stroke="none" fill="none" transform="translate(250.000000, 236.597290)">
                        <path d="M47.9042056,7.5 L48.0047042,7.5 C48.134028,7.5 48.2480401,7.58482852 48.285201,7.70869821 C48.3316752,7.8636123 48.2437673,8.0268698 48.0888532,8.07334403 L46.3972658,8.58082027 C46.2578685,8.62263946 46.1436097,8.72311896 46.0843171,8.85602815 L43.9977934,13.5331474 C43.9173942,13.7133689 43.7385127,13.8294421 43.5411708,13.8294421 L28.9752441,13.8294421 C28.9265818,13.8294421 28.8781802,13.8365459 28.8315702,13.8505289 L25.1436739,14.9568978 C25.0499546,14.9850136 24.9500454,14.9850136 24.8563261,14.9568978 L21.2290023,13.8687007 C21.1924055,13.8577217 21.1546708,13.8509736 21.1165371,13.8485888 L7.75858559,13.0131909 C7.62374599,13.0047581 7.49805789,12.9421176 7.41014167,12.8395332 L3.91038709,8.75586836 C3.8480582,8.68314032 3.76615125,8.62984537 3.6744084,8.60232252 L1.90746159,8.07223848 C1.78383076,8.03514923 1.69916581,7.92135694 1.69916581,7.79228256 C1.69916581,7.63085936 1.83002517,7.5 1.99144837,7.5 L2.00174446,7.5 C1.83948668,7.5 1.70795075,7.36846408 1.70795075,7.2062063 C1.70795075,7.07646458 1.79305343,6.96208397 1.91732346,6.92480296 L3.64842704,6.40547189 C3.76820544,6.36953837 3.87017071,6.29002546 3.93421178,6.18261584 L5.71171473,3.20138983 C5.79092404,3.06854005 5.92715749,2.97982745 6.08069298,2.96111828 L21.2769692,1.1093667 C21.3051444,1.10593339 21.3329761,1.10010718 21.3601627,1.0919512 L24.8563261,0.0431021828 C24.9500454,0.014986373 25.0499546,0.014986373 25.1436739,0.0431021828 L28.8624074,1.15872223 C28.9047214,1.17141643 28.9485311,1.17844682 28.9926924,1.17962979 L40.7600381,1.49484939 C40.8838008,1.49816471 41.0019324,1.54727919 41.091565,1.63268533 L45.8985566,6.2130112 C45.9555055,6.2672748 46.024454,6.3073362 46.0997986,6.32993958 L47.992593,6.89777791 C48.1553098,6.94659294 48.2476454,7.11807335 48.1988304,7.28079013 C48.1597977,7.41089886 48.0400431,7.5 47.9042056,7.5 Z" id="Combined-Shape" fill="#42607F"></path>
                        <path d="M4.95196539,7.5 C5.0648524,7.5 5.16434164,7.57412896 5.19663134,7.68229944 C5.23696724,7.81742471 5.16012527,7.9596641 5.025,8 L3.49301776,8.45730813 C3.39970689,8.48516212 3.30029311,8.48516212 3.20698224,8.45730813 L1.675,8 C1.56682952,7.9677103 1.49270056,7.86822107 1.49270056,7.75533405 C1.49270056,7.61431695 1.60701751,7.5 1.74803461,7.5 C1.60701751,7.5 1.49270056,7.38568305 1.49270056,7.24466595 C1.49270056,7.13177893 1.56682952,7.0322897 1.675,7 L3.20698224,6.54269187 C3.30029311,6.51483788 3.39970689,6.51483788 3.49301776,6.54269187 L5.025,7 C5.16012527,7.0403359 5.23696724,7.18257529 5.19663134,7.31770056 C5.16434164,7.42587104 5.0648524,7.5 4.95196539,7.5 Z" id="Combined-Shape" stroke="#052D54" fill="#DDE4FF"></path>
                        <path d="M26.6019654,1 C26.7148524,1 26.8143416,1.07412896 26.8466313,1.18229944 C26.8869672,1.31742471 26.8101253,1.4596641 26.675,1.5 L25.1430178,1.95730813 C25.0497069,1.98516212 24.9502931,1.98516212 24.8569822,1.95730813 L23.325,1.5 C23.2168295,1.4677103 23.1427006,1.36822107 23.1427006,1.25533405 C23.1427006,1.11431695 23.2570175,1 23.3980346,1 C23.2570175,1 23.1427006,0.88568305 23.1427006,0.744665946 C23.1427006,0.631778933 23.2168295,0.532289696 23.325,0.5 L24.8569822,0.0426918696 C24.9502931,0.0148378785 25.0497069,0.0148378785 25.1430178,0.0426918696 L26.675,0.5 C26.8101253,0.540335902 26.8869672,0.682575286 26.8466313,0.817700556 C26.8143416,0.925871038 26.7148524,1 26.6019654,1 Z" id="Combined-Shape-Copy-9" stroke="#052D54" fill="#DDE4FF"></path>
                        <path d="M26.6019654,14 C26.7148524,14 26.8143416,14.074129 26.8466313,14.1822994 C26.8869672,14.3174247 26.8101253,14.4596641 26.675,14.5 L25.1430178,14.9573081 C25.0497069,14.9851621 24.9502931,14.9851621 24.8569822,14.9573081 L23.325,14.5 C23.2168295,14.4677103 23.1427006,14.3682211 23.1427006,14.2553341 C23.1427006,14.114317 23.2570175,14 23.3980346,14 C23.2570175,14 23.1427006,13.885683 23.1427006,13.7446659 C23.1427006,13.6317789 23.2168295,13.5322897 23.325,13.5 L24.8569822,13.0426919 C24.9502931,13.0148379 25.0497069,13.0148379 25.1430178,13.0426919 L26.675,13.5 C26.8101253,13.5403359 26.8869672,13.6825753 26.8466313,13.8177006 C26.8143416,13.925871 26.7148524,14 26.6019654,14 Z" id="Combined-Shape-Copy-9" stroke="#052D54" fill="#DDE4FF"></path>
                        <path d="M48.2519654,7.5 C48.3648524,7.5 48.4643416,7.57412896 48.4966313,7.68229944 C48.5369672,7.81742471 48.4601253,7.9596641 48.325,8 L46.7930178,8.45730813 C46.6997069,8.48516212 46.6002931,8.48516212 46.5069822,8.45730813 L44.975,8 C44.8668295,7.9677103 44.7927006,7.86822107 44.7927006,7.75533405 C44.7927006,7.61431695 44.9070175,7.5 45.0480346,7.5 C44.9070175,7.5 44.7927006,7.38568305 44.7927006,7.24466595 C44.7927006,7.13177893 44.8668295,7.0322897 44.975,7 L46.5069822,6.54269187 C46.6002931,6.51483788 46.6997069,6.51483788 46.7930178,6.54269187 L48.325,7 C48.4601253,7.0403359 48.5369672,7.18257529 48.4966313,7.31770056 C48.4643416,7.42587104 48.3648524,7.5 48.2519654,7.5 Z" id="Combined-Shape" stroke="#052D54" fill="#DDE4FF"></path>
                    </g>
                    <g id="Group-65-Copy" stroke="none" fill="none" transform="translate(375.000000, 274.097290)">
                        <path d="M46.5932822,7.5 C46.8140864,7.5 47.0087478,7.64483408 47.0721954,7.85632606 C47.1515443,8.12082248 47.0014526,8.39956422 46.7369562,8.47891314 L25.1436739,14.9568978 C25.0499546,14.9850136 24.9500454,14.9850136 24.8563261,14.9568978 L3.26304381,8.47891314 C3.05155183,8.41546555 2.90671775,8.22080411 2.90671775,8 C2.90671775,7.72385763 3.13057538,7.5 3.40671775,7.5 C3.13057538,7.5 2.90671775,7.27614237 2.90671775,7 C2.90671775,6.77919589 3.05155183,6.58453445 3.26304381,6.52108686 L24.8563261,0.0431021828 C24.9500454,0.014986373 25.0499546,0.014986373 25.1436739,0.0431021828 L46.7369562,6.52108686 C47.0014526,6.60043578 47.1515443,6.87917752 47.0721954,7.14367394 C47.0087478,7.35516592 46.8140864,7.5 46.5932822,7.5 Z" id="Combined-Shape" stroke="#052D54" fill="#44627F"></path>
                        <path d="M4.95196539,7.5 C5.0648524,7.5 5.16434164,7.57412896 5.19663134,7.68229944 C5.23696724,7.81742471 5.16012527,7.9596641 5.025,8 L3.49301776,8.45730813 C3.39970689,8.48516212 3.30029311,8.48516212 3.20698224,8.45730813 L1.675,8 C1.56682952,7.9677103 1.49270056,7.86822107 1.49270056,7.75533405 C1.49270056,7.61431695 1.60701751,7.5 1.74803461,7.5 C1.60701751,7.5 1.49270056,7.38568305 1.49270056,7.24466595 C1.49270056,7.13177893 1.56682952,7.0322897 1.675,7 L3.20698224,6.54269187 C3.30029311,6.51483788 3.39970689,6.51483788 3.49301776,6.54269187 L5.025,7 C5.16012527,7.0403359 5.23696724,7.18257529 5.19663134,7.31770056 C5.16434164,7.42587104 5.0648524,7.5 4.95196539,7.5 Z" id="Combined-Shape" stroke="#052D54" fill="#DDE4FF"></path>
                    </g>
                    <g id="Group-65-Copy-2" stroke="none" fill="none" transform="translate(125.000000, 274.097290)">
                        <path d="M46.5932822,7.5 C46.8140864,7.5 47.0087478,7.64483408 47.0721954,7.85632606 C47.1515443,8.12082248 47.0014526,8.39956422 46.7369562,8.47891314 L25.1436739,14.9568978 C25.0499546,14.9850136 24.9500454,14.9850136 24.8563261,14.9568978 L3.26304381,8.47891314 C3.05155183,8.41546555 2.90671775,8.22080411 2.90671775,8 C2.90671775,7.72385763 3.13057538,7.5 3.40671775,7.5 C3.13057538,7.5 2.90671775,7.27614237 2.90671775,7 C2.90671775,6.77919589 3.05155183,6.58453445 3.26304381,6.52108686 L24.8563261,0.0431021828 C24.9500454,0.014986373 25.0499546,0.014986373 25.1436739,0.0431021828 L46.7369562,6.52108686 C47.0014526,6.60043578 47.1515443,6.87917752 47.0721954,7.14367394 C47.0087478,7.35516592 46.8140864,7.5 46.5932822,7.5 Z" id="Combined-Shape" stroke="#052D54" fill="#E7F5F8"></path>
                        <path d="M4.95196539,7.5 C5.0648524,7.5 5.16434164,7.57412896 5.19663134,7.68229944 C5.23696724,7.81742471 5.16012527,7.9596641 5.025,8 L3.49301776,8.45730813 C3.39970689,8.48516212 3.30029311,8.48516212 3.20698224,8.45730813 L1.675,8 C1.56682952,7.9677103 1.49270056,7.86822107 1.49270056,7.75533405 C1.49270056,7.61431695 1.60701751,7.5 1.74803461,7.5 C1.60701751,7.5 1.49270056,7.38568305 1.49270056,7.24466595 C1.49270056,7.13177893 1.56682952,7.0322897 1.675,7 L3.20698224,6.54269187 C3.30029311,6.51483788 3.39970689,6.51483788 3.49301776,6.54269187 L5.025,7 C5.16012527,7.0403359 5.23696724,7.18257529 5.19663134,7.31770056 C5.16434164,7.42587104 5.0648524,7.5 4.95196539,7.5 Z" id="Combined-Shape" stroke="#052D54" fill="#E7F5F8"></path>
                        <path d="M26.6019654,1 C26.7148524,1 26.8143416,1.07412896 26.8466313,1.18229944 C26.8869672,1.31742471 26.8101253,1.4596641 26.675,1.5 L25.1430178,1.95730813 C25.0497069,1.98516212 24.9502931,1.98516212 24.8569822,1.95730813 L23.325,1.5 C23.2168295,1.4677103 23.1427006,1.36822107 23.1427006,1.25533405 C23.1427006,1.11431695 23.2570175,1 23.3980346,1 C23.2570175,1 23.1427006,0.88568305 23.1427006,0.744665946 C23.1427006,0.631778933 23.2168295,0.532289696 23.325,0.5 L24.8569822,0.0426918696 C24.9502931,0.0148378785 25.0497069,0.0148378785 25.1430178,0.0426918696 L26.675,0.5 C26.8101253,0.540335902 26.8869672,0.682575286 26.8466313,0.817700556 C26.8143416,0.925871038 26.7148524,1 26.6019654,1 Z" id="Combined-Shape-Copy-9" stroke="#052D54" fill="#E7F5F8"></path>
                        <path d="M26.6019654,14 C26.7148524,14 26.8143416,14.074129 26.8466313,14.1822994 C26.8869672,14.3174247 26.8101253,14.4596641 26.675,14.5 L25.1430178,14.9573081 C25.0497069,14.9851621 24.9502931,14.9851621 24.8569822,14.9573081 L23.325,14.5 C23.2168295,14.4677103 23.1427006,14.3682211 23.1427006,14.2553341 C23.1427006,14.114317 23.2570175,14 23.3980346,14 C23.2570175,14 23.1427006,13.885683 23.1427006,13.7446659 C23.1427006,13.6317789 23.2168295,13.5322897 23.325,13.5 L24.8569822,13.0426919 C24.9502931,13.0148379 25.0497069,13.0148379 25.1430178,13.0426919 L26.675,13.5 C26.8101253,13.5403359 26.8869672,13.6825753 26.8466313,13.8177006 C26.8143416,13.925871 26.7148524,14 26.6019654,14 Z" id="Combined-Shape-Copy-9" stroke="#052D54" fill="#E7F5F8"></path>
                        <path d="M48.2519654,7.5 C48.3648524,7.5 48.4643416,7.57412896 48.4966313,7.68229944 C48.5369672,7.81742471 48.4601253,7.9596641 48.325,8 L46.7930178,8.45730813 C46.6997069,8.48516212 46.6002931,8.48516212 46.5069822,8.45730813 L44.975,8 C44.8668295,7.9677103 44.7927006,7.86822107 44.7927006,7.75533405 C44.7927006,7.61431695 44.9070175,7.5 45.0480346,7.5 C44.9070175,7.5 44.7927006,7.38568305 44.7927006,7.24466595 C44.7927006,7.13177893 44.8668295,7.0322897 44.975,7 L46.5069822,6.54269187 C46.6002931,6.51483788 46.6997069,6.51483788 46.7930178,6.54269187 L48.325,7 C48.4601253,7.0403359 48.5369672,7.18257529 48.4966313,7.31770056 C48.4643416,7.42587104 48.3648524,7.5 48.2519654,7.5 Z" id="Combined-Shape" stroke="#052D54" fill="#E7F5F8"></path>
                    </g>
                    <path d="M238.352957,44.9886879 L263.352957,37.2963802 C263.616888,37.2151706 263.89668,37.3632957 263.97789,37.6272267 C263.992547,37.674865 264,37.7244273 264,37.7742697 L264,186.728003 C264,186.947505 263.856839,187.14134 263.647043,187.205892 L238.647043,194.8982 C238.383112,194.979409 238.10332,194.831284 238.02211,194.567353 C238.007453,194.519715 238,194.470153 238,194.42031 L238,45.4665774 C238,45.2470749 238.143161,45.0532404 238.352957,44.9886879 Z" id="Rectangle-Copy-20" stroke="#052D54" fill="#EEF1FF"></path>
                    <path d="M213.553141,36.6194005 L237.852957,29.142534 C237.948769,29.1130534 238.051231,29.1130534 238.147043,29.142534 L262.446859,36.6194005 C262.71079,36.7006101 262.858915,36.9804019 262.777706,37.244333 C262.72901,37.4025947 262.605121,37.5264836 262.446859,37.5751795 L238.147043,45.0520461 C238.051231,45.0815267 237.948769,45.0815267 237.852957,45.0520461 L213.553141,37.5751795 C213.28921,37.49397 213.141085,37.2141782 213.222294,36.9502471 C213.27099,36.7919854 213.394879,36.6680964 213.553141,36.6194005 Z" id="Rectangle-Copy-22" stroke="#052D54" fill="#DDE4FF" transform="translate(238.000000, 37.097290) scale(-1, 1) translate(-238.000000, -37.097290) "></path>
                    <path d="M212.352957,44.9886879 L237.352957,37.2963802 C237.616888,37.2151706 237.89668,37.3632957 237.97789,37.6272267 C237.992547,37.674865 238,37.7244273 238,37.7742697 L238,186.728003 C238,186.947505 237.856839,187.14134 237.647043,187.205892 L212.647043,194.8982 C212.383112,194.979409 212.10332,194.831284 212.02211,194.567353 C212.007453,194.519715 212,194.470153 212,194.42031 L212,45.4665774 C212,45.2470749 212.143161,45.0532404 212.352957,44.9886879 Z" id="Rectangle-Copy-20" stroke="#052D54" fill="#7692FF" transform="translate(225.000000, 116.097290) scale(-1, 1) translate(-225.000000, -116.097290) "></path>
                    <g id="Group-65-Copy-4" stroke="none" fill="none" transform="translate(0.000000, 236.597290)">
                        <path d="M4.95196539,7.5 C5.0648524,7.5 5.16434164,7.57412896 5.19663134,7.68229944 C5.23696724,7.81742471 5.16012527,7.9596641 5.025,8 L3.49301776,8.45730813 C3.39970689,8.48516212 3.30029311,8.48516212 3.20698224,8.45730813 L1.675,8 C1.56682952,7.9677103 1.49270056,7.86822107 1.49270056,7.75533405 C1.49270056,7.61431695 1.60701751,7.5 1.74803461,7.5 C1.60701751,7.5 1.49270056,7.38568305 1.49270056,7.24466595 C1.49270056,7.13177893 1.56682952,7.0322897 1.675,7 L3.20698224,6.54269187 C3.30029311,6.51483788 3.39970689,6.51483788 3.49301776,6.54269187 L5.025,7 C5.16012527,7.0403359 5.23696724,7.18257529 5.19663134,7.31770056 C5.16434164,7.42587104 5.0648524,7.5 4.95196539,7.5 Z" id="Combined-Shape" stroke="#052D54" fill="#E7F5F8"></path>
                        <path d="M26.6019654,1 C26.7148524,1 26.8143416,1.07412896 26.8466313,1.18229944 C26.8869672,1.31742471 26.8101253,1.4596641 26.675,1.5 L25.1430178,1.95730813 C25.0497069,1.98516212 24.9502931,1.98516212 24.8569822,1.95730813 L23.325,1.5 C23.2168295,1.4677103 23.1427006,1.36822107 23.1427006,1.25533405 C23.1427006,1.11431695 23.2570175,1 23.3980346,1 C23.2570175,1 23.1427006,0.88568305 23.1427006,0.744665946 C23.1427006,0.631778933 23.2168295,0.532289696 23.325,0.5 L24.8569822,0.0426918696 C24.9502931,0.0148378785 25.0497069,0.0148378785 25.1430178,0.0426918696 L26.675,0.5 C26.8101253,0.540335902 26.8869672,0.682575286 26.8466313,0.817700556 C26.8143416,0.925871038 26.7148524,1 26.6019654,1 Z" id="Combined-Shape-Copy-9" stroke="#052D54" fill="#E7F5F8"></path>
                        <path d="M26.6019654,14 C26.7148524,14 26.8143416,14.074129 26.8466313,14.1822994 C26.8869672,14.3174247 26.8101253,14.4596641 26.675,14.5 L25.1430178,14.9573081 C25.0497069,14.9851621 24.9502931,14.9851621 24.8569822,14.9573081 L23.325,14.5 C23.2168295,14.4677103 23.1427006,14.3682211 23.1427006,14.2553341 C23.1427006,14.114317 23.2570175,14 23.3980346,14 C23.2570175,14 23.1427006,13.885683 23.1427006,13.7446659 C23.1427006,13.6317789 23.2168295,13.5322897 23.325,13.5 L24.8569822,13.0426919 C24.9502931,13.0148379 25.0497069,13.0148379 25.1430178,13.0426919 L26.675,13.5 C26.8101253,13.5403359 26.8869672,13.6825753 26.8466313,13.8177006 C26.8143416,13.925871 26.7148524,14 26.6019654,14 Z" id="Combined-Shape-Copy-9" stroke="#052D54" fill="#E7F5F8"></path>
                        <path d="M48.2519654,7.5 C48.3648524,7.5 48.4643416,7.57412896 48.4966313,7.68229944 C48.5369672,7.81742471 48.4601253,7.9596641 48.325,8 L46.7930178,8.45730813 C46.6997069,8.48516212 46.6002931,8.48516212 46.5069822,8.45730813 L44.975,8 C44.8668295,7.9677103 44.7927006,7.86822107 44.7927006,7.75533405 C44.7927006,7.61431695 44.9070175,7.5 45.0480346,7.5 C44.9070175,7.5 44.7927006,7.38568305 44.7927006,7.24466595 C44.7927006,7.13177893 44.8668295,7.0322897 44.975,7 L46.5069822,6.54269187 C46.6002931,6.51483788 46.6997069,6.51483788 46.7930178,6.54269187 L48.325,7 C48.4601253,7.0403359 48.5369672,7.18257529 48.4966313,7.31770056 C48.4643416,7.42587104 48.3648524,7.5 48.2519654,7.5 Z" id="Combined-Shape" stroke="#052D54" fill="#E7F5F8"></path>
                    </g>
                    <path d="M238.357515,66.5670458 L274.357515,55.8643431 C274.622207,55.7856508 274.900576,55.9364337 274.979268,56.2011262 C274.993017,56.2473722 275,56.2953648 275,56.3436113 L275,225.300354 C275,225.521617 274.854574,225.716569 274.642485,225.779622 L238.642485,236.482325 C238.377793,236.561017 238.099424,236.410234 238.020732,236.145542 C238.006983,236.099296 238,236.051303 238,236.003057 L238,67.046314 C238,66.8250509 238.145426,66.6300993 238.357515,66.5670458 Z" id="Rectangle-Copy-23" stroke="#052D54" fill="#F1F4FF" transform="translate(256.500000, 146.173334) scale(-1, 1) translate(-256.500000, -146.173334) "></path>
                    <path d="M114.624162,98.6326259 L149.858574,88.1575302 C149.95089,88.1300849 150.049168,88.1298852 150.141595,88.156955 L165.383704,92.6210374 C165.648714,92.6986531 165.800627,92.9764063 165.723011,93.2414165 C165.675319,93.4042558 165.548297,93.5317953 165.385653,93.580149 L130.15124,104.055245 C130.058924,104.08269 129.960646,104.08289 129.86822,104.05582 L114.626111,99.5917375 C114.361101,99.5141217 114.209188,99.2363685 114.286804,98.9713583 C114.334496,98.8085191 114.461518,98.6809795 114.624162,98.6326259 Z" id="Rectangle-Copy-17" stroke="#052D54" fill="#DDE4FF" transform="translate(140.004907, 96.106387) scale(-1, 1) translate(-140.004907, -96.106387) "></path>
                    <path d="M239.624162,61.2144311 L274.858574,50.7393355 C274.95089,50.7118902 275.049168,50.7116904 275.141595,50.7387602 L290.383704,55.2028426 C290.648714,55.2804584 290.800627,55.5582116 290.723011,55.8232218 C290.675319,55.986061 290.548297,56.1136006 290.385653,56.1619542 L255.15124,66.6370499 C255.058924,66.6644952 254.960646,66.6646949 254.86822,66.6376251 L239.626111,62.1735427 C239.361101,62.095927 239.209188,61.8181738 239.286804,61.5531636 C239.334496,61.3903243 239.461518,61.2627847 239.624162,61.2144311 Z" id="Rectangle-Copy-17" stroke="#052D54" fill="#DDE4FF" transform="translate(265.004907, 58.688193) scale(-1, 1) translate(-265.004907, -58.688193) "></path>
                    <path d="M167.604947,113.620144 L202.856881,103.139839 C202.950257,103.112079 203.049707,103.112199 203.143015,103.140186 L248.396217,116.713538 C248.660717,116.792872 248.810824,117.071606 248.731489,117.336107 C248.683071,117.49753 248.556593,117.623701 248.395053,117.671726 L213.143119,128.152031 C213.049743,128.179791 212.950293,128.179671 212.856985,128.151684 L167.603783,114.578333 C167.339283,114.498998 167.189176,114.220264 167.268511,113.955763 C167.316929,113.79434 167.443407,113.668169 167.604947,113.620144 Z" id="Rectangle-Copy-19" stroke="#052D54" fill="#DDE4FF" transform="translate(208.000000, 115.645935) scale(-1, 1) translate(-208.000000, -115.645935) "></path>
                    <path d="M131.590025,67.606385 L166.855538,57.1220434 C166.949753,57.0940337 167.050133,57.0944137 167.144133,57.1231358 L201.413599,67.5943616 C201.677688,67.6750555 201.826359,67.9545574 201.745665,68.2186466 C201.696685,68.3789467 201.570641,68.5040399 201.409975,68.5518055 L166.144462,79.0361472 C166.050247,79.0641569 165.949867,79.0637769 165.855867,79.0350548 L131.586401,68.563829 C131.322312,68.4831351 131.173641,68.2036332 131.254335,67.939544 C131.303315,67.7792439 131.429359,67.6541507 131.590025,67.606385 Z" id="Rectangle-Copy-18" stroke="#052D54" fill="#DDE4FF" transform="translate(166.500000, 68.079095) scale(-1, 1) translate(-166.500000, -68.079095) "></path>
                    <path d="M76.3529571,31.9886879 L101.352957,24.2963802 C101.616888,24.2151706 101.89668,24.3632957 101.97789,24.6272267 C101.992547,24.674865 102,24.7244273 102,24.7742697 L102,243.728003 C102,243.947505 101.856839,244.14134 101.647043,244.205892 L76.6470429,251.8982 C76.3831118,251.979409 76.1033201,251.831284 76.0221105,251.567353 C76.0074526,251.519715 76,251.470153 76,251.42031 L76,32.4665774 C76,32.2470749 76.1431613,32.0532404 76.3529571,31.9886879 Z" id="Rectangle-Copy-20" stroke="#052D54" fill="#7692FF"></path>
                    <path d="M77.5900254,111.62458 L112.855538,101.140238 C112.949753,101.112228 113.050133,101.112608 113.144133,101.141331 L147.413599,111.612556 C147.677688,111.69325 147.826359,111.972752 147.745665,112.236841 C147.696685,112.397141 147.570641,112.522235 147.409975,112.57 L112.144462,123.054342 C112.050247,123.082352 111.949867,123.081972 111.855867,123.05325 L77.5864012,112.582024 C77.3223121,112.50133 77.1736408,112.221828 77.2543347,111.957739 C77.3033153,111.797439 77.4293591,111.672345 77.5900254,111.62458 Z" id="Rectangle-Copy-21" stroke="#052D54" fill="#DDE4FF" transform="translate(112.500000, 112.097290) scale(-1, 1) translate(-112.500000, -112.097290) "></path>
                    <path d="M51.5531409,23.6194005 L75.8529571,16.142534 C75.9487692,16.1130534 76.0512308,16.1130534 76.1470429,16.142534 L100.446859,23.6194005 C100.71079,23.7006101 100.858915,23.9804019 100.777706,24.244333 C100.72901,24.4025947 100.605121,24.5264836 100.446859,24.5751795 L76.1470429,32.0520461 C76.0512308,32.0815267 75.9487692,32.0815267 75.8529571,32.0520461 L51.5531409,24.5751795 C51.2892098,24.49397 51.1410847,24.2141782 51.2222943,23.9502471 C51.2709902,23.7919854 51.3948792,23.6680964 51.5531409,23.6194005 Z" id="Rectangle-Copy-22" stroke="#052D54" fill="#DDE4FF" transform="translate(76.000000, 24.097290) scale(-1, 1) translate(-76.000000, -24.097290) "></path>
                    <path d="M130.6523,98.9244757 L166.6523,88.221773 C166.864389,88.1587196 167.009815,87.9637679 167.009815,87.7425048 L167.009815,68.7493726 C167.009815,68.4732302 166.785957,68.2493726 166.509815,68.2493726 C166.461568,68.2493726 166.413576,68.2563556 166.36733,68.2701044 L130.36733,78.9728071 C130.155241,79.0358605 130.009815,79.2308121 130.009815,79.4520753 L130.009815,98.4452075 C130.009815,98.7213499 130.233672,98.9452075 130.509815,98.9452075 C130.558061,98.9452075 130.606054,98.9382245 130.6523,98.9244757 Z" id="Rectangle-Copy-17" stroke="#052D54" fill-opacity="0.05" fill="#38AECC" transform="translate(148.509815, 83.597290) scale(-1, 1) translate(-148.509815, -83.597290) "></path>
                    <path d="M150.359464,103.992011 L166.65033,99.2207736 C166.86341,99.1583669 167.009813,98.9629182 167.009794,98.7408864 L167.008098,79.3659312 C167.008079,79.1455819 167.152311,78.951196 167.363205,78.8873418 L202.953442,68.1113867 C202.972523,68.1056095 202.992674,68.116394 202.998451,68.1354746 C202.999478,68.1388665 203,68.1423911 203,68.1459351 L203,257.822583 C203,258.043378 202.855177,258.238034 202.643696,258.301489 L150.643696,273.904148 C150.379204,273.98351 150.100455,273.833431 150.021094,273.568938 C150.007106,273.522321 150,273.473912 150,273.425242 L150,104.471854 C150,104.249839 150.146399,104.054413 150.359464,103.992011 Z" id="Rectangle" stroke="#052D54" fill="#44627F"></path>
                    <path d="M203.356351,128.087695 L249.356351,114.290348 C249.620852,114.211013 249.899586,114.361119 249.978921,114.62562 C249.992899,114.672222 250,114.720615 250,114.769268 L250,243.725254 C250,243.946068 249.855153,244.140736 249.643649,244.204175 L203.643649,258.001523 C203.379148,258.080858 203.100414,257.930751 203.021079,257.66625 C203.007101,257.619648 203,257.571255 203,257.522602 L203,128.566616 C203,128.345802 203.144847,128.151134 203.356351,128.087695 Z" id="Rectangle" stroke="#052D54" fill="#052D54"></path>
                    <path d="M301.596709,13.6183693 L346.856351,0.0430863 C346.950055,0.0149806228 347.049945,0.0149806228 347.143649,0.0430863 L392.403291,13.6183693 C392.667791,13.6977042 392.817898,13.976438 392.738563,14.2409386 C392.690269,14.4019491 392.564301,14.5279169 392.403291,14.5762108 L347.143649,28.1514938 C347.049945,28.1795995 346.950055,28.1795995 346.856351,28.1514938 L301.596709,14.5762108 C301.332209,14.4968758 301.182102,14.2181421 301.261437,13.9536414 C301.309731,13.792631 301.435699,13.6666631 301.596709,13.6183693 Z" id="Rectangle-Copy-19" stroke="#052D54" fill="#56E39F" transform="translate(347.000000, 14.097290) scale(-1, 1) translate(-347.000000, -14.097290) "></path>
                    <path d="M347.356351,28.0876952 L393.356351,14.2903475 C393.620852,14.2110126 393.899586,14.361119 393.978921,14.6256196 C393.992899,14.6722219 394,14.7206148 394,14.7692683 L394,243.725254 C394,243.946068 393.855153,244.140736 393.643649,244.204175 L347.643649,258.001523 C347.379148,258.080858 347.100414,257.930751 347.021079,257.66625 C347.007101,257.619648 347,257.571255 347,257.522602 L347,28.5666159 C347,28.3458021 347.144847,28.1511344 347.356351,28.0876952 Z" id="Rectangle" stroke="#052D54" fill="#EEF1FF"></path>
                    <path d="M300.356351,28.0876952 L346.356351,14.2903475 C346.620852,14.2110126 346.899586,14.361119 346.978921,14.6256196 C346.992899,14.6722219 347,14.7206148 347,14.7692683 L347,243.725254 C347,243.946068 346.855153,244.140736 346.643649,244.204175 L300.643649,258.001523 C300.379148,258.080858 300.100414,257.930751 300.021079,257.66625 C300.007101,257.619648 300,257.571255 300,257.522602 L300,28.5666159 C300,28.3458021 300.144847,28.1511344 300.356351,28.0876952 Z" id="Rectangle" stroke="#052D54" fill="#DDE4FF" transform="translate(323.500000, 136.145935) scale(-1, 1) translate(-323.500000, -136.145935) "></path>
                    <path d="M113.357515,103.991002 L149.357515,93.2882991 C149.622207,93.2096068 149.900576,93.3603897 149.979268,93.6250822 C149.993017,93.6713282 150,93.7193208 150,93.7675673 L150,262.72431 C150,262.945573 149.854574,263.140525 149.642485,263.203578 L113.642485,273.906281 C113.377793,273.984973 113.099424,273.83419 113.020732,273.569498 C113.006983,273.523252 113,273.475259 113,273.427013 L113,104.47027 C113,104.249007 113.145426,104.054055 113.357515,103.991002 Z" id="Rectangle-Copy-17" stroke="#052D54" fill="#3F8EFC" transform="translate(131.500000, 183.597290) scale(-1, 1) translate(-131.500000, -183.597290) "></path>
                    <path d="M76.3575149,122.991002 L112.357515,112.288299 C112.622207,112.209607 112.900576,112.36039 112.979268,112.625082 C112.993017,112.671328 113,112.719321 113,112.767567 L113,251.72431 C113,251.945573 112.854574,252.140525 112.642485,252.203578 L76.6424851,262.906281 C76.3777926,262.984973 76.0994242,262.83419 76.0207318,262.569498 C76.006983,262.523252 76,262.475259 76,262.427013 L76,123.47027 C76,123.249007 76.1454261,123.054055 76.3575149,122.991002 Z" id="Rectangle-Copy-17" stroke="#052D54" fill="#BAC8FF" transform="translate(94.500000, 187.597290) scale(-1, 1) translate(-94.500000, -187.597290) "></path>
                    <path d="M348.590025,117.87458 L383.855538,107.390238 C383.949753,107.362228 384.050133,107.362608 384.144133,107.391331 L418.413599,117.862556 C418.677688,117.94325 418.826359,118.222752 418.745665,118.486841 C418.696685,118.647141 418.570641,118.772235 418.409975,118.82 L383.144462,129.304342 C383.050247,129.332352 382.949867,129.331972 382.855867,129.30325 L348.586401,118.832024 C348.322312,118.75133 348.173641,118.471828 348.254335,118.207739 C348.303315,118.047439 348.429359,117.922345 348.590025,117.87458 Z" id="Rectangle-Copy-21" stroke="#052D54" fill="#DDE4FF" transform="translate(383.500000, 118.347290) scale(-1, 1) translate(-383.500000, -118.347290) "></path>
                    <path d="M347.357515,129.241002 L383.357515,118.538299 C383.622207,118.459607 383.900576,118.61039 383.979268,118.875082 C383.993017,118.921328 384,118.969321 384,119.017567 L384,257.97431 C384,258.195573 383.854574,258.390525 383.642485,258.453578 L347.642485,269.156281 C347.377793,269.234973 347.099424,269.08419 347.020732,268.819498 C347.006983,268.773252 347,268.725259 347,268.677013 L347,129.72027 C347,129.499007 347.145426,129.304055 347.357515,129.241002 Z" id="Rectangle-Copy-17" stroke="#052D54" fill="#3F8EFC" transform="translate(365.500000, 193.847290) scale(-1, 1) translate(-365.500000, -193.847290) "></path>
                    <path d="M50.3529571,31.9886879 L75.3529571,24.2963802 C75.6168882,24.2151706 75.8966799,24.3632957 75.9778895,24.6272267 C75.9925474,24.674865 76,24.7244273 76,24.7742697 L76,243.728003 C76,243.947505 75.8568387,244.14134 75.6470429,244.205892 L50.6470429,251.8982 C50.3831118,251.979409 50.1033201,251.831284 50.0221105,251.567353 C50.0074526,251.519715 50,251.470153 50,251.42031 L50,32.4665774 C50,32.2470749 50.1431613,32.0532404 50.3529571,31.9886879 Z" id="Rectangle-Copy-20" stroke="#052D54" fill="#EEF1FF" transform="translate(63.000000, 138.097290) scale(-1, 1) translate(-63.000000, -138.097290) "></path>
                </g>
            </g>
            <g id="Group-58-Copy" mask="url(#mask-4)" stroke="#052D54">
                <g transform="translate(490.000000, 374.500000) scale(-1, 1) translate(-490.000000, -374.500000) translate(273.000000, 211.000000)">
                    <path d="M283.044555,76.1144311 L305.503696,69.4373892 C305.762322,69.3605004 306.035306,69.5026752 306.120563,69.7586647 L308.846599,77.9437417 C308.933856,78.2057357 308.792203,78.4888595 308.53021,78.5761164 C308.525067,78.5778291 308.519897,78.579458 308.514702,78.5810026 L298.571634,81.5370499 C298.479318,81.5644952 298.38104,81.5646949 298.288613,81.5376251 L283.046505,77.0735427 C282.781494,76.995927 282.629581,76.7181738 282.707197,76.4531636 C282.754889,76.2903243 282.881911,76.1627847 283.044555,76.1144311 Z" id="Rectangle-Copy-24" fill="#DDE4FF" transform="translate(295.215104, 75.439280) scale(-1, 1) translate(-295.215104, -75.439280) "></path>
                    <path d="M275.359464,66.5680551 L291.369232,61.8791452 C291.634242,61.8015295 291.911995,61.9534428 291.989611,62.218453 C292.002984,62.2641153 292.009772,62.3114526 292.009768,62.3590329 L292.008126,80.8970468 C292.008101,81.1731891 292.231939,81.3970666 292.508081,81.397091 C292.557185,81.3970954 292.606022,81.3898663 292.653019,81.3756367 L327.953442,70.687431 C327.972523,70.6816538 327.992674,70.6924383 327.998451,70.7115188 C327.999478,70.7149107 328,70.7184354 328,70.7219793 L328,220.398627 C328,220.619423 327.855177,220.814079 327.643696,220.877534 L275.643696,236.480192 C275.379204,236.559554 275.100455,236.409475 275.021094,236.144982 C275.007106,236.098366 275,236.049956 275,236.001286 L275,67.0478985 C275,66.825883 275.146399,66.6304573 275.359464,66.5680551 Z" id="Rectangle-Copy-14" fill="#3F8EFC"></path>
                    <path d="M238.352957,44.9886879 L263.352957,37.2963802 C263.616888,37.2151706 263.89668,37.3632957 263.97789,37.6272267 C263.992547,37.674865 264,37.7244273 264,37.7742697 L264,186.728003 C264,186.947505 263.856839,187.14134 263.647043,187.205892 L238.647043,194.8982 C238.383112,194.979409 238.10332,194.831284 238.02211,194.567353 C238.007453,194.519715 238,194.470153 238,194.42031 L238,45.4665774 C238,45.2470749 238.143161,45.0532404 238.352957,44.9886879 Z" id="Rectangle-Copy-20" fill="#F1F4FF"></path>
                    <path d="M213.553141,36.6194005 L237.852957,29.142534 C237.948769,29.1130534 238.051231,29.1130534 238.147043,29.142534 L262.446859,36.6194005 C262.71079,36.7006101 262.858915,36.9804019 262.777706,37.244333 C262.72901,37.4025947 262.605121,37.5264836 262.446859,37.5751795 L238.147043,45.0520461 C238.051231,45.0815267 237.948769,45.0815267 237.852957,45.0520461 L213.553141,37.5751795 C213.28921,37.49397 213.141085,37.2141782 213.222294,36.9502471 C213.27099,36.7919854 213.394879,36.6680964 213.553141,36.6194005 Z" id="Rectangle-Copy-22" fill="#DDE4FF" transform="translate(238.000000, 37.097290) scale(-1, 1) translate(-238.000000, -37.097290) "></path>
                    <path d="M212.352957,44.9886879 L237.352957,37.2963802 C237.616888,37.2151706 237.89668,37.3632957 237.97789,37.6272267 C237.992547,37.674865 238,37.7244273 238,37.7742697 L238,186.728003 C238,186.947505 237.856839,187.14134 237.647043,187.205892 L212.647043,194.8982 C212.383112,194.979409 212.10332,194.831284 212.02211,194.567353 C212.007453,194.519715 212,194.470153 212,194.42031 L212,45.4665774 C212,45.2470749 212.143161,45.0532404 212.352957,44.9886879 Z" id="Rectangle-Copy-20" fill="#EEF1FF" transform="translate(225.000000, 116.097290) scale(-1, 1) translate(-225.000000, -116.097290) "></path>
                    <path d="M238.357515,66.5670458 L274.357515,55.8643431 C274.622207,55.7856508 274.900576,55.9364337 274.979268,56.2011262 C274.993017,56.2473722 275,56.2953648 275,56.3436113 L275,225.300354 C275,225.521617 274.854574,225.716569 274.642485,225.779622 L238.642485,236.482325 C238.377793,236.561017 238.099424,236.410234 238.020732,236.145542 C238.006983,236.099296 238,236.051303 238,236.003057 L238,67.046314 C238,66.8250509 238.145426,66.6300993 238.357515,66.5670458 Z" id="Rectangle-Copy-23" fill="#7692FF" transform="translate(256.500000, 146.173334) scale(-1, 1) translate(-256.500000, -146.173334) "></path>
                    <path d="M114.624162,98.6326259 L149.858574,88.1575302 C149.95089,88.1300849 150.049168,88.1298852 150.141595,88.156955 L165.383704,92.6210374 C165.648714,92.6986531 165.800627,92.9764063 165.723011,93.2414165 C165.675319,93.4042558 165.548297,93.5317953 165.385653,93.580149 L130.15124,104.055245 C130.058924,104.08269 129.960646,104.08289 129.86822,104.05582 L114.626111,99.5917375 C114.361101,99.5141217 114.209188,99.2363685 114.286804,98.9713583 C114.334496,98.8085191 114.461518,98.6809795 114.624162,98.6326259 Z" id="Rectangle-Copy-17" fill="#DDE4FF" transform="translate(140.004907, 96.106387) scale(-1, 1) translate(-140.004907, -96.106387) "></path>
                    <path d="M239.624162,61.2144311 L274.858574,50.7393355 C274.95089,50.7118902 275.049168,50.7116904 275.141595,50.7387602 L290.383704,55.2028426 C290.648714,55.2804584 290.800627,55.5582116 290.723011,55.8232218 C290.675319,55.986061 290.548297,56.1136006 290.385653,56.1619542 L255.15124,66.6370499 C255.058924,66.6644952 254.960646,66.6646949 254.86822,66.6376251 L239.626111,62.1735427 C239.361101,62.095927 239.209188,61.8181738 239.286804,61.5531636 C239.334496,61.3903243 239.461518,61.2627847 239.624162,61.2144311 Z" id="Rectangle-Copy-17" fill="#DDE4FF" transform="translate(265.004907, 58.688193) scale(-1, 1) translate(-265.004907, -58.688193) "></path>
                    <path d="M167.604947,113.620144 L202.856881,103.139839 C202.950257,103.112079 203.049707,103.112199 203.143015,103.140186 L248.396217,116.713538 C248.660717,116.792872 248.810824,117.071606 248.731489,117.336107 C248.683071,117.49753 248.556593,117.623701 248.395053,117.671726 L213.143119,128.152031 C213.049743,128.179791 212.950293,128.179671 212.856985,128.151684 L167.603783,114.578333 C167.339283,114.498998 167.189176,114.220264 167.268511,113.955763 C167.316929,113.79434 167.443407,113.668169 167.604947,113.620144 Z" id="Rectangle-Copy-19" fill="#56E39F" transform="translate(208.000000, 115.645935) scale(-1, 1) translate(-208.000000, -115.645935) "></path>
                    <path d="M131.590025,67.606385 L166.855538,57.1220434 C166.949753,57.0940337 167.050133,57.0944137 167.144133,57.1231358 L201.413599,67.5943616 C201.677688,67.6750555 201.826359,67.9545574 201.745665,68.2186466 C201.696685,68.3789467 201.570641,68.5040399 201.409975,68.5518055 L166.144462,79.0361472 C166.050247,79.0641569 165.949867,79.0637769 165.855867,79.0350548 L131.586401,68.563829 C131.322312,68.4831351 131.173641,68.2036332 131.254335,67.939544 C131.303315,67.7792439 131.429359,67.6541507 131.590025,67.606385 Z" id="Rectangle-Copy-18" fill="#DDE4FF" transform="translate(166.500000, 68.079095) scale(-1, 1) translate(-166.500000, -68.079095) "></path>
                    <path d="M76.3529571,31.9886879 L101.352957,24.2963802 C101.616888,24.2151706 101.89668,24.3632957 101.97789,24.6272267 C101.992547,24.674865 102,24.7244273 102,24.7742697 L102,243.728003 C102,243.947505 101.856839,244.14134 101.647043,244.205892 L76.6470429,251.8982 C76.3831118,251.979409 76.1033201,251.831284 76.0221105,251.567353 C76.0074526,251.519715 76,251.470153 76,251.42031 L76,32.4665774 C76,32.2470749 76.1431613,32.0532404 76.3529571,31.9886879 Z" id="Rectangle-Copy-20" fill="#BAC8FF"></path>
                    <path d="M77.5900254,111.62458 L112.855538,101.140238 C112.949753,101.112228 113.050133,101.112608 113.144133,101.141331 L147.413599,111.612556 C147.677688,111.69325 147.826359,111.972752 147.745665,112.236841 C147.696685,112.397141 147.570641,112.522235 147.409975,112.57 L112.144462,123.054342 C112.050247,123.082352 111.949867,123.081972 111.855867,123.05325 L77.5864012,112.582024 C77.3223121,112.50133 77.1736408,112.221828 77.2543347,111.957739 C77.3033153,111.797439 77.4293591,111.672345 77.5900254,111.62458 Z" id="Rectangle-Copy-21" fill="#56E39F" transform="translate(112.500000, 112.097290) scale(-1, 1) translate(-112.500000, -112.097290) "></path>
                    <path d="M51.5531409,23.6194005 L75.8529571,16.142534 C75.9487692,16.1130534 76.0512308,16.1130534 76.1470429,16.142534 L100.446859,23.6194005 C100.71079,23.7006101 100.858915,23.9804019 100.777706,24.244333 C100.72901,24.4025947 100.605121,24.5264836 100.446859,24.5751795 L76.1470429,32.0520461 C76.0512308,32.0815267 75.9487692,32.0815267 75.8529571,32.0520461 L51.5531409,24.5751795 C51.2892098,24.49397 51.1410847,24.2141782 51.2222943,23.9502471 C51.2709902,23.7919854 51.3948792,23.6680964 51.5531409,23.6194005 Z" id="Rectangle-Copy-22" fill="#DDE4FF" transform="translate(76.000000, 24.097290) scale(-1, 1) translate(-76.000000, -24.097290) "></path>
                    <path d="M130.6523,98.9244757 L166.6523,88.221773 C166.864389,88.1587196 167.009815,87.9637679 167.009815,87.7425048 L167.009815,68.7493726 C167.009815,68.4732302 166.785957,68.2493726 166.509815,68.2493726 C166.461568,68.2493726 166.413576,68.2563556 166.36733,68.2701044 L130.36733,78.9728071 C130.155241,79.0358605 130.009815,79.2308121 130.009815,79.4520753 L130.009815,98.4452075 C130.009815,98.7213499 130.233672,98.9452075 130.509815,98.9452075 C130.558061,98.9452075 130.606054,98.9382245 130.6523,98.9244757 Z" id="Rectangle-Copy-17" fill="#EEF1FF" transform="translate(148.509815, 83.597290) scale(-1, 1) translate(-148.509815, -83.597290) "></path>
                    <path d="M150.359464,103.992011 L166.65033,99.2207736 C166.86341,99.1583669 167.009813,98.9629182 167.009794,98.7408864 L167.008098,79.3659312 C167.008079,79.1455819 167.152311,78.951196 167.363205,78.8873418 L202.953442,68.1113867 C202.972523,68.1056095 202.992674,68.116394 202.998451,68.1354746 C202.999478,68.1388665 203,68.1423911 203,68.1459351 L203,257.822583 C203,258.043378 202.855177,258.238034 202.643696,258.301489 L150.643696,273.904148 C150.379204,273.98351 150.100455,273.833431 150.021094,273.568938 C150.007106,273.522321 150,273.473912 150,273.425242 L150,104.471854 C150,104.249839 150.146399,104.054413 150.359464,103.992011 Z" id="Rectangle" fill="#7692FF"></path>
                    <path d="M203.356351,128.087695 L249.356351,114.290348 C249.620852,114.211013 249.899586,114.361119 249.978921,114.62562 C249.992899,114.672222 250,114.720615 250,114.769268 L250,243.725254 C250,243.946068 249.855153,244.140736 249.643649,244.204175 L203.643649,258.001523 C203.379148,258.080858 203.100414,257.930751 203.021079,257.66625 C203.007101,257.619648 203,257.571255 203,257.522602 L203,128.566616 C203,128.345802 203.144847,128.151134 203.356351,128.087695 Z" id="Rectangle" fill="#44627F"></path>
                    <path d="M301.596709,13.6183693 L346.856351,0.0430863 C346.950055,0.0149806228 347.049945,0.0149806228 347.143649,0.0430863 L392.403291,13.6183693 C392.667791,13.6977042 392.817898,13.976438 392.738563,14.2409386 C392.690269,14.4019491 392.564301,14.5279169 392.403291,14.5762108 L347.143649,28.1514938 C347.049945,28.1795995 346.950055,28.1795995 346.856351,28.1514938 L301.596709,14.5762108 C301.332209,14.4968758 301.182102,14.2181421 301.261437,13.9536414 C301.309731,13.792631 301.435699,13.6666631 301.596709,13.6183693 Z" id="Rectangle-Copy-19" fill="#56E39F" transform="translate(347.000000, 14.097290) scale(-1, 1) translate(-347.000000, -14.097290) "></path>
                    <path d="M347.356351,28.0876952 L393.356351,14.2903475 C393.620852,14.2110126 393.899586,14.361119 393.978921,14.6256196 C393.992899,14.6722219 394,14.7206148 394,14.7692683 L394,243.725254 C394,243.946068 393.855153,244.140736 393.643649,244.204175 L347.643649,258.001523 C347.379148,258.080858 347.100414,257.930751 347.021079,257.66625 C347.007101,257.619648 347,257.571255 347,257.522602 L347,28.5666159 C347,28.3458021 347.144847,28.1511344 347.356351,28.0876952 Z" id="Rectangle" fill="#ADBEFF"></path>
                    <path d="M300.356351,28.0876952 L346.356351,14.2903475 C346.620852,14.2110126 346.899586,14.361119 346.978921,14.6256196 C346.992899,14.6722219 347,14.7206148 347,14.7692683 L347,243.725254 C347,243.946068 346.855153,244.140736 346.643649,244.204175 L300.643649,258.001523 C300.379148,258.080858 300.100414,257.930751 300.021079,257.66625 C300.007101,257.619648 300,257.571255 300,257.522602 L300,28.5666159 C300,28.3458021 300.144847,28.1511344 300.356351,28.0876952 Z" id="Rectangle" fill="#052D54" transform="translate(323.500000, 136.145935) scale(-1, 1) translate(-323.500000, -136.145935) "></path>
                    <path d="M113.357515,103.991002 L149.357515,93.2882991 C149.622207,93.2096068 149.900576,93.3603897 149.979268,93.6250822 C149.993017,93.6713282 150,93.7193208 150,93.7675673 L150,262.72431 C150,262.945573 149.854574,263.140525 149.642485,263.203578 L113.642485,273.906281 C113.377793,273.984973 113.099424,273.83419 113.020732,273.569498 C113.006983,273.523252 113,273.475259 113,273.427013 L113,104.47027 C113,104.249007 113.145426,104.054055 113.357515,103.991002 Z" id="Rectangle-Copy-17" fill="#DDE4FF" transform="translate(131.500000, 183.597290) scale(-1, 1) translate(-131.500000, -183.597290) "></path>
                    <path d="M76.3575149,122.991002 L112.357515,112.288299 C112.622207,112.209607 112.900576,112.36039 112.979268,112.625082 C112.993017,112.671328 113,112.719321 113,112.767567 L113,251.72431 C113,251.945573 112.854574,252.140525 112.642485,252.203578 L76.6424851,262.906281 C76.3777926,262.984973 76.0994242,262.83419 76.0207318,262.569498 C76.006983,262.523252 76,262.475259 76,262.427013 L76,123.47027 C76,123.249007 76.1454261,123.054055 76.3575149,122.991002 Z" id="Rectangle-Copy-17" fill="#EEF1FF" transform="translate(94.500000, 187.597290) scale(-1, 1) translate(-94.500000, -187.597290) "></path>
                    <path d="M348.590025,117.87458 L383.855538,107.390238 C383.949753,107.362228 384.050133,107.362608 384.144133,107.391331 L418.413599,117.862556 C418.677688,117.94325 418.826359,118.222752 418.745665,118.486841 C418.696685,118.647141 418.570641,118.772235 418.409975,118.82 L383.144462,129.304342 C383.050247,129.332352 382.949867,129.331972 382.855867,129.30325 L348.586401,118.832024 C348.322312,118.75133 348.173641,118.471828 348.254335,118.207739 C348.303315,118.047439 348.429359,117.922345 348.590025,117.87458 Z" id="Rectangle-Copy-21" fill="#DDE4FF" transform="translate(383.500000, 118.347290) scale(-1, 1) translate(-383.500000, -118.347290) "></path>
                    <path d="M347.357515,129.241002 L383.357515,118.538299 C383.622207,118.459607 383.900576,118.61039 383.979268,118.875082 C383.993017,118.921328 384,118.969321 384,119.017567 L384,257.97431 C384,258.195573 383.854574,258.390525 383.642485,258.453578 L347.642485,269.156281 C347.377793,269.234973 347.099424,269.08419 347.020732,268.819498 C347.006983,268.773252 347,268.725259 347,268.677013 L347,129.72027 C347,129.499007 347.145426,129.304055 347.357515,129.241002 Z" id="Rectangle-Copy-17" fill="#EEF1FF" transform="translate(365.500000, 193.847290) scale(-1, 1) translate(-365.500000, -193.847290) "></path>
                    <path d="M384.353891,129.239157 L419.353891,118.544712 C419.61798,118.464018 419.897482,118.61269 419.978176,118.876779 C419.992645,118.924133 420,118.973373 420,119.022888 L420,257.977248 C420,258.197111 419.856376,258.391175 419.646109,258.455423 L384.646109,269.149868 C384.38202,269.230562 384.102518,269.08189 384.021824,268.817801 C384.007355,268.770447 384,268.721207 384,268.671692 L384,129.717333 C384,129.497469 384.143624,129.303405 384.353891,129.239157 Z" id="Rectangle-Copy-17" fill="#7692FF"></path>
                    <path d="M50.3529571,31.9886879 L75.3529571,24.2963802 C75.6168882,24.2151706 75.8966799,24.3632957 75.9778895,24.6272267 C75.9925474,24.674865 76,24.7244273 76,24.7742697 L76,243.728003 C76,243.947505 75.8568387,244.14134 75.6470429,244.205892 L50.6470429,251.8982 C50.3831118,251.979409 50.1033201,251.831284 50.0221105,251.567353 C50.0074526,251.519715 50,251.470153 50,251.42031 L50,32.4665774 C50,32.2470749 50.1431613,32.0532404 50.3529571,31.9886879 Z" id="Rectangle-Copy-20" fill="#EEF1FF" transform="translate(63.000000, 138.097290) scale(-1, 1) translate(-63.000000, -138.097290) "></path>
                </g>
            </g>
        </g>
    </g>
</svg>