<?xml version="1.0" encoding="UTF-8"?>
<svg width="156px" height="159px" viewBox="0 0 156 159" version="1.1" xmlns="http://www.w3.org/2000/svg" xmlns:xlink="http://www.w3.org/1999/xlink">
    <!-- Generator: Sketch 53.2 (72643) - https://sketchapp.com -->
    <title>communications</title>
    <desc>Created with Sketch.</desc>
    <defs>
        <rect id="path-1" x="0" y="0" width="150" height="150" rx="75"></rect>
        <path d="M12.819426,5.63254987e-14 L77.180574,5.7361339e-14 C81.6381677,5.65424923e-14 83.2545989,0.464128056 84.8842285,1.33566352 C86.5138581,2.20719898 87.792801,3.48614185 88.6643365,5.11577148 C89.5358719,6.74540111 90,8.3618323 90,12.819426 L90,46.3234311 C90,50.7810248 89.5358719,52.397456 88.6643365,54.0270857 C87.792801,55.6567153 86.5138581,56.9356582 84.8842285,57.8071936 C83.2545989,58.6787291 81.6381677,59.1428571 77.180574,59.1428571 L12.819426,59.1428571 C8.3618323,59.1428571 6.74540111,58.6787291 5.11577148,57.8071936 C3.48614185,56.9356582 2.20719898,55.6567153 1.33566352,54.0270857 C0.464128056,52.397456 2.00617683e-16,50.7810248 -3.45280103e-16,46.3234311 L3.45280103e-16,12.819426 C-2.00617683e-16,8.3618323 0.464128056,6.74540111 1.33566352,5.11577148 C2.20719898,3.48614185 3.48614185,2.20719898 5.11577148,1.33566352 C6.74540111,0.464128056 8.3618323,5.71443454e-14 12.819426,5.63254987e-14 Z" id="path-3"></path>
        <path d="M3.8458278,5.66880428e-14 L26.1541722,5.69987949e-14 C27.4914503,5.67531409e-14 27.9763797,0.139238417 28.4652686,0.400699056 C28.9541574,0.662159695 29.3378403,1.04584256 29.5993009,1.53473144 C29.8607616,2.02362033 30,2.50854969 30,3.8458278 L30,15.8684579 C30,17.205736 29.8607616,17.6906654 29.5993009,18.1795543 C29.3378403,18.6684432 28.9541574,19.052126 28.4652686,19.3135867 C27.9763797,19.5750473 27.4914503,19.7142857 26.1541722,19.7142857 L3.8458278,19.7142857 C2.50854969,19.7142857 2.02362033,19.5750473 1.53473144,19.3135867 C1.04584256,19.052126 0.662159695,18.6684432 0.400699056,18.1795543 C0.139238417,17.6906654 5.04274515e-16,17.205736 3.40505179e-16,15.8684579 L5.47673241e-16,3.8458278 C3.83903905e-16,2.50854969 0.139238417,2.02362033 0.400699056,1.53473144 C0.662159695,1.04584256 1.04584256,0.662159695 1.53473144,0.400699056 C2.02362033,0.139238417 2.50854969,5.69336968e-14 3.8458278,5.66880428e-14 Z" id="path-5"></path>
        <path d="M3.8458278,5.66880428e-14 L26.1541722,5.69987949e-14 C27.4914503,5.67531409e-14 27.9763797,0.139238417 28.4652686,0.400699056 C28.9541574,0.662159695 29.3378403,1.04584256 29.5993009,1.53473144 C29.8607616,2.02362033 30,2.50854969 30,3.8458278 L30,15.8684579 C30,17.205736 29.8607616,17.6906654 29.5993009,18.1795543 C29.3378403,18.6684432 28.9541574,19.052126 28.4652686,19.3135867 C27.9763797,19.5750473 27.4914503,19.7142857 26.1541722,19.7142857 L3.8458278,19.7142857 C2.50854969,19.7142857 2.02362033,19.5750473 1.53473144,19.3135867 C1.04584256,19.052126 0.662159695,18.6684432 0.400699056,18.1795543 C0.139238417,17.6906654 5.04274515e-16,17.205736 3.40505179e-16,15.8684579 L5.47673241e-16,3.8458278 C3.83903905e-16,2.50854969 0.139238417,2.02362033 0.400699056,1.53473144 C0.662159695,1.04584256 1.04584256,0.662159695 1.53473144,0.400699056 C2.02362033,0.139238417 2.50854969,5.69336968e-14 3.8458278,5.66880428e-14 Z" id="path-7"></path>
        <path d="M3.8458278,5.66880428e-14 L26.1541722,5.69987949e-14 C27.4914503,5.67531409e-14 27.9763797,0.139238417 28.4652686,0.400699056 C28.9541574,0.662159695 29.3378403,1.04584256 29.5993009,1.53473144 C29.8607616,2.02362033 30,2.50854969 30,3.8458278 L30,15.8684579 C30,17.205736 29.8607616,17.6906654 29.5993009,18.1795543 C29.3378403,18.6684432 28.9541574,19.052126 28.4652686,19.3135867 C27.9763797,19.5750473 27.4914503,19.7142857 26.1541722,19.7142857 L3.8458278,19.7142857 C2.50854969,19.7142857 2.02362033,19.5750473 1.53473144,19.3135867 C1.04584256,19.052126 0.662159695,18.6684432 0.400699056,18.1795543 C0.139238417,17.6906654 5.04274515e-16,17.205736 3.40505179e-16,15.8684579 L5.47673241e-16,3.8458278 C3.83903905e-16,2.50854969 0.139238417,2.02362033 0.400699056,1.53473144 C0.662159695,1.04584256 1.04584256,0.662159695 1.53473144,0.400699056 C2.02362033,0.139238417 2.50854969,5.69336968e-14 3.8458278,5.66880428e-14 Z" id="path-9"></path>
        <path d="M3.8458278,5.66880428e-14 L26.1541722,5.69987949e-14 C27.4914503,5.67531409e-14 27.9763797,0.139238417 28.4652686,0.400699056 C28.9541574,0.662159695 29.3378403,1.04584256 29.5993009,1.53473144 C29.8607616,2.02362033 30,2.50854969 30,3.8458278 L30,15.8684579 C30,17.205736 29.8607616,17.6906654 29.5993009,18.1795543 C29.3378403,18.6684432 28.9541574,19.052126 28.4652686,19.3135867 C27.9763797,19.5750473 27.4914503,19.7142857 26.1541722,19.7142857 L3.8458278,19.7142857 C2.50854969,19.7142857 2.02362033,19.5750473 1.53473144,19.3135867 C1.04584256,19.052126 0.662159695,18.6684432 0.400699056,18.1795543 C0.139238417,17.6906654 5.04274515e-16,17.205736 3.40505179e-16,15.8684579 L5.47673241e-16,3.8458278 C3.83903905e-16,2.50854969 0.139238417,2.02362033 0.400699056,1.53473144 C0.662159695,1.04584256 1.04584256,0.662159695 1.53473144,0.400699056 C2.02362033,0.139238417 2.50854969,5.69336968e-14 3.8458278,5.66880428e-14 Z" id="path-11"></path>
        <path d="M3.8458278,5.66880428e-14 L26.1541722,5.69987949e-14 C27.4914503,5.67531409e-14 27.9763797,0.139238417 28.4652686,0.400699056 C28.9541574,0.662159695 29.3378403,1.04584256 29.5993009,1.53473144 C29.8607616,2.02362033 30,2.50854969 30,3.8458278 L30,15.8684579 C30,17.205736 29.8607616,17.6906654 29.5993009,18.1795543 C29.3378403,18.6684432 28.9541574,19.052126 28.4652686,19.3135867 C27.9763797,19.5750473 27.4914503,19.7142857 26.1541722,19.7142857 L3.8458278,19.7142857 C2.50854969,19.7142857 2.02362033,19.5750473 1.53473144,19.3135867 C1.04584256,19.052126 0.662159695,18.6684432 0.400699056,18.1795543 C0.139238417,17.6906654 5.04274515e-16,17.205736 3.40505179e-16,15.8684579 L5.47673241e-16,3.8458278 C3.83903905e-16,2.50854969 0.139238417,2.02362033 0.400699056,1.53473144 C0.662159695,1.04584256 1.04584256,0.662159695 1.53473144,0.400699056 C2.02362033,0.139238417 2.50854969,5.69336968e-14 3.8458278,5.66880428e-14 Z" id="path-13"></path>
        <path d="M3.8458278,5.66880428e-14 L26.1541722,5.69987949e-14 C27.4914503,5.67531409e-14 27.9763797,0.139238417 28.4652686,0.400699056 C28.9541574,0.662159695 29.3378403,1.04584256 29.5993009,1.53473144 C29.8607616,2.02362033 30,2.50854969 30,3.8458278 L30,15.8684579 C30,17.205736 29.8607616,17.6906654 29.5993009,18.1795543 C29.3378403,18.6684432 28.9541574,19.052126 28.4652686,19.3135867 C27.9763797,19.5750473 27.4914503,19.7142857 26.1541722,19.7142857 L3.8458278,19.7142857 C2.50854969,19.7142857 2.02362033,19.5750473 1.53473144,19.3135867 C1.04584256,19.052126 0.662159695,18.6684432 0.400699056,18.1795543 C0.139238417,17.6906654 5.04274515e-16,17.205736 3.40505179e-16,15.8684579 L5.47673241e-16,3.8458278 C3.83903905e-16,2.50854969 0.139238417,2.02362033 0.400699056,1.53473144 C0.662159695,1.04584256 1.04584256,0.662159695 1.53473144,0.400699056 C2.02362033,0.139238417 2.50854969,5.69336968e-14 3.8458278,5.66880428e-14 Z" id="path-15"></path>
    </defs>
    <g id="Illustrations" stroke="none" stroke-width="1" fill="none" fill-rule="evenodd">
        <g id="Artboard-Copy-2" transform="translate(-25.000000, -16.000000)">
            <g id="communications" transform="translate(24.480148, 14.302259)">
                <g id="Group-2" transform="translate(0.000000, 10.697741)">
                    <g id="managepeople" transform="translate(0.519852, 0.000000)">
                        <mask id="mask-2" fill="white">
                            <use xlink:href="#path-1"></use>
                        </mask>
                        <use id="Rectangle" fill="#052D54" xlink:href="#path-1"></use>
                        <g id="Group" mask="url(#mask-2)">
                            <g transform="translate(25.755628, 115.906776) rotate(-40.000000) translate(-25.755628, -115.906776) translate(-19.244372, 85.906776)">
                                <mask id="mask-4" fill="white">
                                    <use xlink:href="#path-3"></use>
                                </mask>
                                <use id="Rectangle" stroke="none" fill="#7692FF" fill-rule="evenodd" xlink:href="#path-3"></use>
                                <path d="M12.819426,5.45491419e-14 L89.7023945,6.81853208e-14 L4.193249e-15,58.7412933 L-1.43107674e-15,12.819426 C-1.97697452e-15,8.3618323 0.464128056,6.74540111 1.33566352,5.11577148 C2.20719898,3.48614185 3.48614185,2.20719898 5.11577148,1.33566352 C6.74540111,0.464128056 8.3618323,5.53679885e-14 12.819426,5.45491419e-14 Z" id="Rectangle" stroke="none" fill-opacity="0.25" fill="#FFFFFF" fill-rule="evenodd" mask="url(#mask-4)"></path>
                                <path d="M43.6088997,5.45491419e-14 L120.491868,6.81853208e-14 L30.7894737,58.7412933 L30.7894737,12.819426 C30.7894737,8.3618323 31.2536017,6.74540111 32.1251372,5.11577148 C32.9966727,3.48614185 34.2756155,2.20719898 35.9052452,1.33566352 C37.5348748,0.464128056 39.151306,5.53679885e-14 43.6088997,5.45491419e-14 Z" id="Rectangle" stroke="none" fill-opacity="0.25" fill="#FFFFFF" fill-rule="evenodd" mask="url(#mask-4)" transform="translate(60.394737, 24.428571) scale(-1, 1) translate(-60.394737, -24.428571) "></path>
                                <polygon id="Rectangle" stroke="none" fill-opacity="0.5" fill="#FFFFFF" fill-rule="evenodd" mask="url(#mask-4)" points="3.09197112e-14 -2.87474623e-30 90 -2.87474623e-30 45 29.1794402"></polygon>
                            </g>
                        </g>
                    </g>
                </g>
                <g id="Group" transform="translate(36.438395, 57.000000) rotate(-40.000000) translate(-36.438395, -57.000000) translate(21.438395, 47.000000)">
                    <mask id="mask-6" fill="white">
                        <use xlink:href="#path-5"></use>
                    </mask>
                    <use id="Rectangle" fill="#F1F4FF" xlink:href="#path-5"></use>
                    <polygon id="Rectangle" fill-opacity="0.25" fill="#7692FF" mask="url(#mask-6)" points="1.39774967e-15 6.06240528e-14 29.9007982 6.06240528e-14 1.39774967e-15 19.5804311"></polygon>
                    <polygon id="Rectangle" fill-opacity="0.25" fill="#7692FF" mask="url(#mask-6)" transform="translate(20.131579, 8.142857) scale(-1, 1) translate(-20.131579, -8.142857) " points="10.2631579 6.06240528e-14 40.1639561 6.06240528e-14 10.2631579 19.5804311"></polygon>
                    <polygon id="Rectangle" fill="#7692FF" mask="url(#mask-6)" points="2.92543767e-14 -9.58248742e-31 30 -9.58248742e-31 15 9.72648008"></polygon>
                </g>
                <g id="Group-Copy" transform="translate(75.438395, 18.000000) rotate(-40.000000) translate(-75.438395, -18.000000) translate(60.438395, 8.000000)">
                    <mask id="mask-8" fill="white">
                        <use xlink:href="#path-7"></use>
                    </mask>
                    <use id="Rectangle" fill="#F1F4FF" xlink:href="#path-7"></use>
                    <polygon id="Rectangle" fill-opacity="0.25" fill="#7692FF" mask="url(#mask-8)" points="1.39774967e-15 6.06240528e-14 29.9007982 6.06240528e-14 1.39774967e-15 19.5804311"></polygon>
                    <polygon id="Rectangle" fill-opacity="0.25" fill="#7692FF" mask="url(#mask-8)" transform="translate(20.131579, 8.142857) scale(-1, 1) translate(-20.131579, -8.142857) " points="10.2631579 6.06240528e-14 40.1639561 6.06240528e-14 10.2631579 19.5804311"></polygon>
                    <polygon id="Rectangle" fill="#7692FF" mask="url(#mask-8)" points="2.92543767e-14 -9.58248742e-31 30 -9.58248742e-31 15 9.72648008"></polygon>
                </g>
                <g id="Group-Copy-2" transform="translate(124.438395, 20.000000) rotate(-40.000000) translate(-124.438395, -20.000000) translate(109.438395, 10.000000)">
                    <mask id="mask-10" fill="white">
                        <use xlink:href="#path-9"></use>
                    </mask>
                    <use id="Rectangle" fill="#F1F4FF" xlink:href="#path-9"></use>
                    <polygon id="Rectangle" fill-opacity="0.25" fill="#7692FF" mask="url(#mask-10)" points="1.39774967e-15 6.06240528e-14 29.9007982 6.06240528e-14 1.39774967e-15 19.5804311"></polygon>
                    <polygon id="Rectangle" fill-opacity="0.25" fill="#7692FF" mask="url(#mask-10)" transform="translate(20.131579, 8.142857) scale(-1, 1) translate(-20.131579, -8.142857) " points="10.2631579 6.06240528e-14 40.1639561 6.06240528e-14 10.2631579 19.5804311"></polygon>
                    <polygon id="Rectangle" fill="#7692FF" mask="url(#mask-10)" points="2.92543767e-14 -9.58248742e-31 30 -9.58248742e-31 15 9.72648008"></polygon>
                </g>
                <g id="Group-Copy-4" transform="translate(86.438395, 75.000000) rotate(-40.000000) translate(-86.438395, -75.000000) translate(71.438395, 65.000000)">
                    <mask id="mask-12" fill="white">
                        <use xlink:href="#path-11"></use>
                    </mask>
                    <use id="Rectangle" fill="#F1F4FF" xlink:href="#path-11"></use>
                    <polygon id="Rectangle" fill-opacity="0.25" fill="#7692FF" mask="url(#mask-12)" points="1.39774967e-15 6.06240528e-14 29.9007982 6.06240528e-14 1.39774967e-15 19.5804311"></polygon>
                    <polygon id="Rectangle" fill-opacity="0.25" fill="#7692FF" mask="url(#mask-12)" transform="translate(20.131579, 8.142857) scale(-1, 1) translate(-20.131579, -8.142857) " points="10.2631579 6.06240528e-14 40.1639561 6.06240528e-14 10.2631579 19.5804311"></polygon>
                    <polygon id="Rectangle" fill="#7692FF" mask="url(#mask-12)" points="2.92543767e-14 -9.58248742e-31 30 -9.58248742e-31 15 9.72648008"></polygon>
                </g>
                <g id="Group-Copy-6" transform="translate(116.438395, 114.000000) rotate(-40.000000) translate(-116.438395, -114.000000) translate(101.438395, 104.000000)">
                    <mask id="mask-14" fill="white">
                        <use xlink:href="#path-13"></use>
                    </mask>
                    <use id="Rectangle" fill="#F1F4FF" xlink:href="#path-13"></use>
                    <polygon id="Rectangle" fill-opacity="0.25" fill="#7692FF" mask="url(#mask-14)" points="1.39774967e-15 6.06240528e-14 29.9007982 6.06240528e-14 1.39774967e-15 19.5804311"></polygon>
                    <polygon id="Rectangle" fill-opacity="0.25" fill="#7692FF" mask="url(#mask-14)" transform="translate(20.131579, 8.142857) scale(-1, 1) translate(-20.131579, -8.142857) " points="10.2631579 6.06240528e-14 40.1639561 6.06240528e-14 10.2631579 19.5804311"></polygon>
                    <polygon id="Rectangle" fill="#7692FF" mask="url(#mask-14)" points="2.92543767e-14 -9.58248742e-31 30 -9.58248742e-31 15 9.72648008"></polygon>
                </g>
                <g id="Group-Copy-5" transform="translate(139.438395, 68.000000) rotate(-40.000000) translate(-139.438395, -68.000000) translate(124.438395, 58.000000)">
                    <mask id="mask-16" fill="white">
                        <use xlink:href="#path-15"></use>
                    </mask>
                    <use id="Rectangle" fill="#F1F4FF" xlink:href="#path-15"></use>
                    <polygon id="Rectangle" fill-opacity="0.25" fill="#7692FF" mask="url(#mask-16)" points="1.39774967e-15 6.06240528e-14 29.9007982 6.06240528e-14 1.39774967e-15 19.5804311"></polygon>
                    <polygon id="Rectangle" fill-opacity="0.25" fill="#7692FF" mask="url(#mask-16)" transform="translate(20.131579, 8.142857) scale(-1, 1) translate(-20.131579, -8.142857) " points="10.2631579 6.06240528e-14 40.1639561 6.06240528e-14 10.2631579 19.5804311"></polygon>
                    <polygon id="Rectangle" fill="#7692FF" mask="url(#mask-16)" points="2.92543767e-14 -9.58248742e-31 30 -9.58248742e-31 15 9.72648008"></polygon>
                </g>
            </g>
        </g>
    </g>
</svg>