<?xml version="1.0" encoding="UTF-8"?>
<svg width="867px" height="300px" viewBox="0 0 867 300" version="1.1" xmlns="http://www.w3.org/2000/svg" xmlns:xlink="http://www.w3.org/1999/xlink">
    <!-- Generator: Sketch 53.2 (72643) - https://sketchapp.com -->
    <title>Group 6</title>
    <desc>Created with Sketch.</desc>
    <g id="Web-V2" stroke="none" stroke-width="1" fill="none" fill-rule="evenodd">
        <g id="Desktop-HD-Copy-11" transform="translate(0.000000, -184.000000)" fill-rule="nonzero">
            <g id="Group-6" transform="translate(-138.000000, 184.000000)">
                <path d="M770.129613,268.022749 C994.282266,345.071688 1048.74893,264.417786 972.652781,179.557239 C896.556631,94.6966924 797.969636,94.6966924 678.573677,62.5224763 C559.177719,30.3482602 457.504292,9.67027241 358.438641,23.5203327 C259.37299,37.3703931 201.877734,56.1575549 39.4711233,118.603389 C-122.935488,181.049224 266.683842,327.286982 399.966252,268.022749 C533.248661,208.758516 545.97696,190.97381 770.129613,268.022749 Z" id="Path-13" fill-opacity="0.05" fill="#7692FF"></path>
                <path d="M674.667804,188.964684 C769.015183,244.088574 923.831774,210.065763 886.87495,171.029351 C849.918126,131.99294 771.791576,131.99294 693.132071,117.192589 C614.472565,102.392237 596.990024,80.2142913 531.724372,86.5854103 C466.45872,92.9565294 379.079004,114.264683 272.08356,142.990179 C165.088116,171.715674 347.72268,238.986007 435.530747,211.724069 C523.338814,184.462131 580.320425,133.840795 674.667804,188.964684 Z" id="Path-13" fill-opacity="0.1" fill="#7692FF"></path>
                <g id="Group-4" transform="translate(214.686584, 0.037976)">
                    <g id="Group">
                        <path d="M26.303422,97.1490369 C12.7327056,109.230211 -5.349885,131.596016 1.5438852,131.596016 C11.8529645,131.596016 20.6934011,123.621333 40.6838352,119.740396 C60.6742693,115.859459 87.0988408,123.578572 101.475768,136.924181 C116.540703,150.908445 120.437272,174.09048 129.402722,174.09048 C140.287527,174.09048 134.949131,172.927263 180.686768,135.522545 C215.002298,107.458946 242.346377,97.1455941 288.150134,92.4844551 C300.773112,91.1998999 318.780448,92.3931694 334.532549,94.7618109 C350.284649,97.1304523 362.435755,101.30525 367.945768,102.91425 C374.070158,104.702655 367.018231,89.5660791 350.466746,75.7962326 C339.9964,67.0855303 314.460951,58.6498545 309.223863,58.182231 C289.031904,56.379276 275.046233,49.8562187 255.0989,52.4726058 C223.277643,56.6464333 197.094076,67.8226076 106.579369,78.743541 C54.1622244,85.0678628 39.8741383,85.0678628 26.303422,97.1490369 Z" id="Path-2" fill="#052D54"></path>
                        <path d="M73.8743305,92.532349 C74.157947,73.3376322 53.3606685,47.5754653 61.1071673,29.1011518 C69.5833735,8.88658856 94.9855981,43.8851455 138.870446,19.5389498 C182.755293,-4.80724591 259.172998,-14.9556767 261.847989,41.3958243 C262.184585,48.4865589 263.631633,56.552459 260.58829,62.6489132 C257.603753,68.6275666 251.120674,70.9746031 245.748148,73.6471817 C234.905949,79.0406643 223.717077,83.6564599 212.253406,86.6932394 C182.574346,94.5553594 144.748837,118.81821 122.542924,106.284815 C110.601649,99.5449555 98.7021393,86.2308975 89.181647,86.6932394 C79.2758813,87.1742914 71.9538485,101.212851 70.2742424,81.8700873" id="Path-6" fill="#8AA2FF"></path>
                        <path d="M48.8907026,88.4265455 C49.0655594,73.9707953 -6.37463167,21.3987556 67.4101637,14.926473 C138.416398,8.69792131 165.43321,26.2151497 168.592193,49.9636377 C169.298553,55.2738924 169.73272,61.378785 167.796306,65.969325 C165.897309,70.4711626 161.769065,72.2370686 158.348208,74.2484333 C151.444639,78.3075319 144.320046,81.780853 137.019964,84.0649226 C118.120297,89.978302 86.8280288,86.0913472 72.6817332,76.6465025 C65.0745334,71.5675177 64.7011695,83.6872701 58.637887,84.032997 C52.3292368,84.3927147 47.6701948,94.9634612 46.5946677,80.3957054" id="Path-6" fill="#99AEFF" transform="translate(99.128327, 51.042505) rotate(-2.000000) translate(-99.128327, -51.042505) "></path>
                        <path d="M327.914468,69.428772 C339.626866,72.5760559 333.505216,53.408876 333.475878,45.4260113 C333.423405,31.1482977 333.423405,24.6883545 303.841043,26.8076125 C259.224229,30.0039274 265.329272,8.83958956 250.797137,7.63238074 C234.260111,6.25862229 241.856595,57.1664969 264.328787,61.8242497 C280.31194,54.8422203 291.449812,52.5610987 297.742403,54.9808849 C309.921139,59.6641606 318.667826,66.9440709 327.914468,69.428772 Z" id="Path-3-Copy" fill="#BAC8FF"></path>
                        <path d="M220.200883,89.7947317 C214.581628,88.7903986 208.786775,88.2881316 203.343116,86.7817323 C197.056762,85.0421375 191.016811,82.706438 185.203602,80.1100906 C164.652336,70.9313017 156.913228,61.3013914 184.857759,56.8247011 C220.986102,51.036971 246.34767,47.7016054 283.122888,51.151231 C323.266467,54.916819 352.153363,64.7843292 302.549067,72.5498649 C277.260203,76.508828 251.745741,79.4760526 226.409655,83.233998 C212.874321,85.2416108 243.283089,85.8847347 229.269821,89.2032226 L220.200883,89.7947317 Z" id="Path-5" fill="#ADBEFF"></path>
                        <path d="M212.911485,73.4174964 C185.028023,61.3423801 124.431772,58.4260319 87.9623929,74.9461155 C71.0105801,82.6250332 86.2816898,102.534302 98.2948931,106.341434 C106.927023,109.077063 115.837597,111.485217 124.977658,112.457197 C147.234271,114.82403 182.011346,108.978894 200.510863,97.2665934 C225.224801,81.6198565 240.794947,85.4926127 212.911485,73.4174964 Z" id="Path-4" fill="#BAC8FF"></path>
                        <path d="M139.620835,125.04065 C157.53124,129.534099 146.550654,106.789653 146.550654,95.3922997 C146.550654,76.4800099 146.625476,60.5209761 101.388619,63.5466887 C33.161326,68.1101398 52.2441349,15.1642467 35.134237,26.4436269 C23.0768019,34.3922655 11.6210215,88.7423206 45.9851258,95.3922997 C68.0273254,97.9513664 83.8596879,100.958292 93.4822133,104.413075 C112.105735,111.099494 125.481023,121.493186 139.620835,125.04065 Z" id="Path-3" fill="#ADBEFF"></path>
                        <path d="M226.258861,191.629719 C231.511716,191.133617 232.769194,192.4915 234.85713,187.942616 C243.069895,170.049873 233.714437,120.366606 240.45573,76.0781843 C248.910866,20.5302895 274.520824,-6.24971473 253.404518,-12.363978 C248.089351,-13.902994 246.702497,-12.6513736 243.763931,-6.8095528 C243.056141,-5.40247859 239.958685,-2.19707391 239.345761,-0.466416929 C232.393681,19.1635363 231.006904,58.3020416 223.002417,87.3172442 C211.362296,129.511134 200.344233,194.077206 226.258861,191.629719 Z" id="Oval-Copy" fill="#ADBEFF" transform="translate(235.978225, 89.365106) rotate(68.000000) translate(-235.978225, -89.365106) "></path>
                        <path d="M139.197168,126.061037 C150.420931,128.719659 149.732061,113.745275 149.356624,97.6544247 C148.981188,81.5635747 149.584047,73.1486559 139.528202,67.2270425 C129.472358,61.305429 127.250217,80.5702653 127.625654,96.6611153 C128.00109,112.751965 127.973405,123.402415 139.197168,126.061037 Z" id="Oval" fill="#99AEFF" transform="translate(138.554241, 96.250329) rotate(-8.000000) translate(-138.554241, -96.250329) "></path>
                        <path d="M325.765052,78.5600416 C333.204551,78.6135842 337.632792,70.0006324 337.455935,56.6509073 C337.279078,43.3011821 336.580243,30.9329832 331.362193,29.0107789 C326.144143,27.0885747 327.153975,39.5713374 327.330832,52.9210625 C327.507688,66.2707877 318.325553,78.506499 325.765052,78.5600416 Z" id="Oval-Copy-3" fill="#ADBEFF" transform="translate(330.156852, 53.687236) rotate(-8.000000) translate(-330.156852, -53.687236) "></path>
                    </g>
                    <g id="Group-3" transform="translate(496.108906, 33.551404)">
                        <path d="M104.373895,59.8835626 C107.991292,50.4285938 122.853239,46.9982584 118.330846,36.2870233 C111.431376,19.9457104 88.379604,3.79117992 56.9093963,9.33533301 C49.7493488,10.5967292 41.1068228,14.7930128 37.5254331,21.4634355 C33.1255088,29.6583983 35.3863661,40.9914685 45.4783815,47.9260411 C56.6909388,55.6305768 69.3057755,61.7451279 82.111747,67.1962535 C90.5235312,70.7769026 94.5746133,68.8104992 103.168319,65.2936443 L104.373895,59.8835626 Z" id="Path-11" fill="#99AEFF" transform="translate(77.282551, 38.659148) rotate(-12.000000) translate(-77.282551, -38.659148) "></path>
                        <path d="M16.2022063,70.8199264 C6.27555093,70.8098609 2.35114476,54.8771139 3.58454109,40.5939005 C4.42798178,30.8265264 17.2077136,36.9777853 24.763074,27.6322994 C47.7773584,-0.834862872 51.5060217,27.3259276 56.2799169,39.809773 C60.3171781,50.3673035 48.5686797,61.3415004 36.7104774,61.3294764 C25.2565815,61.3178624 23.070247,70.8268905 16.2022063,70.8199264 Z" id="Path-10-Copy" fill="#ADBEFF" transform="translate(30.227724, 43.073754) rotate(-5.000000) translate(-30.227724, -43.073754) "></path>
                        <g id="Group-2" transform="translate(0.000000, 38.594740)">
                            <path d="M43.0121875,23.3695272 C43.0527679,27.8928036 42.5641852,32.4559375 43.1339287,36.9393564 C46.3828133,62.505442 45.6879773,48.938464 53.438946,37.704043 C56.5511074,33.1932091 61.7821425,30.2404993 64.3412998,25.396263 C70.373489,13.9779143 47.0298116,19.5612346 43.6456064,21.7319434 L43.0121875,23.3695272 Z" id="Path-8" fill="#44627F" transform="translate(54.093923, 34.979575) rotate(20.000000) translate(-54.093923, -34.979575) "></path>
                            <path d="M0.864622773,58.0637767 C-1.24361894,63.051551 3.6782423,57.8957515 11.5773531,52.4579178 C16.1950339,49.2790562 22.7690356,46.2163508 27.0672169,44.4651159 C47.7347298,36.0444217 56.8920055,39.9938843 64.2319893,42.9418321 C76.7453132,47.9675415 86.8462307,67.8082338 90.4720091,72.9093346 C91.6055275,74.5040796 92.8483259,74.4492436 92.3809539,72.3192032 C80.5132866,18.2325014 110.160242,40.3739567 116.277564,43.3964402 C117.586361,44.0430987 118.812231,43.4080815 117.214134,41.417997 C89.3029926,6.66068412 77.1471766,10.5906757 72.4382162,9.78068184 C67.7469066,8.97372409 62.8887184,8.54706275 58.1707475,9.17927146 C52.0465645,9.99991275 45.6958111,11.0837239 40.2944627,14.0879489 C31.4935178,18.9830262 6.66827179,44.3332394 0.864622773,58.0637767 Z" id="Path-7" fill="#052D54"></path>
                            <path d="M19.7961218,21.7515117 C14.8637863,28.6758579 11.7438442,38.3836706 23.4332906,34.8213658 C33.8993117,31.6318943 35.4720948,29.7326638 46.0121838,26.9678268 C64.6114662,22.0889321 73.7088127,49.7606195 85.5978942,32.6219038 C88.2386607,28.8151046 92.3703542,29.0646384 100.034827,27.1396726 C123.070903,21.3540622 81.745649,6.92807702 80.9596586,6.64846931 C56.4348675,-2.07596427 33.4287208,2.6131471 19.7961218,21.7515117 Z" id="Path-9" fill="#BAC8FF" transform="translate(61.195572, 20.357860) rotate(2.000000) translate(-61.195572, -20.357860) "></path>
                        </g>
                        <path d="M77.6588557,78.768676 C65.3763395,78.768676 59.2734988,47.320732 79.9170245,42.3167456 C86.6482247,40.6851041 90.0209436,34.2770901 97.6270801,30.2226936 C128.853953,13.5774326 127.337651,32.2348813 121.728396,44.454916 C116.540006,55.7580779 113.232101,68.257943 100.20283,68.257943 C87.6177936,68.257943 85.2051565,78.768676 77.6588557,78.768676 Z" id="Path-10" fill="#8AA2FF"></path>
                    </g>
                    <g id="Group-2-Copy" transform="translate(461.380369, 110.472309)">
                        <path d="M32.7213994,17.5145762 C32.7475688,20.9409693 32.3715349,24.3981125 32.7999075,27.7937555 C35.2426438,47.1569475 34.7285827,36.8805317 40.6308934,28.3621569 C43.0007836,24.9418672 46.9794007,22.6996426 48.929354,19.0273793 C53.5255886,10.371488 35.7787123,14.6255159 33.2044868,16.2734195 L32.7213994,17.5145762 Z" id="Path-8" fill="#44627F" transform="translate(41.139699, 26.299491) rotate(20.000000) translate(-41.139699, -26.299491) "></path>
                        <path d="M0.37182367,44.1595341 C-1.23185176,47.9511822 2.51205857,44.0318033 8.52067218,39.8980253 C12.0332017,37.4814916 17.0338451,35.1532586 20.303341,33.8219902 C36.0244903,27.4206763 42.9901518,30.4230118 48.5734545,32.6640075 C58.0919598,36.4844934 65.7754209,51.5671572 68.5334404,55.4449547 C69.3956734,56.6572613 70.3410324,56.6155757 69.9855167,54.9963437 C60.9581427,13.8802614 83.5096812,30.7119385 88.1629422,33.0095953 C89.1585045,33.5011776 90.0909859,33.0184449 88.8753626,31.5056058 C67.6442051,5.08350039 58.3976451,8.07103435 54.815682,7.4552864 C51.2471453,6.8418465 47.5516691,6.5175035 43.9628519,6.99810122 C39.304372,7.62194319 34.4735468,8.44584387 30.3649051,10.7296208 C23.6702937,14.4508017 4.78648317,33.7217392 0.37182367,44.1595341 Z" id="Path-7" fill="#052D54"></path>
                        <path d="M15.0350774,16.2248654 C11.2838818,21.4679546 8.91047278,28.8182389 17.7992272,26.1198253 C25.7576786,23.7038295 26.9537949,22.2657141 34.9685183,20.1712068 C49.1114826,16.4751913 53.2226544,38.6708969 62.2647233,25.6935618 C64.27312,22.8110758 66.3685112,20.3123677 72.1965959,18.854069 C89.7132855,14.4710569 62.1415715,4.99472176 61.5439558,4.78311684 C42.8969061,-1.8194662 25.4030959,1.73336701 15.0350774,16.2248654 Z" id="Path-9" fill="#99AEFF" transform="translate(44.844790, 15.699487) rotate(2.000000) translate(-44.844790, -15.699487) "></path>
                    </g>
                    <g id="Group-5" transform="translate(387.503298, 11.314720)">
                        <path d="M40.1871833,52.4789304 L41.4649923,51.0077664 C45.8162486,50.0373846 72.29668,53.1778905 61.6996996,62.8138128 C57.2039289,66.9018545 50.6296183,67.9801499 45.6817858,71.5060968 C33.3590014,80.2876152 28.9788344,94.7638879 35.2074262,66.7375323 C36.2997087,61.822666 38.5272643,57.2317977 40.1871833,52.4789304 Z" id="Path-8" fill="#44627F"></path>
                        <path d="M48.0812719,66.6826179 C38.3829008,59.2600163 33.061562,32.719977 37.4347694,21.3059171 C45.0639473,1.39378255 71.1079002,-2.24634889 80.5786774,18.7621977 C90.9592038,41.788795 81.9106244,64.6344239 69.7232418,70.6527267 C59.073338,75.9118005 51.1321892,69.0176227 48.0812719,66.6826179 Z" id="Path-12" fill="#8AA2FF" transform="translate(60.502344, 38.592982) rotate(10.000000) translate(-60.502344, -38.592982) "></path>
                        <path d="M0.372008054,93.3313556 C-1.23246262,98.8733271 2.51330428,93.1446609 8.5248975,87.1026235 C12.0391689,83.570555 17.042292,80.1675491 20.3134093,78.2217325 C36.0423545,68.8654056 43.0114702,73.2536973 48.5975416,76.5291949 C58.1207671,82.1133165 65.8080383,104.15853 68.5674255,109.82642 C69.4300861,111.598359 70.3759139,111.53743 70.0202219,109.170718 C60.9883713,49.0743831 83.5510929,73.6760001 88.2066613,77.034315 C89.2027174,77.7528245 90.1356612,77.0472498 88.9194351,74.8360448 C67.6777492,36.2168083 40.2419072,60.5238485 36.6581677,59.6238553 C33.0878615,58.7272356 47.3411651,48.3077955 43.7505682,49.0102496 C39.0897782,49.9220732 39.1598052,60.4410989 32.8868553,61.0218266 C18.9390146,62.3130688 4.78885675,78.075203 0.372008054,93.3313556 Z" id="Path-7" fill="#052D54"></path>
                        <ellipse id="Oval" fill="#BAC8FF" cx="51.9641823" cy="56.9210393" rx="26.9943804" ry="12.8383762"></ellipse>
                    </g>
                </g>
            </g>
        </g>
    </g>
</svg>