<?xml version="1.0" encoding="UTF-8"?>
<svg width="14px" height="14px" viewBox="0 0 14 14" version="1.1" xmlns="http://www.w3.org/2000/svg" xmlns:xlink="http://www.w3.org/1999/xlink">
    <!-- Generator: Sketch 53 (72520) - https://sketchapp.com -->
    <title>deny</title>
    <desc>Created with Sketch.</desc>
    <g id="Page-1" stroke="none" stroke-width="1" fill="none" fill-rule="evenodd">
        <path d="M8.46537508,7 L13.6965109,12.2311358 C14.101163,12.635788 14.101163,13.2918587 13.6965109,13.6965109 C13.2918587,14.101163 12.635788,14.101163 12.2311358,13.6965109 L7,8.46537508 L1.76886419,13.6965109 C1.36421204,14.101163 0.70814127,14.101163 0.303489116,13.6965109 C-0.101163039,13.2918587 -0.101163039,12.635788 0.303489116,12.2311358 L5.53462492,7 L0.303489116,1.76886419 C-0.101163039,1.36421204 -0.101163039,0.70814127 0.303489116,0.303489116 C0.70814127,-0.101163039 1.36421204,-0.101163039 1.76886419,0.303489116 L7,5.53462492 L12.2311358,0.303489116 C12.635788,-0.101163039 13.2918587,-0.101163039 13.6965109,0.303489116 C14.101163,0.70814127 14.101163,1.36421204 13.6965109,1.76886419 L8.46537508,7 Z" id="deny" fill="#FFFFFF" fill-rule="nonzero"></path>
    </g>
</svg>