<?xml version="1.0" encoding="UTF-8"?>
<svg width="26px" height="18px" viewBox="0 0 26 18" version="1.1" xmlns="http://www.w3.org/2000/svg" xmlns:xlink="http://www.w3.org/1999/xlink">
    <!-- Generator: Sketch 53 (72520) - https://sketchapp.com -->
    <title>Group 74</title>
    <desc>Created with Sketch.</desc>
    <g id="Page-1" stroke="none" stroke-width="1" fill="none" fill-rule="evenodd" fill-opacity="0.15">
        <g id="Group-74" transform="translate(0.000000, 0.000000)" fill="#052D54" fill-rule="nonzero">
            <path d="M2,3.2 L2,15 C2,15.5522847 2.44771525,16 3,16 L23,16 C23.5522847,16 24,15.5522847 24,15 L24,3.2 L14.8740851,10.5007319 C13.7784292,11.3772566 12.2215708,11.3772566 11.1259149,10.5007319 L2,3.2 Z M3,8.8817842e-16 L23,8.8817842e-16 C24.6568542,5.83819232e-16 26,1.34314575 26,3 L26,15 C26,16.6568542 24.6568542,18 23,18 L3,18 C1.34314575,18 -4.54544445e-13,16.6568542 -4.54747351e-13,15 L-4.54747351e-13,3 C-4.54950257e-13,1.34314575 1.34314575,3.04359188e-16 3,8.8817842e-16 Z M12.375305,8.93899427 C12.7405236,9.23116919 13.2594764,9.23116919 13.624695,8.93899427 L22.2984379,2 L3.70156212,2 L12.375305,8.93899427 Z" id="Combined-Shape"></path>
        </g>
    </g>
</svg>