<?xml version="1.0" encoding="UTF-8"?>
<svg width="24px" height="16px" viewBox="0 0 24 16" version="1.1" xmlns="http://www.w3.org/2000/svg" xmlns:xlink="http://www.w3.org/1999/xlink">
    <!-- Generator: Sketch 53 (72520) - https://sketchapp.com -->
    <title>email_lightpurple</title>
    <desc>Created with Sketch.</desc>
    <g id="Page-1" stroke="none" stroke-width="1" fill="none" fill-rule="evenodd">
        <path d="M1.84615385,2.84444444 L1.84615385,13.3333333 C1.84615385,13.8242531 2.25942946,14.2222222 2.76923077,14.2222222 L21.2307692,14.2222222 C21.7405705,14.2222222 22.1538462,13.8242531 22.1538462,13.3333333 L22.1538462,2.84444444 L13.7299247,9.3339839 C12.71855,10.113117 11.28145,10.113117 10.2700753,9.3339839 L1.84615385,2.84444444 Z M2.76923077,7.89491929e-16 L21.2307692,7.89491929e-16 C22.7601732,5.18950428e-16 24,1.19390733 24,2.66666667 L24,13.3333333 C24,14.8060927 22.7601732,16 21.2307692,16 L2.76923077,16 C1.23982685,16 -4.54560053e-13,14.8060927 -4.54747351e-13,13.3333333 L-4.54747351e-13,2.66666667 C-4.54934649e-13,1.19390733 1.23982685,2.705415e-16 2.76923077,7.89491929e-16 Z M11.4233584,7.94577268 C11.7604833,8.20548372 12.2395167,8.20548372 12.5766416,7.94577268 L20.5831734,1.77777778 L3.41682657,1.77777778 L11.4233584,7.94577268 Z" id="email_lightpurple" fill="#7692FF" fill-rule="nonzero"></path>
    </g>
</svg>