<?xml version="1.0" encoding="UTF-8"?>
<svg width="26px" height="26px" viewBox="0 0 26 26" version="1.1" xmlns="http://www.w3.org/2000/svg" xmlns:xlink="http://www.w3.org/1999/xlink">
    <!-- Generator: Sketch 53.1 (72631) - https://sketchapp.com -->
    <title>external</title>
    <desc>Created with Sketch.</desc>
    <g id="Page-1" stroke="none" stroke-width="1" fill="none" fill-rule="evenodd" fill-opacity="0.75">
        <path d="M12.352,1.41584 C12.352,0.63389316 12.9858932,-3.18307818e-14 13.76784,-3.19744231e-14 L20.9956,-3.28626015e-14 C23.7570237,-3.33698668e-14 25.9956,2.23857625 25.9956,5 L25.9956,12.22775 C25.9956,13.0097024 25.3617024,13.6436 24.57975,13.6436 C23.7977976,13.6436 23.1639,13.0097024 23.1639,12.22775 L23.1639,4.89109 L13.1242991,14.9307 C12.5556117,15.4993874 11.6335874,15.4993874 11.0649,14.9307 C10.4962122,14.3620122 10.4962118,13.4399873 11.0648991,12.8712991 L21.1045,2.83168 L13.76784,2.83168 C12.9858932,2.83168 12.352,2.19778684 12.352,1.41584 Z M20.8515,23.1683 C22.1310333,23.1683 23.1683,22.1310333 23.1683,20.8515 L23.1683,19.95055 C23.1683,19.1685976 23.8021976,18.5347 24.58415,18.5347 C25.3661024,18.5347 26,19.1685976 26,19.95055 L26,22.26735 C26,24.3288357 24.3288357,26 22.26735,26 L5,26 C2.23857625,26 3.38176876e-16,23.7614237 0,21 L0,3.732675 C-2.52460874e-16,1.67117552 1.67117552,3.78691311e-16 3.732675,0 L6.04951,6.66133815e-16 C6.83145684,5.22492511e-16 7.46535,0.63389316 7.46535,1.41584 C7.46535,2.19778684 6.83145684,2.83168 6.04951,2.83168 L5.148515,2.83168 C3.86896236,2.83168 2.83168,3.86896236 2.83168,5.148515 L2.83168,20.1683 C2.83168,21.8251542 4.17482575,23.1683 5.83168,23.1683 L20.8515,23.1683 Z" id="external" fill="#052D54" fill-rule="nonzero"></path>
    </g>
</svg>