<?xml version="1.0" encoding="UTF-8"?>
<svg width="30px" height="30px" viewBox="0 0 30 30" version="1.1" xmlns="http://www.w3.org/2000/svg" xmlns:xlink="http://www.w3.org/1999/xlink">
    <!-- Generator: Sketch 53.2 (72643) - https://sketchapp.com -->
    <title>Group 54</title>
    <desc>Created with Sketch.</desc>
    <g id="Web-V2" stroke="none" stroke-width="1" fill="none" fill-rule="evenodd">
        <g id="Group-53-Copy" transform="translate(-16.000000, -242.000000)">
            <g id="Group-51" transform="translate(0.000000, 226.000000)">
                <g id="Group-54" transform="translate(15.000000, 15.000000)">
                    <rect id="Rectangle" fill-rule="nonzero" x="0" y="0" width="32" height="32"></rect>
                    <circle id="Following" fill="#F1F4FF" cx="15.9047619" cy="15.9047619" r="14.6666667"></circle>
                    <path d="M15.9047619,30.5714286 C7.80458557,30.5714286 1.23809524,24.0049382 1.23809524,15.9047619 C1.23809524,7.80458557 7.80458557,1.23809524 15.9047619,1.23809524 C24.0049382,1.23809524 30.5714286,7.80458557 30.5714286,15.9047619 C30.5714286,24.0049382 24.0049382,30.5714286 15.9047619,30.5714286 Z M12.6335929,10 C10.5599566,10 8.91409302,12.1615666 9.2925406,15.2640759 C9.62099119,17.9567104 15.2766656,23.3333333 15.9047619,23.3333333 C16.5328582,23.3333333 22.1885306,17.9567104 22.5169812,15.2640759 C22.8954371,12.1614983 21.2495652,10 19.1759289,10 C17.7935048,10 16.7166091,11.993817 15.9047619,13.3147843 C15.0929147,11.993817 14.0160171,10 12.6335929,10 Z" id="Following" fill="#839CFF"></path>
                    <path d="M4.21952417,13.3637939 L4.21952417,13.3637939 C4.58303053,13.4299389 4.82945397,13.7713039 4.77779156,14.1371496 C4.70732672,14.6361069 4.66362922,15.0231073 4.64669391,15.2981503 C4.49028599,17.8383399 5.18886132,20.5518886 7.02045442,22.7950461 C10.6303854,27.2161394 16.1008301,28.4490808 21.5241941,25.6784719 C21.7747775,25.5504574 22.1182956,25.3586401 22.5547484,25.1030199 L22.5547522,25.1030264 C22.8735342,24.9163231 23.2829554,25.0162877 23.4798258,25.3288931 L23.4798258,25.3288931 C23.6709405,25.6323592 23.5798617,26.0332961 23.2763957,26.2244108 C23.2705506,26.2280919 23.2646471,26.2316795 23.2586876,26.2351722 C22.7833554,26.5137262 22.4097364,26.7223988 22.1378206,26.8611731 C16.1564374,29.9138179 10.0068664,28.5606556 5.98767299,23.6383375 C3.83801372,21.0056434 3.07860868,17.8724435 3.34386976,14.8462259 C3.36395024,14.6171388 3.40304229,14.3044594 3.46114591,13.9081878 L3.46115658,13.9081893 C3.51315927,13.5535266 3.84282676,13.3081721 4.19748951,13.3601748 C4.20485461,13.3612547 4.21220058,13.3624613 4.21952417,13.3637939 Z" id="Path-5" fill="#F1F4FF" fill-rule="nonzero"></path>
                </g>
            </g>
        </g>
    </g>
</svg>