<?xml version="1.0" encoding="UTF-8"?>
<svg width="22px" height="22px" viewBox="0 0 22 22" version="1.1" xmlns="http://www.w3.org/2000/svg" xmlns:xlink="http://www.w3.org/1999/xlink">
    <!-- Generator: Sketch 53.1 (72631) - https://sketchapp.com -->
    <title>Group 26</title>
    <desc>Created with Sketch.</desc>
    <g id="Web-V2" stroke="none" stroke-width="1" fill="none" fill-rule="evenodd">
        <g id="Group-17" transform="translate(-27.000000, -6.000000)" fill-rule="nonzero">
            <g id="Group-14" transform="translate(16.000000, 0.000000)">
                <g id="Group-26" transform="translate(10.000000, 5.000000)">
                    <g id="Group-41" transform="translate(0.000000, 0.500000)">
                        <rect id="Rectangle" x="0" y="0" width="24" height="24"></rect>
                        <path d="M4.31818182,12.2414223 L4.31818182,19.9361148 C4.31818182,20.6734491 4.37216181,20.9529804 4.52622112,21.2410463 C4.65392831,21.479838 4.83834385,21.6642535 5.07713554,21.7919607 C5.36520141,21.94602 5.64473275,22 6.38206702,22 L7.72782932,22 C8.35492345,22 8.64305326,21.9416054 8.92286446,21.7919607 C9.16165615,21.6642535 9.34607169,21.479838 9.47377888,21.2410463 C9.62342354,20.9612351 9.68181818,20.6731053 9.68181818,20.0460111 L9.68181818,18.6038961 C9.68181818,17.3235996 10.7197035,16.2857143 12,16.2857143 C13.2802965,16.2857143 14.3181818,17.3235996 14.3181818,18.6038961 L14.3181818,20.0460111 C14.3181818,20.6731053 14.3765765,20.9612351 14.5262211,21.2410463 C14.6539283,21.479838 14.8383439,21.6642535 15.0771355,21.7919607 C15.3569467,21.9416054 15.6450765,22 16.2721707,22 L17.617933,22 C18.3552673,22 18.6347986,21.94602 18.9228645,21.7919607 C19.1616561,21.6642535 19.3460717,21.479838 19.4737789,21.2410463 C19.6278382,20.9529804 19.6818182,20.6734491 19.6818182,19.9361148 L19.6818182,12.2414223 L12,5.08798313 L4.31818182,12.2414223 Z" id="Rectangle-11" stroke="#FFFFFF"></path>
                        <path d="M18.8605544,7.29753757 L22.0139185,10.1405119 C22.3246071,10.4206191 22.5001583,10.8047986 22.5001583,11.2101124 C22.5001583,11.6573925 22.3258239,12.0364436 21.9876311,12.3018429 C21.3187049,12.8267879 20.3919853,12.8324336 19.7778536,12.2796961 L11.9999996,5.26695697 L4.22165001,12.2801425 C3.59961605,12.8399918 2.60845012,12.8398648 1.98560414,12.2792829 C1.33806643,11.6944853 1.33814374,10.7256697 1.98608067,10.1405119 L10.8824533,2.11982119 C11.504452,1.56000363 12.4956178,1.56006712 13.1180227,2.12025074 L14.471046,3.34009425 C14.6023864,3.13104613 14.7830528,2.96269671 15.0030504,2.84504071 C15.2705908,2.70195854 15.5273247,2.65238095 16.0092153,2.65238095 L17.0816938,2.65238095 C17.5635844,2.65238095 17.8203183,2.70195854 18.0878586,2.84504071 C18.3379558,2.97879415 18.5372232,3.17806147 18.6709766,3.42815867 C18.8140588,3.69569906 18.8636364,3.95243289 18.8636364,4.43432355 L18.8636364,7.20087582 C18.8636364,7.2332204 18.8626052,7.26545399 18.8605544,7.29753757 Z" id="Combined-Shape" stroke="#FFFFFF"></path>
                        <rect id="Rectangle" fill-opacity="0.25" fill="#FFFFFF" opacity="0.246117001" transform="translate(15.820855, 6.709834) rotate(-48.000000) translate(-15.820855, -6.709834) " x="15.320855" y="4.70983363" width="1" height="4" rx="0.5"></rect>
                        <path d="M5.5,20.5 L5.5,13.5 C5.5,13.2238576 5.72385763,13 6,13 C6.27614237,13 6.5,13.2238576 6.5,13.5 L6.5,20 L8,20 C8.27614237,20 8.5,20.2238576 8.5,20.5 C8.5,20.7761424 8.27614237,21 8,21 L6,21 C5.72385763,21 5.5,20.7761424 5.5,20.5 Z" id="Combined-Shape" fill-opacity="0.25" fill="#FFFFFF" opacity="0.246117001"></path>
                        <rect id="Rectangle-Copy-12" fill-opacity="0.25" fill="#FFFFFF" opacity="0.246117001" transform="translate(17.000000, 20.500000) rotate(90.000000) translate(-17.000000, -20.500000) " x="16.5" y="19" width="1" height="3" rx="0.5"></rect>
                    </g>
                </g>
            </g>
        </g>
    </g>
</svg>