<?xml version="1.0" encoding="UTF-8"?>
<svg width="32px" height="31px" viewBox="0 0 32 31" version="1.1" xmlns="http://www.w3.org/2000/svg" xmlns:xlink="http://www.w3.org/1999/xlink">
    <!-- Generator: Sketch 52.5 (67469) - http://www.bohemiancoding.com/sketch -->
    <title>Combined Shape Copy</title>
    <desc>Created with Sketch.</desc>
    <g id="Web-V2" stroke="none" stroke-width="1" fill="none" fill-rule="evenodd">
        <path d="M6.50210216,9.45649472 C4.86891213,9.45649472 3.54618552,8.13342694 3.54618552,6.50134012 C3.54618552,4.8692533 4.86891213,3.54618552 6.50057808,3.54618552 C8.13376812,3.54618552 9.45649472,4.8692533 9.45649472,6.50134012 C9.45649472,8.13342694 8.13376812,9.45649472 6.50210216,9.45649472 Z M15.9585969,5.9103092 C14.3254068,5.9103092 13.0026802,4.58724142 13.0026802,2.9551546 C13.0026802,1.32306778 14.3254068,0 15.9570728,0 C17.5902628,0 18.9129894,1.32306778 18.9129894,2.9551546 C18.9129894,4.58724142 17.5902628,5.9103092 15.9585969,5.9103092 Z M25.4150916,9.45649472 C23.7819016,9.45649472 22.459175,8.13342694 22.459175,6.50134012 C22.459175,4.8692533 23.7819016,3.54618552 25.4135675,3.54618552 C27.0467576,3.54618552 28.3694842,4.8692533 28.3694842,6.50134012 C28.3694842,8.13342694 27.0467576,9.45649472 25.4150916,9.45649472 Z M25.4150916,27.1874223 C23.7819016,27.1874223 22.459175,25.8643545 22.459175,24.2322677 C22.459175,22.6001809 23.7819016,21.2771131 25.4135675,21.2771131 C27.0467576,21.2771131 28.3694842,22.6001809 28.3694842,24.2322677 C28.3694842,25.8643545 27.0467576,27.1874223 25.4150916,27.1874223 Z M15.9585969,30.7336078 C14.3254068,30.7336078 13.0026802,29.4105401 13.0026802,27.7784532 C13.0026802,26.1463664 14.3254068,24.8232986 15.9570728,24.8232986 C17.5902628,24.8232986 18.9129894,26.1463664 18.9129894,27.7784532 C18.9129894,29.4105401 17.5902628,30.7336078 15.9585969,30.7336078 Z M2.95591664,17.7309276 C1.3227266,17.7309276 0,16.4078598 0,14.775773 C0,13.1436862 1.3227266,11.8206184 2.95439256,11.8206184 C4.5875826,11.8206184 5.9103092,13.1436862 5.9103092,14.775773 C5.9103092,16.4078598 4.5875826,17.7309276 2.95591664,17.7309276 Z M6.50210216,27.1874223 C4.86891213,27.1874223 3.54618552,25.8643545 3.54618552,24.2322677 C3.54618552,22.6001809 4.86891213,21.2771131 6.50057808,21.2771131 C8.13376812,21.2771131 9.45649472,22.6001809 9.45649472,24.2322677 C9.45649472,25.8643545 8.13376812,27.1874223 6.50210216,27.1874223 Z M28.9612771,17.7309276 C27.3280871,17.7309276 26.0053605,16.4078598 26.0053605,14.775773 C26.0053605,13.1436862 27.3280871,11.8206184 28.959753,11.8206184 C30.5929431,11.8206184 31.9156697,13.1436862 31.9156697,14.775773 C31.9156697,16.4078598 30.5929431,17.7309276 28.9612771,17.7309276 Z" id="Combined-Shape-Copy" fill="#7692FF" fill-rule="nonzero" transform="translate(15.957835, 15.366804) rotate(-10.000000) translate(-15.957835, -15.366804) "></path>
    </g>
</svg>