<?xml version="1.0" encoding="UTF-8"?>
<svg width="25px" height="25px" viewBox="0 0 25 25" version="1.1" xmlns="http://www.w3.org/2000/svg" xmlns:xlink="http://www.w3.org/1999/xlink">
    <!-- Generator: Sketch 53 (72520) - https://sketchapp.com -->
    <title>insta_lightpurple</title>
    <desc>Created with Sketch.</desc>
    <g id="Page-1" stroke="none" stroke-width="1" fill="none" fill-rule="evenodd">
        <path d="M12.1372941,2 C7.21812991,2 5.65845378,2.00644193 5.46800718,2.02224476 C4.66888862,2.0886887 4.2647237,2.19044047 3.80085602,2.42145326 C3.46091866,2.5902998 3.21902994,2.76728722 2.95758611,3.03838479 C2.48498243,3.52910982 2.20148116,4.12510548 2.09107444,4.88925476 C2.07465469,5.0023891 2.06928009,5.04008061 2.06336659,5.08485676 C2.01791499,5.42900925 2.00458111,5.94537466 2.00082574,8.18876883 C1.99979328,8.72331493 1.99979328,9.13318638 2.00041455,10.5619006 C2.00070509,11.2300649 2.00082947,11.6471604 2.00082947,12.1285729 C2.00082947,17.0210645 2.00757077,18.6010865 2.02383639,18.7938468 C2.0883687,19.5713145 2.18769185,19.9729912 2.41112502,20.4361216 C2.79652654,21.2362719 3.54518433,21.8478015 4.42074944,22.0741082 C4.76768246,22.1634548 5.18574,22.2184241 5.77065898,22.2461535 C6.01301935,22.2566938 8.99527761,22.2666667 12.1113523,22.2666667 C15.7483709,22.2666667 18.2311746,22.2608036 18.4393322,22.2502092 C19.1256285,22.2179133 19.4732179,22.1721661 19.8587929,22.0725038 C20.7440606,21.844022 21.4725411,21.2475289 21.8716198,20.4241336 C22.0878156,19.9781464 22.1930342,19.5567053 22.2494794,18.8405632 C22.2574637,18.7389178 22.2666667,15.6325127 22.2666667,12.1253993 C22.2666667,8.65633029 22.2570164,5.51891547 22.2489153,5.41578172 C22.1916467,4.68645617 22.0877275,4.27423283 21.8647117,3.81999687 C21.6887589,3.46246205 21.5172311,3.2275534 21.2389879,2.95972442 C20.7416612,2.48458486 20.1443097,2.20091497 19.3801813,2.09067869 C19.2665402,2.07418937 19.2284791,2.0687592 19.183859,2.06285834 C18.8397823,2.01735527 18.3222208,2.00388868 16.0864182,2 L12.1372941,2 Z M12.1372941,0 L16.0864182,0 C18.9866728,0.0050404265 19.0995849,0.0293091467 19.666385,0.111262748 C20.8361917,0.280023694 21.8178738,0.746729852 22.6205762,1.51362141 C23.0703583,1.94653804 23.3801667,2.36993387 23.6591809,2.93688851 C23.9992236,3.62948044 24.1662589,4.28473589 24.2427778,5.25921834 C24.2592014,5.4683027 24.2666667,8.79573092 24.2666667,12.1253993 C24.2666667,15.4545077 24.2597613,18.7880964 24.2433377,18.9971808 C24.1677519,19.9561686 24.0007167,20.6170245 23.6713119,21.2965487 C23.0162351,22.6481297 21.8124615,23.6338131 20.3586015,24.0090449 C19.8313673,24.1453231 19.3545237,24.2093552 18.5333447,24.2479984 C18.2403332,24.262933 15.1758427,24.2666667 12.1113523,24.2666667 C9.04686184,24.2666667 5.98423772,24.2573325 5.68376089,24.2442648 C4.97456091,24.2106619 4.42213145,24.1397226 3.92195883,24.0109117 C2.47743045,23.6375468 1.25126102,22.6369288 0.609248403,21.304016 C0.273311571,20.6076904 0.114674734,19.9711032 0.0306905254,18.9592842 C0.00642842087,18.6717933 0.00082947366,17.1914013 0.00082947366,12.1285729 C0.00082947366,10.4228553 -0.00103684208,9.15117433 0.00082947366,8.1849059 C0.00568189457,5.28610062 0.029570736,5.17035749 0.111688628,4.6028428 C0.280590202,3.43383722 0.747169136,2.45039401 1.51702438,1.6510197 C1.93974489,1.21268928 2.36806435,0.899996154 2.91116223,0.630239995 C3.61588305,0.279276964 4.26274809,0.115556445 5.30228595,0.0291224642 C5.59025847,0.00522710896 7.0717399,0 12.1372941,0 Z M18.7744435,4.85383889 C17.9706018,4.85383889 17.3184283,5.50524722 17.3184283,6.30933333 C17.3184283,7.11316667 17.9706018,7.76533333 18.7744435,7.76533333 C19.5782852,7.76533333 20.2304587,7.11316667 20.2304587,6.30933333 C20.2304587,5.5055 19.5782852,4.85333333 18.7744435,4.85333333 L18.7744435,4.85383889 Z M12.2977038,6.55503333 C8.85660406,6.55503333 6.06666667,9.34494167 6.06666667,12.7860056 C6.06666667,16.2270694 8.85660406,19.0157139 12.2977038,19.0157139 C15.7388035,19.0157139 18.5277298,16.2270694 18.5277298,12.7860056 C18.5277298,9.34494167 15.7385507,6.55503333 12.297451,6.55503333 L12.2977038,6.55503333 Z M12.2977038,8.74156111 C14.5312715,8.74156111 16.3421904,10.5522083 16.3421904,12.7860056 C16.3421904,15.01955 14.5312715,16.83045 12.2977038,16.83045 C10.0638833,16.83045 8.25321722,15.01955 8.25321722,12.7860056 C8.25321722,10.5522083 10.0638833,8.74156111 12.2977038,8.74156111 Z" id="insta_lightpurple" fill="#7692FF" fill-rule="nonzero"></path>
    </g>
</svg>