<?xml version="1.0" encoding="UTF-8"?>
<svg width="26px" height="26px" viewBox="0 0 26 26" version="1.1" xmlns="http://www.w3.org/2000/svg" xmlns:xlink="http://www.w3.org/1999/xlink">
    <!-- Generator: Sketch 53 (72520) - https://sketchapp.com -->
    <title>instagram</title>
    <desc>Created with Sketch.</desc>
    <g id="Page-1" stroke="none" stroke-width="1" fill="none" fill-rule="evenodd" fill-opacity="0.15">
        <path d="M13.0039607,2.86666667 C8.08479658,2.86666667 6.52512045,2.87310859 6.33467385,2.88891142 C5.53555528,2.95535537 5.13139036,3.05710713 4.66752269,3.28811993 C4.32758533,3.45696647 4.08569661,3.63395389 3.82425278,3.90505145 C3.3516491,4.39577649 3.06814782,4.99177214 2.95774111,5.75592143 C2.94132136,5.86905577 2.93594676,5.90674728 2.93003326,5.95152343 C2.88458165,6.29567592 2.87124778,6.81204133 2.86749241,9.0554355 C2.86645995,9.5899816 2.86645995,9.99985305 2.86708121,11.4285673 C2.86737176,12.0967316 2.86749614,12.5138271 2.86749614,12.9952396 C2.86749614,17.8877312 2.87423743,19.4677532 2.89050306,19.6605134 C2.95503536,20.4379811 3.05435851,20.8396579 3.27779169,21.3027883 C3.6631932,22.1029386 4.411851,22.7144681 5.28741611,22.9407748 C5.63434912,23.0301215 6.05240667,23.0850908 6.63732565,23.1128201 C6.87968602,23.1233604 9.86194427,23.1333333 12.9780189,23.1333333 C16.6150375,23.1333333 19.0978412,23.1274703 19.3059989,23.1168759 C19.9922951,23.08458 20.3398846,23.0388328 20.7254596,22.9391705 C21.6107273,22.7106886 22.3392078,22.1141955 22.7382864,21.2908003 C22.9544823,20.844813 23.0597009,20.4233719 23.1161461,19.7072299 C23.1241303,19.6055844 23.1333333,16.4991793 23.1333333,12.992066 C23.1333333,9.52299696 23.1236831,6.38558213 23.1155819,6.28244838 C23.0583134,5.55312283 22.9543942,5.14089949 22.7313784,4.68666354 C22.5554255,4.32912872 22.3838978,4.09422007 22.1056546,3.82639109 C21.6083279,3.35125153 21.0109764,3.06758164 20.246848,2.95734535 C20.1332068,2.94085603 20.0951457,2.93542586 20.0505257,2.929525 C19.7064489,2.88402193 19.1888875,2.87055535 16.9530848,2.86666667 L13.0039607,2.86666667 Z M13.0039607,0.866666667 L16.9530848,0.866666667 C19.8533395,0.871707093 19.9662516,0.895975813 20.5330517,0.977929415 C21.7028584,1.14669036 22.6845405,1.61339652 23.4872429,2.38028808 C23.9370249,2.81320471 24.2468334,3.23660053 24.5258476,3.80355517 C24.8658903,4.49614711 25.0329255,5.15140255 25.1094445,6.12588501 C25.1258681,6.33496937 25.1333333,9.66239759 25.1333333,12.992066 C25.1333333,16.3211744 25.126428,19.6547631 25.1100044,19.8638475 C25.0344186,20.8228353 24.8673833,21.4836912 24.5379786,22.1632153 C23.8829018,23.5147964 22.6791281,24.5004798 21.2252682,24.8757115 C20.698034,25.0119897 20.2211903,25.0760218 19.4000114,25.1146651 C19.1069998,25.1295997 16.0425094,25.1333333 12.9780189,25.1333333 C9.91352851,25.1333333 6.85090439,25.1239992 6.55042755,25.1109314 C5.84122758,25.0773286 5.28879812,25.0063893 4.7886255,24.8775784 C3.34409712,24.5042134 2.11792768,23.5035954 1.47591507,22.1706826 C1.13997824,21.4743571 0.9813414,20.8377699 0.897357192,19.8259509 C0.873095088,19.5384599 0.86749614,18.058068 0.86749614,12.9952396 C0.86749614,11.2895219 0.865629825,10.017841 0.86749614,9.05157257 C0.872348561,6.15276729 0.896237403,6.03702416 0.978355295,5.46950947 C1.14725687,4.30050389 1.6138358,3.31706067 2.38369104,2.51768637 C2.80641156,2.07935595 3.23473102,1.76666282 3.7778289,1.49690666 C4.48254972,1.14594363 5.12941475,0.982223111 6.16895262,0.895789131 C6.45692514,0.871893776 7.93840657,0.866666667 13.0039607,0.866666667 Z M19.6411102,5.72050556 L19.6411102,5.72 C20.4449519,5.72 21.0971253,6.37216667 21.0971253,7.176 C21.0971253,7.97983333 20.4449519,8.632 19.6411102,8.632 C18.8372684,8.632 18.185095,7.97983333 18.185095,7.176 C18.185095,6.37191389 18.8372684,5.72050556 19.6411102,5.72050556 Z M13.1643705,7.4217 L13.1641177,7.4217 C16.6052174,7.4217 19.3943965,10.2116083 19.3943965,13.6526722 C19.3943965,17.0937361 16.6054702,19.8823806 13.1643705,19.8823806 C9.72327073,19.8823806 6.93333333,17.0937361 6.93333333,13.6526722 C6.93333333,10.2116083 9.72327073,7.4217 13.1643705,7.4217 Z M13.1643705,9.60822778 C10.93055,9.60822778 9.11988389,11.418875 9.11988389,13.6526722 C9.11988389,15.8862167 10.93055,17.6971167 13.1643705,17.6971167 C15.3979382,17.6971167 17.208857,15.8862167 17.208857,13.6526722 C17.208857,11.418875 15.3979382,9.60822778 13.1643705,9.60822778 Z" id="instagram" fill="#052D54" fill-rule="nonzero"></path>
    </g>
</svg>