<?xml version="1.0" encoding="UTF-8"?>
<svg width="150px" height="161px" viewBox="0 0 150 161" version="1.1" xmlns="http://www.w3.org/2000/svg" xmlns:xlink="http://www.w3.org/1999/xlink">
    <!-- Generator: Sketch 53.2 (72643) - https://sketchapp.com -->
    <title>Group 3</title>
    <desc>Created with Sketch.</desc>
    <defs>
        <path d="M20,0 L20,0 C31.045695,-2.02906125e-15 40,8.954305 40,20 L40,20 C40,31.045695 31.045695,40 20,40 L20,40 C8.954305,40 1.3527075e-15,31.045695 0,20 L0,20 C-1.3527075e-15,8.954305 8.954305,2.02906125e-15 20,0 Z" id="path-1"></path>
        <path d="M20,0 L20,0 C31.045695,-2.02906125e-15 40,8.954305 40,20 L40,20 C40,31.045695 31.045695,40 20,40 L20,40 C8.954305,40 1.3527075e-15,31.045695 0,20 L0,20 C-1.3527075e-15,8.954305 8.954305,2.02906125e-15 20,0 Z" id="path-3"></path>
        <path d="M20,0 L20,0 C31.045695,-2.02906125e-15 40,8.954305 40,20 L40,20 C40,31.045695 31.045695,40 20,40 L20,40 C8.954305,40 1.3527075e-15,31.045695 0,20 L0,20 C-1.3527075e-15,8.954305 8.954305,2.02906125e-15 20,0 Z" id="path-5"></path>
    </defs>
    <g id="Illustrations" stroke="none" stroke-width="1" fill="none" fill-rule="evenodd">
        <g id="Artboard-Copy" transform="translate(-25.000000, -25.000000)">
            <g id="Group-3" transform="translate(25.000000, 25.000000)">
                <rect id="Rectangle" fill="#052D54" x="0" y="0" width="150" height="150" rx="75"></rect>
                <g id="Group-2" transform="translate(39.000000, 89.000000)">
                    <path d="M19.229139,2.77583345e-15 L52.770861,7.76880231e-16 C59.4572515,-4.51389787e-16 61.8818983,0.696192084 64.3263428,2.00349528 C66.7707872,3.31079847 68.6892015,5.22921278 69.9965047,7.67365722 C71.3038079,10.1181017 72,12.5427485 72,19.229139 L72,52.770861 C72,59.4572515 71.3038079,61.8818983 69.9965047,64.3263428 C68.6892015,66.7707872 66.7707872,68.6892015 64.3263428,69.9965047 C61.8818983,71.3038079 59.4572515,72 52.770861,72 L19.229139,72 C12.5427485,72 10.1181017,71.3038079 7.67365722,69.9965047 C5.22921278,68.6892015 3.31079847,66.7707872 2.00349528,64.3263428 C0.696192084,61.8818983 3.8536402e-15,59.4572515 3.03479352e-15,52.770861 L5.17920154e-16,19.229139 C-3.00926524e-16,12.5427485 0.696192084,10.1181017 2.00349528,7.67365722 C3.31079847,5.22921278 5.22921278,3.31079847 7.67365722,2.00349528 C10.1181017,0.696192084 12.5427485,4.00410347e-15 19.229139,2.77583345e-15 Z" id="Rectangle" fill="#7692FF"></path>
                    <g id="Group" transform="translate(15.000000, 14.000000)" fill="#FFFFFF" fill-rule="nonzero">
                        <path d="M21.1043659,43.654902 C29.1179406,43.654902 36.723773,40.261922 41.3100363,35.710324 C45.8962995,31.1587261 31.0259345,23.8117647 21.1043659,23.8117647 C11.1827973,23.8117647 -4.26369326,30.7000269 1.10236982,35.939512 C6.22066071,40.9370694 13.3933906,43.654902 21.1043659,43.654902 Z" id="Oval-3"></path>
                        <circle id="Oval-Copy" cx="21.1043659" cy="9.92156863" r="9.92156863"></circle>
                    </g>
                </g>
                <g id="Group-2-Copy" transform="translate(14.000000, 42.000000)">
                    <g id="Oval-Copy-2">
                        <mask id="mask-2" fill="white">
                            <use xlink:href="#path-1"></use>
                        </mask>
                        <use id="Mask" fill-opacity="0.25" fill="#7692FF" xlink:href="#path-1"></use>
                        <path d="M20.0834927,40.6745098 C26.4943525,40.6745098 32.5790184,37.9601258 36.248029,34.3188475 C39.9170396,30.6775691 28.0207476,24.8 20.0834927,24.8 C12.1462378,24.8 -0.210954609,30.3106098 4.08189586,34.5021978 C8.17652857,38.5002438 13.9147125,40.6745098 20.0834927,40.6745098 Z" id="Oval-3" fill="#7692FF" fill-rule="nonzero" mask="url(#mask-2)"></path>
                    </g>
                    <g id="Group" transform="translate(12.333333, 7.777778)" fill="#7692FF" fill-rule="nonzero">
                        <circle id="Oval-Copy" cx="7.66666667" cy="7.42222222" r="7.2"></circle>
                    </g>
                </g>
                <g id="Group-2-Copy-2" transform="translate(55.000000, 12.000000)">
                    <g id="Oval-Copy-2">
                        <mask id="mask-4" fill="white">
                            <use xlink:href="#path-3"></use>
                        </mask>
                        <use id="Mask" fill-opacity="0.25" fill="#7692FF" xlink:href="#path-3"></use>
                        <path d="M20.0834927,40.6745098 C26.4943525,40.6745098 32.5790184,37.9601258 36.248029,34.3188475 C39.9170396,30.6775691 28.0207476,24.8 20.0834927,24.8 C12.1462378,24.8 -0.210954609,30.3106098 4.08189586,34.5021978 C8.17652857,38.5002438 13.9147125,40.6745098 20.0834927,40.6745098 Z" id="Oval-3" fill="#7692FF" fill-rule="nonzero" mask="url(#mask-4)"></path>
                    </g>
                    <g id="Group" transform="translate(12.333333, 7.777778)" fill="#7692FF" fill-rule="nonzero">
                        <circle id="Oval-Copy" cx="7.66666667" cy="7.42222222" r="7.2"></circle>
                    </g>
                </g>
                <g id="Group-2-Copy-3" transform="translate(96.000000, 42.000000)">
                    <g id="Oval-Copy-2">
                        <mask id="mask-6" fill="white">
                            <use xlink:href="#path-5"></use>
                        </mask>
                        <use id="Mask" fill-opacity="0.25" fill="#7692FF" xlink:href="#path-5"></use>
                        <path d="M20.0834927,40.6745098 C26.4943525,40.6745098 32.5790184,37.9601258 36.248029,34.3188475 C39.9170396,30.6775691 28.0207476,24.8 20.0834927,24.8 C12.1462378,24.8 -0.210954609,30.3106098 4.08189586,34.5021978 C8.17652857,38.5002438 13.9147125,40.6745098 20.0834927,40.6745098 Z" id="Oval-3" fill="#7692FF" fill-rule="nonzero" mask="url(#mask-6)"></path>
                    </g>
                    <g id="Group" transform="translate(12.333333, 7.777778)" fill="#7692FF" fill-rule="nonzero">
                        <circle id="Oval-Copy" cx="7.66666667" cy="7.42222222" r="7.2"></circle>
                    </g>
                </g>
            </g>
        </g>
    </g>
</svg>