<?xml version="1.0" encoding="UTF-8"?>
<svg width="155px" height="150px" viewBox="0 0 155 150" version="1.1" xmlns="http://www.w3.org/2000/svg" xmlns:xlink="http://www.w3.org/1999/xlink">
    <!-- Generator: Sketch 53.2 (72643) - https://sketchapp.com -->
    <title>payments</title>
    <desc>Created with Sketch.</desc>
    <defs>
        <path d="M75,0 L75,0 L75,150 L75,150 C33.5786438,150 -1.08614185e-13,116.421356 -1.13686838e-13,75 L-1.13686838e-13,75 C-1.18759491e-13,33.5786438 33.5786438,7.6089797e-15 75,0 Z" id="path-1"></path>
    </defs>
    <g id="Illustrations" stroke="none" stroke-width="1" fill="none" fill-rule="evenodd">
        <g id="Artboard" transform="translate(-22.000000, -25.000000)">
            <g id="payments" transform="translate(22.000000, 25.000000)">
                <g>
                    <rect id="Rectangle" fill="#052D54" x="0" y="0" width="150" height="150" rx="75"></rect>
                    <g id="Group">
                        <mask id="mask-2" fill="white">
                            <use xlink:href="#path-1"></use>
                        </mask>
                        <use id="Rectangle" fill="#052D54" xlink:href="#path-1"></use>
                        <path d="M0,42 L144,42 C150.627417,42 156,47.372583 156,54 L156,116 C156,122.627417 150.627417,128 144,128 L0,128 C-5.5228475,128 -10,123.522847 -10,118 L-10,52 C-10,46.4771525 -5.5228475,42 -1.77635684e-15,42 Z" id="Rectangle" fill="#BAC8FF" mask="url(#mask-2)"></path>
                        <path d="M0,32 L144,32 C150.627417,32 156,37.372583 156,44 L156,106 C156,112.627417 150.627417,118 144,118 L0,118 C-5.5228475,118 -10,113.522847 -10,108 L-10,42 C-10,36.4771525 -5.5228475,32 -1.77635684e-15,32 Z" id="Rectangle" fill="#99AEFF" mask="url(#mask-2)"></path>
                        <path d="M80,44 L143,44 C149.627417,44 155,49.372583 155,56 L155,123 C155,129.627417 149.627417,135 143,135 L80,135 L80,44 Z" id="Rectangle" fill="#ADBEFF" mask="url(#mask-2)"></path>
                        <path d="M0,22 L144,22 C150.627417,22 156,27.372583 156,34 L156,96 C156,102.627417 150.627417,108 144,108 L0,108 C-5.5228475,108 -10,103.522847 -10,98 L-10,32 C-10,26.4771525 -5.5228475,22 -1.77635684e-15,22 Z" id="Rectangle" fill="#839CFF" mask="url(#mask-2)"></path>
                        <rect id="Rectangle-Copy-2" fill="#EEF1FF" mask="url(#mask-2)" x="-9" y="45" width="140" height="16"></rect>
                    </g>
                </g>
                <path d="M56,42 L143,42 C149.627417,42 155,47.372583 155,54 L155,116 C155,122.627417 149.627417,128 143,128 L41,128 L41,57 C41,48.7157288 47.7157288,42 56,42 Z" id="Rectangle" fill="#BAC8FF"></path>
                <path d="M35,32 L143,32 C149.627417,32 155,37.372583 155,44 L155,106 C155,112.627417 149.627417,118 143,118 L35,118 L35,32 Z" id="Rectangle" fill="#99AEFF"></path>
                <path d="M31,22 L143,22 C149.627417,22 155,27.372583 155,34 L155,96 C155,102.627417 149.627417,108 143,108 L31,108 L31,22 Z" id="Rectangle" fill="#839CFF"></path>
                <rect id="Rectangle-Copy-2" fill="#EEF1FF" x="21" y="45" width="134" height="16"></rect>
                <rect id="Rectangle-Copy-3" fill="#FFFFFF" opacity="0.25" x="120" y="77" width="26" height="17" rx="2"></rect>
            </g>
        </g>
    </g>
</svg>