<?xml version="1.0" encoding="UTF-8"?>
<svg width="1185px" height="305px" viewBox="0 0 1185 305" version="1.1" xmlns="http://www.w3.org/2000/svg" xmlns:xlink="http://www.w3.org/1999/xlink">
    <!-- Generator: Sketch 53.2 (72643) - https://sketchapp.com -->
    <title>Group 69</title>
    <desc>Created with Sketch.</desc>
    <defs>
        <polygon id="path-1" points="0 4.69517754e-13 1185 5.40968979e-13 1185 304.538462 0 304.538462"></polygon>
    </defs>
    <g id="Web-V2" stroke="none" stroke-width="1" fill="none" fill-rule="evenodd">
        <g id="Group-69" transform="translate(0.000000, 0.461538)">
            <mask id="mask-2" fill="white">
                <use xlink:href="#path-1"></use>
            </mask>
            <use id="Rectangle" fill-opacity="0.25" fill="#7692FF" xlink:href="#path-1"></use>
            <polygon id="Rectangle-Copy-33" fill-opacity="0.25" fill="#7692FF" mask="url(#mask-2)" points="-26 103.538462 1159 103.538462 1159 268.538462 -26 268.538462"></polygon>
            <polygon id="Rectangle" fill-opacity="0.25" fill="#7692FF" mask="url(#mask-2)" points="0 50 1185 50 1185 184.538462 0 184.538462"></polygon>
            <polygon id="Rectangle" fill="#7692FF" mask="url(#mask-2)" points="49 20.5384615 1234 20.5384615 1234 35.0769231 49 35.0769231"></polygon>
            <polygon id="Rectangle-Copy-30" fill="#7692FF" opacity="0.376348586" mask="url(#mask-2)" points="-124 72.5384615 1061 72.5384615 1061 152.538462 -124 152.538462"></polygon>
            <polygon id="Rectangle-Copy-32" fill="#7692FF" opacity="0.158319382" mask="url(#mask-2)" points="-68 166.538462 1117 166.538462 1117 197.538462 -68 197.538462"></polygon>
            <polygon id="Rectangle" fill="#7692FF" mask="url(#mask-2)" points="0 104 1185 104 1185 108.538462 0 108.538462"></polygon>
            <polygon id="Rectangle-Copy-31" fill="#7692FF" mask="url(#mask-2)" points="60 133.538462 1245 133.538462 1245 138.076923 60 138.076923"></polygon>
        </g>
    </g>
</svg> 