<?xml version="1.0" encoding="UTF-8"?>
<svg width="16px" height="16px" viewBox="0 0 16 16" version="1.1" xmlns="http://www.w3.org/2000/svg" xmlns:xlink="http://www.w3.org/1999/xlink">
    <!-- Generator: Sketch 53.2 (72643) - https://sketchapp.com -->
    <title>Combined Shape Copy 11</title>
    <desc>Created with Sketch.</desc>
    <g id="Web-V2" stroke="none" stroke-width="1" fill="none" fill-rule="evenodd">
        <g id="Group-68" transform="translate(-586.000000, -348.000000)" fill="#7692FF" fill-rule="nonzero">
            <path d="M594,348 C598.418278,348 602,351.581722 602,356 C602,360.418278 598.418278,364 594,364 C589.581722,364 586,360.418278 586,356 C586,351.581722 589.581722,348 594,348 Z M593.714867,358.4 L598.104806,354.010061 C598.32062,353.794246 598.32062,353.444342 598.104806,353.228528 C597.888991,353.012713 597.539087,353.012713 597.323272,353.228528 L592.933333,357.618467 L590.676728,355.361861 C590.460913,355.146046 590.111009,355.146046 589.895194,355.361861 C589.67938,355.577675 589.67938,355.92758 589.895194,356.143394 L592.1518,358.4 L592.226227,358.474427 C592.616751,358.864951 593.249916,358.864951 593.64044,358.474427 L593.714867,358.4 Z" id="Combined-Shape-Copy-11"></path>
        </g>
    </g>
</svg> 