<?xml version="1.0" encoding="UTF-8"?>
<svg width="20px" height="20px" viewBox="0 0 20 20" version="1.1" xmlns="http://www.w3.org/2000/svg" xmlns:xlink="http://www.w3.org/1999/xlink">
    <!-- Generator: Sketch 52.5 (67469) - http://www.bohemiancoding.com/sketch -->
    <title>Combined Shape</title>
    <desc>Created with Sketch.</desc>
    <g id="Web-V2" stroke="none" stroke-width="1" fill="none" fill-rule="evenodd">
        <g id="Artboard-Copy-7" transform="translate(-361.000000, -2335.000000)" fill="#7692FF" fill-rule="nonzero">
            <g id="Group-19" transform="translate(100.000000, 2013.000000)">
                <g id="Group-20" transform="translate(226.000000, 75.000000)">
                    <path d="M45,267 C39.4771525,267 35,262.522847 35,257 C35,251.477153 39.4771525,247 45,247 C50.5228475,247 55,251.477153 55,257 C55,262.522847 50.5228475,267 45,267 Z M44.5990313,261.14394 L50.7723832,254.440552 C51.0758723,254.111006 51.0758723,253.576706 50.7723832,253.24716 C50.468894,252.917613 49.976841,252.917613 49.6733519,253.24716 L43.5,259.950548 L40.3266481,256.504736 C40.023159,256.17519 39.531106,256.17519 39.2276168,256.504736 C38.9241277,256.834282 38.9241277,257.368582 39.2276168,257.698129 L42.4009687,261.14394 L42.76441,261.538586 C42.7829918,261.558763 42.8023958,261.578167 42.822573,261.596749 C43.2288281,261.970882 43.8614574,261.944841 44.23559,261.538586 L44.5990313,261.14394 Z" id="Combined-Shape"></path>
                </g>
            </g>
        </g>
    </g>
</svg>