<?xml version="1.0" encoding="UTF-8"?>
<svg width="31px" height="31px" viewBox="0 0 31 31" version="1.1" xmlns="http://www.w3.org/2000/svg" xmlns:xlink="http://www.w3.org/1999/xlink">
    <!-- Generator: Sketch 53.2 (72643) - https://sketchapp.com -->
    <title>Group 43</title>
    <desc>Created with Sketch.</desc>
    <g id="Web-V2" stroke="none" stroke-width="1" fill="none" fill-rule="evenodd">
        <g id="Group-53-Copy-2" transform="translate(-16.000000, -324.000000)" fill-rule="nonzero">
            <g id="Group-52" transform="translate(0.000000, 308.000000)">
                <g id="Group-43" transform="translate(31.490381, 31.490381) rotate(30.000000) translate(-31.490381, -31.490381) translate(16.490381, 16.490381)">
                    <g id="Group-44">
                        <path d="M2.87368424,12.1263158 C4.46077621,12.1263158 5.74736846,13.4129081 5.74736846,15 C5.74736846,20.1100873 9.88991272,24.2526316 15,24.2526316 C16.587092,24.2526316 17.8736843,25.5392238 17.8736843,27.1263158 C17.8736843,28.7130454 16.5876575,29.9994736 15.0007706,29.9999999 C6.71585294,30 3.80949246e-08,23.2843954 3.80949246e-08,15 C3.80949246e-08,13.4129081 1.28659229,12.1263158 2.87368424,12.1263158 Z" id="Combined-Shape" fill="#7692FF"></path>
                        <path d="M2.87368323,1.90469596e-08 C4.4607752,1.90469596e-08 5.74736744,1.28659227 5.74736744,2.87368422 C5.74736744,7.98377154 9.8899117,12.1263158 14.999999,12.1263158 C16.5870909,12.1263158 17.8736832,13.4129081 17.8736832,15 C17.8736832,16.5867296 16.5876565,17.8731578 15.0007697,17.8736841 C6.71585192,17.8736843 -9.79053159e-07,11.1580796 -9.79053159e-07,2.87368422 C-9.79053159e-07,1.28659227 1.28659126,1.90469596e-08 2.87368323,1.90469596e-08 Z" id="Combined-Shape-Copy-8" fill="#97ADFD" transform="translate(8.936841, 8.936842) rotate(90.000000) translate(-8.936841, -8.936842) "></path>
                        <path d="M15.000001,-8.39999998e-07 C16.587093,-8.39999998e-07 17.8736852,1.2865914 17.8736852,2.87368337 C17.8736852,7.98377069 22.0162295,12.126315 27.1263168,12.126315 C28.7134087,12.126315 30.000001,13.4129072 30.000001,14.9999992 C30.000001,16.5867287 28.7139743,17.873157 27.1270874,17.8736832 C18.8421697,17.8736833 12.1263168,11.1580788 12.1263168,2.87368337 C12.1263168,1.2865914 13.412909,-8.39999998e-07 15.000001,-8.39999998e-07 Z" id="Combined-Shape-Copy-7" fill="#B7C5FC" transform="translate(21.063159, 8.936841) rotate(180.000000) translate(-21.063159, -8.936841) "></path>
                        <path d="M15,12.1263169 C16.5870919,12.1263169 17.8736842,13.4129092 17.8736842,15.0000012 C17.8736842,20.1100885 22.0162284,24.2526328 27.1263157,24.2526328 C28.7134078,24.2526328 30,25.539225 30,27.1263169 C30,28.7130464 28.7139732,29.9994748 27.1270864,30.000001 C18.8421686,30.0000012 12.1263157,23.2843966 12.1263157,15.0000012 C12.1263157,13.4129092 13.412908,12.1263169 15,12.1263169 Z" id="Combined-Shape-Copy-6" fill="#D9E0FB" transform="translate(21.063158, 21.063159) rotate(-90.000000) translate(-21.063158, -21.063159) "></path>
                    </g>
                    <path d="M14.4540001,30 C12.8667337,30 11.5800001,28.7132664 11.5800001,27.126 C11.5800001,25.5387336 12.8667337,24.252 14.4540001,24.252 C16.0412665,24.252 17.6144568,25.5387336 17.6144568,27.126 C17.6144568,28.7132664 16.0412665,30 14.4540001,30 Z" id="Oval" fill="#7692FF" transform="translate(14.597228, 27.126000) scale(-1, 1) translate(-14.597228, -27.126000) "></path>
                </g>
            </g>
        </g>
    </g>
</svg>