<?xml version="1.0" encoding="UTF-8"?>
<svg width="44px" height="44px" viewBox="0 0 44 44" version="1.1" xmlns="http://www.w3.org/2000/svg" xmlns:xlink="http://www.w3.org/1999/xlink">
    <!-- Generator: Sketch 53.2 (72643) - https://sketchapp.com -->
    <title>transparent</title>
    <desc>Created with Sketch.</desc>
    <g id="Web-V2" stroke="none" stroke-width="1" fill="none" fill-rule="evenodd">
        <g id="Desktop-HD-Copy-9" transform="translate(-796.000000, -305.000000)">
            <g id="Group-9" transform="translate(86.000000, 297.000000)">
                <g id="Group-6" transform="translate(708.000000, 9.000000)">
                    <g id="transparent" transform="translate(3.000000, 0.000000)">
                        <path d="M1.82291667,0 L40.1770833,2.66453526e-15 C41.1838524,2.47959478e-15 42,0.816147591 42,1.82291667 L42,1.82291667 C42,2.82968574 41.1838524,3.64583333 40.1770833,3.64583333 L1.82291667,3.64583333 C0.816147591,3.64583333 1.23293653e-16,2.82968574 0,1.82291667 L0,1.82291667 C-1.23293653e-16,0.816147591 0.816147591,-2.59148731e-16 1.82291667,-4.4408921e-16 Z" id="Rectangle" stroke="#42607F" stroke-width="2" fill="#7692FF"></path>
                        <path d="M7.27435922,26.8065509 L12.2326926,26.8065509 C12.4340464,26.8065509 12.5972759,26.9697804 12.5972759,27.1711343 L12.5972759,27.1711343 C12.5972759,27.3724881 12.4340464,27.5357176 12.2326926,27.5357176 L7.27435922,27.5357176 C7.0730054,27.5357176 6.90977588,27.3724881 6.90977588,27.1711343 L6.90977588,27.1711343 C6.90977588,26.9697804 7.0730054,26.8065509 7.27435922,26.8065509 Z" id="Rectangle-Copy-9" fill="#7692FF" transform="translate(9.753526, 27.171134) rotate(-45.000000) translate(-9.753526, -27.171134) "></path>
                        <path d="M7.55503314,31.1800331 L10.0341998,31.1800331 C10.2355536,31.1800331 10.3987831,31.3432627 10.3987831,31.5446165 L10.3987831,31.5446165 C10.3987831,31.7459703 10.2355536,31.9091998 10.0341998,31.9091998 L7.55503314,31.9091998 C7.35367933,31.9091998 7.19044981,31.7459703 7.19044981,31.5446165 L7.19044981,31.5446165 C7.19044981,31.3432627 7.35367933,31.1800331 7.55503314,31.1800331 Z" id="Rectangle-Copy-10" fill="#7692FF" transform="translate(8.794616, 31.544616) rotate(-45.000000) translate(-8.794616, -31.544616) "></path>
                        <path d="M10.4112937,28.6154393 L12.307127,28.6154393 C12.5084808,28.6154393 12.6717103,28.7786688 12.6717103,28.9800226 L12.6717103,28.9800226 C12.6717103,29.1813764 12.5084808,29.344606 12.307127,29.344606 L10.4112937,29.344606 C10.2099398,29.344606 10.0467103,29.1813764 10.0467103,28.9800226 L10.0467103,28.9800226 C10.0467103,28.7786688 10.2099398,28.6154393 10.4112937,28.6154393 Z" id="Rectangle-Copy-11" fill="#7692FF" transform="translate(11.359210, 28.980023) rotate(-45.000000) translate(-11.359210, -28.980023) "></path>
                        <path d="M12.4883454,25.5852888 L16.1341788,25.5852888 C16.3355326,25.5852888 16.4987621,25.7485183 16.4987621,25.9498722 L16.4987621,25.9498722 C16.4987621,26.151226 16.3355326,26.3144555 16.1341788,26.3144555 L12.4883454,26.3144555 C12.2869916,26.3144555 12.1237621,26.151226 12.1237621,25.9498722 L12.1237621,25.9498722 C12.1237621,25.7485183 12.2869916,25.5852888 12.4883454,25.5852888 Z" id="Rectangle-Copy-12" fill="#7692FF" transform="translate(14.311262, 25.949872) rotate(-45.000000) translate(-14.311262, -25.949872) "></path>
                        <path d="M7.27435922,10.4732176 L12.2326926,10.4732176 C12.4340464,10.4732176 12.5972759,10.6364471 12.5972759,10.8378009 L12.5972759,10.8378009 C12.5972759,11.0391547 12.4340464,11.2023843 12.2326926,11.2023843 L7.27435922,11.2023843 C7.0730054,11.2023843 6.90977588,11.0391547 6.90977588,10.8378009 L6.90977588,10.8378009 C6.90977588,10.6364471 7.0730054,10.4732176 7.27435922,10.4732176 Z" id="Rectangle-Copy-9" fill="#7692FF" transform="translate(9.753526, 10.837801) rotate(-45.000000) translate(-9.753526, -10.837801) "></path>
                        <path d="M7.55503314,14.8466998 L10.0341998,14.8466998 C10.2355536,14.8466998 10.3987831,15.0099293 10.3987831,15.2112831 L10.3987831,15.2112831 C10.3987831,15.412637 10.2355536,15.5758665 10.0341998,15.5758665 L7.55503314,15.5758665 C7.35367933,15.5758665 7.19044981,15.412637 7.19044981,15.2112831 L7.19044981,15.2112831 C7.19044981,15.0099293 7.35367933,14.8466998 7.55503314,14.8466998 Z" id="Rectangle-Copy-10" fill="#7692FF" transform="translate(8.794616, 15.211283) rotate(-45.000000) translate(-8.794616, -15.211283) "></path>
                        <path d="M10.4112937,12.282106 L12.307127,12.282106 C12.5084808,12.282106 12.6717103,12.4453355 12.6717103,12.6466893 L12.6717103,12.6466893 C12.6717103,12.8480431 12.5084808,13.0112726 12.307127,13.0112726 L10.4112937,13.0112726 C10.2099398,13.0112726 10.0467103,12.8480431 10.0467103,12.6466893 L10.0467103,12.6466893 C10.0467103,12.4453355 10.2099398,12.282106 10.4112937,12.282106 Z" id="Rectangle-Copy-11" fill="#7692FF" transform="translate(11.359210, 12.646689) rotate(-45.000000) translate(-11.359210, -12.646689) "></path>
                        <path d="M12.4883454,9.25195549 L16.1341788,9.25195549 C16.3355326,9.25195549 16.4987621,9.41518501 16.4987621,9.61653883 L16.4987621,9.61653883 C16.4987621,9.81789264 16.3355326,9.98112216 16.1341788,9.98112216 L12.4883454,9.98112216 C12.2869916,9.98112216 12.1237621,9.81789264 12.1237621,9.61653883 L12.1237621,9.61653883 C12.1237621,9.41518501 12.2869916,9.25195549 12.4883454,9.25195549 Z" id="Rectangle-Copy-12" fill="#7692FF" transform="translate(14.311262, 9.616539) rotate(-45.000000) translate(-14.311262, -9.616539) "></path>
                        <path d="M24.4826926,10.6190509 L29.4410259,10.6190509 C29.6423797,10.6190509 29.8056092,10.7822804 29.8056092,10.9836343 L29.8056092,10.9836343 C29.8056092,11.1849881 29.6423797,11.3482176 29.4410259,11.3482176 L24.4826926,11.3482176 C24.2813387,11.3482176 24.1181092,11.1849881 24.1181092,10.9836343 L24.1181092,10.9836343 C24.1181092,10.7822804 24.2813387,10.6190509 24.4826926,10.6190509 Z" id="Rectangle-Copy-9" fill="#7692FF" transform="translate(26.961859, 10.983634) rotate(-45.000000) translate(-26.961859, -10.983634) "></path>
                        <path d="M24.7633665,14.9925331 L27.2425331,14.9925331 C27.443887,14.9925331 27.6071165,15.1557627 27.6071165,15.3571165 L27.6071165,15.3571165 C27.6071165,15.5584703 27.443887,15.7216998 27.2425331,15.7216998 L24.7633665,15.7216998 C24.5620127,15.7216998 24.3987831,15.5584703 24.3987831,15.3571165 L24.3987831,15.3571165 C24.3987831,15.1557627 24.5620127,14.9925331 24.7633665,14.9925331 Z" id="Rectangle-Copy-10" fill="#7692FF" transform="translate(26.002950, 15.357116) rotate(-45.000000) translate(-26.002950, -15.357116) "></path>
                        <path d="M27.619627,12.4279393 L29.5154603,12.4279393 C29.7168141,12.4279393 29.8800437,12.5911688 29.8800437,12.7925226 L29.8800437,12.7925226 C29.8800437,12.9938764 29.7168141,13.157106 29.5154603,13.157106 L27.619627,13.157106 C27.4182732,13.157106 27.2550437,12.9938764 27.2550437,12.7925226 L27.2550437,12.7925226 C27.2550437,12.5911688 27.4182732,12.4279393 27.619627,12.4279393 Z" id="Rectangle-Copy-11" fill="#7692FF" transform="translate(28.567544, 12.792523) rotate(-45.000000) translate(-28.567544, -12.792523) "></path>
                        <path d="M29.6966788,9.39778883 L33.3425121,9.39778883 C33.5438659,9.39778883 33.7070954,9.56101834 33.7070954,9.76237216 L33.7070954,9.76237216 C33.7070954,9.96372597 33.5438659,10.1269555 33.3425121,10.1269555 L29.6966788,10.1269555 C29.4953249,10.1269555 29.3320954,9.96372597 29.3320954,9.76237216 L29.3320954,9.76237216 C29.3320954,9.56101834 29.4953249,9.39778883 29.6966788,9.39778883 Z" id="Rectangle-Copy-12" fill="#7692FF" transform="translate(31.519595, 9.762372) rotate(-45.000000) translate(-31.519595, -9.762372) "></path>
                        <path d="M24.1910259,26.9523843 L29.1493592,26.9523843 C29.350713,26.9523843 29.5139426,27.1156138 29.5139426,27.3169676 L29.5139426,27.3169676 C29.5139426,27.5183214 29.350713,27.6815509 29.1493592,27.6815509 L24.1910259,27.6815509 C23.9896721,27.6815509 23.8264426,27.5183214 23.8264426,27.3169676 L23.8264426,27.3169676 C23.8264426,27.1156138 23.9896721,26.9523843 24.1910259,26.9523843 Z" id="Rectangle-Copy-9" fill="#7692FF" transform="translate(26.670193, 27.316968) rotate(-45.000000) translate(-26.670193, -27.316968) "></path>
                        <path d="M24.4716998,31.3258665 L26.9508665,31.3258665 C27.1522203,31.3258665 27.3154498,31.489096 27.3154498,31.6904498 L27.3154498,31.6904498 C27.3154498,31.8918036 27.1522203,32.0550331 26.9508665,32.0550331 L24.4716998,32.0550331 C24.270346,32.0550331 24.1071165,31.8918036 24.1071165,31.6904498 L24.1071165,31.6904498 C24.1071165,31.489096 24.270346,31.3258665 24.4716998,31.3258665 Z" id="Rectangle-Copy-10" fill="#7692FF" transform="translate(25.711283, 31.690450) rotate(-45.000000) translate(-25.711283, -31.690450) "></path>
                        <path d="M27.3279603,28.7612726 L29.2237937,28.7612726 C29.4251475,28.7612726 29.588377,28.9245021 29.588377,29.125856 L29.588377,29.125856 C29.588377,29.3272098 29.4251475,29.4904393 29.2237937,29.4904393 L27.3279603,29.4904393 C27.1266065,29.4904393 26.963377,29.3272098 26.963377,29.125856 L26.963377,29.125856 C26.963377,28.9245021 27.1266065,28.7612726 27.3279603,28.7612726 Z" id="Rectangle-Copy-11" fill="#7692FF" transform="translate(28.275877, 29.125856) rotate(-45.000000) translate(-28.275877, -29.125856) "></path>
                        <path d="M29.4050121,25.7311222 L33.0508454,25.7311222 C33.2521992,25.7311222 33.4154288,25.8943517 33.4154288,26.0957055 L33.4154288,26.0957055 C33.4154288,26.2970593 33.2521992,26.4602888 33.0508454,26.4602888 L29.4050121,26.4602888 C29.2036583,26.4602888 29.0404288,26.2970593 29.0404288,26.0957055 L29.0404288,26.0957055 C29.0404288,25.8943517 29.2036583,25.7311222 29.4050121,25.7311222 Z" id="Rectangle-Copy-12" fill="#7692FF" transform="translate(31.227929, 26.095705) rotate(-45.000000) translate(-31.227929, -26.095705) "></path>
                        <path d="M25.5705519,6.67333333 L33.9294485,6.67333333 C34.8209672,6.67333333 35.1442535,6.76615894 35.4701794,6.94046604 C35.7961053,7.11477313 36.0518939,7.3705617 36.226201,7.69648763 C36.4005081,8.02241356 36.4933337,8.34569979 36.4933337,9.23721853 L36.4933337,16.4294484 C36.4933337,17.3209672 36.4005081,17.6442534 36.226201,17.9701793 C36.0518939,18.2961052 35.7961053,18.5518938 35.4701794,18.7262009 C35.1442535,18.900508 34.8209672,18.9933336 33.9294485,18.9933336 L25.5705519,18.9933336 C24.6790331,18.9933336 24.3557469,18.900508 24.029821,18.7262009 C23.703895,18.5518938 23.4481065,18.2961052 23.2737994,17.9701793 C23.0994923,17.6442534 23.0066667,17.3209672 23.0066667,16.4294484 L23.0066667,9.23721853 C23.0066667,8.34569979 23.0994923,8.02241356 23.2737994,7.69648763 C23.4481065,7.3705617 23.703895,7.11477313 24.029821,6.94046604 C24.3557469,6.76615894 24.6790331,6.67333333 25.5705519,6.67333333 Z" id="Rectangle-Copy-4" stroke="#42607F" stroke-width="2"></path>
                        <path d="M25.5705519,22.715 L33.9294485,22.715 C34.8209672,22.715 35.1442535,22.8078256 35.4701794,22.9821327 C35.7961053,23.1564398 36.0518939,23.4122284 36.226201,23.7381543 C36.4005081,24.0640802 36.4933337,24.3873665 36.4933337,25.2788852 L36.4933337,32.4711151 C36.4933337,33.3626338 36.4005081,33.6859201 36.226201,34.011846 C36.0518939,34.3377719 35.7961053,34.5935605 35.4701794,34.7678676 C35.1442535,34.9421747 34.8209672,35.0350003 33.9294485,35.0350003 L25.5705519,35.0350003 C24.6790331,35.0350003 24.3557469,34.9421747 24.029821,34.7678676 C23.703895,34.5935605 23.4481065,34.3377719 23.2737994,34.011846 C23.0994923,33.6859201 23.0066667,33.3626338 23.0066667,32.4711151 L23.0066667,25.2788852 C23.0066667,24.3873665 23.0994923,24.0640802 23.2737994,23.7381543 C23.4481065,23.4122284 23.703895,23.1564398 24.029821,22.9821327 C24.3557469,22.8078256 24.6790331,22.715 25.5705519,22.715 Z" id="Rectangle-Copy-7" stroke="#42607F" stroke-width="2"></path>
                        <path d="M8.50805187,6.67333333 L16.8669485,6.67333333 C17.7584672,6.67333333 18.0817535,6.76615894 18.4076794,6.94046604 C18.7336053,7.11477313 18.9893939,7.3705617 19.163701,7.69648763 C19.3380081,8.02241356 19.4308337,8.34569979 19.4308337,9.23721853 L19.4308337,16.4294484 C19.4308337,17.3209672 19.3380081,17.6442534 19.163701,17.9701793 C18.9893939,18.2961052 18.7336053,18.5518938 18.4076794,18.7262009 C18.0817535,18.900508 17.7584672,18.9933336 16.8669485,18.9933336 L8.50805187,18.9933336 C7.61653313,18.9933336 7.29324689,18.900508 6.96732096,18.7262009 C6.64139504,18.5518938 6.38560646,18.2961052 6.21129937,17.9701793 C6.03699228,17.6442534 5.94416667,17.3209672 5.94416667,16.4294484 L5.94416667,9.23721853 C5.94416667,8.34569979 6.03699228,8.02241356 6.21129937,7.69648763 C6.38560646,7.3705617 6.64139504,7.11477313 6.96732096,6.94046604 C7.29324689,6.76615894 7.61653313,6.67333333 8.50805187,6.67333333 Z" id="Rectangle-Copy-5" stroke="#42607F" stroke-width="2"></path>
                        <path d="M8.50805187,22.715 L16.8669485,22.715 C17.7584672,22.715 18.0817535,22.8078256 18.4076794,22.9821327 C18.7336053,23.1564398 18.9893939,23.4122284 19.163701,23.7381543 C19.3380081,24.0640802 19.4308337,24.3873665 19.4308337,25.2788852 L19.4308337,32.4711151 C19.4308337,33.3626338 19.3380081,33.6859201 19.163701,34.011846 C18.9893939,34.3377719 18.7336053,34.5935605 18.4076794,34.7678676 C18.0817535,34.9421747 17.7584672,35.0350003 16.8669485,35.0350003 L8.50805187,35.0350003 C7.61653313,35.0350003 7.29324689,34.9421747 6.96732096,34.7678676 C6.64139504,34.5935605 6.38560646,34.3377719 6.21129937,34.011846 C6.03699228,33.6859201 5.94416667,33.3626338 5.94416667,32.4711151 L5.94416667,25.2788852 C5.94416667,24.3873665 6.03699228,24.0640802 6.21129937,23.7381543 C6.38560646,23.4122284 6.64139504,23.1564398 6.96732096,22.9821327 C7.29324689,22.8078256 7.61653313,22.715 8.50805187,22.715 Z" id="Rectangle-Copy-8" stroke="#42607F" stroke-width="2"></path>
                        <path d="M1.82291667,38.0625 L40.1770833,38.0625 C41.1838524,38.0625 42,38.8786476 42,39.8854167 L42,39.8854167 C42,40.8921857 41.1838524,41.7083333 40.1770833,41.7083333 L1.82291667,41.7083333 C0.816147591,41.7083333 1.23293653e-16,40.8921857 0,39.8854167 L0,39.8854167 C-1.23293653e-16,38.8786476 0.816147591,38.0625 1.82291667,38.0625 Z" id="Rectangle-Copy-3" stroke="#42607F" stroke-width="2" fill="#7692FF"></path>
                        <polygon id="Rectangle-Copy-2" stroke="#42607F" stroke-width="2" points="2.625 3.64583333 39.9583333 3.64583333 39.9583333 38.0625 2.625 38.0625"></polygon>
                    </g>
                </g>
            </g>
        </g>
    </g>
</svg>