<?xml version="1.0" encoding="UTF-8"?>
<svg width="22px" height="19px" viewBox="0 0 22 19" version="1.1" xmlns="http://www.w3.org/2000/svg" xmlns:xlink="http://www.w3.org/1999/xlink">
    <!-- Generator: Sketch 53 (72520) - https://sketchapp.com -->
    <title>twitter</title>
    <desc>Created with Sketch.</desc>
    <g id="Page-1" stroke="none" stroke-width="1" fill="none" fill-rule="evenodd" fill-opacity="0.15">
        <path d="M6.91883398,18.0714286 C15.2212765,18.0714286 19.7612406,11.1194766 19.7612406,5.09122036 C19.7612406,4.89376114 19.7572614,4.69719285 19.7484983,4.50151326 C20.6298262,3.85755092 21.3958742,3.05393142 22,2.13913011 C21.191272,2.5024711 20.3209441,2.74707077 19.4079347,2.85736313 C20.3398641,2.29256043 21.0553106,1.39910723 21.3927942,0.333988644 C20.5207055,0.856541336 19.5548961,1.23633776 18.526606,1.44135575 C17.702918,0.554572622 16.5303065,0 15.2318542,0 C12.7392296,0 10.7178493,2.04307032 10.7178493,4.56155138 C10.7178493,4.91955497 10.7574493,5.26777619 10.8348908,5.60176408 C7.08341461,5.41097717 3.75698059,3.59560712 1.53099962,0.835194716 C1.14335527,1.50939885 0.919833842,2.29256043 0.919833842,3.12819987 C0.919833842,4.71097921 1.71668106,6.10830756 2.92845263,6.92571342 C2.18792614,6.90258792 1.49227889,6.69712371 0.884192372,6.35513009 C0.883527943,6.37427101 0.883527943,6.39293214 0.883527943,6.41338932 C0.883527943,8.62278613 2.43938387,10.4675085 4.50476413,10.8855502 C4.12548051,10.9900612 3.72639616,11.0460961 3.31455255,11.0460961 C3.02414966,11.0460961 2.74122676,11.0172071 2.4662246,10.9638227 C3.04086966,12.7765244 4.70716556,14.0955803 6.68278584,14.1324937 C5.13792991,15.3563777 3.1917911,16.0852841 1.07669086,16.0852841 C0.712806501,16.0852841 0.35332362,16.0643643 0,16.0221322 C1.99762027,17.3162852 4.36968342,18.0714286 6.91906726,18.0714286" id="twitter" fill="#052D54" fill-rule="nonzero"></path>
    </g>
</svg>