<?xml version="1.0" encoding="UTF-8"?>
<svg width="50px" height="47px" viewBox="0 0 50 47" version="1.1" xmlns="http://www.w3.org/2000/svg" xmlns:xlink="http://www.w3.org/1999/xlink">
    <!-- Generator: Sketch 53.2 (72643) - https://sketchapp.com -->
    <title>unique</title>
    <desc>Created with Sketch.</desc>
    <g id="Web-V2" stroke="none" stroke-width="1" fill="none" fill-rule="evenodd">
        <g id="Desktop-HD-Copy-9" transform="translate(-444.000000, -303.000000)" fill="#7692FF" fill-rule="nonzero" stroke="#42607F" stroke-width="2">
            <g id="Group-9" transform="translate(86.000000, 297.000000)">
                <g id="Group-7" transform="translate(356.000000, 4.000000)">
                    <g id="unique">
                        <path d="M12.3338988,15.6131203 C10.5211432,15.6131203 9.0529857,14.1445841 9.0529857,12.333053 C9.0529857,10.5215218 10.5211432,9.0529857 12.3322072,9.0529857 C14.1449628,9.0529857 15.6131203,10.5215218 15.6131203,12.333053 C15.6131203,14.1445841 14.1449628,15.6131203 12.3338988,15.6131203 Z M26.9119756,10.1463415 C25.09922,10.1463415 23.6310625,8.67780532 23.6310625,6.86627418 C23.6310625,5.05474304 25.09922,3.5862069 26.910284,3.5862069 C28.7230396,3.5862069 30.1911971,5.05474304 30.1911971,6.86627418 C30.1911971,8.67780532 28.7230396,10.1463415 26.9119756,10.1463415 Z M41.4900524,42.9470143 C39.6772968,42.9470143 38.2091393,41.4784782 38.2091393,39.666947 C38.2091393,37.8554159 39.6772968,36.3868797 41.4883608,36.3868797 C43.3011164,36.3868797 44.7692739,37.8554159 44.7692739,39.666947 C44.7692739,41.4784782 43.3011164,42.9470143 41.4900524,42.9470143 Z M26.9119756,48.4137931 C25.09922,48.4137931 23.6310625,46.945257 23.6310625,45.1337258 C23.6310625,43.3221947 25.09922,41.8536585 26.910284,41.8536585 C28.7230396,41.8536585 30.1911971,43.3221947 30.1911971,45.1337258 C30.1911971,46.945257 28.7230396,48.4137931 26.9119756,48.4137931 Z M6.86712,28.3689375 C5.05436435,28.3689375 3.5862069,26.9004013 3.5862069,25.0888702 C3.5862069,23.2773391 5.05436435,21.8088029 6.86542836,21.8088029 C8.67818401,21.8088029 10.1463415,23.2773391 10.1463415,25.0888702 C10.1463415,26.9004013 8.67818401,28.3689375 6.86712,28.3689375 Z M12.3338988,42.9470143 C10.5211432,42.9470143 9.0529857,41.4784782 9.0529857,39.666947 C9.0529857,37.8554159 10.5211432,36.3868797 12.3322072,36.3868797 C14.1449628,36.3868797 15.6131203,37.8554159 15.6131203,39.666947 C15.6131203,41.4784782 14.1449628,42.9470143 12.3338988,42.9470143 Z" id="Combined-Shape" fill-opacity="0.1" transform="translate(24.177740, 26.000000) rotate(-10.000000) translate(-24.177740, -26.000000) "></path>
                        <path d="M49.6449756,13.7128064 L44.4902531,12.929035 L42.1848066,8.04126893 C41.8582499,7.34708753 41.4285682,7 40.9996188,7 C40.5707243,7 40.1410487,7.34708753 39.8136864,8.04126893 L37.5089663,12.929035 L32.354317,13.7128064 C30.8894414,13.9349791 30.562079,14.9920793 31.6222362,16.0720237 L35.3520003,19.8766028 L34.4715185,25.2486294 C34.290244,26.3525688 34.6902443,27 35.4222396,27 C35.7012132,27 36.0277638,26.9059975 36.3894401,26.7069934 L40.9996188,24.1711901 L45.6105725,26.7069934 C45.9722489,26.9059975 46.2996235,27 46.5785728,27 C47.3105741,27 47.709775,26.3525688 47.527774,25.2486294 L46.6472923,19.8766028 L50.3777765,16.0720237 C51.4387333,14.9920793 51.1097779,13.9349791 49.6449756,13.7128064 Z" id="Path"></path>
                    </g>
                </g>
            </g>
        </g>
    </g>
</svg>