<?xml version="1.0" encoding="UTF-8"?>
<svg width="28px" height="28px" viewBox="0 0 28 28" version="1.1" xmlns="http://www.w3.org/2000/svg" xmlns:xlink="http://www.w3.org/1999/xlink">
    <!-- Generator: Sketch 53.2 (72643) - https://sketchapp.com -->
    <title>+ copy</title>
    <desc>Created with Sketch.</desc>
    <g id="Web-V2" stroke="none" stroke-width="1" fill="none" fill-rule="evenodd">
        <path d="M12.2947799,15.6290323 L12.2947799,30.3152508 C12.2947799,31.2457121 13.0490679,32 13.9795292,32 L13.9795292,32 C14.9099905,32 15.6642784,31.2457121 15.6642784,30.3152508 L15.6642784,15.6290323 L30.4112903,15.6290323 C31.2887104,15.6290323 32,14.9177427 32,14.0403226 L32,14.0403226 C32,13.1629025 31.2887104,12.4516129 30.4112903,12.4516129 L15.6642784,12.4516129 L15.6642784,-2.31525077 C15.6642784,-3.24571208 14.9099905,-4 13.9795292,-4 L13.9795292,-4 C13.0490679,-4 12.2947799,-3.24571208 12.2947799,-2.31525077 L12.2947799,12.4516129 L-2.41129032,12.4516129 C-3.28871045,12.4516129 -4,13.1629025 -4,14.0403226 L-4,14.0403226 C-4,14.9177427 -3.28871045,15.6290323 -2.41129032,15.6290323 L12.2947799,15.6290323 Z" id="+-copy" fill="#052D54" fill-rule="nonzero" transform="translate(14.000000, 14.000000) rotate(45.000000) translate(-14.000000, -14.000000) "></path>
    </g>
</svg>