<?xml version="1.0" encoding="UTF-8"?>
<svg width="40px" height="40px" viewBox="0 0 40 40" version="1.1" xmlns="http://www.w3.org/2000/svg" xmlns:xlink="http://www.w3.org/1999/xlink">
    <!-- Generator: Sketch 52.5 (67469) - http://www.bohemiancoding.com/sketch -->
    <title>instagram</title>
    <desc>Created with Sketch.</desc>
    <g id="Page-1" stroke="none" stroke-width="1" fill="none" fill-rule="evenodd">
        <path d="M0,0 L40,0 L40,40 L0,40 L0,0 Z M20.0039607,9.86666667 L23.9530848,9.86666667 C26.1888875,9.87055535 26.7064489,9.88402193 27.0505257,9.929525 C27.0951457,9.93542586 27.1332068,9.94085603 27.246848,9.95734535 C28.0109764,10.0675816 28.6083279,10.3512515 29.1056546,10.8263911 C29.3838978,11.0942201 29.5554255,11.3291287 29.7313784,11.6866635 C29.9543942,12.1408995 30.0583134,12.5531228 30.1155819,13.2824484 C30.1236831,13.3855821 30.1333333,16.522997 30.1333333,19.992066 C30.1333333,23.4991793 30.1241303,26.6055844 30.1161461,26.7072299 C30.0597009,27.4233719 29.9544823,27.844813 29.7382864,28.2908003 C29.3392078,29.1141955 28.6107273,29.7106886 27.7254596,29.9391705 C27.3398846,30.0388328 26.9922951,30.08458 26.3059989,30.1168759 C26.0978412,30.1274703 23.6150375,30.1333333 19.9780189,30.1333333 C16.8619443,30.1333333 13.879686,30.1233604 13.6373256,30.1128201 C13.0524067,30.0850908 12.6343491,30.0301215 12.2874161,29.9407748 C11.411851,29.7144681 10.6631932,29.1029386 10.2777917,28.3027883 C10.0543585,27.8396579 9.95503536,27.4379811 9.89050306,26.6605134 C9.87423743,26.4677532 9.86749614,24.8877312 9.86749614,19.9952396 C9.86749614,19.5138271 9.86737176,19.0967316 9.86708121,18.4285673 C9.86645995,16.999853 9.86645995,16.5899816 9.86749241,16.0554355 C9.87124778,13.8120413 9.88458165,13.2956759 9.93003326,12.9515234 C9.93594676,12.9067473 9.94132136,12.8690558 9.95774111,12.7559214 C10.0681478,11.9917721 10.3516491,11.3957765 10.8242528,10.9050515 C11.0856966,10.6339539 11.3275853,10.4569665 11.6675227,10.2881199 C12.1313904,10.0571071 12.5355553,9.95535537 13.3346738,9.88891142 C13.5251204,9.87310859 15.0847966,9.86666667 20.0039607,9.86666667 Z M20.0039607,7.86666667 C14.9384066,7.86666667 13.4569251,7.87189378 13.1689526,7.89578913 C12.1294148,7.98222311 11.4825497,8.14594363 10.7778289,8.49690666 C10.234731,8.76666282 9.80641156,9.07935595 9.38369104,9.51768637 C8.6138358,10.3170607 8.14725687,11.3005039 7.9783553,12.4695095 C7.8962374,13.0370242 7.87234856,13.1527673 7.86749614,16.0515726 C7.86562982,17.017841 7.86749614,18.2895219 7.86749614,19.9952396 C7.86749614,25.058068 7.87309509,26.5384599 7.89735719,26.8259509 C7.9813414,27.8377699 8.13997824,28.4743571 8.47591507,29.1706826 C9.11792768,30.5035954 10.3440971,31.5042134 11.7886255,31.8775784 C12.2887981,32.0063893 12.8412276,32.0773286 13.5504276,32.1109314 C13.8509044,32.1239992 16.9135285,32.1333333 19.9780189,32.1333333 C23.0425094,32.1333333 26.1069998,32.1295997 26.4000114,32.1146651 C27.2211903,32.0760218 27.698034,32.0119897 28.2252682,31.8757115 C29.6791281,31.5004798 30.8829018,30.5147964 31.5379786,29.1632153 C31.8673833,28.4836912 32.0344186,27.8228353 32.1100044,26.8638475 C32.126428,26.6547631 32.1333333,23.3211744 32.1333333,19.992066 C32.1333333,16.6623976 32.1258681,13.3349694 32.1094445,13.125885 C32.0329255,12.1514026 31.8658903,11.4961471 31.5258476,10.8035552 C31.2468334,10.2366005 30.9370249,9.81320471 30.4872429,9.38028808 C29.6845405,8.61339652 28.7028584,8.14669036 27.5330517,7.97792941 C26.9662516,7.89597581 26.8533395,7.87170709 23.9530848,7.86666667 L20.0039607,7.86666667 Z M26.6411102,12.7205056 C25.8372684,12.7205056 25.185095,13.3719139 25.185095,14.176 C25.185095,14.9798333 25.8372684,15.632 26.6411102,15.632 C27.4449519,15.632 28.0971253,14.9798333 28.0971253,14.176 C28.0971253,13.3721667 27.4449519,12.72 26.6411102,12.72 L26.6411102,12.7205056 Z M20.1643705,14.4217 C16.7232707,14.4217 13.9333333,17.2116083 13.9333333,20.6526722 C13.9333333,24.0937361 16.7232707,26.8823806 20.1643705,26.8823806 C23.6054702,26.8823806 26.3943965,24.0937361 26.3943965,20.6526722 C26.3943965,17.2116083 23.6052174,14.4217 20.1641177,14.4217 L20.1643705,14.4217 Z M20.1643705,16.6082278 C22.3979382,16.6082278 24.208857,18.418875 24.208857,20.6526722 C24.208857,22.8862167 22.3979382,24.6971167 20.1643705,24.6971167 C17.93055,24.6971167 16.1198839,22.8862167 16.1198839,20.6526722 C16.1198839,18.418875 17.93055,16.6082278 20.1643705,16.6082278 Z" id="instagram" fill="#7692FF" fill-rule="nonzero"></path>
    </g>
</svg>