<?xml version="1.0" encoding="UTF-8"?>
<svg width="40px" height="40px" viewBox="0 0 40 40" version="1.1" xmlns="http://www.w3.org/2000/svg" xmlns:xlink="http://www.w3.org/1999/xlink">
    <!-- Generator: Sketch 52.5 (67469) - http://www.bohemiancoding.com/sketch -->
    <title>twitter</title>
    <desc>Created with Sketch.</desc>
    <g id="Page-1" stroke="none" stroke-width="1" fill="none" fill-rule="evenodd">
        <path d="M0,0 L40,0 L40,40 L0,40 L0,0 Z M16.918834,29.0714286 C25.2212765,29.0714286 29.7612406,22.1194766 29.7612406,16.0912204 C29.7612406,15.8937611 29.7572614,15.6971929 29.7484983,15.5015133 C30.6298262,14.8575509 31.3958742,14.0539314 32,13.1391301 C31.191272,13.5024711 30.3209441,13.7470708 29.4079347,13.8573631 C30.3398641,13.2925604 31.0553106,12.3991072 31.3927942,11.3339886 C30.5207055,11.8565413 29.5548961,12.2363378 28.526606,12.4413557 C27.702918,11.5545726 26.5303065,11 25.2318542,11 C22.7392296,11 20.7178493,13.0430703 20.7178493,15.5615514 C20.7178493,15.919555 20.7574493,16.2677762 20.8348908,16.6017641 C17.0834146,16.4109772 13.7569806,14.5956071 11.5309996,11.8351947 C11.1433553,12.5093988 10.9198338,13.2925604 10.9198338,14.1281999 C10.9198338,15.7109792 11.7166811,17.1083076 12.9284526,17.9257134 C12.1879261,17.9025879 11.4922789,17.6971237 10.8841924,17.3551301 C10.8835279,17.374271 10.8835279,17.3929321 10.8835279,17.4133893 C10.8835279,19.6227861 12.4393839,21.4675085 14.5047641,21.8855502 C14.1254805,21.9900612 13.7263962,22.0460961 13.3145526,22.0460961 C13.0241497,22.0460961 12.7412268,22.0172071 12.4662246,21.9638227 C13.0408697,23.7765244 14.7071656,25.0955803 16.6827858,25.1324937 C15.1379299,26.3563777 13.1917911,27.0852841 11.0766909,27.0852841 C10.7128065,27.0852841 10.3533236,27.0643643 10,27.0221322 C11.9976203,28.3162852 14.3696834,29.0714286 16.9190673,29.0714286 L16.918834,29.0714286 Z" id="twitter" fill="#7692FF" fill-rule="nonzero"></path>
    </g>
</svg>