<?xml version="1.0" encoding="UTF-8"?>
<svg width="20px" height="14px" viewBox="0 0 20 14" version="1.1" xmlns="http://www.w3.org/2000/svg" xmlns:xlink="http://www.w3.org/1999/xlink">
    <!-- Generator: Sketch 52.6 (67491) - http://www.bohemiancoding.com/sketch -->
    <title>Group 23</title>
    <desc>Created with Sketch.</desc>
    <g id="Web-V2" stroke="none" stroke-width="1" fill="none" fill-rule="evenodd">
        <g id="Desktop-HD-Copy-6" transform="translate(-241.000000, -931.000000)">
            <g id="Group-2" transform="translate(120.000000, 114.000000)">
                <g id="Group-16">
                    <g id="Group-8-Copy-2" transform="translate(0.000000, 730.000000)">
                        <g id="Group-23" transform="translate(121.000000, 87.000000)">
                            <path d="M9.21356322,13.4606997 L9.21356322,13.4517 C9.21495377,13.451623 9.21504426,13.451618 9.26696897,13.451626 C9.24858591,13.4512698 9.23037481,13.4546041 9.21356322,13.4606997 Z M9.26696897,13.451626 C9.27058308,13.4516266 9.2744483,13.4516272 9.27858255,13.4516278 C9.27490537,13.4513841 9.27125457,13.4512646 9.26763401,13.4512655 Z M9.11246076,13.3044559 L9.10602168,2.8438681 C7.12983371,1.32877498 5.25913087,0.550737121 3.48544679,0.547832756 C3.0976245,0.547243181 2.71416083,0.583541064 2.33409867,0.65747295 C2.33743244,6.00710421 2.33892229,8.45771877 2.34059383,11.429896 C4.31117452,11.2048782 6.28308183,11.6485307 8.32534085,12.8245562 L9.11246076,13.3044559 Z" id="Path" stroke="#7692FF"></path>
                            <path d="M10.6640783,2.84371166 L10.6554244,13.2973134 L11.4535266,12.8186104 C13.4849166,11.6491491 15.4581475,11.2053282 17.4272326,11.4301309 C17.4281405,9.97021253 17.4288829,8.73152136 17.4304599,6.06835393 C17.4320545,3.37539072 17.4327957,2.13894439 17.4337175,0.657756232 C17.0531715,0.583859054 16.6693894,0.547477383 16.282198,0.548065996 C14.5081169,0.550971008 12.6375138,1.32932543 10.6640784,2.84371175 Z M10.5207463,13.4530103 C10.5166219,13.4524841 10.5124404,13.4521127 10.5082076,13.4519028 C10.5079067,13.4517507 10.5159952,13.4518975 10.5350399,13.4522484 C10.5343106,13.4520506 10.5303043,13.4520857 10.5207204,13.4521697 L10.5207463,13.4530103 Z M10.5082076,13.4519028 C10.5054923,13.4517682 10.502756,13.4517 10.5,13.4517 C10.5008173,13.4516769 10.5013157,13.4516628 10.504098,13.4516999 Z M10.5350399,13.4522484 C10.5377352,13.4522981 10.5406499,13.4523519 10.543803,13.45241 C10.5410379,13.4522493 10.5394287,13.4521557 10.5372892,13.4521118 Z M10.6092474,2.88595712 C10.6084419,2.88658024 10.6076363,2.88720349 10.6068307,2.88782686 C10.609367,2.88585088 10.611828,2.88380494 10.6142117,2.88169314 Z" id="Path" stroke="#7692FF"></path>
                            <path d="M0.464597701,2.24373333 C0.274252874,2.24093333 0.117471264,2.3954 0.114942529,2.58883333 C0.114942529,2.5921 0.114942529,2.59536667 0.114942529,2.59863333 L0.114942529,13.6017 C0.114942529,13.7949 0.269425287,13.9517 0.459770115,13.9517 L9.21356322,13.9517 C9.22413793,13.9517 9.23494253,13.9514667 9.24551724,13.9505333 C9.43563218,13.9631333 9.59954023,13.8168333 9.61195402,13.6238667 C9.61241379,13.6164 9.61264368,13.6089333 9.61264368,13.6014667 C9.34659004,13.3681333 8.83072797,13.2514667 8.06505747,13.2514667 L0.804597701,13.2514667 L0.804597701,2.59886667 C0.807126437,2.40543333 0.654942529,2.24653333 0.464597701,2.24373333 Z" id="Path" fill="#7692FF"></path>
                            <path d="M10.1551724,13.6017 C10.1551724,13.7949 10.3096552,13.9517 10.5,13.9517 C10.5043678,13.9517 10.5087356,13.9517 10.5131034,13.9514667 C10.5206897,13.9519333 10.5285057,13.9521667 10.536092,13.9519333 L19.3103448,13.9519333 C19.5006897,13.9519333 19.6551724,13.7951333 19.6551724,13.6019333 L19.6551724,2.59886667 C19.657931,2.40566667 19.5057471,2.24653333 19.3151724,2.24396667 C19.1248276,2.24116667 18.968046,2.39563333 18.9655172,2.58906667 C18.9655172,2.59233333 18.9655172,2.5956 18.9655172,2.59886667 L18.9655172,13.2519333 L11.7029885,13.2519333 C10.9009962,13.2519333 10.3850575,13.3685222 10.1551724,13.6017 Z" id="Path" fill="#7692FF"></path>
                        </g>
                    </g>
                </g>
            </g>
        </g>
    </g>
</svg>