<?xml version="1.0" encoding="UTF-8"?>
<svg width="24px" height="24px" viewBox="0 0 24 24" version="1.1" xmlns="http://www.w3.org/2000/svg" xmlns:xlink="http://www.w3.org/1999/xlink">
    <!-- Generator: Sketch 52.6 (67491) - http://www.bohemiancoding.com/sketch -->
    <title>Combined Shape</title>
    <desc>Created with Sketch.</desc>
    <g id="Web-V2" stroke="none" stroke-width="1" fill="none" fill-rule="evenodd">
        <g id="Desktop-HD-Copy-6" transform="translate(-146.000000, -592.000000)" fill="#7692FF" fill-rule="nonzero" stroke="#7692FF">
            <g id="Group-2" transform="translate(120.000000, 114.000000)">
                <g id="Group-16">
                    <g id="Group-7" transform="translate(0.000000, 58.000000)">
                        <g id="Group-14" transform="translate(26.000000, 414.000000)">
                            <g id="Group-15">
                                <g id="Group-9">
                                    <path d="M6.15332448,6.5 C4.27804693,6.5 3.49800144,6.65063373 2.69136974,7.08202509 C1.99628176,7.45376221 1.45376221,7.99628176 1.08202509,8.69136974 C0.650633733,9.49800144 0.5,10.2780469 0.5,12.1533245 L0.5,23.8466755 C0.5,25.7219531 0.650633733,26.5019986 1.08202509,27.3086303 C1.45376221,28.0037182 1.99628176,28.5462378 2.69136974,28.9179749 C3.49800144,29.3493663 4.27804693,29.5 6.15332448,29.5 L17.8466755,29.5 C19.7219531,29.5 20.5019986,29.3493663 21.3086303,28.9179749 C22.0037182,28.5462378 22.5462378,28.0037182 22.9179749,27.3086303 C23.3493663,26.5019986 23.5,25.7219531 23.5,23.8466755 L23.5,12.1533245 C23.5,10.2780469 23.3493663,9.49800144 22.9179749,8.69136974 C22.5462378,7.99628176 22.0037182,7.45376221 21.3086303,7.08202509 C20.5019986,6.65063373 19.7219531,6.5 17.8466755,6.5 L6.15332448,6.5 Z M4.02172184,10.9117647 L19.9782782,10.9117647 C21.0128693,10.9117647 21.5134227,11.0101177 22.0331292,11.2929241 C22.5042641,11.5492995 22.87647,11.9280195 23.1277533,12.4061016 C23.4040635,12.9317988 23.5,13.4372933 23.5,14.4863704 L23.5,23.8756573 C23.5,25.574553 23.3498191,26.3658644 22.9178634,27.1876868 C22.5296245,27.9263354 21.9564418,28.5095494 21.2292223,28.9052773 C20.4184839,29.3464532 19.6370297,29.5 17.9637969,29.5 L6.03620307,29.5 C4.36297027,29.5 3.58151608,29.3464532 2.7707777,28.9052773 C2.04355823,28.5095494 1.47037555,27.9263354 1.08213664,27.1876868 C0.650180934,26.3658644 0.5,25.574553 0.5,23.8756573 L0.5,14.4863704 C0.5,13.4372933 0.595936487,12.9317988 0.872246654,12.4061016 C1.12352999,11.9280195 1.49573594,11.5492995 1.96687076,11.2929241 C2.48657728,11.0101177 2.98713067,10.9117647 4.02172184,10.9117647 Z M7.5,7.5 L16.5,7.5 C17.0522847,7.5 17.5,7.94771525 17.5,8.5 C17.5,9.05228475 17.0522847,9.5 16.5,9.5 L7.5,9.5 C6.94771525,9.5 6.5,9.05228475 6.5,8.5 C6.5,7.94771525 6.94771525,7.5 7.5,7.5 Z M12.8333333,24.1666667 L12.8333333,15.8333333 L12.4731324,15.8333333 L12.3812266,16.9696299 C12.3484022,17.3754611 12.3317359,17.9332744 12.3317359,18.6402189 L12.3317359,24.1666667 L12.8333333,24.1666667 Z M12.2538021,15.8333333 L12.2412992,15.8333333 L12.320866,15.7503827 L12.3897544,15.726566 L12.2538021,15.8333333 Z M12.2031224,15.8731336 L10.0371661,17.5741233 L10.1649537,17.7353351 C10.7364754,17.2708545 11.0818696,16.9871215 11.194752,16.8894915 C11.3264136,16.7756198 11.4356534,16.6732405 11.5220177,16.5832034 L12.2031224,15.8731336 Z" id="Combined-Shape"></path>
                                </g>
                            </g>
                        </g>
                    </g>
                </g>
            </g>
        </g>
    </g>
</svg>