<?xml version="1.0" encoding="UTF-8"?>
<svg width="20px" height="24px" viewBox="0 0 20 24" version="1.1" xmlns="http://www.w3.org/2000/svg" xmlns:xlink="http://www.w3.org/1999/xlink">
    <!-- Generator: Sketch 52.6 (67491) - http://www.bohemiancoding.com/sketch -->
    <title>Shape</title>
    <desc>Created with Sketch.</desc>
    <g id="Web-V2" stroke="none" stroke-width="1" fill="none" fill-rule="evenodd">
        <g id="Desktop-HD-Copy-6" transform="translate(-152.000000, -766.000000)" fill-rule="nonzero" stroke="#7692FF">
            <g id="Group-2" transform="translate(120.000000, 114.000000)">
                <g id="Group-16">
                    <g id="Group-7" transform="translate(0.000000, 58.000000)">
                        <g id="Group-19" transform="translate(33.000000, 586.000000)">
                            <path d="M8.99982632,9 C4.04340023,9 0,13.1167002 0,18.1629779 C0,24.5372233 8.99982632,31 8.99982632,31 C8.99982632,31 17.9996526,24.7585513 17.9996526,18.1629779 C18.0431301,13.1167002 13.9997298,9 8.99982632,9 Z M9.00051634,22.2981223 C6.65590571,22.2981223 4.76509069,20.3730301 4.76509069,17.9859156 C4.76509069,15.5988012 6.65590571,13.6737089 9.00051634,13.6737089 C11.345127,13.6737089 13.235942,15.5988012 13.235942,17.9859156 C13.235942,20.3730301 11.4207596,22.2981223 9.00051634,22.2981223 Z" id="Shape"></path>
                        </g>
                    </g>
                </g>
            </g>
        </g>
    </g>
</svg>