<?xml version="1.0" encoding="UTF-8"?>
<svg width="25px" height="25px" viewBox="0 0 25 25" version="1.1" xmlns="http://www.w3.org/2000/svg" xmlns:xlink="http://www.w3.org/1999/xlink">
    <!-- Generator: Sketch 52.6 (67491) - http://www.bohemiancoding.com/sketch -->
    <title>Group 24</title>
    <desc>Created with Sketch.</desc>
    <g id="Web-V2" stroke="none" stroke-width="1" fill="none" fill-rule="evenodd">
        <g id="Desktop-HD-Copy-6" transform="translate(-805.000000, -1381.000000)" fill-rule="nonzero" stroke="#7692FF">
            <g id="Group-18-Copy" transform="translate(806.000000, 1374.000000)">
                <g id="Group-24" transform="translate(0.000000, 8.000000)">
                    <path d="M22.5,21.7378531 L22.5,21.5610591 L22.833377,21.4432272 C23.2295518,21.3031995 23.5,20.9272621 23.5,20.5 C23.5,19.9477153 23.0522847,19.5 22.5,19.5 L14.5,19.5 C13.9477153,19.5 13.5,19.9477153 13.5,20.5 C13.5,20.9272621 13.7704482,21.3031995 14.166623,21.4432272 L14.5,21.5610591 L14.5,21.9573236 L14.5,21.5 L22.5,21.5 L22.5,21.7378531 Z" id="Combined-Shape"></path>
                    <path d="M7.88309523,18.5614219 C11.6701907,18.5614219 15.6072308,15.0477132 14.6940774,10.1867906 C13.780924,5.32586794 11.8259511,0.27542624 8.82559004,0.0161126071 C5.82522898,-0.243201025 0.145280221,6.83887585 0.145280221,11.8242783 C0.145280221,16.8096808 4.0959998,18.5614219 7.88309523,18.5614219 Z" id="Oval"></path>
                    <path d="M8.67790069,22.3169266 L8.20825189,13.7756582 L11.190677,11.108576 L8.13864548,12.5097614 L7.64323701,3.50001489 L7.11376509,12.6204004 L4.50010679,9.55162178 L7.00594331,14.4776777 L6.55074086,22.318739 C6.54925219,22.3495219 6.54925219,22.3495219 6.5489543,22.3803394 C6.5489543,22.9673525 7.02482243,23.4432206 7.61183551,23.4432206 C7.64115949,23.4429521 7.64115949,23.4429521 7.67045399,23.4416103 C8.25922554,23.4092362 8.71027479,22.9056981 8.67790069,22.3169266 Z" id="Combined-Shape"></path>
                </g>
            </g>
        </g>
    </g>
</svg>