<?xml version="1.0" encoding="UTF-8"?>
<svg width="24px" height="20px" viewBox="0 0 24 20" version="1.1" xmlns="http://www.w3.org/2000/svg" xmlns:xlink="http://www.w3.org/1999/xlink">
    <!-- Generator: Sketch 52.6 (67491) - http://www.bohemiancoding.com/sketch -->
    <title>Group 3</title>
    <desc>Created with Sketch.</desc>
    <g id="Web-V2" stroke="none" stroke-width="1" fill="none" fill-rule="evenodd">
        <g id="Desktop-HD-Copy-6" transform="translate(-804.000000, -1333.000000)" fill-rule="nonzero">
            <g id="Group-18" transform="translate(804.000000, 1324.000000)">
                <g id="Group-3" transform="translate(0.000000, 9.000000)">
                    <g id="Group-4">
                        <path d="M0.5,19.5 L23.5,19.5 L0.5,19.5 Z" id="Rectangle" stroke="#7692FF"></path>
                        <path d="M2,19.5 L22,19.5 L22,8.29094328 L22.2325024,8.1437137 C22.8969495,7.72295986 23.3076006,6.99320553 23.3076006,6.19239938 C23.3076006,6.02403142 23.289174,5.85616914 23.2526499,5.69181052 L22.4725907,2.18154406 C22.3306517,1.5428189 22.2386792,1.31041211 22.0702452,1.08179761 C21.9296415,0.89095712 21.7539873,0.750052353 21.5371901,0.654195961 C21.2774811,0.539366239 21.030657,0.5 20.3763508,0.5 L3.62364916,0.5 C2.96934304,0.5 2.72251891,0.539366239 2.46280992,0.654195961 C2.24601267,0.750052353 2.07035853,0.89095712 1.92975484,1.08179761 C1.76132075,1.31041211 1.66934827,1.5428189 1.52740935,2.18154406 L0.747350132,5.69181052 C0.534399068,6.65009031 0.950778636,7.62814832 1.76707782,8.14392542 L2,8.29109686 L2,19.5 Z" id="Combined-Shape" stroke="#7692FF"></path>
                        <path d="M5.7819426,12.5 C5.45101664,12.5 5.35024036,12.5194608 5.24737658,12.574473 C5.17154785,12.6150266 5.1150266,12.6715479 5.07447295,12.7473766 C5.0194608,12.8502404 5,12.9510166 5,13.2819426 L5,16.7180574 C5,17.0489834 5.0194608,17.1497596 5.07447295,17.2526234 C5.1150266,17.3284521 5.17154785,17.3849734 5.24737658,17.425527 C5.35024036,17.4805392 5.45101664,17.5 5.7819426,17.5 L10.2180574,17.5 C10.5489834,17.5 10.6497596,17.4805392 10.7526234,17.425527 C10.8284521,17.3849734 10.8849734,17.3284521 10.925527,17.2526234 C10.9805392,17.1497596 11,17.0489834 11,16.7180574 L11,13.2819426 C11,12.9510166 10.9805392,12.8502404 10.925527,12.7473766 C10.8849734,12.6715479 10.8284521,12.6150266 10.7526234,12.574473 C10.6497596,12.5194608 10.5489834,12.5 10.2180574,12.5 L5.7819426,12.5 Z" id="Rectangle" stroke="#7692FF"></path>
                        <path d="M14.7819426,11.5 C14.4510166,11.5 14.3502404,11.5194608 14.2473766,11.574473 C14.1715479,11.6150266 14.1150266,11.6715479 14.074473,11.7473766 C14.0194608,11.8502404 14,11.9510166 14,12.2819426 L14,18.7180574 C14,19.0489834 14.0194608,19.1497596 14.074473,19.2526234 C14.1150266,19.3284521 14.1715479,19.3849734 14.2473766,19.425527 C14.3502404,19.4805392 14.4510166,19.5 14.7819426,19.5 L18.2180574,19.5 C18.5489834,19.5 18.6497596,19.4805392 18.7526234,19.425527 C18.8284521,19.3849734 18.8849734,19.3284521 18.925527,19.2526234 C18.9805392,19.1497596 19,19.0489834 19,18.7180574 L19,12.2819426 C19,11.9510166 18.9805392,11.8502404 18.925527,11.7473766 C18.8849734,11.6715479 18.8284521,11.6150266 18.7526234,11.574473 C18.6497596,11.5194608 18.5489834,11.5 18.2180574,11.5 L14.7819426,11.5 Z" id="Rectangle" stroke="#7692FF"></path>
                        <path d="M15.5,15 L16,15 C16.2761424,15 16.5,15.2238576 16.5,15.5 L16.5,15.5 C16.5,15.7761424 16.2761424,16 16,16 L15.5,16 C15.2238576,16 15,15.7761424 15,15.5 L15,15.5 C15,15.2238576 15.2238576,15 15.5,15 Z" id="Rectangle" fill="#7692FF"></path>
                        <path d="M8.85179505,0.5 C8.75955716,0.5 8.66738996,0.505104693 8.57571623,0.515290663 C7.20344916,0.667764783 6.21461159,1.90381174 6.36708571,3.27607882 L6.73950627,6.62786384 C6.81624927,7.31855089 6.8913001,7.57486735 7.05430873,7.83269163 C7.18992401,8.04718896 7.37079404,8.20907537 7.59895564,8.32017393 C7.8732043,8.45371362 8.13624103,8.5 8.8311785,8.5 L9.99079617,8.5 C10.6733143,8.5 10.9569082,8.44391938 11.2410463,8.2919607 C11.479838,8.1642535 11.6642535,7.97983796 11.7919607,7.74104627 C11.9439194,7.45690825 12,7.17331433 12,6.49079617 L12,3.37730096 C12,2.70342381 11.8874898,2.19890215 11.6583943,1.77053087 C11.4435336,1.36877622 11.1312238,1.05646639 10.7294691,0.841605655 C10.3010979,0.61251019 9.79657619,0.5 9.12269904,0.5 L8.85179505,0.5 Z" id="Rectangle-Copy-5" stroke="#7692FF" transform="translate(9.199015, 4.500000) scale(1, -1) translate(-9.199015, -4.500000) "></path>
                        <path d="M14.877301,0.5 C14.2034238,0.5 13.6989021,0.61251019 13.2705309,0.841605655 C12.8687762,1.05646639 12.5564664,1.36877622 12.3416057,1.77053087 C12.1125102,2.19890215 12,2.70342381 12,3.37730096 L12,6.49079617 C12,7.17331433 12.0560806,7.45690825 12.2080393,7.74104627 C12.3357465,7.97983796 12.520162,8.1642535 12.7589537,8.2919607 C13.0430918,8.44391938 13.3266857,8.5 14.0092038,8.5 L15.1688215,8.5 C15.863759,8.5 16.1267957,8.45371362 16.4010444,8.32017393 C16.629206,8.20907537 16.810076,8.04718896 16.9456913,7.83269163 C17.1086999,7.57486735 17.1837507,7.31855089 17.2604937,6.62786384 L17.6329143,3.27607882 C17.6431003,3.18440508 17.648205,3.09223788 17.648205,3 C17.648205,1.61928813 16.5289168,0.5 15.148205,0.5 L14.877301,0.5 Z" id="Rectangle-Copy-5" stroke="#7692FF" transform="translate(14.800827, 4.500000) scale(1, -1) translate(-14.800827, -4.500000) "></path>
                    </g>
                    <path d="M20.6828934,0.5 C19.9205383,0.5 19.4612973,0.589334031 19.0389866,0.794969499 C18.6549795,0.981953788 18.3484018,1.25635396 18.1201546,1.61736341 C17.8691404,2.01438258 17.7296381,2.46094943 17.6454501,3.21864171 L17.2437044,6.83435271 C17.2375928,6.88935695 17.23453,6.94465727 17.23453,7 C17.23453,7.82842712 17.9061029,8.5 18.73453,8.5 L20.3763508,8.5 C21.030657,8.5 21.2774811,8.46063376 21.5371901,8.34580404 C21.7539873,8.24994765 21.9296415,8.10904288 22.0702452,7.91820239 C22.2386792,7.68958789 22.3306517,7.4571811 22.4725907,6.81845594 L23.2526499,3.30818948 C23.289174,3.14383086 23.3076006,2.97596858 23.3076006,2.80760062 C23.3076006,1.53314799 22.2744526,0.5 21,0.5 L20.6828934,0.5 Z" id="Rectangle-Copy-5" stroke="#7692FF" transform="translate(20.249141, 4.500000) scale(1, -1) translate(-20.249141, -4.500000) "></path>
                    <path d="M3,0.5 C2.83163205,0.5 2.66376976,0.518426617 2.49941114,0.554950755 C1.25530697,0.831418348 0.470882539,2.06408531 0.747350132,3.30818948 L1.52740935,6.81845594 C1.66934827,7.4571811 1.76132075,7.68958789 1.92975484,7.91820239 C2.07035853,8.10904288 2.24601267,8.24994765 2.46280992,8.34580404 C2.72251891,8.46063376 2.96934304,8.5 3.62364916,8.5 L5.26546997,8.5 C5.3208127,8.5 5.37611302,8.49693718 5.43111726,8.4908256 C6.2544775,8.39934113 6.84778004,7.65771296 6.75629557,6.83435271 L6.3545499,3.21864171 C6.27036187,2.46094943 6.13085955,2.01438258 5.87984538,1.61736341 C5.65159825,1.25635396 5.34502053,0.981953788 4.96101343,0.794969499 C4.53870266,0.589334031 4.07946168,0.5 3.31710664,0.5 L3,0.5 Z" id="Rectangle" stroke="#7692FF" transform="translate(3.750641, 4.500000) scale(1, -1) translate(-3.750641, -4.500000) "></path>
                </g>
            </g>
        </g>
    </g>
</svg>