<?xml version="1.0" encoding="UTF-8"?>
<svg width="24px" height="24px" viewBox="0 0 24 24" version="1.1" xmlns="http://www.w3.org/2000/svg" xmlns:xlink="http://www.w3.org/1999/xlink">
    <!-- Generator: Sketch 52.6 (67491) - http://www.bohemiancoding.com/sketch -->
    <title>Combined Shape</title>
    <desc>Created with Sketch.</desc>
    <g id="Web-V2" stroke="none" stroke-width="1" fill="none" fill-rule="evenodd">
        <g id="Desktop-HD-Copy-6" transform="translate(-330.000000, -592.000000)" fill="#7692FF" fill-rule="nonzero">
            <g id="Group-2" transform="translate(120.000000, 114.000000)">
                <g id="Group-16">
                    <g id="Group-7" transform="translate(0.000000, 58.000000)">
                        <g id="Group-14" transform="translate(26.000000, 414.000000)">
                            <g id="Group-15">
                                <g id="Group-13" transform="translate(184.000000, 0.000000)">
                                    <g id="Group-12" transform="translate(0.000000, 6.000000)">
                                        <path d="M12.9124282,13.1463906 C12.9143632,13.2768278 12.8655661,13.4078777 12.766037,13.5074069 L8.68410239,17.5893415 C8.48884024,17.7846036 8.17225775,17.7846036 7.97699561,17.5893415 C7.78173346,17.3940793 7.78173346,17.0774968 7.97699561,16.8822347 L12,12.8592303 L12,4.5 C12,4.22385763 12.2238576,4 12.5,4 C12.7761424,4 13,4.22385763 13,4.5 L13,12.8636364 C13,12.9685775 12.9676706,13.0659678 12.9124282,13.1463906 Z M12,24 C5.372583,24 0,18.627417 0,12 C0,5.372583 5.372583,0 12,0 C18.627417,0 24,5.372583 24,12 C24,18.627417 18.627417,24 12,24 Z M12,23 C18.0751322,23 23,18.0751322 23,12 C23,5.92486775 18.0751322,1 12,1 C5.92486775,1 1,5.92486775 1,12 C1,18.0751322 5.92486775,23 12,23 Z" id="Combined-Shape"></path>
                                    </g>
                                </g>
                            </g>
                        </g>
                    </g>
                </g>
            </g>
        </g>
    </g>
</svg>