<?xml version="1.0" encoding="UTF-8"?>
<svg width="988px" height="356px" viewBox="0 0 988 356" version="1.1" xmlns="http://www.w3.org/2000/svg" xmlns:xlink="http://www.w3.org/1999/xlink">
    <!-- Generator: Sketch 52.5 (67469) - http://www.bohemiancoding.com/sketch -->
    <title>Group 6</title>
    <desc>Created with Sketch.</desc>
    <g id="Web-V2" stroke="none" stroke-width="1" fill="none" fill-rule="evenodd">
        <g id="Artboard-Copy-6" transform="translate(-146.000000, -164.000000)" fill-rule="nonzero">
            <g id="Group-6" transform="translate(146.000000, 164.000000)">
                <path d="M663.311325,316.565132 C885.942521,414.569578 1031.81366,311.979704 976.098266,204.039076 C920.382874,96.0984488 802.600799,96.0984488 684.015252,55.1735997 C565.429705,14.2487506 464.446396,-12.0531655 366.053163,5.56378678 C267.659929,23.180739 210.554928,47.0775688 49.250667,126.507207 C-112.053594,205.936846 163.28274,391.947848 295.660483,316.565132 C428.038225,241.182417 440.68013,218.560687 663.311325,316.565132 Z" id="Path-13" fill-opacity="0.1" fill="#052D54"></path>
                <path d="M658.148474,284.63624 C849.007404,350.156066 974.0609,281.570701 926.296793,209.408147 C878.532686,137.245592 777.559592,137.245592 675.897691,109.885721 C574.235789,82.5258501 487.664066,64.9419849 403.312782,76.7196103 C318.961498,88.4972357 270.006097,104.473206 131.721979,157.575043 C-6.56213951,210.67688 205.514223,327.728644 319,277.332335 C432.485777,226.936025 467.289544,219.116414 658.148474,284.63624 Z" id="Path-13" fill-opacity="0.1" fill="#052D54"></path>
                <path d="M578.068771,217.180447 C658.394922,264.144412 790.203787,235.157958 758.73922,201.900061 C727.274653,168.642164 660.758707,168.642164 593.789011,156.032691 C526.819314,143.423219 511.934902,124.528248 456.368561,129.956258 C400.80222,135.384267 326.408247,153.5382 235.313695,178.011494 C144.219142,202.484788 299.711874,259.797172 374.470539,236.570787 C449.229204,213.344402 497.742619,170.216483 578.068771,217.180447 Z" id="Path-13" fill-opacity="0.1" fill="#052D54"></path>
                <g id="Group-4" transform="translate(186.500000, 57.000000)">
                    <g id="Group">
                        <path d="M22.3875629,82.5271748 C10.8371545,92.7900163 -4.55343365,111.789553 1.31404298,111.789553 C10.0883827,111.789553 17.6127205,105.015137 34.6271265,101.718318 C51.6415324,98.4214993 74.132209,104.978811 86.3688056,116.315778 C99.1909842,128.195276 102.507461,147.888192 110.138201,147.888192 C119.402557,147.888192 114.858902,146.900051 153.787457,115.125102 C182.994345,91.2853434 206.267639,82.5242503 245.252471,78.5646574 C255.996233,77.47344 271.322771,78.4871111 284.729815,80.4992493 C298.136859,82.5113875 308.478998,86.0578384 313.168721,87.4246677 C318.381357,88.9439009 312.379269,76.085525 298.291847,64.3881724 C289.380249,56.9885144 267.646328,49.8224888 263.188899,49.4252471 C246.00297,47.8936541 234.099383,42.3523795 217.121661,44.5749752 C190.037717,48.1206016 167.752166,57.6146545 90.7126201,66.8918826 C46.0989526,72.2643334 33.9379712,72.2643334 22.3875629,82.5271748 Z" id="Path-2" fill="#052D54"></path>
                        <path d="M62.876466,78.6053428 C63.1178598,62.299615 45.4167265,40.4149014 52.0099838,24.7211493 C59.224315,7.54907173 80.8448441,37.2800101 118.19644,16.5981504 C155.548036,-4.08370928 220.589237,-12.7047039 222.865995,35.1653556 C223.152481,41.1888667 224.384104,48.0407714 221.793831,53.2196508 C219.25361,58.2984594 213.735684,60.2922444 209.16298,62.5625744 C199.934887,67.1442861 190.411732,71.0653601 180.654687,73.6450752 C155.394027,80.3238708 123.1997,100.934929 104.299639,90.2879304 C94.1360926,84.5624847 84.0080942,73.2523201 75.9049424,73.6450752 C67.4738739,74.0537242 61.2418912,85.979346 59.8123325,69.5478538" id="Path-6" fill="#8AA2FF"></path>
                        <path d="M41.6336,75.1147152 C41.7756118,62.8310916 -5.43270126,18.1320014 57.3603922,12.667138 C117.788846,7.40806834 140.790331,22.3060409 143.490029,42.4877032 C144.093692,47.0004018 144.466072,52.1882114 142.820206,56.0880847 C141.206142,59.9126013 137.693542,61.4112174 134.783095,63.1187458 C128.909574,66.5646779 122.847671,69.5127437 116.635854,71.4501654 C100.553668,76.4660852 73.9198797,73.1483503 61.8759246,65.1159409 C55.3992629,60.7964961 55.0872079,71.0950224 49.9270834,71.385932 C44.55814,71.688614 40.5979372,80.6688511 39.6757302,68.2894594" id="Path-6" fill="#99AEFF" transform="translate(84.370637, 43.358552) rotate(-2.000000) translate(-84.370637, -43.358552) "></path>
                        <path d="M279.096985,58.9790758 C289.065728,61.6526632 283.855424,45.3703278 283.830453,38.5889609 C283.785792,26.4601801 283.785792,20.9725203 258.607434,22.7728097 C220.632841,25.4880485 225.82901,7.50914653 213.460312,6.48363422 C199.385197,5.3166396 205.850772,48.5623907 224.977471,52.519107 C238.58117,46.58794 248.060917,44.6501491 253.416714,46.7057343 C263.78237,50.6841321 271.226915,56.8683461 279.096985,58.9790758 Z" id="Path-3-Copy" fill="#BAC8FF"></path>
                        <path d="M187.419003,76.2797632 C182.6363,75.4265918 177.704143,74.9999208 173.070896,73.720249 C167.720407,72.24248 162.57964,70.2583256 157.631858,68.0527534 C140.140113,60.2554603 133.553146,52.0749439 157.337502,48.2720385 C188.087324,43.3554173 209.673249,40.5220562 240.973645,43.4524801 C275.140945,46.6513109 299.727373,55.0336662 257.507798,61.6304142 C235.983753,64.9935154 214.267695,67.5141442 192.703459,70.7064828 C181.183165,72.4119306 207.0649,72.9582582 195.137824,75.7772819 L187.419003,76.2797632 Z" id="Path-5" fill="#ADBEFF"></path>
                        <path d="M181.214797,62.3674589 C157.482418,52.1097634 105.90729,49.6323536 74.8672018,63.6660061 C60.4390497,70.1891731 73.4367094,87.1019057 83.6614757,90.3360284 C91.0085182,92.6599188 98.5925514,94.705622 106.371908,95.5313102 C125.315121,97.5419119 154.914842,92.5765249 170.660287,82.627038 C191.694997,69.3352851 204.947175,72.6251543 181.214797,62.3674589 Z" id="Path-4" fill="#BAC8FF"></path>
                        <path d="M118.835117,106.220833 C134.079153,110.037974 124.733276,90.7167854 124.733276,81.0348435 C124.733276,64.9690347 124.796959,51.4119886 86.2946304,53.9823025 C28.2245128,57.8589103 44.4664142,12.8818821 29.9037114,22.4636074 C19.6412982,29.2158996 9.89096973,75.38575 39.1392001,81.0348435 C57.8999199,83.2087461 71.3752772,85.7631001 79.5652721,88.6979056 C95.4162612,94.3779541 106.800336,103.207296 118.835117,106.220833 Z" id="Path-3" fill="#ADBEFF"></path>
                        <path d="M192.200402,162.936665 C196.596955,162.490269 197.642566,163.639136 199.410401,159.761048 C206.364069,144.506837 198.769214,102.300138 204.614867,64.6060643 C211.946663,17.3290025 233.495232,-5.56407114 215.858999,-10.6650604 C211.419798,-11.949026 210.253805,-10.8781833 207.768359,-5.89661963 C207.169708,-4.6967489 204.563623,-1.95643654 204.042826,-0.481835632 C198.135684,16.243805 196.793303,49.5334321 189.962066,74.2451451 C180.028086,110.180903 170.51029,165.13893 192.200402,162.936665 Z" id="Oval-Copy" fill="#ADBEFF" transform="translate(200.850211, 75.919318) rotate(68.000000) translate(-200.850211, -75.919318) "></path>
                        <path d="M118.522656,107.084665 C128.068316,109.363799 127.454919,96.6437065 127.105881,82.9759064 C126.756843,69.3081063 127.253664,62.1618467 118.694726,57.1134059 C110.135788,52.0649651 108.282663,68.4238014 108.631701,82.0916015 C108.98074,95.7594016 108.976996,104.805531 118.522656,107.084665 Z" id="Oval" fill="#99AEFF" transform="translate(117.928217, 81.763669) rotate(-8.000000) translate(-117.928217, -81.763669) "></path>
                        <path d="M277.283822,66.7352706 C283.630865,66.7946878 287.392731,59.4847912 287.216975,48.1415716 C287.041219,36.7983521 286.42197,26.288131 281.966656,24.6451217 C277.511342,23.0021124 278.396128,33.6102572 278.571884,44.9534767 C278.747641,56.2966963 270.93678,66.6758533 277.283822,66.7352706 Z" id="Oval-Copy-3" fill="#ADBEFF" transform="translate(281.008363, 45.605923) rotate(-8.000000) translate(-281.008363, -45.605923) "></path>
                    </g>
                    <g id="Group-3" transform="translate(422.251878, 28.501596)">
                        <path d="M88.892736,50.9233477 C91.9443595,42.908621 104.579006,40.0381706 100.702117,30.934775 C94.7874423,17.0464201 75.1314308,3.27206323 48.3728191,7.89078407 C42.2847458,8.94162748 34.9434802,12.4793059 31.9148511,18.1308088 C28.1940221,25.0739754 30.1485771,34.6989053 38.7535578,40.6122952 C48.3139712,47.1822637 59.0630359,52.4066333 69.9728918,57.0684617 C77.1391855,60.1306499 80.5803188,58.4728759 87.8819136,55.5117134 L88.892736,50.9233477 Z" id="Path-11" fill="#99AEFF" transform="translate(65.776301, 32.841611) rotate(-12.000000) translate(-65.776301, -32.841611) "></path>
                        <path d="M13.8205092,60.1591682 C5.37148364,60.138913 2.01257759,46.5918821 3.04563755,34.4529894 C3.75208104,26.1519787 14.6366823,31.3954455 21.0564308,23.4609393 C40.6115427,-0.708256322 43.8181729,23.2320513 47.8960748,33.8486099 C51.3447378,42.8269848 41.3579334,52.1409093 31.2648808,52.1167129 C21.5159517,52.0933415 19.6662094,60.1731822 13.8205092,60.1591682 Z" id="Path-10-Copy" fill="#ADBEFF" transform="translate(25.727886, 36.590516) rotate(-5.000000) translate(-25.727886, -36.590516) "></path>
                        <g id="Group-2" transform="translate(0.000000, 32.785862)">
                            <path d="M36.6492089,19.9098541 C36.6640799,23.7464331 36.2293812,27.6191223 36.6938219,31.4195909 C39.3422318,53.0912457 38.8108999,41.5864205 45.4421489,32.0233837 C48.1047217,28.1836424 52.5600201,25.6563222 54.7543926,21.5361866 C59.9267476,11.8246154 40.0777118,16.6620864 37.1942394,18.518059 L36.6492089,19.9098541 Z" id="Path-8" fill="#44627F" transform="translate(46.044391, 29.717087) rotate(20.000000) translate(-46.044391, -29.717087) "></path>
                            <path d="M0.735904123,49.3246213 C-1.05847814,53.5616877 3.13065277,49.1818855 9.85380229,44.562498 C13.784037,41.8620855 19.3793498,39.2603467 23.0376496,37.7726894 C40.628336,30.6193904 48.4223441,33.974421 54.6696054,36.4786744 C65.3200381,40.7479663 73.9172056,57.6024441 77.0032049,61.9357803 C77.9679735,63.2905009 79.0257532,63.2439182 78.6279601,61.4344693 C68.5270634,15.488335 93.7603994,34.2972889 98.9670196,36.8648596 C100.080973,37.4141898 101.124344,36.8747488 99.7641601,35.1841911 C76.008223,5.65818727 65.6620751,8.99667743 61.6541498,8.30859539 C57.6612478,7.62309253 53.5263107,7.26064781 49.5107164,7.79770304 C44.2982566,8.49482995 38.8929564,9.41551716 34.2957209,11.9675774 C26.8049956,16.1258986 5.67554876,37.6606615 0.735904123,49.3246213 Z" id="Path-7" fill="#052D54"></path>
                            <path d="M16.8531169,18.5002983 C12.652038,24.3863578 9.99214359,32.6367142 19.9424927,29.6042349 C28.8514315,26.8891369 30.1908921,25.2745868 39.162669,22.9202723 C54.9944718,18.7657952 62.7240317,42.2745521 72.8506765,27.7058907 C75.0999759,24.4699442 78.6162667,24.680021 85.1402647,23.0407195 C104.748567,18.1136917 69.5841948,5.87526992 68.9153845,5.63805496 C48.046893,-1.76362259 28.4645784,2.2316788 16.8531169,18.5002983 Z" id="Path-9" fill="#BAC8FF" transform="translate(52.084848, 17.293423) rotate(2.000000) translate(-52.084848, -17.293423) "></path>
                        </g>
                        <path d="M66.0975791,66.9132346 C55.6435931,66.9132346 50.4492983,40.1985079 68.0195684,35.9476694 C73.7486773,34.5616056 76.6192907,29.1180592 83.0930818,25.6738883 C109.671129,11.5338988 108.380563,27.3832224 103.606372,37.7640247 C99.1903909,47.3659523 96.3749425,57.9844678 85.2853733,57.9844678 C74.573904,57.9844678 72.5204424,66.9132346 66.0975791,66.9132346 Z" id="Path-10" fill="#8AA2FF"></path>
                    </g>
                    <g id="Group-2-Copy" transform="translate(392.693469, 93.845167)">
                        <path d="M27.8808795,14.9223418 C27.8882627,17.8285357 27.5539433,20.7625619 27.9030293,23.6409233 C29.8936441,40.0543875 29.5015908,31.3400449 34.5510009,24.0889789 C36.5784351,21.1775379 39.9669718,19.2583469 41.6388678,16.1350057 C45.5796935,8.77297876 30.4898039,12.4585052 28.2965154,13.8674762 L27.8808795,14.9223418 Z" id="Path-8" fill="#44627F" transform="translate(35.017817, 22.342883) rotate(20.000000) translate(-35.017817, -22.342883) "></path>
                        <path d="M0.31646931,37.5131006 C-1.04846277,40.7340693 2.13808186,37.4045945 7.25217747,33.8929898 C10.2417876,31.8401676 14.4979721,29.862356 17.2807296,28.7314562 C30.6614304,23.2936014 36.5900956,25.8440567 41.3421975,27.747761 C49.4436581,30.9932271 55.9832623,43.8058053 58.3306882,47.0999572 C59.0645584,48.1298 59.8691793,48.0943884 59.5665901,46.7188664 C51.8831449,11.7911489 71.077377,26.0894971 75.0378948,28.0413345 C75.8852452,28.458929 76.6789057,28.0488522 75.6442554,26.7637099 C57.5738357,4.31838482 49.7038352,6.85626625 46.6551283,6.33319428 C43.617849,5.81208297 40.472528,5.5365567 37.4179874,5.94481985 C33.4530275,6.47476762 29.3413799,7.17466334 25.8444024,9.11470991 C20.1464353,12.2758174 4.07390693,28.6462939 0.31646931,37.5131006 Z" id="Path-7" fill="#052D54"></path>
                        <path d="M12.7998529,13.7993717 C9.60485875,18.2560758 7.58146436,24.5025614 15.1476781,22.2055759 C21.9220069,20.1489944 22.9406613,18.9264957 29.7627301,17.1430487 C41.8011088,13.9959374 45.2895533,32.8531557 52.9910861,21.8223419 C54.7017271,19.3722112 56.4862257,17.2481264 61.4470145,16.0062858 C76.3569897,12.2738529 52.8960175,4.23508704 52.3875048,4.05557425 C36.5206855,-1.54565716 21.630573,1.4813817 12.7998529,13.7993717 Z" id="Path-9" fill="#99AEFF" transform="translate(38.168421, 13.336240) rotate(2.000000) translate(-38.168421, -13.336240) "></path>
                    </g>
                    <g id="Group-5" transform="translate(329.814670, 9.611746)">
                        <path d="M34.2044124,44.5803479 L35.2919907,43.3306082 C38.995464,42.5062782 61.5336845,45.1741078 52.5143042,53.3597314 C48.6878306,56.8324836 43.0922548,57.7484852 38.8810191,60.7437432 C28.3927598,68.2035589 24.6646796,80.5010137 29.9660048,56.6928934 C30.8956763,52.5177617 32.7916099,48.6178631 34.2044124,44.5803479 Z" id="Path-8" fill="#44627F"></path>
                        <path d="M40.8490813,56.679116 C32.6091281,50.3954727 28.139868,27.8597376 31.8895204,18.1523477 C38.4308899,1.21754466 60.6128353,-1.93550175 68.6276528,15.8911177 C77.4123621,35.4301365 69.6557571,54.8604931 59.2656565,60.001849 C50.1863017,64.4946058 43.4412088,58.6558269 40.8490813,56.679116 Z" id="Path-12" fill="#8AA2FF" transform="translate(51.496061, 32.784357) rotate(10.000000) translate(-51.496061, -32.784357) "></path>
                        <path d="M0.316626244,79.2840912 C-1.04898269,83.9919428 2.13914211,79.1254959 7.25577376,73.9928431 C10.2468664,70.9923847 14.5051615,68.1015639 17.289299,66.4486113 C30.6766351,58.5005014 36.6082403,62.2283131 41.3626987,65.0108169 C49.4681768,69.7544746 56.0110239,88.4816721 58.3596138,93.2964901 C59.0938479,94.8017352 59.8988678,94.7499767 59.5961286,92.739478 C51.9088732,41.6882176 71.1126236,62.5870553 75.0751054,65.4399116 C75.922876,66.0502785 76.71693,65.4508996 75.6817667,63.5725021 C57.602386,30.7658312 34.2509894,51.4144287 31.2007706,50.6498931 C28.1619852,49.8882233 40.2933622,41.0370088 37.2373069,41.6337368 C33.2703809,42.4083223 33.3299827,51.3441337 27.9909033,51.8374563 C16.119514,52.9343542 4.07592714,66.3241359 0.316626244,79.2840912 Z" id="Path-7" fill="#052D54"></path>
                        <ellipse id="Oval" fill="#BAC8FF" cx="44.2281388" cy="48.3538768" rx="22.9756565" ry="10.9060774"></ellipse>
                    </g>
                </g>
            </g>
        </g>
    </g>
</svg>