<?xml version="1.0" encoding="UTF-8"?>
<svg width="40px" height="40px" viewBox="0 0 40 40" version="1.1" xmlns="http://www.w3.org/2000/svg" xmlns:xlink="http://www.w3.org/1999/xlink">
    <!-- Generator: Sketch 52.5 (67469) - http://www.bohemiancoding.com/sketch -->
    <title>Group 14</title>
    <desc>Created with Sketch.</desc>
    <g id="Web-V2" stroke="none" stroke-width="1" fill="none" fill-rule="evenodd">
        <g id="Artboard-Copy-7" transform="translate(-148.000000, -828.000000)" fill-rule="nonzero">
            <g id="Group-9" transform="translate(0.000000, 610.000000)">
                <g id="Group-6-Copy" transform="translate(128.000000, 198.000000)">
                    <g id="Group-10">
                        <g id="Group-14" transform="translate(20.000000, 20.000000)">
                            <circle id="Oval" fill="#7692FF" cx="20" cy="20" r="20"></circle>
                            <path d="M20.8333333,26.0869565 L21.4093452,28.791708 C21.5243817,29.3318793 21.1797418,29.8630302 20.6395705,29.9780667 C20.571099,29.9926486 20.5012855,30 20.4312785,30 L19.5687215,30 C19.0164367,30 18.5687215,29.5522847 18.5687215,29 C18.5687215,28.929993 18.5760729,28.8601795 18.5906548,28.791708 L19.1666667,26.0869565 C19.2646802,25.6267192 19.7172318,25.3330788 20.1774691,25.4310923 C20.5063603,25.501134 20.7632917,25.7580654 20.8333333,26.0869565 Z" id="Triangle" fill="#BAC8FF"></path>
                            <path d="M20.8333333,13.9130435 L21.4093452,16.617795 C21.5243817,17.1579663 21.1797418,17.6891172 20.6395705,17.8041536 C20.571099,17.8187355 20.5012855,17.826087 20.4312785,17.826087 L19.5687215,17.826087 C19.0164367,17.826087 18.5687215,17.3783717 18.5687215,16.826087 C18.5687215,16.75608 18.5760729,16.6862665 18.5906548,16.617795 L19.1666667,13.9130435 C19.2646802,13.4528062 19.7172318,13.1591658 20.1774691,13.2571793 C20.5063603,13.3272209 20.7632917,13.5841523 20.8333333,13.9130435 Z" id="Triangle-Copy-2" fill="#BAC8FF" transform="translate(20.000000, 13.913043) scale(1, -1) translate(-20.000000, -13.913043) "></path>
                            <path d="M13.5067195,18.4704876 L14.0920203,20.9945972 C14.2167761,21.5326068 13.8817677,22.0698845 13.3437581,22.1946403 C13.2696887,22.2118158 13.1939022,22.2204876 13.1178676,22.2204876 L12.156441,22.2204876 C11.6041563,22.2204876 11.156441,21.7727724 11.156441,21.2204876 C11.156441,21.144453 11.1651128,21.0686665 11.1822883,20.9945972 L11.7675891,18.4704876 C11.8789509,17.99024 12.358545,17.691199 12.8387926,17.8025607 C13.1706462,17.8795123 13.429768,18.1386341 13.5067195,18.4704876 Z" id="Triangle-Copy-3" fill="#BAC8FF" transform="translate(12.637266, 19.999889) scale(1, -1) rotate(90.000000) translate(-12.637266, -19.999889) "></path>
                            <path d="M28.2321884,18.4704876 L28.8174891,20.9945972 C28.942245,21.5326068 28.6072366,22.0698845 28.0692269,22.1946403 C27.9951576,22.2118158 27.919371,22.2204876 27.8433364,22.2204876 L26.8819099,22.2204876 C26.3296251,22.2204876 25.8819099,21.7727724 25.8819099,21.2204876 C25.8819099,21.144453 25.8905817,21.0686665 25.9077572,20.9945972 L26.4930579,18.4704876 C26.6044197,17.99024 27.0840138,17.691199 27.5642615,17.8025607 C27.896115,17.8795123 28.1552368,18.1386341 28.2321884,18.4704876 Z" id="Triangle-Copy-4" fill="#BAC8FF" transform="translate(27.362734, 19.999889) scale(-1, -1) rotate(90.000000) translate(-27.362734, -19.999889) "></path>
                            <path d="M15.3323516,24.0860794 L15.9759008,26.7415011 C16.105983,27.2782478 15.7763162,27.8188195 15.2395694,27.9489016 C15.1555339,27.9692679 15.0692118,27.9786487 14.9827631,27.9768094 L14.0718086,27.9574274 C13.5196488,27.9456793 13.0815586,27.4885416 13.0933067,26.9363819 C13.0945693,26.8770399 13.1011127,26.8179282 13.1128596,26.7597468 L13.6461112,24.1185827 C13.7405269,23.6509474 14.1961593,23.3483931 14.6637946,23.4428088 C14.9926583,23.5092064 15.2533298,23.7600188 15.3323516,24.0860794 Z" id="Triangle" fill="#BAC8FF" transform="translate(14.548671, 25.701295) rotate(45.000000) translate(-14.548671, -25.701295) "></path>
                            <path d="M26.2227445,24.0860794 L26.8662937,26.7415011 C26.9963759,27.2782478 26.6667091,27.8188195 26.1299623,27.9489016 C26.0459268,27.9692679 25.9596047,27.9786487 25.873156,27.9768094 L24.9622015,27.9574274 C24.4100417,27.9456793 23.9719515,27.4885416 23.9836996,26.9363819 C23.9849622,26.8770399 23.9915056,26.8179282 24.0032525,26.7597468 L24.5365041,24.1185827 C24.6309198,23.6509474 25.0865522,23.3483931 25.5541875,23.4428088 C25.8830512,23.5092064 26.1437227,23.7600188 26.2227445,24.0860794 Z" id="Triangle-Copy" fill="#BAC8FF" transform="translate(25.439064, 25.701295) scale(-1, 1) rotate(45.000000) translate(-25.439064, -25.701295) "></path>
                            <path d="M15.3323516,12.6834887 L15.9759008,15.3389104 C16.105983,15.8756572 15.7763162,16.4162288 15.2395694,16.546311 C15.1555339,16.5666772 15.0692118,16.5760581 14.9827631,16.5742187 L14.0718086,16.5548367 C13.5196488,16.5430886 13.0815586,16.085951 13.0933067,15.5337912 C13.0945693,15.4744493 13.1011127,15.4153376 13.1128596,15.3571562 L13.6461112,12.7159921 C13.7405269,12.2483568 14.1961593,11.9458024 14.6637946,12.0402181 C14.9926583,12.1066158 15.2533298,12.3574281 15.3323516,12.6834887 Z" id="Triangle" fill="#BAC8FF" transform="translate(14.548671, 14.298705) scale(1, -1) rotate(45.000000) translate(-14.548671, -14.298705) "></path>
                            <path d="M26.2227445,12.6834887 L26.8662937,15.3389104 C26.9963759,15.8756572 26.6667091,16.4162288 26.1299623,16.546311 C26.0459268,16.5666772 25.9596047,16.5760581 25.873156,16.5742187 L24.9622015,16.5548367 C24.4100417,16.5430886 23.9719515,16.085951 23.9836996,15.5337912 C23.9849622,15.4744493 23.9915056,15.4153376 24.0032525,15.3571562 L24.5365041,12.7159921 C24.6309198,12.2483568 25.0865522,11.9458024 25.5541875,12.0402181 C25.8830512,12.1066158 26.1437227,12.3574281 26.2227445,12.6834887 Z" id="Triangle-Copy" fill="#BAC8FF" transform="translate(25.439064, 14.298705) scale(-1, -1) rotate(45.000000) translate(-25.439064, -14.298705) "></path>
                            <path d="M9.29688476,11.9301202 C8.03549396,11.9301202 7.01388893,10.866392 7.01388893,9.55421677 C7.01388893,8.24204151 8.03549396,7.17831329 9.29570764,7.17831329 C10.5570984,7.17831329 11.5787035,8.24204151 11.5787035,9.55421677 C11.5787035,10.866392 10.5570984,11.9301202 9.29688476,11.9301202 Z M20.0005886,7.75180695 C18.7391978,7.75180695 17.7175927,6.68807873 17.7175927,5.37590347 C17.7175927,4.06372822 18.7391978,3 19.9994114,3 C21.2608022,3 22.2824073,4.06372822 22.2824073,5.37590347 C22.2824073,6.68807873 21.2608022,7.75180695 20.0005886,7.75180695 Z M30.7042924,11.9301202 C29.4429016,11.9301202 28.4212965,10.866392 28.4212965,9.55421677 C28.4212965,8.24204151 29.4429016,7.17831329 30.7031152,7.17831329 C31.964506,7.17831329 32.9861111,8.24204151 32.9861111,9.55421677 C32.9861111,10.866392 31.964506,11.9301202 30.7042924,11.9301202 Z M30.7042924,32.8216867 C29.4429016,32.8216867 28.4212965,31.7579585 28.4212965,30.4457832 C28.4212965,29.133608 29.4429016,28.0698798 30.7031152,28.0698798 C31.964506,28.0698798 32.9861111,29.133608 32.9861111,30.4457832 C32.9861111,31.7579585 31.964506,32.8216867 30.7042924,32.8216867 Z M20.0005886,37 C18.7391978,37 17.7175927,35.9362718 17.7175927,34.6240965 C17.7175927,33.3119213 18.7391978,32.2481931 19.9994114,32.2481931 C21.2608022,32.2481931 22.2824073,33.3119213 22.2824073,34.6240965 C22.2824073,35.9362718 21.2608022,37 20.0005886,37 Z M5.28299583,21.6795179 C4.02160504,21.6795179 3,20.6157897 3,19.3036145 C3,17.9914392 4.02160504,16.927711 5.28181871,16.927711 C6.54320951,16.927711 7.56481454,17.9914392 7.56481454,19.3036145 C7.56481454,20.6157897 6.54320951,21.6795179 5.28299583,21.6795179 Z M9.29688476,32.8216867 C8.03549396,32.8216867 7.01388893,31.7579585 7.01388893,30.4457832 C7.01388893,29.133608 8.03549396,28.0698798 9.29570764,28.0698798 C10.5570984,28.0698798 11.5787035,29.133608 11.5787035,30.4457832 C11.5787035,31.7579585 10.5570984,32.8216867 9.29688476,32.8216867 Z M34.7181813,21.6795179 C33.4567905,21.6795179 32.4351855,20.6157897 32.4351855,19.3036145 C32.4351855,17.9914392 33.4567905,16.927711 34.7170042,16.927711 C35.978395,16.927711 37,17.9914392 37,19.3036145 C37,20.6157897 35.978395,21.6795179 34.7181813,21.6795179 Z" id="Combined-Shape" fill="#99AEFF"></path>
                            <path d="M20.0005157,22 C18.8951996,22 18,21.1045695 18,20 C18,18.8954305 18.8951996,18 19.9994843,18 C21.1048004,18 22,18.8954305 22,20 C22,21.1045695 21.1048004,22 20.0005157,22 Z" id="Path" fill="#FFFFFF"></path>
                        </g>
                    </g>
                </g>
            </g>
        </g>
    </g>
</svg>