<?xml version="1.0" encoding="UTF-8"?>
<svg width="40px" height="40px" viewBox="0 0 40 40" version="1.1" xmlns="http://www.w3.org/2000/svg" xmlns:xlink="http://www.w3.org/1999/xlink">
    <!-- Generator: Sketch 52.5 (67469) - http://www.bohemiancoding.com/sketch -->
    <title>Group 5</title>
    <desc>Created with Sketch.</desc>
    <g id="Web-V2" stroke="none" stroke-width="1" fill="none" fill-rule="evenodd">
        <g id="Artboard-Copy-7" transform="translate(-838.000000, -828.000000)" fill-rule="nonzero">
            <g id="Group-9" transform="translate(0.000000, 610.000000)">
                <g id="Group-6-Copy" transform="translate(128.000000, 198.000000)">
                    <g id="Group-10-Copy-2" transform="translate(690.000000, 0.000000)">
                        <g id="Group-5" transform="translate(20.000000, 20.000000)">
                            <circle id="Oval" fill="#7692FF" cx="20" cy="20" r="20"></circle>
                            <path d="M19.9596193,11 L19.9596193,11 C20.2322948,11 20.453683,11.2204006 20.4549022,11.4930733 C20.4736307,15.6822469 20.7318247,19.5309571 21.2294823,23.0392042 C21.6892493,26.2803414 22.6605296,30.5075819 24.1433232,35.7209258 L24.143302,35.7209319 C24.4454785,36.7833519 23.8291792,37.8895759 22.7667592,38.1917524 C22.6839724,38.2152988 22.5997519,38.2334765 22.5146231,38.2461722 C21.7289629,38.3633411 20.8925661,38.4219255 20.0054327,38.4219255 C19.1457147,38.4219255 18.3427925,38.366906 17.596666,38.256867 L17.5966684,38.2568508 C16.5039278,38.0956931 15.7487307,37.0792077 15.9098885,35.9864671 C15.9218625,35.9052767 15.9388225,35.8249003 15.9606724,35.7457939 C17.4394117,30.3920969 18.3810986,26.1291793 18.7857331,22.957041 C19.2219489,19.5373207 19.4482011,15.716044 19.4644897,11.4932109 L19.4645023,11.4932109 C19.4655541,11.2205109 19.6869172,11 19.9596193,11 Z" id="Rectangle" fill="#EEF1FF"></path>
                            <path d="M15.3812227,10.0000255 C15.7940549,10.0000255 16.2490504,10.0000255 16.7462093,10.0000255 L16.7462093,10.0000355 C17.8507733,10.0000355 18.7461993,10.8954615 18.7461993,12.0000255 C18.7461993,12.081312 18.7412436,12.162523 18.7313599,12.2432064 C16.6718819,29.0552724 14.6137424,36.9742121 12.5569413,36.0000255 C10.9372129,35.2328547 9.35063913,34.2513999 7.79721996,33.0556612 L7.79720829,33.0556764 C6.94706819,32.4012842 6.76466877,31.1926882 7.38382393,30.3165522 C12.7631896,22.7044769 15.4289892,15.9323013 15.3812227,10.0000255 Z" id="Rectangle" fill="#BAC8FF"></path>
                            <path d="M29.6179878,10.0000255 C30.0308199,10.0000255 30.4858154,10.0000255 30.9829743,10.0000255 L30.9829743,10.0000355 C32.0875383,10.0000355 32.9829643,10.8954615 32.9829643,12.0000255 C32.9829643,12.081312 32.9780087,12.162523 32.968125,12.2432064 C30.9086469,29.0552724 28.8505074,36.9742121 26.7937064,36.0000255 C25.173978,35.2328547 23.5874042,34.2513999 22.033985,33.0556612 L22.0339733,33.0556764 C21.1838332,32.4012842 21.0014338,31.1926882 21.620589,30.3165522 C26.9999546,22.7044769 29.6657542,15.9323013 29.6179878,10.0000255 Z" id="Rectangle-Copy-2" fill="#BAC8FF" transform="translate(27.118383, 23.040042) scale(-1, 1) translate(-27.118383, -23.040042) "></path>
                            <path d="M11.0384921,11.9301202 C12.1215966,10.8047719 13.2672153,9.46803008 13.805667,8.82569747 C16.899296,5.13522962 13.9096435,10.8230835 13.805667,11.9301202 C13.3874817,16.3825332 10.7506771,21.9602766 5.8952531,28.6633502 L5.8952235,28.6633287 C5.57125039,29.1105843 4.94604599,29.2105246 4.49879039,28.8865515 C4.36015328,28.7861286 4.24961831,28.6517959 4.1777697,28.4964165 C3.5677443,27.1771785 3.05508186,25.8867241 2.63978236,24.6250531 C2.17348187,23.2084423 1.94715116,21.43986 1.96079022,19.3193065 L1.96077532,19.3193064 C1.96603256,18.5019291 2.46815041,17.7700103 3.22884608,17.4708859 C5.18333708,16.7023318 7.78655241,14.8554099 11.0384921,11.9301202 Z" id="Rectangle-Copy-3" fill="#8AA2FF"></path>
                            <path d="M33.8476285,11.9301202 C34.930733,10.8047719 36.0763517,9.46803008 36.6148034,8.82569747 C39.7084324,5.13522962 37.1173272,10.5796885 36.9358599,11.6602522 C35.9879421,17.304717 33.2473686,23.0072728 28.7141393,28.7679194 L28.7141181,28.7679028 C28.3725876,29.2019061 27.7438932,29.2768702 27.3098898,28.9353397 C27.1864779,28.838223 27.0876742,28.713405 27.0214812,28.5709949 C26.3962283,27.2258029 25.8720409,25.910489 25.4489188,24.6250531 C24.9826183,23.2084423 24.7562876,21.43986 24.7699266,19.3193065 L24.7699117,19.3193064 C24.775169,18.5019291 25.2772868,17.7700103 26.0379825,17.4708859 C27.9924735,16.7023318 30.5956888,14.8554099 33.8476285,11.9301202 Z" id="Rectangle-Copy-3" fill="#8AA2FF" transform="translate(31.446684, 18.354552) scale(-1, 1) translate(-31.446684, -18.354552) "></path>
                            <path d="M20.7589061,2.46503885 L28.0388532,10.9510366 C28.3984528,11.3702102 28.3501586,12.0015307 27.9309849,12.3611303 C27.7496971,12.5166531 27.5187291,12.6021493 27.2798722,12.6021493 L12.7199781,12.6021493 C12.1676933,12.6021493 11.7199781,12.1544341 11.7199781,11.6021493 C11.7199781,11.3632924 11.8054743,11.1323244 11.9609971,10.9510366 L19.2409441,2.46503885 C19.6005438,2.04586522 20.2318643,1.99757097 20.6510379,2.35717062 C20.689688,2.39032772 20.725749,2.4263887 20.7589061,2.46503885 Z" id="Rectangle" fill="#EEF1FF"></path>
                        </g>
                    </g>
                </g>
            </g>
        </g>
    </g>
</svg>