<?xml version="1.0" encoding="UTF-8"?>
<svg width="351px" height="924px" viewBox="0 0 351 924" version="1.1" xmlns="http://www.w3.org/2000/svg" xmlns:xlink="http://www.w3.org/1999/xlink">
    <!-- Generator: Sketch 52.5 (67469) - http://www.bohemiancoding.com/sketch -->
    <title>Group 11</title>
    <desc>Created with Sketch.</desc>
    <g id="Web-V2" stroke="none" stroke-width="1" fill="none" fill-rule="evenodd">
        <g id="Artboard-Copy-5" transform="translate(-169.000000, -79.000000)" fill="#7692FF" fill-rule="nonzero">
            <g id="Group-11" transform="translate(106.000000, 38.000000)">
                <g id="Group-9-Copy-3" transform="translate(176.000000, 0.000000)">
                    <g id="Group-8" transform="translate(42.000000, 41.000000)">
                        <g id="Group-7" transform="translate(0.000000, 82.405063)">
                            <path d="M125.560146,16.5900141 C124.77181,16.5900141 124.133333,15.9507132 124.133333,15.1620956 C124.133333,14.3734781 124.77181,13.7341772 125.55941,13.7341772 C126.347746,13.7341772 126.986222,14.3734781 126.986222,15.1620956 C126.986222,15.9507132 126.347746,16.5900141 125.560146,16.5900141 Z" id="Path-Copy"></path>
                            <path d="M70.0268123,16.5900141 C69.2384762,16.5900141 68.6,15.9507132 68.6,15.1620956 C68.6,14.3734781 69.2384762,13.7341772 70.0260766,13.7341772 C70.8144126,13.7341772 71.4528889,14.3734781 71.4528889,15.1620956 C71.4528889,15.9507132 70.8144126,16.5900141 70.0268123,16.5900141 Z" id="Path-Copy-2"></path>
                            <path d="M53.6934789,16.5900141 C52.9051429,16.5900141 52.2666667,15.9507132 52.2666667,15.1620956 C52.2666667,14.3734781 52.9051429,13.7341772 53.6927433,13.7341772 C54.4810793,13.7341772 55.1195556,14.3734781 55.1195556,15.1620956 C55.1195556,15.9507132 54.4810793,16.5900141 53.6934789,16.5900141 Z" id="Path-Copy-2"></path>
                            <path d="M30.8268123,16.5900141 C30.0384762,16.5900141 29.4,15.9507132 29.4,15.1620956 C29.4,14.3734781 30.0384762,13.7341772 30.8260766,13.7341772 C31.6144126,13.7341772 32.2528889,14.3734781 32.2528889,15.1620956 C32.2528889,15.9507132 31.6144126,16.5900141 30.8268123,16.5900141 Z" id="Path-Copy-2"></path>
                            <path d="M30.8268123,16.5900141 C30.0384762,16.5900141 29.4,15.9507132 29.4,15.1620956 C29.4,14.3734781 30.0384762,13.7341772 30.8260766,13.7341772 C31.6144126,13.7341772 32.2528889,14.3734781 32.2528889,15.1620956 C32.2528889,15.9507132 31.6144126,16.5900141 30.8268123,16.5900141 Z" id="Path-Copy-2"></path>
                            <path d="M1.42681228,16.5900141 C0.638476246,16.5900141 0,15.9507132 0,15.1620956 C0,14.3734781 0.638476246,13.7341772 1.42607661,13.7341772 C2.21441264,13.7341772 2.85288889,14.3734781 2.85288889,15.1620956 C2.85288889,15.9507132 2.21441264,16.5900141 1.42681228,16.5900141 Z" id="Path-Copy-2"></path>
                            <path d="M1.42681228,16.5900141 C0.638476246,16.5900141 0,15.9507132 0,15.1620956 C0,14.3734781 0.638476246,13.7341772 1.42607661,13.7341772 C2.21441264,13.7341772 2.85288889,14.3734781 2.85288889,15.1620956 C2.85288889,15.9507132 2.21441264,16.5900141 1.42681228,16.5900141 Z" id="Path-Copy-2"></path>
                            <path d="M141.893479,16.5900141 C141.105143,16.5900141 140.466667,15.9507132 140.466667,15.1620956 C140.466667,14.3734781 141.105143,13.7341772 141.892743,13.7341772 C142.681079,13.7341772 143.319556,14.3734781 143.319556,15.1620956 C143.319556,15.9507132 142.681079,16.5900141 141.893479,16.5900141 Z" id="Path-Copy"></path>
                            <path d="M164.760146,16.5900141 C163.97181,16.5900141 163.333333,15.9507132 163.333333,15.1620956 C163.333333,14.3734781 163.97181,13.7341772 164.75941,13.7341772 C165.547746,13.7341772 166.186222,14.3734781 166.186222,15.1620956 C166.186222,15.9507132 165.547746,16.5900141 164.760146,16.5900141 Z" id="Path-Copy"></path>
                            <path d="M194.160146,16.5900141 C193.37181,16.5900141 192.733333,15.9507132 192.733333,15.1620956 C192.733333,14.3734781 193.37181,13.7341772 194.15941,13.7341772 C194.947746,13.7341772 195.586222,14.3734781 195.586222,15.1620956 C195.586222,15.9507132 194.947746,16.5900141 194.160146,16.5900141 Z" id="Path-Copy"></path>
                            <path d="M87.1386399,6.63091889 C86.4816932,6.63091889 85.9496296,6.09816818 85.9496296,5.44098687 C85.9496296,4.78380556 86.4816932,4.25105485 87.1380268,4.25105485 C87.7949735,4.25105485 88.327037,4.78380556 88.327037,5.44098687 C88.327037,6.09816818 87.7949735,6.63091889 87.1386399,6.63091889 Z M97.9912325,2.37986404 C97.3342858,2.37986404 96.8022222,1.84711333 96.8022222,1.18993202 C96.8022222,0.532750712 97.3342858,0 97.9906194,0 C98.6475661,0 99.1796296,0.532750712 99.1796296,1.18993202 C99.1796296,1.84711333 98.6475661,2.37986404 97.9912325,2.37986404 Z M108.898269,6.63091889 C108.241323,6.63091889 107.709259,6.09816818 107.709259,5.44098687 C107.709259,4.78380556 108.241323,4.25105485 108.897656,4.25105485 C109.554603,4.25105485 110.086667,4.78380556 110.086667,5.44098687 C110.086667,6.09816818 109.554603,6.63091889 108.898269,6.63091889 Z M108.898269,27.5228551 C108.241323,27.5228551 107.709259,26.9901044 107.709259,26.3329231 C107.709259,25.6757418 108.241323,25.1429911 108.897656,25.1429911 C109.554603,25.1429911 110.086667,25.6757418 110.086667,26.3329231 C110.086667,26.9901044 109.554603,27.5228551 108.898269,27.5228551 Z M97.9912325,31.77391 C97.3342858,31.77391 96.8022222,31.2411593 96.8022222,30.583978 C96.8022222,29.9267967 97.3342858,29.3940459 97.9906194,29.3940459 C98.6475661,29.3940459 99.1796296,29.9267967 99.1796296,30.583978 C99.1796296,31.2411593 98.6475661,31.77391 97.9912325,31.77391 Z M82.8556769,16.5500469 C82.1987302,16.5500469 81.6666667,16.0172962 81.6666667,15.3601149 C81.6666667,14.7029336 82.1987302,14.1701828 82.8550638,14.1701828 C83.5120105,14.1701828 84.0440741,14.7029336 84.0440741,15.3601149 C84.0440741,16.0172962 83.5120105,16.5500469 82.8556769,16.5500469 Z M87.1386399,27.5228551 C86.4816932,27.5228551 85.9496296,26.9901044 85.9496296,26.3329231 C85.9496296,25.6757418 86.4816932,25.1429911 87.1380268,25.1429911 C87.7949735,25.1429911 88.327037,25.6757418 88.327037,26.3329231 C88.327037,26.9901044 87.7949735,27.5228551 87.1386399,27.5228551 Z M113.144936,16.6227145 C112.487989,16.6227145 111.955926,16.0899638 111.955926,15.4327825 C111.955926,14.7756012 112.487989,14.2428504 113.144323,14.2428504 C113.80127,14.2428504 114.333333,14.7756012 114.333333,15.4327825 C114.333333,16.0899638 113.80127,16.6227145 113.144936,16.6227145 Z" id="Combined-Shape-Copy-3"></path>
                        </g>
                        <g id="Group-7" transform="translate(98.135021, 345.066667) rotate(90.000000) translate(-98.135021, -345.066667) translate(-246.364979, 343.566667)">
                            <path d="M125.560146,2.85583685 C124.77181,2.85583685 124.133333,2.21653599 124.133333,1.42791842 C124.133333,0.639300855 124.77181,0 125.55941,0 C126.347746,0 126.986222,0.639300855 126.986222,1.42791842 C126.986222,2.21653599 126.347746,2.85583685 125.560146,2.85583685 Z" id="Path-Copy"></path>
                            <path d="M70.0268123,2.85583685 C69.2384762,2.85583685 68.6,2.21653599 68.6,1.42791842 C68.6,0.639300855 69.2384762,0 70.0260766,0 C70.8144126,0 71.4528889,0.639300855 71.4528889,1.42791842 C71.4528889,2.21653599 70.8144126,2.85583685 70.0268123,2.85583685 Z" id="Path-Copy-2"></path>
                            <path d="M53.6934789,2.85583685 C52.9051429,2.85583685 52.2666667,2.21653599 52.2666667,1.42791842 C52.2666667,0.639300855 52.9051429,0 53.6927433,0 C54.4810793,0 55.1195556,0.639300855 55.1195556,1.42791842 C55.1195556,2.21653599 54.4810793,2.85583685 53.6934789,2.85583685 Z" id="Path-Copy-2"></path>
                            <path d="M30.8268123,2.85583685 C30.0384762,2.85583685 29.4,2.21653599 29.4,1.42791842 C29.4,0.639300855 30.0384762,0 30.8260766,0 C31.6144126,0 32.2528889,0.639300855 32.2528889,1.42791842 C32.2528889,2.21653599 31.6144126,2.85583685 30.8268123,2.85583685 Z" id="Path-Copy-2"></path>
                            <path d="M30.8268123,2.85583685 C30.0384762,2.85583685 29.4,2.21653599 29.4,1.42791842 C29.4,0.639300855 30.0384762,0 30.8260766,0 C31.6144126,0 32.2528889,0.639300855 32.2528889,1.42791842 C32.2528889,2.21653599 31.6144126,2.85583685 30.8268123,2.85583685 Z" id="Path-Copy-2"></path>
                            <path d="M1.42681228,2.85583685 C0.638476246,2.85583685 0,2.21653599 0,1.42791842 C0,0.639300855 0.638476246,0 1.42607661,0 C2.21441264,0 2.85288889,0.639300855 2.85288889,1.42791842 C2.85288889,2.21653599 2.21441264,2.85583685 1.42681228,2.85583685 Z" id="Path-Copy-2"></path>
                            <path d="M1.42681228,2.85583685 C0.638476246,2.85583685 0,2.21653599 0,1.42791842 C0,0.639300855 0.638476246,0 1.42607661,0 C2.21441264,0 2.85288889,0.639300855 2.85288889,1.42791842 C2.85288889,2.21653599 2.21441264,2.85583685 1.42681228,2.85583685 Z" id="Path-Copy-2"></path>
                            <path d="M141.893479,2.85583685 C141.105143,2.85583685 140.466667,2.21653599 140.466667,1.42791842 C140.466667,0.639300855 141.105143,0 141.892743,0 C142.681079,0 143.319556,0.639300855 143.319556,1.42791842 C143.319556,2.21653599 142.681079,2.85583685 141.893479,2.85583685 Z" id="Path-Copy"></path>
                            <path d="M164.760146,2.85583685 C163.97181,2.85583685 163.333333,2.21653599 163.333333,1.42791842 C163.333333,0.639300855 163.97181,0 164.75941,0 C165.547746,0 166.186222,0.639300855 166.186222,1.42791842 C166.186222,2.21653599 165.547746,2.85583685 164.760146,2.85583685 Z" id="Path-Copy"></path>
                            <path d="M194.160146,2.85583685 C193.37181,2.85583685 192.733333,2.21653599 192.733333,1.42791842 C192.733333,0.639300855 193.37181,0 194.15941,0 C194.947746,0 195.586222,0.639300855 195.586222,1.42791842 C195.586222,2.21653599 194.947746,2.85583685 194.160146,2.85583685 Z" id="Path-Copy"></path>
                            <path d="M220.293479,2.85583685 C219.505143,2.85583685 218.866667,2.21653599 218.866667,1.42791842 C218.866667,0.639300855 219.505143,0 220.292743,0 C221.081079,0 221.719556,0.639300855 221.719556,1.42791842 C221.719556,2.21653599 221.081079,2.85583685 220.293479,2.85583685 Z" id="Path-Copy"></path>
                            <path d="M246.426812,2.85583685 C245.638476,2.85583685 245,2.21653599 245,1.42791842 C245,0.639300855 245.638476,0 246.426077,0 C247.214413,0 247.852889,0.639300855 247.852889,1.42791842 C247.852889,2.21653599 247.214413,2.85583685 246.426812,2.85583685 Z" id="Path-Copy"></path>
                            <path d="M272.560146,2.85583685 C271.77181,2.85583685 271.133333,2.21653599 271.133333,1.42791842 C271.133333,0.639300855 271.77181,0 272.55941,0 C273.347746,0 273.986222,0.639300855 273.986222,1.42791842 C273.986222,2.21653599 273.347746,2.85583685 272.560146,2.85583685 Z" id="Path-Copy"></path>
                            <path d="M305.226812,2.85583685 C304.438476,2.85583685 303.8,2.21653599 303.8,1.42791842 C303.8,0.639300855 304.438476,0 305.226077,0 C306.014413,0 306.652889,0.639300855 306.652889,1.42791842 C306.652889,2.21653599 306.014413,2.85583685 305.226812,2.85583685 Z" id="Path-Copy"></path>
                            <path d="M337.893479,2.85583685 C337.105143,2.85583685 336.466667,2.21653599 336.466667,1.42791842 C336.466667,0.639300855 337.105143,0 337.892743,0 C338.681079,0 339.319556,0.639300855 339.319556,1.42791842 C339.319556,2.21653599 338.681079,2.85583685 337.893479,2.85583685 Z" id="Path-Copy"></path>
                            <path d="M377.093479,2.85583685 C376.305143,2.85583685 375.666667,2.21653599 375.666667,1.42791842 C375.666667,0.639300855 376.305143,0 377.092743,0 C377.881079,0 378.519556,0.639300855 378.519556,1.42791842 C378.519556,2.21653599 377.881079,2.85583685 377.093479,2.85583685 Z" id="Path-Copy"></path>
                            <path d="M422.826812,2.85583685 C422.038476,2.85583685 421.4,2.21653599 421.4,1.42791842 C421.4,0.639300855 422.038476,0 422.826077,0 C423.614413,0 424.252889,0.639300855 424.252889,1.42791842 C424.252889,2.21653599 423.614413,2.85583685 422.826812,2.85583685 Z" id="Path-Copy"></path>
                            <path d="M462.026812,2.85583685 C461.238476,2.85583685 460.6,2.21653599 460.6,1.42791842 C460.6,0.639300855 461.238476,0 462.026077,0 C462.814413,0 463.452889,0.639300855 463.452889,1.42791842 C463.452889,2.21653599 462.814413,2.85583685 462.026812,2.85583685 Z" id="Path-Copy"></path>
                            <g id="Group-2" transform="translate(592.500000, 1.500000) rotate(90.000000) translate(-592.500000, -1.500000) translate(591.000000, -95.000000)">
                                <path d="M1.56014561,3.38917018 C0.77180958,3.38917018 0.133333333,2.74986933 0.133333333,1.96125176 C0.133333333,1.17263419 0.77180958,0.533333333 1.55940994,0.533333333 C2.34774598,0.533333333 2.98622222,1.17263419 2.98622222,1.96125176 C2.98622222,2.74986933 2.34774598,3.38917018 1.56014561,3.38917018 Z" id="Path-Copy"></path>
                                <path d="M1.56014561,36.0558368 C0.77180958,36.0558368 0.133333333,35.416536 0.133333333,34.6279184 C0.133333333,33.8393009 0.77180958,33.2 1.55940994,33.2 C2.34774598,33.2 2.98622222,33.8393009 2.98622222,34.6279184 C2.98622222,35.416536 2.34774598,36.0558368 1.56014561,36.0558368 Z" id="Path-Copy"></path>
                                <path d="M1.56014561,68.7225035 C0.77180958,68.7225035 0.133333333,68.0832027 0.133333333,67.2945851 C0.133333333,66.5059675 0.77180958,65.8666667 1.55940994,65.8666667 C2.34774598,65.8666667 2.98622222,66.5059675 2.98622222,67.2945851 C2.98622222,68.0832027 2.34774598,68.7225035 1.56014561,68.7225035 Z" id="Path-Copy"></path>
                                <path d="M1.56014561,107.922504 C0.77180958,107.922504 0.133333333,107.283203 0.133333333,106.494585 C0.133333333,105.705968 0.77180958,105.066667 1.55940994,105.066667 C2.34774598,105.066667 2.98622222,105.705968 2.98622222,106.494585 C2.98622222,107.283203 2.34774598,107.922504 1.56014561,107.922504 Z" id="Path-Copy"></path>
                                <path d="M1.56014561,153.655837 C0.77180958,153.655837 0.133333333,153.016536 0.133333333,152.227918 C0.133333333,151.439301 0.77180958,150.8 1.55940994,150.8 C2.34774598,150.8 2.98622222,151.439301 2.98622222,152.227918 C2.98622222,153.016536 2.34774598,153.655837 1.56014561,153.655837 Z" id="Path-Copy"></path>
                                <path d="M1.56014561,192.855837 C0.77180958,192.855837 0.133333333,192.216536 0.133333333,191.427918 C0.133333333,190.639301 0.77180958,190 1.55940994,190 C2.34774598,190 2.98622222,190.639301 2.98622222,191.427918 C2.98622222,192.216536 2.34774598,192.855837 1.56014561,192.855837 Z" id="Path-Copy"></path>
                            </g>
                        </g>
                    </g>
                    <g id="Group-8" transform="translate(139.828816, 139.472967) rotate(45.000000) translate(-139.828816, -139.472967) translate(41.828816, 40.972967)">
                        <g id="Group-7" transform="translate(0.000000, 96.100775)">
                            <path d="M125.710878,2.85469423 C124.921596,2.85469423 124.282353,2.21564916 124.282353,1.42734711 C124.282353,0.63904507 124.921596,0 125.710142,0 C126.499424,0 127.138667,0.63904507 127.138667,1.42734711 C127.138667,2.21564916 126.499424,2.85469423 125.710878,2.85469423 Z" id="Path-Copy"></path>
                            <path d="M70.1108781,2.85469423 C69.3215957,2.85469423 68.6823529,2.21564916 68.6823529,1.42734711 C68.6823529,0.63904507 69.3215957,0 70.1101415,0 C70.8994239,0 71.5386667,0.63904507 71.5386667,1.42734711 C71.5386667,2.21564916 70.8994239,2.85469423 70.1108781,2.85469423 Z" id="Path-Copy-2"></path>
                            <path d="M53.7579369,2.85469423 C52.9686545,2.85469423 52.3294118,2.21564916 52.3294118,1.42734711 C52.3294118,0.63904507 52.9686545,0 53.7572004,0 C54.5464828,0 55.1857255,0.63904507 55.1857255,1.42734711 C55.1857255,2.21564916 54.5464828,2.85469423 53.7579369,2.85469423 Z" id="Path-Copy-2"></path>
                            <path d="M30.8638193,2.85469423 C30.0745368,2.85469423 29.4352941,2.21564916 29.4352941,1.42734711 C29.4352941,0.63904507 30.0745368,0 30.8630827,0 C31.6523651,0 32.2916078,0.63904507 32.2916078,1.42734711 C32.2916078,2.21564916 31.6523651,2.85469423 30.8638193,2.85469423 Z" id="Path-Copy-2"></path>
                            <path d="M30.8638193,2.85469423 C30.0745368,2.85469423 29.4352941,2.21564916 29.4352941,1.42734711 C29.4352941,0.63904507 30.0745368,0 30.8630827,0 C31.6523651,0 32.2916078,0.63904507 32.2916078,1.42734711 C32.2916078,2.21564916 31.6523651,2.85469423 30.8638193,2.85469423 Z" id="Path-Copy-2"></path>
                            <path d="M1.42852514,2.85469423 C0.639242725,2.85469423 -2.27373675e-13,2.21564916 -2.27373675e-13,1.42734711 C-2.27373675e-13,0.63904507 0.639242725,0 1.42778859,0 C2.217071,0 2.85631373,0.63904507 2.85631373,1.42734711 C2.85631373,2.21564916 2.217071,2.85469423 1.42852514,2.85469423 Z" id="Path-Copy-2"></path>
                            <path d="M1.42852514,2.85469423 C0.639242725,2.85469423 -2.27373675e-13,2.21564916 -2.27373675e-13,1.42734711 C-2.27373675e-13,0.63904507 0.639242725,0 1.42778859,0 C2.217071,0 2.85631373,0.63904507 2.85631373,1.42734711 C2.85631373,2.21564916 2.217071,2.85469423 1.42852514,2.85469423 Z" id="Path-Copy-2"></path>
                            <path d="M142.063819,2.85469423 C141.274537,2.85469423 140.635294,2.21564916 140.635294,1.42734711 C140.635294,0.63904507 141.274537,0 142.063083,0 C142.852365,0 143.491608,0.63904507 143.491608,1.42734711 C143.491608,2.21564916 142.852365,2.85469423 142.063819,2.85469423 Z" id="Path-Copy"></path>
                            <path d="M164.957937,2.85469423 C164.168654,2.85469423 163.529412,2.21564916 163.529412,1.42734711 C163.529412,0.63904507 164.168654,0 164.9572,0 C165.746483,0 166.385725,0.63904507 166.385725,1.42734711 C166.385725,2.21564916 165.746483,2.85469423 164.957937,2.85469423 Z" id="Path-Copy"></path>
                            <path d="M194.393231,2.85469423 C193.603949,2.85469423 192.964706,2.21564916 192.964706,1.42734711 C192.964706,0.63904507 193.603949,0 194.392494,0 C195.181777,0 195.82102,0.63904507 195.82102,1.42734711 C195.82102,2.21564916 195.181777,2.85469423 194.393231,2.85469423 Z" id="Path-Copy"></path>
                        </g>
                        <g id="Group-7" transform="translate(98.252014, 98.271242) rotate(90.000000) translate(-98.252014, -98.271242) translate(0.252014, 96.771242)">
                            <path d="M125.710878,2.85469423 C124.921596,2.85469423 124.282353,2.21564916 124.282353,1.42734711 C124.282353,0.63904507 124.921596,0 125.710142,0 C126.499424,0 127.138667,0.63904507 127.138667,1.42734711 C127.138667,2.21564916 126.499424,2.85469423 125.710878,2.85469423 Z" id="Path-Copy"></path>
                            <path d="M70.1108781,2.85469423 C69.3215957,2.85469423 68.6823529,2.21564916 68.6823529,1.42734711 C68.6823529,0.63904507 69.3215957,0 70.1101415,0 C70.8994239,0 71.5386667,0.63904507 71.5386667,1.42734711 C71.5386667,2.21564916 70.8994239,2.85469423 70.1108781,2.85469423 Z" id="Path-Copy-2"></path>
                            <path d="M53.7579369,2.85469423 C52.9686545,2.85469423 52.3294118,2.21564916 52.3294118,1.42734711 C52.3294118,0.63904507 52.9686545,0 53.7572004,0 C54.5464828,0 55.1857255,0.63904507 55.1857255,1.42734711 C55.1857255,2.21564916 54.5464828,2.85469423 53.7579369,2.85469423 Z" id="Path-Copy-2"></path>
                            <path d="M30.8638193,2.85469423 C30.0745368,2.85469423 29.4352941,2.21564916 29.4352941,1.42734711 C29.4352941,0.63904507 30.0745368,0 30.8630827,0 C31.6523651,0 32.2916078,0.63904507 32.2916078,1.42734711 C32.2916078,2.21564916 31.6523651,2.85469423 30.8638193,2.85469423 Z" id="Path-Copy-2"></path>
                            <path d="M30.8638193,2.85469423 C30.0745368,2.85469423 29.4352941,2.21564916 29.4352941,1.42734711 C29.4352941,0.63904507 30.0745368,0 30.8630827,0 C31.6523651,0 32.2916078,0.63904507 32.2916078,1.42734711 C32.2916078,2.21564916 31.6523651,2.85469423 30.8638193,2.85469423 Z" id="Path-Copy-2"></path>
                            <path d="M1.42852514,2.85469423 C0.639242725,2.85469423 0,2.21564916 0,1.42734711 C0,0.63904507 0.639242725,0 1.42778859,0 C2.217071,0 2.85631373,0.63904507 2.85631373,1.42734711 C2.85631373,2.21564916 2.217071,2.85469423 1.42852514,2.85469423 Z" id="Path-Copy-2"></path>
                            <path d="M142.063819,2.85469423 C141.274537,2.85469423 140.635294,2.21564916 140.635294,1.42734711 C140.635294,0.63904507 141.274537,0 142.063083,0 C142.852365,0 143.491608,0.63904507 143.491608,1.42734711 C143.491608,2.21564916 142.852365,2.85469423 142.063819,2.85469423 Z" id="Path-Copy"></path>
                            <path d="M164.957937,2.85469423 C164.168654,2.85469423 163.529412,2.21564916 163.529412,1.42734711 C163.529412,0.63904507 164.168654,0 164.9572,0 C165.746483,0 166.385725,0.63904507 166.385725,1.42734711 C166.385725,2.21564916 165.746483,2.85469423 164.957937,2.85469423 Z" id="Path-Copy"></path>
                            <path d="M194.393231,2.85469423 C193.603949,2.85469423 192.964706,2.21564916 192.964706,1.42734711 C192.964706,0.63904507 193.603949,0 194.392494,0 C195.181777,0 195.82102,0.63904507 195.82102,1.42734711 C195.82102,2.21564916 195.181777,2.85469423 194.393231,2.85469423 Z" id="Path-Copy"></path>
                        </g>
                    </g>
                </g>
                <g id="Group-9" transform="translate(0.000000, 192.000000)">
                    <g id="Group-8" transform="translate(63.000000, 63.000000)">
                        <g id="Group-7" transform="translate(0.000000, 126.000000)">
                            <path d="M192.183896,25.3666667 C190.97726,25.3666667 190,24.389155 190,23.1833333 C190,21.9775116 190.97726,21 192.18277,21 C193.389407,21 194.366667,21.9775116 194.366667,23.1833333 C194.366667,24.389155 193.389407,25.3666667 192.183896,25.3666667 Z" id="Path-Copy" fill-opacity="0.6"></path>
                            <path d="M107.183896,25.3666667 C105.97726,25.3666667 105,24.389155 105,23.1833333 C105,21.9775116 105.97726,21 107.18277,21 C108.389407,21 109.366667,21.9775116 109.366667,23.1833333 C109.366667,24.389155 108.389407,25.3666667 107.183896,25.3666667 Z" id="Path-Copy-2" fill-opacity="0.6"></path>
                            <path d="M82.1838963,25.3666667 C80.9772596,25.3666667 80,24.389155 80,23.1833333 C80,21.9775116 80.9772596,21 82.1827703,21 C83.3894071,21 84.3666667,21.9775116 84.3666667,23.1833333 C84.3666667,24.389155 83.3894071,25.3666667 82.1838963,25.3666667 Z" id="Path-Copy-2" fill-opacity="0.5"></path>
                            <path d="M47.1838963,25.3666667 C45.9772596,25.3666667 45,24.389155 45,23.1833333 C45,21.9775116 45.9772596,21 47.1827703,21 C48.3894071,21 49.3666667,21.9775116 49.3666667,23.1833333 C49.3666667,24.389155 48.3894071,25.3666667 47.1838963,25.3666667 Z" id="Path-Copy-2" fill-opacity="0.25"></path>
                            <path d="M47.1838963,25.3666667 C45.9772596,25.3666667 45,24.389155 45,23.1833333 C45,21.9775116 45.9772596,21 47.1827703,21 C48.3894071,21 49.3666667,21.9775116 49.3666667,23.1833333 C49.3666667,24.389155 48.3894071,25.3666667 47.1838963,25.3666667 Z" id="Path-Copy-2" fill-opacity="0.25"></path>
                            <path d="M2.18389634,25.3666667 C0.977259561,25.3666667 0,24.389155 0,23.1833333 C0,21.9775116 0.977259561,21 2.18277032,21 C3.38940711,21 4.36666667,21.9775116 4.36666667,23.1833333 C4.36666667,24.389155 3.38940711,25.3666667 2.18389634,25.3666667 Z" id="Path-Copy-2" fill-opacity="0.1"></path>
                            <path d="M2.18389634,25.3666667 C0.977259561,25.3666667 0,24.389155 0,23.1833333 C0,21.9775116 0.977259561,21 2.18277032,21 C3.38940711,21 4.36666667,21.9775116 4.36666667,23.1833333 C4.36666667,24.389155 3.38940711,25.3666667 2.18389634,25.3666667 Z" id="Path-Copy-2" fill-opacity="0.1"></path>
                            <path d="M217.183896,25.3666667 C215.97726,25.3666667 215,24.389155 215,23.1833333 C215,21.9775116 215.97726,21 217.18277,21 C218.389407,21 219.366667,21.9775116 219.366667,23.1833333 C219.366667,24.389155 218.389407,25.3666667 217.183896,25.3666667 Z" id="Path-Copy" fill-opacity="0.5"></path>
                            <path d="M252.183896,25.3666667 C250.97726,25.3666667 250,24.389155 250,23.1833333 C250,21.9775116 250.97726,21 252.18277,21 C253.389407,21 254.366667,21.9775116 254.366667,23.1833333 C254.366667,24.389155 253.389407,25.3666667 252.183896,25.3666667 Z" id="Path-Copy" fill-opacity="0.25"></path>
                            <path d="M297.183896,25.3666667 C295.97726,25.3666667 295,24.389155 295,23.1833333 C295,21.9775116 295.97726,21 297.18277,21 C298.389407,21 299.366667,21.9775116 299.366667,23.1833333 C299.366667,24.389155 298.389407,25.3666667 297.183896,25.3666667 Z" id="Path-Copy" fill-opacity="0.1"></path>
                            <path d="M133.375469,10.1388889 C132.369939,10.1388889 131.555556,9.32429586 131.555556,8.31944444 C131.555556,7.31459302 132.369939,6.5 133.374531,6.5 C134.380061,6.5 135.194444,7.31459302 135.194444,8.31944444 C135.194444,9.32429586 134.380061,10.1388889 133.375469,10.1388889 Z M149.98658,3.63888889 C148.98105,3.63888889 148.166667,2.82429586 148.166667,1.81944444 C148.166667,0.814593025 148.98105,0 149.985642,0 C150.991173,0 151.805556,0.814593025 151.805556,1.81944444 C151.805556,2.82429586 150.991173,3.63888889 149.98658,3.63888889 Z M166.681025,10.1388889 C165.675494,10.1388889 164.861111,9.32429586 164.861111,8.31944444 C164.861111,7.31459302 165.675494,6.5 166.680086,6.5 C167.685617,6.5 168.5,7.31459302 168.5,8.31944444 C168.5,9.32429586 167.685617,10.1388889 166.681025,10.1388889 Z M166.681025,42.0833333 C165.675494,42.0833333 164.861111,41.2687403 164.861111,40.2638889 C164.861111,39.2590375 165.675494,38.4444444 166.680086,38.4444444 C167.685617,38.4444444 168.5,39.2590375 168.5,40.2638889 C168.5,41.2687403 167.685617,42.0833333 166.681025,42.0833333 Z M149.98658,48.5833333 C148.98105,48.5833333 148.166667,47.7687403 148.166667,46.7638889 C148.166667,45.7590375 148.98105,44.9444444 149.985642,44.9444444 C150.991173,44.9444444 151.805556,45.7590375 151.805556,46.7638889 C151.805556,47.7687403 150.991173,48.5833333 149.98658,48.5833333 Z M126.819914,25.3055556 C125.814383,25.3055556 125,24.4909625 125,23.4861111 C125,22.4812597 125.814383,21.6666667 126.818975,21.6666667 C127.824506,21.6666667 128.638889,22.4812597 128.638889,23.4861111 C128.638889,24.4909625 127.824506,25.3055556 126.819914,25.3055556 Z M133.375469,42.0833333 C132.369939,42.0833333 131.555556,41.2687403 131.555556,40.2638889 C131.555556,39.2590375 132.369939,38.4444444 133.374531,38.4444444 C134.380061,38.4444444 135.194444,39.2590375 135.194444,40.2638889 C135.194444,41.2687403 134.380061,42.0833333 133.375469,42.0833333 Z M173.181025,25.4166667 C172.175494,25.4166667 171.361111,24.6020736 171.361111,23.5972222 C171.361111,22.5923708 172.175494,21.7777778 173.180086,21.7777778 C174.185617,21.7777778 175,22.5923708 175,23.5972222 C175,24.6020736 174.185617,25.4166667 173.181025,25.4166667 Z" id="Combined-Shape-Copy-3" fill-opacity="0.75"></path>
                        </g>
                        <g id="Group-7" transform="translate(150.000000, 355.500000) rotate(90.000000) translate(-150.000000, -355.500000) translate(-205.000000, 353.000000)">
                            <path d="M192.183896,4.36666667 C190.97726,4.36666667 190,3.38915504 190,2.18333333 C190,0.97751163 190.97726,0 192.18277,0 C193.389407,0 194.366667,0.97751163 194.366667,2.18333333 C194.366667,3.38915504 193.389407,4.36666667 192.183896,4.36666667 Z" id="Path-Copy" fill-opacity="0.75"></path>
                            <path d="M107.183896,4.36666667 C105.97726,4.36666667 105,3.38915504 105,2.18333333 C105,0.97751163 105.97726,0 107.18277,0 C108.389407,0 109.366667,0.97751163 109.366667,2.18333333 C109.366667,3.38915504 108.389407,4.36666667 107.183896,4.36666667 Z" id="Path-Copy-2" fill-opacity="0.6"></path>
                            <path d="M82.1838963,4.36666667 C80.9772596,4.36666667 80,3.38915504 80,2.18333333 C80,0.97751163 80.9772596,0 82.1827703,0 C83.3894071,0 84.3666667,0.97751163 84.3666667,2.18333333 C84.3666667,3.38915504 83.3894071,4.36666667 82.1838963,4.36666667 Z" id="Path-Copy-2" fill-opacity="0.5"></path>
                            <path d="M47.1838963,4.36666667 C45.9772596,4.36666667 45,3.38915504 45,2.18333333 C45,0.97751163 45.9772596,0 47.1827703,0 C48.3894071,0 49.3666667,0.97751163 49.3666667,2.18333333 C49.3666667,3.38915504 48.3894071,4.36666667 47.1838963,4.36666667 Z" id="Path-Copy-2" fill-opacity="0.25"></path>
                            <path d="M47.1838963,4.36666667 C45.9772596,4.36666667 45,3.38915504 45,2.18333333 C45,0.97751163 45.9772596,0 47.1827703,0 C48.3894071,0 49.3666667,0.97751163 49.3666667,2.18333333 C49.3666667,3.38915504 48.3894071,4.36666667 47.1838963,4.36666667 Z" id="Path-Copy-2" fill-opacity="0.25"></path>
                            <path d="M2.18389634,4.36666667 C0.977259561,4.36666667 0,3.38915504 0,2.18333333 C0,0.97751163 0.977259561,0 2.18277032,0 C3.38940711,0 4.36666667,0.97751163 4.36666667,2.18333333 C4.36666667,3.38915504 3.38940711,4.36666667 2.18389634,4.36666667 Z" id="Path-Copy-2" fill-opacity="0.1"></path>
                            <path d="M2.18389634,4.36666667 C0.977259561,4.36666667 0,3.38915504 0,2.18333333 C0,0.97751163 0.977259561,0 2.18277032,0 C3.38940711,0 4.36666667,0.97751163 4.36666667,2.18333333 C4.36666667,3.38915504 3.38940711,4.36666667 2.18389634,4.36666667 Z" id="Path-Copy-2" fill-opacity="0.1"></path>
                            <path d="M217.183896,4.36666667 C215.97726,4.36666667 215,3.38915504 215,2.18333333 C215,0.97751163 215.97726,0 217.18277,0 C218.389407,0 219.366667,0.97751163 219.366667,2.18333333 C219.366667,3.38915504 218.389407,4.36666667 217.183896,4.36666667 Z" id="Path-Copy" fill-opacity="0.7"></path>
                            <path d="M252.183896,4.36666667 C250.97726,4.36666667 250,3.38915504 250,2.18333333 C250,0.97751163 250.97726,0 252.18277,0 C253.389407,0 254.366667,0.97751163 254.366667,2.18333333 C254.366667,3.38915504 253.389407,4.36666667 252.183896,4.36666667 Z" id="Path-Copy" fill-opacity="0.65"></path>
                            <path d="M297.183896,4.36666667 C295.97726,4.36666667 295,3.38915504 295,2.18333333 C295,0.97751163 295.97726,0 297.18277,0 C298.389407,0 299.366667,0.97751163 299.366667,2.18333333 C299.366667,3.38915504 298.389407,4.36666667 297.183896,4.36666667 Z" id="Path-Copy" fill-opacity="0.6"></path>
                            <path d="M337.183896,4.36666667 C335.97726,4.36666667 335,3.38915504 335,2.18333333 C335,0.97751163 335.97726,2.02454527e-14 337.18277,2.02454527e-14 C338.389407,2.02454527e-14 339.366667,0.97751163 339.366667,2.18333333 C339.366667,3.38915504 338.389407,4.36666667 337.183896,4.36666667 Z" id="Path-Copy" fill-opacity="0.55"></path>
                            <path d="M377.183896,4.36666667 C375.97726,4.36666667 375,3.38915504 375,2.18333333 C375,0.97751163 375.97726,2.26947463e-14 377.18277,2.26947463e-14 C378.389407,2.26947463e-14 379.366667,0.97751163 379.366667,2.18333333 C379.366667,3.38915504 378.389407,4.36666667 377.183896,4.36666667 Z" id="Path-Copy" fill-opacity="0.5"></path>
                            <path d="M417.183896,4.36666667 C415.97726,4.36666667 415,3.38915504 415,2.18333333 C415,0.97751163 415.97726,2.51440399e-14 417.18277,2.51440399e-14 C418.389407,2.51440399e-14 419.366667,0.97751163 419.366667,2.18333333 C419.366667,3.38915504 418.389407,4.36666667 417.183896,4.36666667 Z" id="Path-Copy" fill-opacity="0.45"></path>
                            <path d="M467.183896,4.36666667 C465.97726,4.36666667 465,3.38915504 465,2.18333333 C465,0.97751163 465.97726,2.82056569e-14 467.18277,2.82056569e-14 C468.389407,2.82056569e-14 469.366667,0.97751163 469.366667,2.18333333 C469.366667,3.38915504 468.389407,4.36666667 467.183896,4.36666667 Z" id="Path-Copy" fill-opacity="0.4"></path>
                            <path d="M517.183896,4.36666667 C515.97726,4.36666667 515,3.38915504 515,2.18333333 C515,0.97751163 515.97726,3.12672739e-14 517.18277,3.12672739e-14 C518.389407,3.12672739e-14 519.366667,0.97751163 519.366667,2.18333333 C519.366667,3.38915504 518.389407,4.36666667 517.183896,4.36666667 Z" id="Path-Copy" fill-opacity="0.3"></path>
                            <path d="M577.183896,4.36666667 C575.97726,4.36666667 575,3.38915504 575,2.18333333 C575,0.97751163 575.97726,3.49412143e-14 577.18277,3.49412143e-14 C578.389407,3.49412143e-14 579.366667,0.97751163 579.366667,2.18333333 C579.366667,3.38915504 578.389407,4.36666667 577.183896,4.36666667 Z" id="Path-Copy" fill-opacity="0.25"></path>
                            <path d="M647.183896,4.36666667 C645.97726,4.36666667 645,3.38915504 645,2.18333333 C645,0.97751163 645.97726,3.92274781e-14 647.18277,3.92274781e-14 C648.389407,3.92274781e-14 649.366667,0.97751163 649.366667,2.18333333 C649.366667,3.38915504 648.389407,4.36666667 647.183896,4.36666667 Z" id="Path-Copy" fill-opacity="0.2"></path>
                            <path d="M707.183896,4.36666667 C705.97726,4.36666667 705,3.38915504 705,2.18333333 C705,0.97751163 705.97726,4.29014185e-14 707.18277,4.29014185e-14 C708.389407,4.29014185e-14 709.366667,0.97751163 709.366667,2.18333333 C709.366667,3.38915504 708.389407,4.36666667 707.183896,4.36666667 Z" id="Path-Copy" fill-opacity="0.15"></path>
                        </g>
                    </g>
                    <g id="Group-8" transform="translate(212.485588, 213.351095) rotate(45.000000) translate(-212.485588, -213.351095) translate(62.485588, 62.851095)">
                        <g id="Group-7" transform="translate(0.000000, 147.000000)">
                            <path d="M192.183896,4.36666667 C190.97726,4.36666667 190,3.38915504 190,2.18333333 C190,0.97751163 190.97726,0 192.18277,0 C193.389407,0 194.366667,0.97751163 194.366667,2.18333333 C194.366667,3.38915504 193.389407,4.36666667 192.183896,4.36666667 Z" id="Path-Copy" fill-opacity="0.6"></path>
                            <path d="M107.183896,4.36666667 C105.97726,4.36666667 105,3.38915504 105,2.18333333 C105,0.97751163 105.97726,0 107.18277,0 C108.389407,0 109.366667,0.97751163 109.366667,2.18333333 C109.366667,3.38915504 108.389407,4.36666667 107.183896,4.36666667 Z" id="Path-Copy-2" fill-opacity="0.6"></path>
                            <path d="M82.1838963,4.36666667 C80.9772596,4.36666667 80,3.38915504 80,2.18333333 C80,0.97751163 80.9772596,0 82.1827703,0 C83.3894071,0 84.3666667,0.97751163 84.3666667,2.18333333 C84.3666667,3.38915504 83.3894071,4.36666667 82.1838963,4.36666667 Z" id="Path-Copy-2" fill-opacity="0.5"></path>
                            <path d="M47.1838963,4.36666667 C45.9772596,4.36666667 45,3.38915504 45,2.18333333 C45,0.97751163 45.9772596,0 47.1827703,0 C48.3894071,0 49.3666667,0.97751163 49.3666667,2.18333333 C49.3666667,3.38915504 48.3894071,4.36666667 47.1838963,4.36666667 Z" id="Path-Copy-2" fill-opacity="0.25"></path>
                            <path d="M47.1838963,4.36666667 C45.9772596,4.36666667 45,3.38915504 45,2.18333333 C45,0.97751163 45.9772596,0 47.1827703,0 C48.3894071,0 49.3666667,0.97751163 49.3666667,2.18333333 C49.3666667,3.38915504 48.3894071,4.36666667 47.1838963,4.36666667 Z" id="Path-Copy-2" fill-opacity="0.25"></path>
                            <path d="M2.18389634,4.36666667 C0.977259561,4.36666667 -2.27373675e-13,3.38915504 -2.27373675e-13,2.18333333 C-2.27373675e-13,0.97751163 0.977259561,0 2.18277032,0 C3.38940711,0 4.36666667,0.97751163 4.36666667,2.18333333 C4.36666667,3.38915504 3.38940711,4.36666667 2.18389634,4.36666667 Z" id="Path-Copy-2" fill-opacity="0.1"></path>
                            <path d="M2.18389634,4.36666667 C0.977259561,4.36666667 -2.27373675e-13,3.38915504 -2.27373675e-13,2.18333333 C-2.27373675e-13,0.97751163 0.977259561,0 2.18277032,0 C3.38940711,0 4.36666667,0.97751163 4.36666667,2.18333333 C4.36666667,3.38915504 3.38940711,4.36666667 2.18389634,4.36666667 Z" id="Path-Copy-2" fill-opacity="0.1"></path>
                            <path d="M217.183896,4.36666667 C215.97726,4.36666667 215,3.38915504 215,2.18333333 C215,0.97751163 215.97726,0 217.18277,0 C218.389407,0 219.366667,0.97751163 219.366667,2.18333333 C219.366667,3.38915504 218.389407,4.36666667 217.183896,4.36666667 Z" id="Path-Copy" fill-opacity="0.5"></path>
                            <path d="M252.183896,4.36666667 C250.97726,4.36666667 250,3.38915504 250,2.18333333 C250,0.97751163 250.97726,0 252.18277,0 C253.389407,0 254.366667,0.97751163 254.366667,2.18333333 C254.366667,3.38915504 253.389407,4.36666667 252.183896,4.36666667 Z" id="Path-Copy" fill-opacity="0.25"></path>
                            <path d="M297.183896,4.36666667 C295.97726,4.36666667 295,3.38915504 295,2.18333333 C295,0.97751163 295.97726,0 297.18277,0 C298.389407,0 299.366667,0.97751163 299.366667,2.18333333 C299.366667,3.38915504 298.389407,4.36666667 297.183896,4.36666667 Z" id="Path-Copy" fill-opacity="0.1"></path>
                        </g>
                        <g id="Group-7" transform="translate(150.000000, 150.500000) rotate(90.000000) translate(-150.000000, -150.500000) translate(0.000000, 148.000000)">
                            <path d="M192.183896,4.36666667 C190.97726,4.36666667 190,3.38915504 190,2.18333333 C190,0.97751163 190.97726,0 192.18277,0 C193.389407,0 194.366667,0.97751163 194.366667,2.18333333 C194.366667,3.38915504 193.389407,4.36666667 192.183896,4.36666667 Z" id="Path-Copy" fill-opacity="0.6"></path>
                            <path d="M107.183896,4.36666667 C105.97726,4.36666667 105,3.38915504 105,2.18333333 C105,0.97751163 105.97726,0 107.18277,0 C108.389407,0 109.366667,0.97751163 109.366667,2.18333333 C109.366667,3.38915504 108.389407,4.36666667 107.183896,4.36666667 Z" id="Path-Copy-2" fill-opacity="0.6"></path>
                            <path d="M82.1838963,4.36666667 C80.9772596,4.36666667 80,3.38915504 80,2.18333333 C80,0.97751163 80.9772596,0 82.1827703,0 C83.3894071,0 84.3666667,0.97751163 84.3666667,2.18333333 C84.3666667,3.38915504 83.3894071,4.36666667 82.1838963,4.36666667 Z" id="Path-Copy-2" fill-opacity="0.5"></path>
                            <path d="M47.1838963,4.36666667 C45.9772596,4.36666667 45,3.38915504 45,2.18333333 C45,0.97751163 45.9772596,0 47.1827703,0 C48.3894071,0 49.3666667,0.97751163 49.3666667,2.18333333 C49.3666667,3.38915504 48.3894071,4.36666667 47.1838963,4.36666667 Z" id="Path-Copy-2" fill-opacity="0.25"></path>
                            <path d="M47.1838963,4.36666667 C45.9772596,4.36666667 45,3.38915504 45,2.18333333 C45,0.97751163 45.9772596,0 47.1827703,0 C48.3894071,0 49.3666667,0.97751163 49.3666667,2.18333333 C49.3666667,3.38915504 48.3894071,4.36666667 47.1838963,4.36666667 Z" id="Path-Copy-2" fill-opacity="0.25"></path>
                            <path d="M2.18389634,4.36666667 C0.977259561,4.36666667 0,3.38915504 0,2.18333333 C0,0.97751163 0.977259561,0 2.18277032,0 C3.38940711,0 4.36666667,0.97751163 4.36666667,2.18333333 C4.36666667,3.38915504 3.38940711,4.36666667 2.18389634,4.36666667 Z" id="Path-Copy-2" fill-opacity="0.1"></path>
                            <path d="M217.183896,4.36666667 C215.97726,4.36666667 215,3.38915504 215,2.18333333 C215,0.97751163 215.97726,0 217.18277,0 C218.389407,0 219.366667,0.97751163 219.366667,2.18333333 C219.366667,3.38915504 218.389407,4.36666667 217.183896,4.36666667 Z" id="Path-Copy" fill-opacity="0.5"></path>
                            <path d="M252.183896,4.36666667 C250.97726,4.36666667 250,3.38915504 250,2.18333333 C250,0.97751163 250.97726,0 252.18277,0 C253.389407,0 254.366667,0.97751163 254.366667,2.18333333 C254.366667,3.38915504 253.389407,4.36666667 252.183896,4.36666667 Z" id="Path-Copy" fill-opacity="0.25"></path>
                            <path d="M297.183896,4.36666667 C295.97726,4.36666667 295,3.38915504 295,2.18333333 C295,0.97751163 295.97726,0 297.18277,0 C298.389407,0 299.366667,0.97751163 299.366667,2.18333333 C299.366667,3.38915504 298.389407,4.36666667 297.183896,4.36666667 Z" id="Path-Copy" fill-opacity="0.1"></path>
                        </g>
                    </g>
                </g>
            </g>
        </g>
    </g>
</svg>