<?xml version="1.0" encoding="UTF-8"?>
<svg width="110px" height="110px" viewBox="0 0 110 110" version="1.1" xmlns="http://www.w3.org/2000/svg" xmlns:xlink="http://www.w3.org/1999/xlink">
    <!-- Generator: Sketch 52.5 (67469) - http://www.bohemiancoding.com/sketch -->
    <title>Group 14</title>
    <desc>Created with Sketch.</desc>
    <defs>
        <path d="M55.0141827,110 C24.6179889,110 0,85.3756612 0,55 C0,24.6243388 24.6179889,0 54.9858173,0 C85.3820111,0 110,24.6243388 110,55 C110,85.3756612 85.3820111,110 55.0141827,110 Z" id="path-1"></path>
    </defs>
    <g id="Web-V2" stroke="none" stroke-width="1" fill="none" fill-rule="evenodd">
        <g id="Artboard-Copy-6" transform="translate(-334.000000, -1911.000000)">
            <g id="Group-14" transform="translate(334.000000, 1911.000000)">
                <g id="Group-11-Copy">
                    <mask id="mask-2" fill="white">
                        <use xlink:href="#path-1"></use>
                    </mask>
                    <use id="Path" fill="#052D54" fill-rule="nonzero" xlink:href="#path-1"></use>
                </g>
                <path d="M47.1835938,66.7304688 L47.1835938,63.1171875 C47.1835938,59.9921719 47.8509048,57.2741001 49.1855469,54.9628906 C50.520189,52.6516812 52.9615708,50.1940234 56.5097656,47.5898438 C59.9277515,45.1484253 62.1819607,43.1627681 63.2724609,41.6328125 C64.3629612,40.1028569 64.9082031,38.3938896 64.9082031,36.5058594 C64.9082031,34.3899634 64.1269609,32.7786514 62.5644531,31.671875 C61.0019453,30.5650986 58.8209775,30.0117188 56.0214844,30.0117188 C51.1386475,30.0117188 45.5722969,31.6067549 39.3222656,34.796875 L34,24.1035156 C41.2591509,20.0344849 48.9576416,18 57.0957031,18 C63.8014658,18 69.1318162,19.611312 73.0869141,22.8339844 C77.042012,26.0566567 79.0195312,30.3534888 79.0195312,35.7246094 C79.0195312,39.3053564 78.2057373,42.3977734 76.578125,45.0019531 C74.9505127,47.6061328 71.8580957,50.535791 67.3007812,53.7910156 C64.1757656,56.1022251 62.1982463,57.86002 61.3681641,59.0644531 C60.5380818,60.2688862 60.1230469,61.8476465 60.1230469,63.8007812 L60.1230469,66.7304688 L47.1835938,66.7304688 Z M45.6210938,83.4296875 C45.6210938,80.6952988 46.3535083,78.6282622 47.8183594,77.2285156 C49.2832104,75.828769 51.4153506,75.1289062 54.2148438,75.1289062 C56.9166802,75.1289062 59.0081306,75.8450449 60.4892578,77.2773438 C61.970385,78.7096426 62.7109375,80.7604033 62.7109375,83.4296875 C62.7109375,86.0013149 61.9622471,88.0276619 60.4648438,89.5087891 C58.9674404,90.9899163 56.8841279,91.7304688 54.2148438,91.7304688 C51.4804551,91.7304688 49.3645908,91.0061921 47.8671875,89.5576172 C46.3697842,88.1090422 45.6210938,86.0664194 45.6210938,83.4296875 Z" id="?" fill="#F1F4FF"></path>
            </g>
        </g>
    </g>
</svg>