<?xml version="1.0" encoding="UTF-8"?>
<svg width="19px" height="15px" viewBox="0 0 19 15" version="1.1" xmlns="http://www.w3.org/2000/svg" xmlns:xlink="http://www.w3.org/1999/xlink">
    <!-- Generator: Sketch 52.5 (67469) - http://www.bohemiancoding.com/sketch -->
    <title>twitter</title>
    <desc>Created with Sketch.</desc>
    <g id="Web-V2" stroke="none" stroke-width="1" fill="none" fill-rule="evenodd">
        <g id="Artboard-Copy-4" transform="translate(-221.000000, -498.000000)" fill="#FFFFFF" fill-rule="nonzero">
            <g id="Group-9" transform="translate(80.000000, 110.000000)">
                <g id="Group-8" transform="translate(0.000000, 324.000000)">
                    <g id="Group-5-Copy" transform="translate(130.000000, 51.000000)">
                        <path d="M17.1350672,27.6571429 C23.7770212,27.6571429 27.4089925,22.0955813 27.4089925,17.2729763 C27.4089925,17.1150089 27.4058091,16.9577543 27.3987986,16.8012106 C28.103861,16.2860407 28.7166994,15.6431451 29.2,14.9113041 C28.5530176,15.2019769 27.8567553,15.3976566 27.1263477,15.4858905 C27.8718913,15.0340483 28.4442485,14.3192858 28.7142354,13.4671909 C28.0165644,13.8852331 27.2439169,14.1890702 26.4212848,14.3530846 C25.7623344,13.6436581 24.8242452,13.2 23.7854833,13.2 C21.7913837,13.2 20.1742795,14.8344563 20.1742795,16.8492411 C20.1742795,17.135644 20.2059594,17.4142209 20.2679126,17.6814113 C17.2667317,17.5287817 14.6055845,16.0764857 12.8247997,13.8681558 C12.5146842,14.4075191 12.3358671,15.0340483 12.3358671,15.7025599 C12.3358671,16.9687834 12.9733449,18.086646 13.9427621,18.7405707 C13.3503409,18.7220703 12.7938231,18.557699 12.3073539,18.2841041 C12.3068224,18.2994168 12.3068224,18.3143457 12.3068224,18.3307115 C12.3068224,20.0982289 13.5515071,21.5740068 15.2038113,21.9084402 C14.9003844,21.992049 14.5811169,22.0368769 14.251642,22.0368769 C14.0193197,22.0368769 13.7929814,22.0137657 13.5729797,21.9710581 C14.0326957,23.4212195 15.3657324,24.4764642 16.9462287,24.5059949 C15.7103439,25.4851022 14.1534329,26.0682273 12.4613527,26.0682273 C12.1702452,26.0682273 11.8826589,26.0514914 11.6,26.0177057 C13.1980962,27.0530281 15.0957467,27.6571429 17.1352538,27.6571429" id="twitter"></path>
                    </g>
                </g>
            </g>
        </g>
    </g>
</svg>