<?xml version="1.0" encoding="UTF-8"?>
<svg width="30px" height="30px" viewBox="0 0 30 30" version="1.1" xmlns="http://www.w3.org/2000/svg" xmlns:xlink="http://www.w3.org/1999/xlink">
    <!-- Generator: Sketch 52.6 (67491) - http://www.bohemiancoding.com/sketch -->
    <title>Group 18</title>
    <desc>Created with Sketch.</desc>
    <g id="Web-V2" stroke="none" stroke-width="1" fill="none" fill-rule="evenodd">
        <g id="Desktop-HD-Copy" transform="translate(-916.000000, -734.000000)" fill="#7692FF" fill-rule="nonzero">
            <g id="Group-18" transform="translate(916.000000, 734.000000)">
                <path d="M27.2293929,26.4332861 C28.5089911,25.1210046 28.5089911,23.3712959 27.2293929,22.0926626 L23.7273348,18.5932452 C23.1212093,17.9539285 22.3803894,17.6174461 21.5722221,17.6174461 C20.7977285,17.6174461 20.0569085,17.9539285 19.4171094,18.5932452 L17.3966913,20.6121398 C17.2283231,20.5111951 17.0599549,20.4438986 16.8915867,20.3429539 C16.6558713,20.2420092 16.4538295,20.1074162 16.2517877,20.0064714 C14.3660641,18.8287829 12.6487086,17.2473154 11.0323741,15.262069 C10.2242069,14.2526217 9.6854287,13.4114156 9.31501871,12.5365612 C9.82012325,12.0654858 10.3252278,11.5607621 10.7966587,11.0896867 C10.9650269,10.9214455 11.1670687,10.719556 11.3354369,10.5513148 C11.9752359,9.91199816 12.3456459,9.13808854 12.3456459,8.36417892 C12.3456459,7.5902693 12.0089096,6.85000793 11.3354369,6.17704304 L9.61808143,4.42733434 C9.41603962,4.22544487 9.2139978,4.02355541 9.04562962,3.82166594 C8.67521963,3.41788701 8.271136,3.01410808 7.86705238,2.64397739 C7.26092693,2.03830899 6.52010695,1.70182655 5.74561333,1.70182655 C4.97111971,1.70182655 4.23029972,2.03830899 3.59050064,2.64397739 L1.40171432,4.83111327 C0.593547067,5.63867113 0.122116167,6.61447022 0.0210952601,7.75851052 C-0.113599283,9.60916396 0.425178888,11.3252244 0.829262517,12.4692647 C1.83947159,15.2284208 3.38845883,17.8193356 5.67826606,20.5784916 C8.47317782,23.9096678 11.8068678,26.5005826 15.6119886,28.351236 C17.0599549,29.0578492 19.0130258,29.865407 21.2018121,30 C21.3365067,30 21.4712012,30 21.6058957,30 C23.0538621,30 24.2997866,29.4616281 25.2426484,28.4185325 C25.2426484,28.4185325 25.276322,28.3848843 25.276322,28.3848843 C25.6130584,27.9811053 25.9834684,27.6109747 26.387552,27.240844 C26.6906147,27.0053063 26.9600038,26.7361203 27.2293929,26.4332861 Z M25.2426484,26.0631554 C24.8385648,26.4669343 24.4008075,26.8707133 24.0303975,27.3417887 C23.3905984,28.0484018 22.6161048,28.351236 21.6395694,28.351236 C21.5385485,28.351236 21.4375276,28.351236 21.3365067,28.351236 C19.4507831,28.1829948 17.699754,27.4763817 16.3528086,26.837065 C12.7497296,25.0873563 9.61808143,22.6310345 6.99153785,19.5017478 C4.83642516,16.910833 3.38845883,14.4881594 2.41192339,11.8972446 C1.80579795,10.3157771 1.60375614,9.07079205 1.70477704,7.92675175 C1.77212432,7.18649037 2.07518704,6.58082197 2.58029157,6.04245006 L4.73540426,3.88896243 C5.03846698,3.58612823 5.37520333,3.41788701 5.71193969,3.41788701 C6.11602332,3.41788701 6.45275968,3.65342472 6.68847513,3.88896243 C7.09255875,4.25909312 7.42929511,4.6292238 7.83337874,5.03300274 C8.03542055,5.2348922 8.23746237,5.43678167 8.43950418,5.63867113 L10.1568596,7.35473159 C10.493596,7.69121404 10.6619641,8.02769648 10.6619641,8.36417892 C10.6619641,8.70066136 10.493596,9.03714381 10.1568596,9.37362625 C9.98849142,9.54186747 9.78644961,9.74375694 9.61808143,9.91199816 C9.07930326,10.4503701 8.57419873,10.9550937 8.03542055,11.4598174 C8.03542055,11.4598174 8.00174692,11.4934656 8.00174692,11.4934656 C7.46296875,12.0318375 7.56398965,12.5702095 7.66501056,12.9066919 C7.66501056,12.9403401 7.66501056,12.9403401 7.6986842,12.9739884 C8.13644146,14.0507322 8.77624054,15.0938278 9.75277597,16.3051646 C11.503805,18.4586522 13.355855,20.1410644 15.3762731,21.4196977 C15.6456622,21.5879389 15.9150513,21.7225319 16.1507668,21.8571249 C16.3864822,21.9580696 16.588524,22.0926626 16.7905658,22.1936073 C16.8242395,22.1936073 16.8242395,22.2272556 16.8579131,22.2272556 C17.0599549,22.3282003 17.2619967,22.3954968 17.4640385,22.3954968 C17.9691431,22.3954968 18.3058794,22.0590143 18.4069003,21.9580696 L20.5956867,19.7709337 C20.7977285,19.5690443 21.1681385,19.2998583 21.5722221,19.2998583 C21.9763057,19.2998583 22.2793685,19.5690443 22.5150839,19.7709337 L26.017142,23.2703511 C26.8253093,24.077909 26.4548993,24.8181704 25.9834684,25.2892458 C25.7814266,25.5584318 25.5120375,25.7939695 25.2426484,26.0631554 Z M15.5446413,6.10974655 C15.6119886,5.63867113 16.0497458,5.33583693 16.5211767,5.43678167 C18.5415949,5.77326411 20.3599712,6.71541495 21.8079376,8.1959377 C23.2559039,9.67646045 24.1987657,11.4934656 24.5691757,13.4787121 C24.6365229,13.9497875 24.3334602,14.3872146 23.895703,14.4545111 C23.8620293,14.4545111 23.7946821,14.4545111 23.7610084,14.4545111 C23.3569248,14.4545111 22.9865148,14.1516769 22.9191675,13.747898 C22.6497784,12.099134 21.8416112,10.5513148 20.6293603,9.37362625 C19.4171094,8.16228946 17.9017958,7.38837984 16.2517877,7.08554564 C15.7466831,7.01824915 15.4436204,6.58082197 15.5446413,6.10974655 Z M28.3406229,13.5123603 C27.8355183,10.5513148 26.4212256,7.85945526 24.2997866,5.70596762 C22.1446739,3.55247999 19.4507831,2.17290197 16.4875031,1.66817831 C16.0160722,1.60088182 15.7130095,1.16345464 15.8140304,0.692379223 C15.9150513,0.221303803 16.3191349,-0.081530396 16.7905658,0.0194143369 C20.0569085,0.557786246 23.0875357,2.10560548 25.4783638,4.49463083 C27.869192,6.88365617 29.4518529,9.91199816 29.990631,13.2095261 C30.0579783,13.6806015 29.7549156,14.1180287 29.3171583,14.1853252 C29.2834847,14.1853252 29.2161374,14.1853252 29.1824638,14.1853252 C28.7783801,14.2189734 28.4079701,13.9161392 28.3406229,13.5123603 Z" id="Shape-Copy"></path>
            </g>
        </g>
    </g>
</svg>