<?xml version="1.0" encoding="UTF-8"?>
<svg width="32px" height="32px" viewBox="0 0 32 32" version="1.1" xmlns="http://www.w3.org/2000/svg" xmlns:xlink="http://www.w3.org/1999/xlink">
    <!-- Generator: Sketch 52.6 (67491) - http://www.bohemiancoding.com/sketch -->
    <title>Group 17</title>
    <desc>Created with Sketch.</desc>
    <g id="Web-V2" stroke="none" stroke-width="1" fill="none" fill-rule="evenodd">
        <g id="Desktop-HD-Copy" transform="translate(-824.000000, -758.000000)" fill="#7692FF" stroke="#7692FF" stroke-width="0.75">
            <g id="Group-17" transform="translate(825.000000, 759.000000)">
                <g id="Group-16-Copy-2">
                    <path d="M20.9285714,10.6941176 L9.07142857,10.6941176 C8.78571429,10.6941176 8.53571429,10.9411765 8.53571429,11.2235294 C8.53571429,11.5058824 8.78571429,11.7529412 9.07142857,11.7529412 L20.9285714,11.7529412 C21.2142857,11.7529412 21.4642857,11.5058824 21.4642857,11.2235294 C21.4642857,10.9411765 21.2142857,10.6941176 20.9285714,10.6941176 Z" id="Path"></path>
                    <path d="M20.9285714,14.6117647 L9.07142857,14.6117647 C8.78571429,14.6117647 8.53571429,14.8588235 8.53571429,15.1411765 C8.53571429,15.4235294 8.78571429,15.6705882 9.07142857,15.6705882 L20.9285714,15.6705882 C21.2142857,15.6705882 21.4642857,15.4235294 21.4642857,15.1411765 C21.4642857,14.8588235 21.2142857,14.6117647 20.9285714,14.6117647 Z" id="Path"></path>
                    <path d="M20.9285714,18.9529412 L9.07142857,18.9529412 C8.78571429,18.9529412 8.53571429,19.2 8.53571429,19.4823529 C8.53571429,19.7647059 8.78571429,20.0117647 9.07142857,20.0117647 L20.9285714,20.0117647 C21.2142857,20.0117647 21.4642857,19.7647059 21.4642857,19.4823529 C21.4642857,19.2 21.2142857,18.9529412 20.9285714,18.9529412 Z" id="Path"></path>
                    <path d="M29.9642857,15.0705882 C29.9642857,6.91764706 23.25,0.317647059 15,0.317647059 C6.75,0.317647059 0.0357142857,6.91764706 0.0357142857,15.0705882 C0.0357142857,23.2235294 6.75,29.8588235 15,29.8588235 C16.7142857,29.8588235 18.4285714,29.5764706 20.0714286,28.9764706 L25.6487604,29.6203627 C26.4717213,29.7153719 27.2158832,29.1252504 27.3108924,28.3022895 C27.3293327,28.142562 27.3219717,27.9809086 27.2890913,27.8235181 L26.5714286,24.3882353 C27.7619048,22.7176471 28.547619,21.4117647 28.9285714,20.4705882 C29.6071429,18.7411765 29.9642857,16.9411765 29.9642857,15.0705882 Z M25.5714286,23.9647059 C25.4642857,24.1058824 25.4285714,24.2823529 25.4642857,24.4235294 L26.2306802,27.4057058 C26.368146,27.9406091 26.0459591,28.485672 25.5110557,28.6231377 C25.3806943,28.6566395 25.2449113,28.6634797 25.1118431,28.6432485 L20.1071429,27.8823529 C20.0714286,27.8823529 20.0357143,27.8823529 20.0357143,27.8823529 C19.9642857,27.8823529 19.8928571,27.8823529 19.8571429,27.9176471 C18.2857143,28.4823529 16.6785714,28.7647059 15.0357143,28.7647059 C7.39285714,28.7647059 1.14285714,22.6235294 1.14285714,15.0352941 C1.14285714,7.48235294 7.35714286,1.30588235 15.0357143,1.30588235 C22.7142857,1.30588235 28.9285714,7.44705882 28.9285714,15.0352941 C28.9285714,16.7647059 28.6071429,18.4235294 27.9642857,20.0470588 C27.3928571,21.4588235 26.5714286,22.7647059 25.5714286,23.9647059 Z" id="Shape" fill-rule="nonzero"></path>
                </g>
            </g>
        </g>
    </g>
</svg>