<?xml version="1.0" encoding="UTF-8"?>
<svg width="125px" height="31px" viewBox="0 0 125 31" version="1.1" xmlns="http://www.w3.org/2000/svg" xmlns:xlink="http://www.w3.org/1999/xlink">
    <!-- Generator: Sketch 52.5 (67469) - http://www.bohemiancoding.com/sketch -->
    <title>Group 3 Copy</title>
    <desc>Created with Sketch.</desc>
    <g id="Web-V2" stroke="none" stroke-width="1" fill="none" fill-rule="evenodd">
        <g id="Artboard-Copy-4" transform="translate(-222.000000, -24.000000)" fill="#052D54" fill-rule="nonzero">
            <g id="Group-3-Copy" transform="translate(222.000000, 24.000000)">
                <path d="M6.50210216,9.45649472 C4.86891213,9.45649472 3.54618552,8.13342694 3.54618552,6.50134012 C3.54618552,4.8692533 4.86891213,3.54618552 6.50057808,3.54618552 C8.13376812,3.54618552 9.45649472,4.8692533 9.45649472,6.50134012 C9.45649472,8.13342694 8.13376812,9.45649472 6.50210216,9.45649472 Z M15.9585969,5.9103092 C14.3254068,5.9103092 13.0026802,4.58724142 13.0026802,2.9551546 C13.0026802,1.32306778 14.3254068,-3.55271368e-15 15.9570728,-3.55271368e-15 C17.5902628,-3.55271368e-15 18.9129894,1.32306778 18.9129894,2.9551546 C18.9129894,4.58724142 17.5902628,5.9103092 15.9585969,5.9103092 Z M25.4150916,9.45649472 C23.7819016,9.45649472 22.459175,8.13342694 22.459175,6.50134012 C22.459175,4.8692533 23.7819016,3.54618552 25.4135675,3.54618552 C27.0467576,3.54618552 28.3694842,4.8692533 28.3694842,6.50134012 C28.3694842,8.13342694 27.0467576,9.45649472 25.4150916,9.45649472 Z M25.4150916,27.1874223 C23.7819016,27.1874223 22.459175,25.8643545 22.459175,24.2322677 C22.459175,22.6001809 23.7819016,21.2771131 25.4135675,21.2771131 C27.0467576,21.2771131 28.3694842,22.6001809 28.3694842,24.2322677 C28.3694842,25.8643545 27.0467576,27.1874223 25.4150916,27.1874223 Z M15.9585969,30.7336078 C14.3254068,30.7336078 13.0026802,29.4105401 13.0026802,27.7784532 C13.0026802,26.1463664 14.3254068,24.8232986 15.9570728,24.8232986 C17.5902628,24.8232986 18.9129894,26.1463664 18.9129894,27.7784532 C18.9129894,29.4105401 17.5902628,30.7336078 15.9585969,30.7336078 Z M2.95591664,17.7309276 C1.3227266,17.7309276 0,16.4078598 0,14.775773 C0,13.1436862 1.3227266,11.8206184 2.95439256,11.8206184 C4.5875826,11.8206184 5.9103092,13.1436862 5.9103092,14.775773 C5.9103092,16.4078598 4.5875826,17.7309276 2.95591664,17.7309276 Z M6.50210216,27.1874223 C4.86891213,27.1874223 3.54618552,25.8643545 3.54618552,24.2322677 C3.54618552,22.6001809 4.86891213,21.2771131 6.50057808,21.2771131 C8.13376812,21.2771131 9.45649472,22.6001809 9.45649472,24.2322677 C9.45649472,25.8643545 8.13376812,27.1874223 6.50210216,27.1874223 Z M28.9612771,17.7309276 C27.3280871,17.7309276 26.0053605,16.4078598 26.0053605,14.775773 C26.0053605,13.1436862 27.3280871,11.8206184 28.959753,11.8206184 C30.5929431,11.8206184 31.9156697,13.1436862 31.9156697,14.775773 C31.9156697,16.4078598 30.5929431,17.7309276 28.9612771,17.7309276 Z" id="Combined-Shape"></path>
                <path d="M41.6580906,15.6447253 C41.6580906,13.8124527 42.8078899,12.3795585 44.5686684,12.3795585 C46.3868658,12.3795585 47.4184874,13.6744335 47.4184874,15.5785461 L47.4184874,24.6888814 L51.1364785,24.6888814 L51.1364785,15.6116357 C51.1364785,13.8021287 52.2974187,12.3795585 54.0774359,12.3795585 C55.8709752,12.3795585 56.8968754,13.6796337 56.8968754,15.5785461 L56.8968754,24.6888814 L60.5237282,24.6888814 L60.5237282,14.4535005 C60.5237282,10.8338945 57.5079987,8.58594381 54.0774359,8.58594381 C52.120684,8.58594381 50.6291981,9.38210927 49.5549341,11.0622504 L49.1447085,11.7038403 L48.8216791,11.0142211 C48.1479861,9.57598729 46.2878257,8.58594381 44.2502901,8.58594381 C40.8737889,8.58594381 37.8793405,11.1057122 37.8793405,14.4784486 L37.8793405,24.6888814 L41.6580906,24.6888814 L41.6580906,15.6447253 Z M70.2738482,11.6846774 C71.9679098,11.6846774 73.0936731,12.5979186 73.0936731,13.8909777 C73.0936731,14.7301118 72.5714822,15.2789597 71.5546462,15.430548 L67.7044286,16.0266229 C64.9653319,16.4300008 63.2291726,18.0782433 63.2291726,20.5750724 C63.2291726,23.1551771 65.3203681,25.1521355 68.4653565,25.1521355 C70.3999131,25.1521355 71.8904757,24.3702272 72.7115147,23.0355474 L73.4882531,21.7728824 L73.4882531,23.2553282 C73.4882531,23.8747584 73.5255865,24.3489255 73.5780601,24.6888814 L77.2502557,24.6888814 C77.1811606,24.1269649 77.1212338,23.3214774 77.1212338,22.560447 L77.1212338,14.5196796 C77.1212338,10.8722325 74.8734798,8.58594381 70.3067299,8.58594381 C66.5126904,8.58594381 64.0192019,10.7171966 63.6017145,13.293346 L67.1330123,14.0202241 C67.4477082,12.6675544 68.6338404,11.6846774 70.2738482,11.6846774 Z M69.6819782,22.3512081 C68.2002178,22.3512081 67.3224967,21.4679372 67.3224967,20.2441766 C67.3224967,18.9496431 68.1444588,18.2258787 69.5168264,18.0100927 L73.0936731,17.4357103 L73.0936731,18.6558769 C73.0936731,21.138981 71.7297753,22.3512081 69.6819782,22.3512081 Z M80.4320878,24.6888814 L83.9451471,24.6888814 L83.9451471,9.48812826 C83.3868194,9.68279314 82.795406,9.7839723 82.190015,9.7839723 L82.1872195,9.7839723 C81.5818286,9.7839723 80.9904153,9.68279319 80.4320878,9.48812826 L80.4320878,24.6888814 Z M84.4056035,4.45427073 C84.4056035,3.23313873 83.4156804,2.24321564 82.1945484,2.24321564 C80.9705913,2.24321564 79.9806682,3.23313873 79.9806682,4.45427073 C79.9806682,5.67540274 80.9705913,6.66532583 82.1917233,6.66532583 C83.4156804,6.66532583 84.4056035,5.67540274 84.4056035,4.45427073 Z M102.317118,24.6888814 L105.830178,24.6888814 L105.830178,9.48812826 C105.27185,9.68279314 104.680437,9.7839723 104.075046,9.7839723 L104.07225,9.7839723 C103.466859,9.7839723 102.875446,9.68279319 102.317118,9.48812826 L102.317118,24.6888814 Z M106.290634,4.45402593 C106.290634,3.23303786 105.30072,2.24321564 104.079579,2.24321564 C102.855613,2.24321564 101.865699,3.23303786 101.865699,4.45402593 C101.865699,5.675014 102.855613,6.66483623 104.076754,6.66483623 C105.30072,6.66483623 106.290634,5.675014 106.290634,4.45402593 Z M93.4941087,25.1852251 C97.2782396,25.1852251 99.5852159,22.9695887 99.5852159,20.0456391 C99.5852159,17.7036359 97.9340279,15.919227 94.8922266,15.295123 L92.7280987,14.8661139 C91.7577419,14.6885698 91.1017455,14.1109436 91.1017455,13.2291861 C91.1017455,12.1417425 92.0894144,11.3868712 93.2968187,11.3868712 C94.7309923,11.3868712 95.6622225,12.14635 95.966618,13.3367427 L99.3088583,12.7227937 C98.9222299,10.4273189 96.8232927,8.58594381 93.2310553,8.58594381 C89.8666926,8.58594381 87.3701198,10.80164 87.3701198,13.626261 C87.3701198,15.9502811 88.8411413,17.6098009 91.9109759,18.280133 L93.7805802,18.7092579 C95.0773756,18.9914189 95.7220635,19.5870058 95.7220635,20.4758036 C95.7220635,21.5398344 94.7915738,22.3181186 93.3954637,22.3181186 C91.8065601,22.3181186 90.744704,21.436761 90.4743191,20.1717565 L87.0498069,20.786189 C87.4184491,23.1557859 89.6494567,25.1852251 93.4941087,25.1852251 Z M119.055627,21.471232 C120.119509,20.8569997 120.881465,19.86517 121.230952,18.6932975 L124.269679,18.8058518 C123.882593,21.0658248 122.572329,23.0189585 120.604988,24.1548035 C116.884844,26.3026294 112.018002,24.8565544 109.739201,20.9095547 C107.460399,16.962555 108.641483,12.0247084 112.361626,9.87688247 C116.08177,7.72905654 120.948612,9.17513157 123.227414,13.1221313 C123.422102,13.4593418 123.592945,13.8062112 123.7395,14.1608456 L112.900223,20.4189049 L113.336809,20.8049878 C114.948124,22.2299095 117.239387,22.519839 119.055627,21.471232 Z M111.540319,17.6259506 L119.48317,13.0401433 L118.877892,12.6724721 C117.33631,11.7360506 115.4469,11.6736941 113.910987,12.5604539 C112.375074,13.4472137 111.484372,15.1146685 111.524545,16.9179288 L111.540319,17.6259506 Z" id="Combined-Shape"></path>
            </g>
        </g>
    </g>
</svg>