<?xml version="1.0" encoding="UTF-8"?>
<svg width="21px" height="20px" viewBox="0 0 21 20" version="1.1" xmlns="http://www.w3.org/2000/svg" xmlns:xlink="http://www.w3.org/1999/xlink">
    <!-- Generator: Sketch 52.5 (67469) - http://www.bohemiancoding.com/sketch -->
    <title>Combined Shape</title>
    <desc>Created with Sketch.</desc>
    <g id="Web-V2" stroke="none" stroke-width="1" fill="none" fill-rule="evenodd">
        <path d="M4.23126513,6.15384615 C3.16846115,6.15384615 2.30769231,5.29285529 2.30769231,4.23076923 C2.30769231,3.16868317 3.16846115,2.30769231 4.23027333,2.30769231 C5.29307731,2.30769231 6.15384615,3.16868317 6.15384615,4.23076923 C6.15384615,5.29285529 5.29307731,6.15384615 4.23126513,6.15384615 Z M10.3851113,3.84615385 C9.32230731,3.84615385 8.46153846,2.98516298 8.46153846,1.92307692 C8.46153846,0.860990866 9.32230731,0 10.3841195,0 C11.4469235,0 12.3076923,0.860990866 12.3076923,1.92307692 C12.3076923,2.98516298 11.4469235,3.84615385 10.3851113,3.84615385 Z M16.5389574,6.15384615 C15.4761535,6.15384615 14.6153846,5.29285529 14.6153846,4.23076923 C14.6153846,3.16868317 15.4761535,2.30769231 16.5379656,2.30769231 C17.6007696,2.30769231 18.4615385,3.16868317 18.4615385,4.23076923 C18.4615385,5.29285529 17.6007696,6.15384615 16.5389574,6.15384615 Z M16.5389574,17.6923077 C15.4761535,17.6923077 14.6153846,16.8313168 14.6153846,15.7692308 C14.6153846,14.7071447 15.4761535,13.8461538 16.5379656,13.8461538 C17.6007696,13.8461538 18.4615385,14.7071447 18.4615385,15.7692308 C18.4615385,16.8313168 17.6007696,17.6923077 16.5389574,17.6923077 Z M10.3851113,20 C9.32230731,20 8.46153846,19.1390091 8.46153846,18.0769231 C8.46153846,17.014837 9.32230731,16.1538462 10.3841195,16.1538462 C11.4469235,16.1538462 12.3076923,17.014837 12.3076923,18.0769231 C12.3076923,19.1390091 11.4469235,20 10.3851113,20 Z M1.92357282,11.5384615 C0.860768844,11.5384615 0,10.6774707 0,9.61538462 C0,8.55329856 0.860768844,7.69230769 1.92258102,7.69230769 C2.985385,7.69230769 3.84615385,8.55329856 3.84615385,9.61538462 C3.84615385,10.6774707 2.985385,11.5384615 1.92357282,11.5384615 Z M4.23126513,17.6923077 C3.16846115,17.6923077 2.30769231,16.8313168 2.30769231,15.7692308 C2.30769231,14.7071447 3.16846115,13.8461538 4.23027333,13.8461538 C5.29307731,13.8461538 6.15384615,14.7071447 6.15384615,15.7692308 C6.15384615,16.8313168 5.29307731,17.6923077 4.23126513,17.6923077 Z M18.8466497,11.5384615 C17.7838458,11.5384615 16.9230769,10.6774707 16.9230769,9.61538462 C16.9230769,8.55329856 17.7838458,7.69230769 18.8456579,7.69230769 C19.9084619,7.69230769 20.7692308,8.55329856 20.7692308,9.61538462 C20.7692308,10.6774707 19.9084619,11.5384615 18.8466497,11.5384615 Z" id="Combined-Shape" fill="#7692FF" fill-rule="nonzero"></path>
    </g>
</svg>