<?xml version="1.0" encoding="UTF-8"?>
<svg width="42px" height="8px" viewBox="0 0 42 8" version="1.1" xmlns="http://www.w3.org/2000/svg" xmlns:xlink="http://www.w3.org/1999/xlink">
    <!-- Generator: Sketch 52.5 (67469) - http://www.bohemiancoding.com/sketch -->
    <title>More</title>
    <desc>Created with Sketch.</desc>
    <g id="Web-V2" stroke="none" stroke-width="1" fill="none" fill-rule="evenodd">
        <path d="M4.21052632,8 C1.88511684,8 0,6.209139 0,4 C0,1.790861 1.88511684,0 4.21052632,0 C6.53593579,0 8.42105263,1.790861 8.42105263,4 C8.42105263,6.209139 6.53593579,8 4.21052632,8 Z M21,8 C18.6745905,8 16.7894737,6.209139 16.7894737,4 C16.7894737,1.790861 18.6745905,0 21,0 C23.3254095,0 25.2105263,1.790861 25.2105263,4 C25.2105263,6.209139 23.3254095,8 21,8 Z M37.7894737,8 C35.4640642,8 33.5789474,6.209139 33.5789474,4 C33.5789474,1.790861 35.4640642,0 37.7894737,0 C40.1148832,0 42,1.790861 42,4 C42,6.209139 40.1148832,8 37.7894737,8 Z" id="More" fill="#7692FF"></path>
    </g>
</svg>