<?xml version="1.0" encoding="UTF-8"?>
<svg width="150px" height="150px" viewBox="0 0 150 150" version="1.1" xmlns="http://www.w3.org/2000/svg" xmlns:xlink="http://www.w3.org/1999/xlink">
    <!-- Generator: Sketch 52.5 (67469) - http://www.bohemiancoding.com/sketch -->
    <title>Group 18</title>
    <desc>Created with Sketch.</desc>
    <g id="Web-V2" stroke="none" stroke-width="1" fill="none" fill-rule="evenodd">
        <g id="Artboard-Copy-7" transform="translate(-100.000000, -2013.000000)" fill="#7692FF" fill-rule="nonzero">
            <g id="Group-19" transform="translate(100.000000, 2013.000000)">
                <g id="Group-18" transform="translate(75.000000, 75.000000) scale(-1, 1) translate(-75.000000, -75.000000) ">
                    <path d="M26.4289542,36.0164141 C21.8905812,36.0164141 18.2149362,32.1935929 18.2149362,27.477904 C18.2149362,22.7622151 21.8905812,18.9393939 26.4247191,18.9393939 C30.9630921,18.9393939 34.6387371,22.7622151 34.6387371,27.477904 C34.6387371,32.1935929 30.9630921,36.0164141 26.4289542,36.0164141 Z" id="Path" fill-opacity="0.05"></path>
                    <path d="M75.0021176,17.0770202 C70.4637445,17.0770202 66.7880996,13.254199 66.7880996,8.53851009 C66.7880996,3.82282118 70.4637445,-4.05009359e-13 74.9978824,-4.05009359e-13 C79.5362554,-4.05009359e-13 83.2119004,3.82282118 83.2119004,8.53851009 C83.2119004,13.254199 79.5362554,17.0770202 75.0021176,17.0770202 Z" id="Path"></path>
                    <path d="M123.575281,36.0164141 C119.036908,36.0164141 115.361263,32.1935929 115.361263,27.477904 C115.361263,22.7622151 119.036908,18.9393939 123.571046,18.9393939 C128.109419,18.9393939 131.785064,22.7622151 131.785064,27.477904 C131.785064,32.1935929 128.109419,36.0164141 123.575281,36.0164141 Z" id="Path" fill-opacity="0.85"></path>
                    <path d="M123.575281,130.713384 C119.036908,130.713384 115.361263,126.890563 115.361263,122.174874 C115.361263,117.459185 119.036908,113.636364 123.571046,113.636364 C128.109419,113.636364 131.785064,117.459185 131.785064,122.174874 C131.785064,126.890563 128.109419,130.713384 123.575281,130.713384 Z" id="Path" fill-opacity="0.45"></path>
                    <path d="M75.0021176,149.652778 C70.4637445,149.652778 66.7880996,145.829957 66.7880996,141.114268 C66.7880996,136.398579 70.4637445,132.575758 74.9978824,132.575758 C79.5362554,132.575758 83.2119004,136.398579 83.2119004,141.114268 C83.2119004,145.829957 79.5362554,149.652778 75.0021176,149.652778 Z" id="Path" fill-opacity="0.3"></path>
                    <path d="M8.21401799,80.2083333 C3.67564497,80.2083333 2.66453526e-14,76.3855121 2.66453526e-14,71.6698232 C2.66453526e-14,66.9541343 3.67564497,63.1313131 8.20978283,63.1313131 C12.7481558,63.1313131 16.4238008,66.9541343 16.4238008,71.6698232 C16.4238008,76.3855121 12.7481558,80.2083333 8.21401799,80.2083333 Z" id="Path" fill-opacity="0.12"></path>
                    <path d="M26.4289542,130.713384 C21.8905812,130.713384 18.2149362,126.890563 18.2149362,122.174874 C18.2149362,117.459185 21.8905812,113.636364 26.4247191,113.636364 C30.9630921,113.636364 34.6387371,117.459185 34.6387371,122.174874 C34.6387371,126.890563 30.9630921,130.713384 26.4289542,130.713384 Z" id="Path" fill-opacity="0.2"></path>
                    <path d="M141.790217,80.2083333 C137.251844,80.2083333 133.576199,76.3855121 133.576199,71.6698232 C133.576199,66.9541343 137.251844,63.1313131 141.785982,63.1313131 C146.324355,63.1313131 150,66.9541343 150,71.6698232 C150,76.3855121 146.324355,80.2083333 141.790217,80.2083333 Z" id="Path" fill-opacity="0.65"></path>
                </g>
            </g>
        </g>
    </g>
</svg>