<?xml version="1.0" encoding="UTF-8"?>
<svg width="1050px" height="1006px" viewBox="0 0 1050 1006" version="1.1" xmlns="http://www.w3.org/2000/svg" xmlns:xlink="http://www.w3.org/1999/xlink">
    <!-- Generator: Sketch 52.5 (67469) - http://www.bohemiancoding.com/sketch -->
    <title>Combined Shape</title>
    <desc>Created with Sketch.</desc>
    <g id="Web-V2" stroke="none" stroke-width="1" fill="none" fill-rule="evenodd">
        <path d="M185.077279,240.625 C153.403063,240.625 127.75,214.96532 127.75,183.3125 C127.75,151.65968 153.403063,126 185.047721,126 C216.721937,126 242.375,151.65968 242.375,183.3125 C242.375,214.96532 216.721937,240.625 185.077279,240.625 Z M524.577279,114.625 C492.903063,114.625 467.25,88.9653197 467.25,57.3125 C467.25,25.6596803 492.903063,0 524.547721,0 C556.221937,0 581.875,25.6596803 581.875,57.3125 C581.875,88.9653197 556.221937,114.625 524.577279,114.625 Z M866.702279,240.625 C835.028063,240.625 809.375,214.96532 809.375,183.3125 C809.375,151.65968 835.028063,126 866.672721,126 C898.346937,126 924,151.65968 924,183.3125 C924,214.96532 898.346937,240.625 866.702279,240.625 Z M866.702279,879.375 C835.028063,879.375 809.375,853.71532 809.375,822.0625 C809.375,790.40968 835.028063,764.75 866.672721,764.75 C898.346937,764.75 924,790.40968 924,822.0625 C924,853.71532 898.346937,879.375 866.702279,879.375 Z M524.577279,1005.375 C492.903063,1005.375 467.25,979.71532 467.25,948.0625 C467.25,916.40968 492.903063,890.75 524.547721,890.75 C556.221937,890.75 581.875,916.40968 581.875,948.0625 C581.875,979.71532 556.221937,1005.375 524.577279,1005.375 Z M57.327279,538.125 C25.6530635,538.125 0,512.46532 0,480.8125 C0,449.15968 25.6530635,423.5 57.297721,423.5 C88.9719365,423.5 114.625,449.15968 114.625,480.8125 C114.625,512.46532 88.9719365,538.125 57.327279,538.125 Z M185.077279,879.375 C153.403063,879.375 127.75,853.71532 127.75,822.0625 C127.75,790.40968 153.403063,764.75 185.047721,764.75 C216.721937,764.75 242.375,790.40968 242.375,822.0625 C242.375,853.71532 216.721937,879.375 185.077279,879.375 Z M992.702279,538.125 C961.028063,538.125 935.375,512.46532 935.375,480.8125 C935.375,449.15968 961.028063,423.5 992.672721,423.5 C1024.34694,423.5 1050,449.15968 1050,480.8125 C1050,512.46532 1024.34694,538.125 992.702279,538.125 Z" id="Combined-Shape" fill="#7692FF" fill-rule="nonzero"></path>
    </g>
</svg>