<?xml version="1.0" encoding="UTF-8"?>
<svg width="657px" height="629px" viewBox="0 0 657 629" version="1.1" xmlns="http://www.w3.org/2000/svg" xmlns:xlink="http://www.w3.org/1999/xlink">
    <!-- Generator: Sketch 52.5 (67469) - http://www.bohemiancoding.com/sketch -->
    <title>Combined Shape Copy</title>
    <desc>Created with Sketch.</desc>
    <g id="Web-V2" stroke="none" stroke-width="1" fill="none" fill-rule="evenodd" fill-opacity="0.5">
        <path d="M116.342557,150.776746 C96.5550141,150.776746 80.5290101,134.746608 80.5290101,114.972431 C80.5290101,95.198254 96.5550141,79.1681164 116.324092,79.1681164 C136.111635,79.1681164 152.137639,95.198254 152.137639,114.972431 C152.137639,134.746608 136.111635,150.776746 116.342557,150.776746 Z M328.557139,72.4167197 C308.769596,72.4167197 292.743592,56.386582 292.743592,36.6124051 C292.743592,16.8382281 308.769596,0.808090454 328.538674,0.808090454 C348.326217,0.808090454 364.352221,16.8382281 364.352221,36.6124051 C364.352221,56.386582 348.326217,72.4167197 328.557139,72.4167197 Z M542.177518,151.101146 C522.389975,151.101146 506.363971,135.071008 506.363971,115.296831 C506.363971,95.522654 522.389975,79.4925163 542.159053,79.4925163 C561.946596,79.4925163 577.9726,95.522654 577.9726,115.296831 C577.9726,135.071008 561.946596,151.101146 542.177518,151.101146 Z M542.034119,549.582638 C522.246575,549.582638 506.220571,533.5525 506.220571,513.778323 C506.220571,494.004146 522.246575,477.974008 542.015653,477.974008 C561.803196,477.974008 577.8292,494.004146 577.8292,513.778323 C577.8292,533.5525 561.803196,549.582638 542.034119,549.582638 Z M328.00324,628.051683 C308.215697,628.051683 292.189693,612.021546 292.189693,592.247369 C292.189693,572.473192 308.215697,556.443054 327.984775,556.443054 C347.772318,556.443054 363.798322,572.473192 363.798322,592.247369 C363.798322,612.021546 347.772318,628.051683 328.00324,628.051683 Z M36.7275502,336.745808 C16.9400068,336.745808 0.914002813,320.715671 0.914002813,300.941494 C0.914002813,281.167317 16.9400068,265.137179 36.7090847,265.137179 C56.496628,265.137179 72.5226321,281.167317 72.5226321,300.941494 C72.5226321,320.715671 56.496628,336.745808 36.7275502,336.745808 Z M116.199158,549.258238 C96.4116146,549.258238 80.3856106,533.2281 80.3856106,513.453923 C80.3856106,493.679746 96.4116146,477.649609 116.180692,477.649609 C135.968236,477.649609 151.99424,493.679746 151.99424,513.453923 C151.99424,533.2281 135.968236,549.258238 116.199158,549.258238 Z M620.420697,337.073841 C600.633154,337.073841 584.60715,321.043703 584.60715,301.269526 C584.60715,281.495349 600.633154,265.465212 620.402231,265.465212 C640.189775,265.465212 656.215779,281.495349 656.215779,301.269526 C656.215779,321.043703 640.189775,337.073841 620.420697,337.073841 Z" id="Combined-Shape-Copy" fill="#7692FF" fill-rule="nonzero"></path>
    </g>
</svg>