<?xml version="1.0" encoding="UTF-8"?>
<svg width="20px" height="20px" viewBox="0 0 20 20" version="1.1" xmlns="http://www.w3.org/2000/svg" xmlns:xlink="http://www.w3.org/1999/xlink">
    <!-- Generator: Sketch 52.5 (67469) - http://www.bohemiancoding.com/sketch -->
    <title>instagram</title>
    <desc>Created with Sketch.</desc>
    <g id="Web-V2" stroke="none" stroke-width="1" fill="none" fill-rule="evenodd">
        <g id="Artboard-Copy-4" transform="translate(-155.000000, -498.000000)" fill="#FFFFFF" fill-rule="nonzero">
            <g id="Group-9" transform="translate(80.000000, 110.000000)">
                <g id="Group-8" transform="translate(0.000000, 324.000000)">
                    <g id="Group-6-Copy" transform="translate(65.000000, 54.000000)">
                        <path d="M20.1098353,12 C16.1745039,12 14.926763,12.0051535 14.7744057,12.0177958 C14.1351109,12.070951 13.811779,12.1523524 13.4406848,12.3371626 C13.1687349,12.4722398 12.975224,12.6138298 12.7660689,12.8307078 C12.3879859,13.2232879 12.1611849,13.7000844 12.0728596,14.3114038 C12.0597238,14.4019113 12.0554241,14.4320645 12.0506933,14.4678854 C12.014332,14.7432074 12.0036649,15.1562997 12.0006606,16.9510151 C11.9998346,17.3786519 11.9998346,17.7065491 12.0003316,18.8495205 C12.0005641,19.3840519 12.0006636,19.7177283 12.0006636,20.1028583 C12.0006636,24.0168516 12.0060566,25.2808692 12.0190691,25.4350774 C12.070695,26.0570516 12.1501535,26.378393 12.3289,26.7488973 C12.6372212,27.3890176 13.2361475,27.8782412 13.9365996,28.0592865 C14.214146,28.1307639 14.548592,28.1747393 15.0165272,28.1969228 C15.2104155,28.205355 17.5962221,28.2133333 20.0890818,28.2133333 C22.9986967,28.2133333 24.9849397,28.2086429 25.1514658,28.2001674 C25.7005028,28.1743306 25.9785744,28.1377329 26.2870343,28.058003 C26.9952485,27.8752176 27.5780329,27.3980231 27.8972958,26.7393069 C28.0702525,26.3825171 28.1544274,26.0453642 28.1995835,25.4724506 C28.2059709,25.3911342 28.2133333,22.9060101 28.2133333,20.1003195 C28.2133333,17.3250642 28.2056131,14.8151324 28.1991322,14.7326254 C28.1533174,14.1491649 28.070182,13.8193863 27.8917694,13.4559975 C27.7510071,13.1699696 27.6137849,12.9820427 27.3911904,12.7677795 C26.993329,12.3876679 26.5154478,12.160732 25.9041451,12.0725429 C25.8132321,12.0593515 25.7827833,12.0550074 25.7470872,12.0502867 C25.4718258,12.0138842 25.0577766,12.0031109 23.2691345,12 L20.1098353,12 Z M20.1098353,10.4 L23.2691345,10.4 C25.5893383,10.4040323 25.6796679,10.4234473 26.133108,10.4890102 C27.0689534,10.624019 27.854299,10.9973839 28.496461,11.6108971 C28.8562866,11.9572304 29.1041334,12.2959471 29.3273447,12.7495108 C29.5993789,13.3035844 29.7330071,13.8277887 29.7942223,14.6073747 C29.8073611,14.7746422 29.8133333,17.4365847 29.8133333,20.1003195 C29.8133333,22.7636062 29.807809,25.4304771 29.7946702,25.5977446 C29.7342015,26.3649349 29.6005733,26.8936196 29.3370496,27.4372389 C28.8129881,28.5185038 27.8499692,29.3070505 26.6868812,29.6072359 C26.2650939,29.7162585 25.8836189,29.7674841 25.2266758,29.7983987 C24.9922665,29.8103464 22.5406742,29.8133333 20.0890818,29.8133333 C17.6374895,29.8133333 15.1873902,29.805866 14.9470087,29.7954118 C14.3796487,29.7685295 13.9377052,29.7117781 13.5375671,29.6087294 C12.3819444,29.3100374 11.4010088,28.509543 10.8873987,27.4432128 C10.6186493,26.8861523 10.4917398,26.3768826 10.4245524,25.5674274 C10.4051427,25.3374346 10.4006636,24.1531211 10.4006636,20.1028583 C10.4006636,18.7382842 10.3991705,17.7209395 10.4006636,16.9479247 C10.4045455,14.6288805 10.4236566,14.536286 10.4893509,14.0822742 C10.6244722,13.1470698 10.9977353,12.3603152 11.6136195,11.7208158 C11.9517959,11.3701514 12.2944515,11.1199969 12.7289298,10.904192 C13.2927064,10.6234216 13.8101985,10.4924452 14.6418288,10.423298 C14.8722068,10.4041817 16.0573919,10.4 20.1098353,10.4 Z M25.4195548,14.2830711 L25.4195548,14.2826667 C26.0626282,14.2826667 26.5843669,14.8044 26.5843669,15.4474667 C26.5843669,16.0905333 26.0626282,16.6122667 25.4195548,16.6122667 C24.7764814,16.6122667 24.2547427,16.0905333 24.2547427,15.4474667 C24.2547427,14.8041978 24.7764814,14.2830711 25.4195548,14.2830711 Z M20.238163,15.6440267 L20.2379608,15.6440267 C22.9908406,15.6440267 25.2221838,17.8759533 25.2221838,20.6288044 C25.2221838,23.3816556 22.9910428,25.6125711 20.238163,25.6125711 C17.4852832,25.6125711 15.2533333,23.3816556 15.2533333,20.6288044 C15.2533333,17.8759533 17.4852832,15.6440267 20.238163,15.6440267 Z M20.238163,17.3932489 C18.4511066,17.3932489 17.0025738,18.8417667 17.0025738,20.6288044 C17.0025738,22.41564 18.4511066,23.86436 20.238163,23.86436 C22.0250172,23.86436 23.4737523,22.41564 23.4737523,20.6288044 C23.4737523,18.8417667 22.0250172,17.3932489 20.238163,17.3932489 Z" id="instagram"></path>
                    </g>
                </g>
            </g>
        </g>
    </g>
</svg>