<?xml version="1.0" encoding="UTF-8"?>
<svg width="22px" height="21px" viewBox="0 0 22 21" version="1.1" xmlns="http://www.w3.org/2000/svg" xmlns:xlink="http://www.w3.org/1999/xlink">
    <!-- Generator: Sketch 52.6 (67491) - http://www.bohemiancoding.com/sketch -->
    <title>Group 26</title>
    <desc>Created with Sketch.</desc>
    <g id="Web-V2" stroke="none" stroke-width="1" fill="none" fill-rule="evenodd">
        <g id="Group-17" transform="translate(-27.000000, -7.000000)" fill-rule="nonzero">
            <g id="Group-14" transform="translate(16.000000, 0.000000)">
                <g id="Group-26" transform="translate(10.000000, 5.000000)">
                    <rect id="Rectangle" x="0" y="0.5" width="24" height="24"></rect>
                    <path d="M4.31818182,12.7414223 L4.31818182,20.4361148 C4.31818182,21.1734491 4.37216181,21.4529804 4.52622112,21.7410463 C4.65392831,21.979838 4.83834385,22.1642535 5.07713554,22.2919607 C5.36520141,22.44602 5.64473275,22.5 6.38206702,22.5 L7.72782932,22.5 C8.35492345,22.5 8.64305326,22.4416054 8.92286446,22.2919607 C9.16165615,22.1642535 9.34607169,21.979838 9.47377888,21.7410463 C9.62342354,21.4612351 9.68181818,21.1731053 9.68181818,20.5460111 L9.68181818,19.1038961 C9.68181818,17.8235996 10.7197035,16.7857143 12,16.7857143 C13.2802965,16.7857143 14.3181818,17.8235996 14.3181818,19.1038961 L14.3181818,20.5460111 C14.3181818,21.1731053 14.3765765,21.4612351 14.5262211,21.7410463 C14.6539283,21.979838 14.8383439,22.1642535 15.0771355,22.2919607 C15.3569467,22.4416054 15.6450765,22.5 16.2721707,22.5 L17.617933,22.5 C18.3552673,22.5 18.6347986,22.44602 18.9228645,22.2919607 C19.1616561,22.1642535 19.3460717,21.979838 19.4737789,21.7410463 C19.6278382,21.4529804 19.6818182,21.1734491 19.6818182,20.4361148 L19.6818182,12.7414223 L12,5.58798313 L4.31818182,12.7414223 Z" id="Rectangle-11" stroke="#7692FF"></path>
                    <path d="M18.8605498,8.09753339 L22.0139185,10.9405119 C22.3246071,11.2206191 22.5001583,11.6047986 22.5001583,12.0101124 C22.5001583,12.4573925 22.3258239,12.8364436 21.9876311,13.1018429 C21.3187049,13.6267879 20.3919853,13.6324336 19.7778536,13.0796961 L11.9999996,6.06695697 L4.22165001,13.0801425 C3.59961605,13.6399918 2.60845012,13.6398648 1.98560414,13.0792829 C1.33806643,12.4944853 1.33814374,11.5256697 1.98608067,10.9405119 L10.8824533,2.91982119 C11.504452,2.36000363 12.4956178,2.36006712 13.1180227,2.92025074 L14.471046,4.14009425 C14.6023864,3.93104613 14.7830528,3.76269671 15.0030504,3.64504071 C15.2705908,3.50195854 15.5273247,3.45238095 16.0092153,3.45238095 L17.0816938,3.45238095 C17.5635844,3.45238095 17.8203183,3.50195854 18.0878586,3.64504071 C18.3379558,3.77879415 18.5372232,3.97806147 18.6709766,4.22815867 C18.8140588,4.49569906 18.8636364,4.75243289 18.8636364,5.23432355 L18.8636364,8.00087582 C18.8636364,8.0332204 18.8626052,8.06545399 18.8605544,8.09753757 Z" id="Combined-Shape" stroke="#7692FF" fill="#FFFFFF"></path>
                    <rect id="Rectangle" fill-opacity="0.25" fill="#7692FF" transform="translate(15.820855, 7.209834) rotate(-48.000000) translate(-15.820855, -7.209834) " x="15.320855" y="5.20983363" width="1" height="4" rx="0.5"></rect>
                    <path d="M5.5,21 L5.5,14 C5.5,13.7238576 5.72385763,13.5 6,13.5 C6.27614237,13.5 6.5,13.7238576 6.5,14 L6.5,20.5 L8,20.5 C8.27614237,20.5 8.5,20.7238576 8.5,21 C8.5,21.2761424 8.27614237,21.5 8,21.5 L6,21.5 C5.72385763,21.5 5.5,21.2761424 5.5,21 Z" id="Combined-Shape" fill-opacity="0.25" fill="#7692FF"></path>
                    <rect id="Rectangle-Copy-12" fill-opacity="0.25" fill="#7692FF" transform="translate(17.000000, 21.000000) rotate(90.000000) translate(-17.000000, -21.000000) " x="16.5" y="19.5" width="1" height="3" rx="0.5"></rect>
                </g>
            </g>
        </g>
    </g>
</svg>