<?xml version="1.0" encoding="UTF-8"?>
<svg width="24px" height="24px" viewBox="0 0 24 24" version="1.1" xmlns="http://www.w3.org/2000/svg" xmlns:xlink="http://www.w3.org/1999/xlink">
    <!-- Generator: Sketch 52.6 (67491) - http://www.bohemiancoding.com/sketch -->
    <title>Group 4</title>
    <desc>Created with Sketch.</desc>
    <defs>
        <path d="M12.2222222,23.1111111 C17.1983168,23.1111111 21.439787,19.9658101 23.0669971,15.5548439 C23.5267218,14.3086433 23.7777778,12.9614181 23.7777778,11.5555556 C23.7777778,5.17359845 18.6041793,0 12.2222222,0 C7.47883078,0 3.40296203,2.85800435 1.62269208,6.94593694 C1.00771243,8.35807972 0.666666667,9.91698989 0.666666667,11.5555556 C0.666666667,17.9375127 5.84026511,23.1111111 12.2222222,23.1111111 Z" id="path-1"></path>
    </defs>
    <g id="Web-V2" stroke="none" stroke-width="1" fill="none" fill-rule="evenodd">
        <g id="Desktop-HD-Copy" transform="translate(-35.000000, -118.000000)">
            <g id="Group-3" transform="translate(33.000000, 114.000000)">
                <g id="Group-2-Copy" transform="translate(2.000000, 0.000000)">
                    <g id="Group-4" transform="translate(0.000000, 4.000000)">
                        <mask id="mask-2" fill="white">
                            <use xlink:href="#path-1"></use>
                        </mask>
                        <path stroke="#7692FF" d="M12.2222222,22.6111111 C16.8909736,22.6111111 21.0084781,19.690321 22.5978986,15.381793 C23.0457401,14.1678046 23.2777778,12.8779887 23.2777778,11.5555556 C23.2777778,5.44974082 18.328037,0.5 12.2222222,0.5 C7.78068387,0.5 3.82412054,3.1431932 2.08110779,7.14557421 C1.48061906,8.5244423 1.16666667,10.0175172 1.16666667,11.5555556 C1.16666667,17.6613703 6.11640749,22.6111111 12.2222222,22.6111111 Z"></path>
                        <path d="M3.07438017,9.68219815 L3.07438017,9.68219815 C3.37180734,9.73631914 3.57343534,10.0156298 3.53116452,10.314971 C3.47348994,10.7231939 3.43773857,11.0398227 3.42388268,11.2648534 C3.29591256,13.3431903 3.83301623,15.0341849 5.3315924,16.8694955 C8.28517233,20.4867537 12.1172325,21.2966825 16.5545303,19.0298206 C16.7595572,18.9250795 17.0406245,18.7681339 17.3977322,18.5589839 L17.3977474,18.5590099 C17.6585576,18.4062592 17.9935239,18.4880448 18.1545926,18.7438017 L18.1545926,18.7438017 C18.3109592,18.9920921 18.2364402,19.3201314 17.9881498,19.476498 C17.9833675,19.4795097 17.9785374,19.482445 17.9736614,19.4853027 C17.5847532,19.7132105 17.279065,19.8839427 17.0565884,19.9974853 C12.1627294,22.4951038 7.77502035,21.5868124 4.48658942,17.5594612 C2.72777728,15.4054387 2.14090385,13.3710932 2.35793565,10.8950971 C2.37436476,10.7076663 2.40634811,10.451845 2.45388569,10.127633 L2.45387242,10.127631 C2.49642159,9.83744063 2.76616029,9.63668774 3.05635069,9.6792369 C3.06237705,9.68012052 3.06838777,9.68110775 3.07438017,9.68219815 Z" id="Path-5" fill-opacity="0.25" fill="#7692FF" fill-rule="nonzero" mask="url(#mask-2)"></path>
                        <path d="M7.5325715,6.14432449 L7.5325715,15.9119435 C7.5325715,16.7403707 8.20414438,17.4119435 9.0325715,17.4119435 L16.5716191,17.4119435 C17.4000462,17.4119435 18.0716191,16.7403707 18.0716191,15.9119435 L18.0716191,6.14432449 C18.0716191,5.31589736 17.4000462,4.64432449 16.5716191,4.64432449 L9.0325715,4.64432449 C8.20414438,4.64432449 7.5325715,5.31589736 7.5325715,6.14432449 Z" id="Path" stroke="#7692FF" fill-rule="nonzero" mask="url(#mask-2)" transform="translate(12.802095, 11.028134) rotate(-30.000000) translate(-12.802095, -11.028134) "></path>
                        <path d="M12.3961049,15.8130262 L17.5922574,12.8130262 C17.6890309,12.757154 17.7854541,12.7284554 17.8772159,12.7257754 C17.9689777,12.7230954 18.0560781,12.7464339 18.1342062,12.7946358 C18.2123343,12.8428376 18.2814899,12.9159029 18.3373621,13.0126764 C18.3932343,13.1094499 18.4219329,13.2058731 18.4246129,13.2976349 C18.4272929,13.3893968 18.4039544,13.4764972 18.3557526,13.5546253 C18.3075507,13.6327533 18.2344854,13.701909 18.1377119,13.7577812 L12.469182,17.0305085 C12.3724085,17.0863807 12.2759853,17.1150792 12.1842235,17.1177593 C12.1383426,17.1190993 12.093627,17.1139346 12.0506156,17.1024098 C12.0076043,17.0908849 11.9662972,17.0729998 11.9272331,17.0488989 C11.8491051,17.000697 11.7799494,16.9276318 11.7240772,16.8308582 L7.36044086,9.27281835 C7.30456864,9.17604484 7.27587009,9.07962165 7.27319006,8.98785983 C7.27051004,8.89609801 7.29384853,8.80899756 7.34205042,8.7308695 C7.3902523,8.65274145 7.46331756,8.5835858 7.56009108,8.52771358 C7.65686459,8.47184137 7.75328778,8.44314282 7.8450496,8.44046279 C7.93681142,8.43778276 8.02391187,8.46112126 8.10203992,8.50932314 C8.18016798,8.55752502 8.24932363,8.63059029 8.30519584,8.7273638 L12.3961049,15.8130262 Z" id="Combined-Shape" fill-opacity="0.25" fill="#7692FF" fill-rule="nonzero" mask="url(#mask-2)"></path>
                    </g>
                </g>
            </g>
        </g>
    </g>
</svg>