<?xml version="1.0" encoding="UTF-8"?>
<svg width="20px" height="20px" viewBox="0 0 20 20" version="1.1" xmlns="http://www.w3.org/2000/svg" xmlns:xlink="http://www.w3.org/1999/xlink">
    <!-- Generator: Sketch 52.6 (67491) - http://www.bohemiancoding.com/sketch -->
    <title>Group 21</title>
    <desc>Created with Sketch.</desc>
    <g id="Web-V2" stroke="none" stroke-width="1" fill="none" fill-rule="evenodd">
        <g id="Desktop-HD-Copy" transform="translate(-37.000000, -169.000000)" fill-rule="nonzero">
            <g id="Group-3" transform="translate(33.000000, 114.000000)">
                <g id="Group-2-Copy" transform="translate(2.000000, 50.000000)">
                    <g id="Group-21" transform="translate(0.000000, 3.000000)">
                        <rect id="Rectangle" x="0" y="0" width="24" height="24"></rect>
                        <path d="M5,9.5 C3.61928813,9.5 2.5,10.6192881 2.5,12 C2.5,13.3807119 3.61928813,14.5 5,14.5 C6.38071187,14.5 7.5,13.3807119 7.5,12 C7.5,10.6192881 6.38071187,9.5 5,9.5 Z" id="Rectangle-4-Copy-3" stroke="#7692FF"></path>
                        <path d="M5,10.5 C4.17157288,10.5 3.5,11.1715729 3.5,12 C3.5,12.8284271 4.17157288,13.5 5,13.5 C5.82842712,13.5 6.5,12.8284271 6.5,12 C6.5,11.1715729 5.82842712,10.5 5,10.5 Z" id="Rectangle-4-Copy-3" stroke-opacity="0.25" stroke="#7692FF"></path>
                        <path d="M12,3.5 C11.1715729,3.5 10.5,4.17157288 10.5,5 C10.5,5.82842712 11.1715729,6.5 12,6.5 C12.8284271,6.5 13.5,5.82842712 13.5,5 C13.5,4.17157288 12.8284271,3.5 12,3.5 Z" id="Rectangle-4-Copy-9" stroke-opacity="0.25" stroke="#7692FF"></path>
                        <path d="M5,2.5 C3.61928813,2.5 2.5,3.61928813 2.5,5 C2.5,6.38071187 3.61928813,7.5 5,7.5 C6.38071187,7.5 7.5,6.38071187 7.5,5 C7.5,3.61928813 6.38071187,2.5 5,2.5 Z" id="Rectangle-4-Copy-6" stroke="#7692FF"></path>
                        <path d="M12,9.5 C10.6192881,9.5 9.5,10.6192881 9.5,12 C9.5,13.3807119 10.6192881,14.5 12,14.5 C13.3807119,14.5 14.5,13.3807119 14.5,12 C14.5,10.6192881 13.3807119,9.5 12,9.5 Z" id="Rectangle-4-Copy-4" stroke="#7692FF"></path>
                        <path d="M12,2.5 C10.6192881,2.5 9.5,3.61928813 9.5,5 C9.5,6.38071187 10.6192881,7.5 12,7.5 C13.3807119,7.5 14.5,6.38071187 14.5,5 C14.5,3.61928813 13.3807119,2.5 12,2.5 Z" id="Rectangle-4-Copy-7" stroke="#7692FF"></path>
                        <path d="M19,9.5 C17.6192881,9.5 16.5,10.6192881 16.5,12 C16.5,13.3807119 17.6192881,14.5 19,14.5 C20.3807119,14.5 21.5,13.3807119 21.5,12 C21.5,10.6192881 20.3807119,9.5 19,9.5 Z" id="Rectangle-4-Copy-5" stroke="#7692FF"></path>
                        <path d="M19,2.5 C17.6192881,2.5 16.5,3.61928813 16.5,5 C16.5,6.38071187 17.6192881,7.5 19,7.5 C20.3807119,7.5 21.5,6.38071187 21.5,5 C21.5,3.61928813 20.3807119,2.5 19,2.5 Z" id="Rectangle-4-Copy-8" stroke="#7692FF"></path>
                        <path d="M5,16.5 C4.54972106,16.5 4.11798844,16.6187563 3.73856729,16.841016 C3.36801047,17.0580832 3.05808321,17.3680105 2.84101605,17.7385673 C2.61875628,18.1179884 2.5,18.5497211 2.5,19 C2.5,19.4502789 2.61875628,19.8820116 2.84101605,20.2614327 C3.05808321,20.6319895 3.36801047,20.9419168 3.73856729,21.158984 C4.11798844,21.3812437 4.54972106,21.5 5,21.5 C5.45027894,21.5 5.88201156,21.3812437 6.26143271,21.158984 C6.63198953,20.9419168 6.94191679,20.6319895 7.15898395,20.2614327 C7.38124372,19.8820116 7.5,19.4502789 7.5,19 C7.5,18.5497211 7.38124372,18.1179884 7.15898395,17.7385673 C6.94191679,17.3680105 6.63198953,17.0580832 6.26143271,16.841016 C5.88201156,16.6187563 5.45027894,16.5 5,16.5 Z" id="Rectangle-4" stroke="#7692FF"></path>
                        <path d="M19,17.5 C18.1715729,17.5 17.5,18.1715729 17.5,19 C17.5,19.8284271 18.1715729,20.5 19,20.5 C19.8284271,20.5 20.5,19.8284271 20.5,19 C20.5,18.1715729 19.8284271,17.5 19,17.5 Z" id="Rectangle-4-Copy-10" stroke-opacity="0.25" stroke="#7692FF"></path>
                        <path d="M12,16.5 C11.5497211,16.5 11.1179884,16.6187563 10.7385673,16.841016 C10.3680105,17.0580832 10.0580832,17.3680105 9.84101605,17.7385673 C9.61875628,18.1179884 9.5,18.5497211 9.5,19 C9.5,19.4502789 9.61875628,19.8820116 9.84101605,20.2614327 C10.0580832,20.6319895 10.3680105,20.9419168 10.7385673,21.158984 C11.1179884,21.3812437 11.5497211,21.5 12,21.5 C12.4502789,21.5 12.8820116,21.3812437 13.2614327,21.158984 C13.6319895,20.9419168 13.9419168,20.6319895 14.158984,20.2614327 C14.3812437,19.8820116 14.5,19.4502789 14.5,19 C14.5,18.5497211 14.3812437,18.1179884 14.158984,17.7385673 C13.9419168,17.3680105 13.6319895,17.0580832 13.2614327,16.841016 C12.8820116,16.6187563 12.4502789,16.5 12,16.5 Z" id="Rectangle-4-Copy" stroke="#7692FF"></path>
                        <path d="M19,16.5 C18.5497211,16.5 18.1179884,16.6187563 17.7385673,16.841016 C17.3680105,17.0580832 17.0580832,17.3680105 16.841016,17.7385673 C16.6187563,18.1179884 16.5,18.5497211 16.5,19 C16.5,19.4502789 16.6187563,19.8820116 16.841016,20.2614327 C17.0580832,20.6319895 17.3680105,20.9419168 17.7385673,21.158984 C18.1179884,21.3812437 18.5497211,21.5 19,21.5 C19.4502789,21.5 19.8820116,21.3812437 20.2614327,21.158984 C20.6319895,20.9419168 20.9419168,20.6319895 21.158984,20.2614327 C21.3812437,19.8820116 21.5,19.4502789 21.5,19 C21.5,18.5497211 21.3812437,18.1179884 21.158984,17.7385673 C20.9419168,17.3680105 20.6319895,17.0580832 20.2614327,16.841016 C19.8820116,16.6187563 19.4502789,16.5 19,16.5 Z" id="Rectangle-4-Copy-2" stroke="#7692FF"></path>
                    </g>
                </g>
            </g>
        </g>
    </g>
</svg>