<svg width="24px" height="22px" viewBox="0 0 24 22">
    <g id="Web-V2" stroke="none" stroke-width="1" fill-rule="evenodd">
        <g id="Desktop-HD-Copy" transform="translate(-35.000000, -218.000000)">
            <g id="Group-3" transform="translate(33.000000, 114.000000)">
                <g id="Group-2-Copy" transform="translate(2.000000, 100.000000)">
                    <g id="Group" transform="translate(0.000000, 3.000000)">
                        <g id="Group-4">
                            <path d="M18.1368497,2.89281123 C17.9581947,2.5982986 17.6181275,2.42 17.2265643,2.42 L6.77001228,2.42 C6.38182673,2.42 6.03844972,2.60115457 5.86007609,2.89223083 L0.630627395,11.5790923 C0.453556641,11.8774384 0.456518793,12.2395319 0.640027767,12.5425444 L5.95391943,21.3618033 L5.95391943,21.3939017 C6.10671878,21.6198838 6.43666826,21.7897854 6.77001228,21.7897854 L17.2265643,21.7897854 C17.5886321,21.7897854 17.9433061,21.5832438 18.1361522,21.2648241 L23.3659492,12.550728 C23.5446836,12.2495789 23.5446836,11.8855724 23.3674833,11.5869904 L18.1368497,2.89281123 Z" id="Path" stroke="#7692FF" fill-rule="nonzero"></path>
                            <path d="M12.0010649,16.2988461 C14.4559748,16.2988461 16.4489076,14.3856306 16.4489076,12.0489171 C16.4489076,9.71220361 14.4559748,7.79898809 12.0010649,7.79898809 C9.54615497,7.79898809 7.55322214,9.71220361 7.55322214,12.0489171 C7.55322214,14.3856306 9.54615497,16.2988461 12.0010649,16.2988461 Z" id="Path" stroke="#7692FF" fill-rule="nonzero"></path>
                            <path d="M7.51930215,19.6293265 L16.4245708,19.6293265 C16.6896675,19.6293265 16.9045708,19.8442298 16.9045708,20.1093265 C16.9045708,20.3744231 16.6896675,20.5893265 16.4245708,20.5893265 L7.38457079,20.5893265 C7.35214387,20.5893265 7.32046796,20.586111 7.28984453,20.5799815 C7.09729512,20.6063684 6.89930268,20.5184107 6.79333148,20.3422051 L2.2722238,12.8246484 C2.13620181,12.5984753 2.20928374,12.3048582 2.43545685,12.1688362 C2.44028225,12.1659341 2.44515855,12.1631176 2.45008349,12.160388 L2.460968,12.1543551 C2.69647796,12.0238223 2.9930611,12.1032342 3.1318355,12.3339839 L7.51930215,19.6293265 Z" id="Combined-Shape" fill-opacity="0.25" fill="#7692FF" fill-rule="nonzero"></path>
                            <path d="M12,15.36 C10.0712682,15.36 8.5,13.8515825 8.5,12 C8.5,10.1484175 10.0712682,8.64 12,8.64 C13.9287318,8.64 15.5,10.1484175 15.5,12 C15.5,13.8515825 13.9287318,15.36 12,15.36 Z" id="Path" stroke-opacity="0.25" stroke="#7692FF"></path>
                        </g>
                    </g>
                </g>
            </g>
        </g>
    </g>
</svg>
