<?xml version="1.0" encoding="UTF-8"?>
<svg width="22px" height="20px" viewBox="0 0 22 20" version="1.1" xmlns="http://www.w3.org/2000/svg" xmlns:xlink="http://www.w3.org/1999/xlink">
    <!-- Generator: Sketch 52.6 (67491) - http://www.bohemiancoding.com/sketch -->
    <title>Group</title>
    <desc>Created with Sketch.</desc>
    <g id="Web-V2" stroke="none" stroke-width="1" fill="none" fill-rule="evenodd">
        <g id="Desktop-HD-Copy" transform="translate(-36.000000, -269.000000)" fill-rule="nonzero">
            <g id="Group-3" transform="translate(35.000000, 114.000000)">
                <g id="Group-2-Copy-2" transform="translate(0.000000, 150.000000)">
                    <g id="Group" transform="translate(0.000000, 3.000000)">
                        <g id="Group-4">
                            <g id="Group-22">
                                <path d="M8.55522225,14.0528451 L8.55522225,14.0528451 C9.16822378,14.0528451 9.66515971,14.549781 9.66515971,15.1627826 L9.66515971,21.0469721 C9.66515971,21.6599736 9.16822378,22.1569096 8.55522225,22.1569096 L8.55522225,22.1569096 C7.94222072,22.1569096 7.44528479,21.6599736 7.44528479,21.0469721 L7.44528479,15.1627826 C7.44528479,14.549781 7.94222072,14.0528451 8.55522225,14.0528451 Z" id="Rectangle-10" fill-opacity="0.25" fill="#7692FF" transform="translate(8.555222, 18.104877) scale(-1, 1) rotate(15.000000) translate(-8.555222, -18.104877) "></path>
                                <rect id="Rectangle-Copy-5" x="0" y="0" width="24" height="24"></rect>
                                <path d="M19.6697229,17.1857218 L19.7541204,17.1886418 C20.0312056,17.2218086 20.2886451,17.1949036 20.5264946,17.1083334 C22.2444051,16.4830651 22.666898,12.8119549 21.2453513,8.9062876 C19.8238047,5.00062034 17.1404122,2.45995988 15.4225017,3.08522816 C15.1544176,3.18280282 14.9156013,3.35466083 14.6395592,3.66718922 L2.44095831,13.5208102 C1.81922941,14.023022 1.47509164,14.7922237 1.51500836,15.5904531 C1.58396686,16.9694419 2.75776005,18.0314312 4.13674881,17.9624727 L19.6697229,17.1857218 Z" id="Combined-Shape" stroke="#7692FF" fill="#FFFFFF"></path>
                                <ellipse id="Oval-2" stroke="#7692FF" transform="translate(17.974498, 10.096781) rotate(-20.000000) translate(-17.974498, -10.096781) " cx="17.9744982" cy="10.0967808" rx="3.48076923" ry="7.46153846"></ellipse>
                                <path d="M7.69340282,6.20930038 L7.69340282,6.20930038 C7.96954519,6.20930038 8.19340282,6.43315801 8.19340282,6.70930038 L8.19340282,16.7093004 C8.19340282,16.9854428 7.96954519,17.2093004 7.69340282,17.2093004 L7.69340282,17.2093004 C7.41726044,17.2093004 7.19340282,16.9854428 7.19340282,16.7093004 L7.19340282,6.70930038 C7.19340282,6.43315801 7.41726044,6.20930038 7.69340282,6.20930038 Z" id="Rectangle" fill-opacity="0.25" fill="#7692FF" transform="translate(7.693403, 11.709300) rotate(53.000000) translate(-7.693403, -11.709300) "></path>
                            </g>
                        </g>
                    </g>
                </g>
            </g>
        </g>
    </g>
</svg>