<?xml version="1.0" encoding="UTF-8"?>
<svg width="208px" height="166px" viewBox="0 0 208 166" version="1.1" xmlns="http://www.w3.org/2000/svg" xmlns:xlink="http://www.w3.org/1999/xlink">
    <!-- Generator: Sketch 52.4 (67378) - http://www.bohemiancoding.com/sketch -->
    <title>Group 4</title>
    <desc>Created with Sketch.</desc>
    <g id="Pitch-Deck" stroke="none" stroke-width="1" fill="none" fill-rule="evenodd">
        <g id="Apple-TV-Copy-10" transform="translate(-865.000000, -373.000000)">
            <g id="Group-4" transform="translate(861.000000, 373.000000)">
                <g id="logo" transform="translate(0.000000, 17.000000)">
                    <path d="M157.476792,4.06542385 C167.165999,4.06542385 175.020652,11.9200774 175.020652,21.6092835 L175.020652,133.889985 C175.020652,143.579191 167.165999,151.433845 157.476792,151.433845 C147.787586,151.433845 139.932933,143.579191 139.932933,133.889985 L139.932933,21.6092835 C139.932933,11.9200774 147.787586,4.06542385 157.476792,4.06542385 Z" id="Rectangle-Copy-40" fill-opacity="0.5" fill="#7692FF" transform="translate(157.476792, 77.749634) scale(-1, 1) rotate(20.000000) translate(-157.476792, -77.749634) "></path>
                    <path d="M80.2838099,4.06542385 C89.9730162,4.06542385 97.8276696,11.9200774 97.8276696,21.6092835 L97.8276696,133.889985 C97.8276696,143.579191 89.9730162,151.433845 80.2838099,151.433845 C70.594604,151.433845 62.7399503,143.579191 62.7399503,133.889985 L62.7399503,21.6092835 C62.7399503,11.9200774 70.594604,4.06542385 80.2838099,4.06542385 Z" id="Rectangle-Copy-42" fill-opacity="0.5" fill="#7692FF" transform="translate(80.283810, 77.749634) scale(-1, 1) rotate(20.000000) translate(-80.283810, -77.749634) "></path>
                    <path d="M49.122807,2.50877193 C58.812013,2.50877193 66.6666667,10.3634254 66.6666667,20.0526316 L66.6666667,132.333333 C66.6666667,142.022539 58.812013,149.877193 49.122807,149.877193 C39.4336011,149.877193 31.5789474,142.022539 31.5789474,132.333333 L31.5789474,20.0526316 C31.5789474,10.3634254 39.4336011,2.50877193 49.122807,2.50877193 Z" id="Rectangle-Copy-39" fill-opacity="0.1" fill="#021629" transform="translate(49.122807, 76.192982) rotate(20.000000) translate(-49.122807, -76.192982) "></path>
                    <path d="M126.315789,2.50877193 C136.004995,2.50877193 143.859649,10.3634254 143.859649,20.0526316 L143.859649,132.333333 C143.859649,142.022539 136.004995,149.877193 126.315789,149.877193 C116.626584,149.877193 108.77193,142.022539 108.77193,132.333333 L108.77193,20.0526316 C108.77193,10.3634254 116.626584,2.50877193 126.315789,2.50877193 Z" id="Rectangle-Copy-39" fill-opacity="0.1" fill="#021629" transform="translate(126.315789, 76.192982) rotate(20.000000) translate(-126.315789, -76.192982) "></path>
                    <path d="M118.880302,4.06542385 C128.569509,4.06542385 136.424162,11.9200774 136.424162,21.6092835 L136.424162,133.889985 C136.424162,143.579191 128.569509,151.433845 118.880302,151.433845 C109.191096,151.433845 101.336443,143.579191 101.336443,133.889985 L101.336443,21.6092835 C101.336443,11.9200774 109.191096,4.06542385 118.880302,4.06542385 Z" id="Rectangle-Copy-39" fill="#7692FF" transform="translate(118.880302, 77.749634) rotate(20.000000) translate(-118.880302, -77.749634) "></path>
                    <path d="M41.6873199,4.06542386 C51.3765262,4.06542386 59.2311795,11.9200774 59.2311795,21.6092835 L59.2311795,133.889985 C59.2311795,143.579191 51.3765262,151.433845 41.6873199,151.433845 C31.9981138,151.433845 24.1434603,143.579191 24.1434603,133.889985 L24.1434603,21.6092835 C24.1434603,11.9200774 31.9981138,4.06542386 41.6873199,4.06542386 Z" id="Rectangle" fill="#7692FF" transform="translate(41.687320, 77.749634) rotate(20.000000) translate(-41.687320, -77.749634) "></path>
                </g>
                <path d="M177,0 C196.329966,-3.55085719e-15 212,15.6700338 212,35 C212,54.3299662 196.329966,70 177,70 C157.670034,70 142,54.3299662 142,35 C142,15.6700338 157.670034,3.55085719e-15 177,0 Z M175.752542,45.5 L194.958525,26.2940165 C195.902714,25.3498281 195.902714,23.8189963 194.958525,22.8748079 C194.014337,21.9306196 192.483505,21.9306196 191.539317,22.8748079 L172.333333,42.0807915 L162.460683,32.2081413 C161.516495,31.2639529 159.985663,31.2639529 159.041475,32.2081413 C158.097286,33.1523296 158.097286,34.6831614 159.041475,35.6273498 L168.914125,45.5 L171.626227,48.2121017 C172.016751,48.602626 172.649916,48.602626 173.04044,48.2121017 L175.752542,45.5 Z" id="Combined-Shape" fill="#16E0BD" fill-rule="nonzero"></path>
            </g>
        </g>
    </g>
</svg>